<svg width="127" height="106" viewBox="0 0 127 106" fill="none" xmlns="http://www.w3.org/2000/svg">
<mask id="mask0" mask-type="alpha" maskUnits="userSpaceOnUse" x="0" y="0" width="127" height="106">
<path d="M0 0H127V106H15C6.71573 106 0 99.2843 0 91V0Z" fill="white"/>
</mask>
<g mask="url(#mask0)">
<path d="M-24.9919 128.083C-44.0558 95.212 -32.2217 52.881 0.704837 33.9565C33.6314 15.0321 70.5063 23.416 89.5701 56.2867C94.748 65.2147 102.962 77.7372 103.842 87.3657C106.201 113.187 93.7247 139.208 69.7413 152.992C36.8147 171.917 -5.92807 160.953 -24.9919 128.083Z" fill="#1D1D1D"/>
<path d="M-24.902 128.629C-43.8891 95.64 -32.6201 53.4569 0.267851 34.4101C33.913 14.9248 68.1103 27.3745 82.8933 53.0589C92.0038 68.8876 102.796 79.3623 103.177 88.3002C104.281 114.173 92.8645 140.066 69.026 153.872C36.138 172.919 -5.91504 161.617 -24.902 128.629Z" fill="#3C0603"/>
<path d="M-24.8401 128.727C-43.8867 95.9016 -32.6929 53.9899 0.162036 35.1153C33.7734 15.8061 62.1257 28.444 76.9552 54.0018C86.0942 69.7525 102.445 72.6427 103.171 88.8681C104.321 114.588 92.9505 140.308 69.1361 153.989C36.2811 172.863 -5.79345 161.553 -24.8401 128.727Z" fill="#86180F"/>
<path d="M-24.8393 128.445C-43.8738 95.3624 -32.7093 53.1364 0.0974408 34.1303C33.6595 14.6866 56.0223 28.0873 70.8422 53.8445C79.9755 69.7182 101.101 66.2649 102.996 88.3286C105.216 114.179 92.8071 140.155 69.0275 153.932C36.2208 172.938 -5.80487 161.527 -24.8393 128.445Z" fill="#E13021"/>
<path d="M-24.8487 128.984C-43.8747 95.9822 -32.6978 53.8482 0.115683 34.8755C33.6846 15.4661 54.03 33.5804 66.6041 55.3913C75.7332 71.2267 98.2506 62.1909 103.003 88.9226C105.216 114.714 92.4549 140.038 68.6703 153.79C35.8569 172.763 -5.82279 161.987 -24.8487 128.984Z" fill="#E24D47"/>
<path d="M-23.6687 127.738C-42.6891 94.8635 -32.6927 53.5704 0.124666 34.6632C35.4802 14.2936 52.1361 42.397 61.9343 56.5936C69.3729 67.3709 98.2563 61.8584 103.004 88.4888C105.213 114.183 92.4465 139.414 68.6592 153.118C35.8418 172.026 -4.64836 160.613 -23.6687 127.738Z" fill="#E56863"/>
<path d="M-23.6797 127.568C-42.6898 94.5189 -32.6806 52.9966 0.142858 33.9756C33.722 14.5166 49.6819 43.9647 57.6446 56.1057C65.6071 68.2467 98.9078 61.7151 103.006 88.0637C105.206 113.898 92.4323 139.271 68.6407 153.058C35.8172 172.079 -4.66952 160.617 -23.6797 127.568Z" fill="#F6F6F6"/>
<path d="M-25.625 129.713C-44.9903 96.1977 -33.3502 52.8869 0.039887 33.6243C33.43 14.3617 44.6171 45.4811 56.2465 59.0516C67.3825 72.0464 97.95 60.0761 104.748 88.5194C107.003 114.711 94.0195 140.425 69.8171 154.387C36.427 173.649 -6.25982 163.228 -25.625 129.713Z" fill="#141414"/>
</g>
</svg>
