<svg width="953" height="615" viewBox="0 0 953 615" fill="none" xmlns="http://www.w3.org/2000/svg">
<g clip-path="url(#clip0)">
<g filter="url(#filter0_d)">
<rect width="953" height="615" rx="15" fill="white"/>
</g>
<mask id="mask0" mask-type="alpha" maskUnits="userSpaceOnUse" x="0" y="509" width="127" height="106">
<path d="M0 509H127V615H15C6.71573 615 0 608.284 0 600V509Z" fill="white"/>
</mask>
<g mask="url(#mask0)">
<path d="M-24.9919 637.083C-44.0558 604.212 -32.2217 561.881 0.704834 542.957C33.6313 524.032 70.5063 532.416 89.5701 565.287C94.748 574.215 102.962 586.737 103.842 596.366C106.201 622.187 93.7247 648.208 69.7413 661.992C36.8147 680.917 -5.92807 669.953 -24.9919 637.083Z" fill="#1D1D1D"/>
<path d="M-24.9021 637.629C-43.8891 604.64 -32.6201 562.457 0.267853 543.41C33.913 523.925 68.1103 536.374 82.8933 562.059C92.0038 577.888 102.796 588.362 103.177 597.3C104.281 623.173 92.8645 649.066 69.026 662.872C36.138 681.919 -5.91504 670.617 -24.9021 637.629Z" fill="#3C0603"/>
<path d="M-24.8401 637.727C-43.8867 604.902 -32.6929 562.99 0.162033 544.115C33.7734 524.806 62.1258 537.444 76.9552 563.002C86.0942 578.752 102.445 581.643 103.171 597.868C104.321 623.588 92.9505 649.308 69.1361 662.989C36.2811 681.863 -5.79345 670.553 -24.8401 637.727Z" fill="#86180F"/>
<path d="M-24.8394 637.445C-43.8738 604.362 -32.7093 562.136 0.0974426 543.13C33.6595 523.687 56.0223 537.087 70.8422 562.845C79.9755 578.718 101.101 575.265 102.996 597.329C105.216 623.179 92.8071 649.155 69.0275 662.932C36.2208 681.938 -5.80486 670.527 -24.8394 637.445Z" fill="#E13021"/>
<path d="M-24.8487 637.984C-43.8747 604.982 -32.6978 562.848 0.115685 543.876C33.6846 524.466 54.03 542.58 66.6041 564.391C75.7332 580.227 98.2506 571.191 103.003 597.923C105.216 623.714 92.4549 649.038 68.6703 662.79C35.8569 681.763 -5.82278 670.987 -24.8487 637.984Z" fill="#E24D47"/>
<path d="M-23.6687 636.738C-42.6891 603.864 -32.6927 562.57 0.124664 543.663C35.4802 523.294 52.1361 551.397 61.9343 565.594C69.3729 576.371 98.2563 570.858 103.004 597.489C105.213 623.183 92.4465 648.414 68.6592 662.118C35.8418 681.026 -4.64836 669.613 -23.6687 636.738Z" fill="#E56863"/>
<path d="M-23.6797 636.568C-42.6898 603.519 -32.6806 561.997 0.14286 542.976C33.722 523.517 49.6819 552.965 57.6446 565.106C65.6071 577.247 98.9078 570.715 103.006 597.064C105.206 622.898 92.4323 648.271 68.6407 662.058C35.8172 681.079 -4.66953 669.617 -23.6797 636.568Z" fill="#F6F6F6"/>
<path d="M-25.625 638.713C-44.9903 605.198 -33.3502 561.887 0.0398865 542.624C33.43 523.362 44.6171 554.481 56.2465 568.052C67.3825 581.046 97.95 569.076 104.748 597.519C107.003 623.711 94.0195 649.425 69.8171 663.387C36.427 682.649 -6.25982 672.228 -25.625 638.713Z" fill="#141414"/>
</g>
<mask id="mask1" mask-type="alpha" maskUnits="userSpaceOnUse" x="94" y="0" width="859" height="615">
<rect x="94" width="859" height="615" rx="15" fill="white"/>
</mask>
<g mask="url(#mask1)">
<path opacity="0.2" d="M1080.3 679.912C1091.78 881.407 1116.27 1098.99 893.913 1009.29C671.556 919.587 621.156 870.263 539.033 795.418C456.91 720.574 305.196 549.251 270.132 425.657C235.069 302.064 264.236 183.398 603.022 125.164C941.807 66.9309 479.407 -226.841 749.392 -197.277C1019.38 -167.713 1285.4 142.703 1373.06 339.516C1460.71 536.329 1068.83 478.418 1080.3 679.912Z" fill="#E13021"/>
</g>
<g opacity="0.9" filter="url(#filter1_d)">
<rect x="120" y="187" width="383" height="60" rx="25" fill="#E87773"/>
</g>
<path d="M164.195 209.2V226H162.227L152.147 213.472V226H149.747V209.2H151.715L161.795 221.728V209.2H164.195ZM180.383 219.712C180.383 219.888 180.367 220.12 180.335 220.408H170.015C170.159 221.528 170.647 222.432 171.479 223.12C172.327 223.792 173.375 224.128 174.623 224.128C176.143 224.128 177.367 223.616 178.295 222.592L179.567 224.08C178.991 224.752 178.271 225.264 177.407 225.616C176.559 225.968 175.607 226.144 174.551 226.144C173.207 226.144 172.015 225.872 170.975 225.328C169.935 224.768 169.127 223.992 168.551 223C167.991 222.008 167.711 220.888 167.711 219.64C167.711 218.408 167.983 217.296 168.527 216.304C169.087 215.312 169.847 214.544 170.807 214C171.783 213.44 172.879 213.16 174.095 213.16C175.311 213.16 176.391 213.44 177.335 214C178.295 214.544 179.039 215.312 179.567 216.304C180.111 217.296 180.383 218.432 180.383 219.712ZM174.095 215.104C172.991 215.104 172.063 215.44 171.311 216.112C170.575 216.784 170.143 217.664 170.015 218.752H178.175C178.047 217.68 177.607 216.808 176.855 216.136C176.119 215.448 175.199 215.104 174.095 215.104ZM191.343 226L187.671 221.128L183.951 226H181.383L186.399 219.496L181.623 213.28H184.191L187.695 217.864L191.175 213.28H193.695L188.895 219.496L193.959 226H191.343ZM203.625 225.256C203.289 225.544 202.873 225.768 202.377 225.928C201.881 226.072 201.369 226.144 200.841 226.144C199.561 226.144 198.569 225.8 197.865 225.112C197.161 224.424 196.809 223.44 196.809 222.16V215.176H194.649V213.28H196.809V210.496H199.113V213.28H202.761V215.176H199.113V222.064C199.113 222.752 199.281 223.28 199.617 223.648C199.969 224.016 200.465 224.2 201.105 224.2C201.809 224.2 202.409 224 202.905 223.6L203.625 225.256ZM218.088 226.192C216.824 226.192 215.6 226 214.416 225.616C213.248 225.216 212.328 224.704 211.656 224.08L212.544 222.208C213.184 222.784 214 223.256 214.992 223.624C216 223.976 217.032 224.152 218.088 224.152C219.48 224.152 220.52 223.92 221.208 223.456C221.896 222.976 222.24 222.344 222.24 221.56C222.24 220.984 222.048 220.52 221.664 220.168C221.296 219.8 220.832 219.52 220.272 219.328C219.728 219.136 218.952 218.92 217.944 218.68C216.68 218.376 215.656 218.072 214.872 217.768C214.104 217.464 213.44 217 212.88 216.376C212.336 215.736 212.064 214.88 212.064 213.808C212.064 212.912 212.296 212.104 212.76 211.384C213.24 210.664 213.96 210.088 214.92 209.656C215.88 209.224 217.072 209.008 218.496 209.008C219.488 209.008 220.464 209.136 221.424 209.392C222.384 209.648 223.208 210.016 223.896 210.496L223.104 212.416C222.4 211.968 221.648 211.632 220.848 211.408C220.048 211.168 219.264 211.048 218.496 211.048C217.136 211.048 216.112 211.296 215.424 211.792C214.752 212.288 214.416 212.928 214.416 213.712C214.416 214.288 214.608 214.76 214.992 215.128C215.376 215.48 215.848 215.76 216.408 215.968C216.984 216.16 217.76 216.368 218.736 216.592C220 216.896 221.016 217.2 221.784 217.504C222.552 217.808 223.208 218.272 223.752 218.896C224.312 219.52 224.592 220.36 224.592 221.416C224.592 222.296 224.352 223.104 223.872 223.84C223.392 224.56 222.664 225.136 221.688 225.568C220.712 225.984 219.512 226.192 218.088 226.192ZM234.914 225.256C234.578 225.544 234.162 225.768 233.666 225.928C233.17 226.072 232.658 226.144 232.13 226.144C230.85 226.144 229.858 225.8 229.154 225.112C228.45 224.424 228.098 223.44 228.098 222.16V215.176H225.938V213.28H228.098V210.496H230.402V213.28H234.05V215.176H230.402V222.064C230.402 222.752 230.57 223.28 230.906 223.648C231.258 224.016 231.754 224.2 232.394 224.2C233.098 224.2 233.698 224 234.194 223.6L234.914 225.256ZM248.774 219.712C248.774 219.888 248.758 220.12 248.726 220.408H238.406C238.55 221.528 239.038 222.432 239.87 223.12C240.718 223.792 241.766 224.128 243.014 224.128C244.534 224.128 245.758 223.616 246.686 222.592L247.958 224.08C247.382 224.752 246.662 225.264 245.798 225.616C244.95 225.968 243.998 226.144 242.942 226.144C241.598 226.144 240.406 225.872 239.366 225.328C238.326 224.768 237.518 223.992 236.942 223C236.382 222.008 236.102 220.888 236.102 219.64C236.102 218.408 236.374 217.296 236.918 216.304C237.478 215.312 238.238 214.544 239.198 214C240.174 213.44 241.27 213.16 242.486 213.16C243.702 213.16 244.782 213.44 245.726 214C246.686 214.544 247.43 215.312 247.958 216.304C248.502 217.296 248.774 218.432 248.774 219.712ZM242.486 215.104C241.382 215.104 240.454 215.44 239.702 216.112C238.966 216.784 238.534 217.664 238.406 218.752H246.566C246.438 217.68 245.998 216.808 245.246 216.136C244.51 215.448 243.59 215.104 242.486 215.104ZM258.717 213.16C259.949 213.16 261.053 213.432 262.029 213.976C263.005 214.52 263.765 215.28 264.309 216.256C264.869 217.232 265.149 218.36 265.149 219.64C265.149 220.92 264.869 222.056 264.309 223.048C263.765 224.024 263.005 224.784 262.029 225.328C261.053 225.872 259.949 226.144 258.717 226.144C257.805 226.144 256.965 225.968 256.197 225.616C255.445 225.264 254.805 224.752 254.277 224.08V230.656H251.973V213.28H254.181V215.296C254.693 214.592 255.341 214.064 256.125 213.712C256.909 213.344 257.773 213.16 258.717 213.16ZM258.525 224.128C259.341 224.128 260.069 223.944 260.709 223.576C261.365 223.192 261.877 222.664 262.245 221.992C262.629 221.304 262.821 220.52 262.821 219.64C262.821 218.76 262.629 217.984 262.245 217.312C261.877 216.624 261.365 216.096 260.709 215.728C260.069 215.36 259.341 215.176 258.525 215.176C257.725 215.176 256.997 215.368 256.341 215.752C255.701 216.12 255.189 216.64 254.805 217.312C254.437 217.984 254.253 218.76 254.253 219.64C254.253 220.52 254.437 221.304 254.805 221.992C255.173 222.664 255.685 223.192 256.341 223.576C256.997 223.944 257.725 224.128 258.525 224.128ZM271.98 226.144C270.94 226.144 269.94 226.008 268.98 225.736C268.02 225.448 267.268 225.088 266.724 224.656L267.684 222.832C268.244 223.232 268.924 223.552 269.724 223.792C270.524 224.032 271.332 224.152 272.148 224.152C274.164 224.152 275.172 223.576 275.172 222.424C275.172 222.04 275.036 221.736 274.764 221.512C274.492 221.288 274.148 221.128 273.732 221.032C273.332 220.92 272.756 220.8 272.004 220.672C270.98 220.512 270.14 220.328 269.484 220.12C268.844 219.912 268.292 219.56 267.828 219.064C267.364 218.568 267.132 217.872 267.132 216.976C267.132 215.824 267.612 214.904 268.572 214.216C269.532 213.512 270.82 213.16 272.436 213.16C273.284 213.16 274.132 213.264 274.98 213.472C275.828 213.68 276.524 213.96 277.068 214.312L276.084 216.136C275.044 215.464 273.82 215.128 272.412 215.128C271.436 215.128 270.692 215.288 270.18 215.608C269.668 215.928 269.412 216.352 269.412 216.88C269.412 217.296 269.556 217.624 269.844 217.864C270.132 218.104 270.484 218.28 270.9 218.392C271.332 218.504 271.932 218.632 272.7 218.776C273.724 218.952 274.548 219.144 275.172 219.352C275.812 219.544 276.356 219.88 276.804 220.36C277.252 220.84 277.476 221.512 277.476 222.376C277.476 223.528 276.98 224.448 275.988 225.136C275.012 225.808 273.676 226.144 271.98 226.144ZM291.865 205.792H293.953L286.033 228.4H283.945L291.865 205.792ZM298.662 205.792H300.75L292.83 228.4H290.742L298.662 205.792ZM312.153 211.288H306.393V209.2H320.289V211.288H314.529V226H312.153V211.288ZM326.519 213.16C328.279 213.16 329.623 213.592 330.551 214.456C331.495 215.32 331.967 216.608 331.967 218.32V226H329.783V224.32C329.399 224.912 328.847 225.368 328.127 225.688C327.423 225.992 326.583 226.144 325.607 226.144C324.183 226.144 323.039 225.8 322.175 225.112C321.327 224.424 320.903 223.52 320.903 222.4C320.903 221.28 321.311 220.384 322.127 219.712C322.943 219.024 324.239 218.68 326.015 218.68H329.663V218.224C329.663 217.232 329.375 216.472 328.799 215.944C328.223 215.416 327.375 215.152 326.255 215.152C325.503 215.152 324.767 215.28 324.047 215.536C323.327 215.776 322.719 216.104 322.223 216.52L321.263 214.792C321.919 214.264 322.703 213.864 323.615 213.592C324.527 213.304 325.495 213.16 326.519 213.16ZM325.991 224.368C326.871 224.368 327.631 224.176 328.271 223.792C328.911 223.392 329.375 222.832 329.663 222.112V220.336H326.111C324.159 220.336 323.183 220.992 323.183 222.304C323.183 222.944 323.431 223.448 323.927 223.816C324.423 224.184 325.111 224.368 325.991 224.368ZM336.231 208.192H338.535V226H336.231V208.192ZM347.878 220.072L345.238 222.52V226H342.934V208.192H345.238V219.616L352.174 213.28H354.958L349.606 218.536L355.486 226H352.654L347.878 220.072ZM357.559 213.28H359.863V226H357.559V213.28ZM358.711 210.832C358.263 210.832 357.887 210.688 357.583 210.4C357.295 210.112 357.151 209.76 357.151 209.344C357.151 208.928 357.295 208.576 357.583 208.288C357.887 207.984 358.263 207.832 358.711 207.832C359.159 207.832 359.527 207.976 359.815 208.264C360.119 208.536 360.271 208.88 360.271 209.296C360.271 209.728 360.119 210.096 359.815 210.4C359.527 210.688 359.159 210.832 358.711 210.832ZM371.054 213.16C372.67 213.16 373.95 213.632 374.894 214.576C375.854 215.504 376.334 216.872 376.334 218.68V226H374.03V218.944C374.03 217.712 373.734 216.784 373.142 216.16C372.55 215.536 371.702 215.224 370.598 215.224C369.35 215.224 368.366 215.592 367.646 216.328C366.926 217.048 366.566 218.088 366.566 219.448V226H364.262V213.28H366.47V215.2C366.934 214.544 367.558 214.04 368.342 213.688C369.142 213.336 370.046 213.16 371.054 213.16ZM392.836 213.28V224.272C392.836 226.496 392.284 228.136 391.18 229.192C390.076 230.264 388.428 230.8 386.236 230.8C385.036 230.8 383.892 230.632 382.804 230.296C381.716 229.976 380.836 229.512 380.164 228.904L381.268 227.128C381.86 227.64 382.588 228.04 383.452 228.328C384.332 228.632 385.236 228.784 386.164 228.784C387.652 228.784 388.748 228.432 389.452 227.728C390.172 227.024 390.532 225.952 390.532 224.512V223.504C389.988 224.16 389.316 224.656 388.516 224.992C387.732 225.312 386.876 225.472 385.948 225.472C384.732 225.472 383.628 225.216 382.636 224.704C381.66 224.176 380.892 223.448 380.332 222.52C379.772 221.576 379.492 220.504 379.492 219.304C379.492 218.104 379.772 217.04 380.332 216.112C380.892 215.168 381.66 214.44 382.636 213.928C383.628 213.416 384.732 213.16 385.948 213.16C386.908 213.16 387.796 213.336 388.612 213.688C389.444 214.04 390.124 214.56 390.652 215.248V213.28H392.836ZM386.212 223.456C387.044 223.456 387.788 223.28 388.444 222.928C389.116 222.576 389.636 222.088 390.004 221.464C390.388 220.824 390.58 220.104 390.58 219.304C390.58 218.072 390.172 217.08 389.356 216.328C388.54 215.56 387.492 215.176 386.212 215.176C384.916 215.176 383.86 215.56 383.044 216.328C382.228 217.08 381.82 218.072 381.82 219.304C381.82 220.104 382.004 220.824 382.372 221.464C382.756 222.088 383.276 222.576 383.932 222.928C384.604 223.28 385.364 223.456 386.212 223.456ZM410.572 209.2C412.748 209.2 414.46 209.72 415.708 210.76C416.956 211.8 417.58 213.232 417.58 215.056C417.58 216.88 416.956 218.312 415.708 219.352C414.46 220.392 412.748 220.912 410.572 220.912H406.42V226H404.02V209.2H410.572ZM410.5 218.824C412.02 218.824 413.18 218.504 413.98 217.864C414.78 217.208 415.18 216.272 415.18 215.056C415.18 213.84 414.78 212.912 413.98 212.272C413.18 211.616 412.02 211.288 410.5 211.288H406.42V218.824H410.5ZM426.171 226.144C424.907 226.144 423.771 225.864 422.763 225.304C421.755 224.744 420.963 223.976 420.387 223C419.827 222.008 419.547 220.888 419.547 219.64C419.547 218.392 419.827 217.28 420.387 216.304C420.963 215.312 421.755 214.544 422.763 214C423.771 213.44 424.907 213.16 426.171 213.16C427.435 213.16 428.563 213.44 429.555 214C430.563 214.544 431.347 215.312 431.907 216.304C432.483 217.28 432.771 218.392 432.771 219.64C432.771 220.888 432.483 222.008 431.907 223C431.347 223.976 430.563 224.744 429.555 225.304C428.563 225.864 427.435 226.144 426.171 226.144ZM426.171 224.128C426.987 224.128 427.715 223.944 428.355 223.576C429.011 223.192 429.523 222.664 429.891 221.992C430.259 221.304 430.443 220.52 430.443 219.64C430.443 218.76 430.259 217.984 429.891 217.312C429.523 216.624 429.011 216.096 428.355 215.728C427.715 215.36 426.987 215.176 426.171 215.176C425.355 215.176 424.619 215.36 423.963 215.728C423.323 216.096 422.811 216.624 422.427 217.312C422.059 217.984 421.875 218.76 421.875 219.64C421.875 220.52 422.059 221.304 422.427 221.992C422.811 222.664 423.323 223.192 423.963 223.576C424.619 223.944 425.355 224.128 426.171 224.128ZM435.957 213.28H438.261V226H435.957V213.28ZM437.109 210.832C436.661 210.832 436.285 210.688 435.981 210.4C435.693 210.112 435.549 209.76 435.549 209.344C435.549 208.928 435.693 208.576 435.981 208.288C436.285 207.984 436.661 207.832 437.109 207.832C437.557 207.832 437.925 207.976 438.213 208.264C438.517 208.536 438.669 208.88 438.669 209.296C438.669 209.728 438.517 210.096 438.213 210.4C437.925 210.688 437.557 210.832 437.109 210.832ZM449.453 213.16C451.069 213.16 452.349 213.632 453.293 214.576C454.253 215.504 454.733 216.872 454.733 218.68V226H452.429V218.944C452.429 217.712 452.133 216.784 451.541 216.16C450.949 215.536 450.101 215.224 448.997 215.224C447.749 215.224 446.765 215.592 446.045 216.328C445.325 217.048 444.965 218.088 444.965 219.448V226H442.661V213.28H444.869V215.2C445.333 214.544 445.957 214.04 446.741 213.688C447.541 213.336 448.445 213.16 449.453 213.16ZM466.149 225.256C465.813 225.544 465.397 225.768 464.901 225.928C464.405 226.072 463.893 226.144 463.365 226.144C462.085 226.144 461.093 225.8 460.389 225.112C459.685 224.424 459.333 223.44 459.333 222.16V215.176H457.173V213.28H459.333V210.496H461.637V213.28H465.285V215.176H461.637V222.064C461.637 222.752 461.805 223.28 462.141 223.648C462.493 224.016 462.989 224.2 463.629 224.2C464.333 224.2 464.933 224 465.429 223.6L466.149 225.256ZM472.582 226.144C471.542 226.144 470.542 226.008 469.582 225.736C468.622 225.448 467.87 225.088 467.326 224.656L468.286 222.832C468.846 223.232 469.526 223.552 470.326 223.792C471.126 224.032 471.934 224.152 472.75 224.152C474.766 224.152 475.774 223.576 475.774 222.424C475.774 222.04 475.638 221.736 475.366 221.512C475.094 221.288 474.75 221.128 474.334 221.032C473.934 220.92 473.358 220.8 472.606 220.672C471.582 220.512 470.742 220.328 470.086 220.12C469.446 219.912 468.894 219.56 468.43 219.064C467.966 218.568 467.734 217.872 467.734 216.976C467.734 215.824 468.214 214.904 469.174 214.216C470.134 213.512 471.422 213.16 473.038 213.16C473.886 213.16 474.734 213.264 475.582 213.472C476.43 213.68 477.126 213.96 477.67 214.312L476.686 216.136C475.646 215.464 474.422 215.128 473.014 215.128C472.038 215.128 471.294 215.288 470.782 215.608C470.27 215.928 470.014 216.352 470.014 216.88C470.014 217.296 470.158 217.624 470.446 217.864C470.734 218.104 471.086 218.28 471.502 218.392C471.934 218.504 472.534 218.632 473.302 218.776C474.326 218.952 475.15 219.144 475.774 219.352C476.414 219.544 476.958 219.88 477.406 220.36C477.854 220.84 478.078 221.512 478.078 222.376C478.078 223.528 477.582 224.448 476.59 225.136C475.614 225.808 474.278 226.144 472.582 226.144Z" fill="white"/>
<circle cx="127.5" cy="297.5" r="7.5" fill="#86180F"/>
<circle cx="127.5" cy="381.5" r="7.5" fill="#86180F"/>
<path d="M157.024 288.2C159.168 288.2 160.848 288.712 162.064 289.736C163.28 290.76 163.888 292.168 163.888 293.96C163.888 295.752 163.28 297.16 162.064 298.184C160.848 299.192 159.168 299.696 157.024 299.696H152.512V305H150.736V288.2H157.024ZM156.976 298.136C158.64 298.136 159.912 297.776 160.792 297.056C161.672 296.32 162.112 295.288 162.112 293.96C162.112 292.6 161.672 291.56 160.792 290.84C159.912 290.104 158.64 289.736 156.976 289.736H152.512V298.136H156.976ZM168.672 294.848C169.072 294 169.664 293.36 170.448 292.928C171.248 292.496 172.232 292.28 173.4 292.28V293.936L172.992 293.912C171.664 293.912 170.624 294.32 169.872 295.136C169.12 295.952 168.744 297.096 168.744 298.568V305H167.04V292.376H168.672V294.848ZM181.528 305.12C180.312 305.12 179.216 304.848 178.24 304.304C177.264 303.744 176.496 302.976 175.936 302C175.376 301.024 175.096 299.92 175.096 298.688C175.096 297.456 175.376 296.352 175.936 295.376C176.496 294.4 177.264 293.64 178.24 293.096C179.216 292.552 180.312 292.28 181.528 292.28C182.744 292.28 183.84 292.552 184.816 293.096C185.792 293.64 186.552 294.4 187.096 295.376C187.656 296.352 187.936 297.456 187.936 298.688C187.936 299.92 187.656 301.024 187.096 302C186.552 302.976 185.792 303.744 184.816 304.304C183.84 304.848 182.744 305.12 181.528 305.12ZM181.528 303.608C182.424 303.608 183.224 303.408 183.928 303.008C184.648 302.592 185.208 302.008 185.608 301.256C186.008 300.504 186.208 299.648 186.208 298.688C186.208 297.728 186.008 296.872 185.608 296.12C185.208 295.368 184.648 294.792 183.928 294.392C183.224 293.976 182.424 293.768 181.528 293.768C180.632 293.768 179.824 293.976 179.104 294.392C178.4 294.792 177.84 295.368 177.424 296.12C177.024 296.872 176.824 297.728 176.824 298.688C176.824 299.648 177.024 300.504 177.424 301.256C177.84 302.008 178.4 302.592 179.104 303.008C179.824 303.408 180.632 303.608 181.528 303.608ZM197.919 292.28C199.103 292.28 200.175 292.552 201.135 293.096C202.095 293.624 202.847 294.376 203.391 295.352C203.935 296.328 204.207 297.44 204.207 298.688C204.207 299.952 203.935 301.072 203.391 302.048C202.847 303.024 202.095 303.784 201.135 304.328C200.191 304.856 199.119 305.12 197.919 305.12C196.895 305.12 195.967 304.912 195.135 304.496C194.319 304.064 193.647 303.44 193.119 302.624V309.656H191.415V292.376H193.047V294.872C193.559 294.04 194.231 293.4 195.063 292.952C195.911 292.504 196.863 292.28 197.919 292.28ZM197.799 303.608C198.679 303.608 199.479 303.408 200.199 303.008C200.919 302.592 201.479 302.008 201.879 301.256C202.295 300.504 202.503 299.648 202.503 298.688C202.503 297.728 202.295 296.88 201.879 296.144C201.479 295.392 200.919 294.808 200.199 294.392C199.479 293.976 198.679 293.768 197.799 293.768C196.903 293.768 196.095 293.976 195.375 294.392C194.671 294.808 194.111 295.392 193.695 296.144C193.295 296.88 193.095 297.728 193.095 298.688C193.095 299.648 193.295 300.504 193.695 301.256C194.111 302.008 194.671 302.592 195.375 303.008C196.095 303.408 196.903 303.608 197.799 303.608ZM212.841 305.12C211.625 305.12 210.529 304.848 209.553 304.304C208.577 303.744 207.809 302.976 207.249 302C206.689 301.024 206.409 299.92 206.409 298.688C206.409 297.456 206.689 296.352 207.249 295.376C207.809 294.4 208.577 293.64 209.553 293.096C210.529 292.552 211.625 292.28 212.841 292.28C214.057 292.28 215.153 292.552 216.129 293.096C217.105 293.64 217.865 294.4 218.409 295.376C218.969 296.352 219.249 297.456 219.249 298.688C219.249 299.92 218.969 301.024 218.409 302C217.865 302.976 217.105 303.744 216.129 304.304C215.153 304.848 214.057 305.12 212.841 305.12ZM212.841 303.608C213.737 303.608 214.537 303.408 215.241 303.008C215.961 302.592 216.521 302.008 216.921 301.256C217.321 300.504 217.521 299.648 217.521 298.688C217.521 297.728 217.321 296.872 216.921 296.12C216.521 295.368 215.961 294.792 215.241 294.392C214.537 293.976 213.737 293.768 212.841 293.768C211.945 293.768 211.137 293.976 210.417 294.392C209.713 294.792 209.153 295.368 208.737 296.12C208.337 296.872 208.137 297.728 208.137 298.688C208.137 299.648 208.337 300.504 208.737 301.256C209.153 302.008 209.713 302.592 210.417 303.008C211.137 303.408 211.945 303.608 212.841 303.608ZM226.112 305.12C225.088 305.12 224.104 304.976 223.16 304.688C222.232 304.384 221.504 304.008 220.976 303.56L221.744 302.216C222.272 302.632 222.936 302.976 223.736 303.248C224.536 303.504 225.368 303.632 226.232 303.632C227.384 303.632 228.232 303.456 228.776 303.104C229.336 302.736 229.616 302.224 229.616 301.568C229.616 301.104 229.464 300.744 229.16 300.488C228.856 300.216 228.472 300.016 228.008 299.888C227.544 299.744 226.928 299.608 226.16 299.48C225.136 299.288 224.312 299.096 223.688 298.904C223.064 298.696 222.528 298.352 222.08 297.872C221.648 297.392 221.432 296.728 221.432 295.88C221.432 294.824 221.872 293.96 222.752 293.288C223.632 292.616 224.856 292.28 226.424 292.28C227.24 292.28 228.056 292.392 228.872 292.616C229.688 292.824 230.36 293.104 230.888 293.456L230.144 294.824C229.104 294.104 227.864 293.744 226.424 293.744C225.336 293.744 224.512 293.936 223.952 294.32C223.408 294.704 223.136 295.208 223.136 295.832C223.136 296.312 223.288 296.696 223.592 296.984C223.912 297.272 224.304 297.488 224.768 297.632C225.232 297.76 225.872 297.896 226.688 298.04C227.696 298.232 228.504 298.424 229.112 298.616C229.72 298.808 230.24 299.136 230.672 299.6C231.104 300.064 231.32 300.704 231.32 301.52C231.32 302.624 230.856 303.504 229.928 304.16C229.016 304.8 227.744 305.12 226.112 305.12ZM245.462 299.216H234.902C234.998 300.528 235.502 301.592 236.414 302.408C237.326 303.208 238.478 303.608 239.87 303.608C240.654 303.608 241.374 303.472 242.03 303.2C242.686 302.912 243.254 302.496 243.734 301.952L244.694 303.056C244.134 303.728 243.43 304.24 242.582 304.592C241.75 304.944 240.83 305.12 239.822 305.12C238.526 305.12 237.374 304.848 236.366 304.304C235.374 303.744 234.598 302.976 234.038 302C233.478 301.024 233.198 299.92 233.198 298.688C233.198 297.456 233.462 296.352 233.99 295.376C234.534 294.4 235.27 293.64 236.198 293.096C237.142 292.552 238.198 292.28 239.366 292.28C240.534 292.28 241.582 292.552 242.51 293.096C243.438 293.64 244.166 294.4 244.694 295.376C245.222 296.336 245.486 297.44 245.486 298.688L245.462 299.216ZM239.366 293.744C238.15 293.744 237.126 294.136 236.294 294.92C235.478 295.688 235.014 296.696 234.902 297.944H243.854C243.742 296.696 243.27 295.688 242.438 294.92C241.622 294.136 240.598 293.744 239.366 293.744ZM260.474 287.192V305H258.842V302.504C258.33 303.352 257.65 304 256.802 304.448C255.97 304.896 255.026 305.12 253.97 305.12C252.786 305.12 251.714 304.848 250.754 304.304C249.794 303.76 249.042 303 248.498 302.024C247.954 301.048 247.682 299.936 247.682 298.688C247.682 297.44 247.954 296.328 248.498 295.352C249.042 294.376 249.794 293.624 250.754 293.096C251.714 292.552 252.786 292.28 253.97 292.28C254.994 292.28 255.914 292.496 256.73 292.928C257.562 293.344 258.242 293.96 258.77 294.776V287.192H260.474ZM254.114 303.608C254.994 303.608 255.786 303.408 256.49 303.008C257.21 302.592 257.77 302.008 258.17 301.256C258.586 300.504 258.794 299.648 258.794 298.688C258.794 297.728 258.586 296.872 258.17 296.12C257.77 295.368 257.21 294.792 256.49 294.392C255.786 293.976 254.994 293.768 254.114 293.768C253.218 293.768 252.41 293.976 251.69 294.392C250.986 294.792 250.426 295.368 250.01 296.12C249.61 296.872 249.41 297.728 249.41 298.688C249.41 299.648 249.61 300.504 250.01 301.256C250.426 302.008 250.986 302.592 251.69 303.008C252.41 303.408 253.218 303.608 254.114 303.608ZM278.005 292.28C279.189 292.28 280.261 292.552 281.221 293.096C282.181 293.624 282.933 294.376 283.477 295.352C284.021 296.328 284.293 297.44 284.293 298.688C284.293 299.952 284.021 301.072 283.477 302.048C282.933 303.024 282.181 303.784 281.221 304.328C280.277 304.856 279.205 305.12 278.005 305.12C276.981 305.12 276.053 304.912 275.221 304.496C274.405 304.064 273.733 303.44 273.205 302.624V309.656H271.501V292.376H273.133V294.872C273.645 294.04 274.317 293.4 275.149 292.952C275.997 292.504 276.949 292.28 278.005 292.28ZM277.885 303.608C278.765 303.608 279.565 303.408 280.285 303.008C281.005 302.592 281.565 302.008 281.965 301.256C282.381 300.504 282.589 299.648 282.589 298.688C282.589 297.728 282.381 296.88 281.965 296.144C281.565 295.392 281.005 294.808 280.285 294.392C279.565 293.976 278.765 293.768 277.885 293.768C276.989 293.768 276.181 293.976 275.461 294.392C274.757 294.808 274.197 295.392 273.781 296.144C273.381 296.88 273.181 297.728 273.181 298.688C273.181 299.648 273.381 300.504 273.781 301.256C274.197 302.008 274.757 302.592 275.461 303.008C276.181 303.408 276.989 303.608 277.885 303.608ZM289.399 294.848C289.799 294 290.391 293.36 291.175 292.928C291.975 292.496 292.959 292.28 294.127 292.28V293.936L293.719 293.912C292.391 293.912 291.351 294.32 290.599 295.136C289.847 295.952 289.471 297.096 289.471 298.568V305H287.767V292.376H289.399V294.848ZM302.255 305.12C301.039 305.12 299.943 304.848 298.967 304.304C297.991 303.744 297.223 302.976 296.663 302C296.103 301.024 295.823 299.92 295.823 298.688C295.823 297.456 296.103 296.352 296.663 295.376C297.223 294.4 297.991 293.64 298.967 293.096C299.943 292.552 301.039 292.28 302.255 292.28C303.471 292.28 304.567 292.552 305.543 293.096C306.519 293.64 307.279 294.4 307.823 295.376C308.383 296.352 308.663 297.456 308.663 298.688C308.663 299.92 308.383 301.024 307.823 302C307.279 302.976 306.519 303.744 305.543 304.304C304.567 304.848 303.471 305.12 302.255 305.12ZM302.255 303.608C303.151 303.608 303.951 303.408 304.655 303.008C305.375 302.592 305.935 302.008 306.335 301.256C306.735 300.504 306.935 299.648 306.935 298.688C306.935 297.728 306.735 296.872 306.335 296.12C305.935 295.368 305.375 294.792 304.655 294.392C303.951 293.976 303.151 293.768 302.255 293.768C301.359 293.768 300.551 293.976 299.831 294.392C299.127 294.792 298.567 295.368 298.151 296.12C297.751 296.872 297.551 297.728 297.551 298.688C297.551 299.648 297.751 300.504 298.151 301.256C298.567 302.008 299.127 302.592 299.831 303.008C300.551 303.408 301.359 303.608 302.255 303.608ZM310.27 309.776C309.742 309.776 309.246 309.704 308.782 309.56C308.302 309.432 307.91 309.232 307.606 308.96L308.206 307.664C308.702 308.096 309.358 308.312 310.174 308.312C310.846 308.312 311.358 308.112 311.71 307.712C312.078 307.312 312.262 306.72 312.262 305.936V292.376H313.966V305.936C313.966 307.12 313.646 308.056 313.006 308.744C312.366 309.432 311.454 309.776 310.27 309.776ZM313.126 289.592C312.774 289.592 312.478 289.472 312.238 289.232C311.998 288.992 311.878 288.704 311.878 288.368C311.878 288.048 311.998 287.768 312.238 287.528C312.478 287.288 312.774 287.168 313.126 287.168C313.478 287.168 313.774 287.288 314.014 287.528C314.254 287.752 314.374 288.024 314.374 288.344C314.374 288.696 314.254 288.992 314.014 289.232C313.774 289.472 313.478 289.592 313.126 289.592ZM329.72 299.216H319.16C319.256 300.528 319.76 301.592 320.672 302.408C321.584 303.208 322.736 303.608 324.128 303.608C324.912 303.608 325.632 303.472 326.288 303.2C326.944 302.912 327.512 302.496 327.992 301.952L328.952 303.056C328.392 303.728 327.688 304.24 326.84 304.592C326.008 304.944 325.088 305.12 324.08 305.12C322.784 305.12 321.632 304.848 320.624 304.304C319.632 303.744 318.856 302.976 318.296 302C317.736 301.024 317.456 299.92 317.456 298.688C317.456 297.456 317.72 296.352 318.248 295.376C318.792 294.4 319.528 293.64 320.456 293.096C321.4 292.552 322.456 292.28 323.624 292.28C324.792 292.28 325.84 292.552 326.768 293.096C327.696 293.64 328.424 294.4 328.952 295.376C329.48 296.336 329.744 297.44 329.744 298.688L329.72 299.216ZM323.624 293.744C322.408 293.744 321.384 294.136 320.552 294.92C319.736 295.688 319.272 296.696 319.16 297.944H328.112C328 296.696 327.528 295.688 326.696 294.92C325.88 294.136 324.856 293.744 323.624 293.744ZM338.444 305.12C337.196 305.12 336.076 304.848 335.084 304.304C334.108 303.76 333.34 303 332.78 302.024C332.22 301.032 331.94 299.92 331.94 298.688C331.94 297.456 332.22 296.352 332.78 295.376C333.34 294.4 334.108 293.64 335.084 293.096C336.076 292.552 337.196 292.28 338.444 292.28C339.532 292.28 340.5 292.496 341.348 292.928C342.212 293.344 342.892 293.96 343.388 294.776L342.116 295.64C341.7 295.016 341.172 294.552 340.532 294.248C339.892 293.928 339.196 293.768 338.444 293.768C337.532 293.768 336.708 293.976 335.972 294.392C335.252 294.792 334.684 295.368 334.268 296.12C333.868 296.872 333.668 297.728 333.668 298.688C333.668 299.664 333.868 300.528 334.268 301.28C334.684 302.016 335.252 302.592 335.972 303.008C336.708 303.408 337.532 303.608 338.444 303.608C339.196 303.608 339.892 303.456 340.532 303.152C341.172 302.848 341.7 302.384 342.116 301.76L343.388 302.624C342.892 303.44 342.212 304.064 341.348 304.496C340.484 304.912 339.516 305.12 338.444 305.12ZM353.524 304.232C353.204 304.52 352.804 304.744 352.324 304.904C351.86 305.048 351.372 305.12 350.86 305.12C349.676 305.12 348.764 304.8 348.124 304.16C347.484 303.52 347.164 302.616 347.164 301.448V293.816H344.908V292.376H347.164V289.616H348.868V292.376H352.708V293.816H348.868V301.352C348.868 302.104 349.052 302.68 349.42 303.08C349.804 303.464 350.348 303.656 351.052 303.656C351.404 303.656 351.74 303.6 352.06 303.488C352.396 303.376 352.684 303.216 352.924 303.008L353.524 304.232ZM369.555 304.232C369.235 304.52 368.835 304.744 368.355 304.904C367.891 305.048 367.403 305.12 366.891 305.12C365.707 305.12 364.795 304.8 364.155 304.16C363.515 303.52 363.195 302.616 363.195 301.448V293.816H360.939V292.376H363.195V289.616H364.899V292.376H368.739V293.816H364.899V301.352C364.899 302.104 365.083 302.68 365.451 303.08C365.835 303.464 366.379 303.656 367.083 303.656C367.435 303.656 367.771 303.6 368.091 303.488C368.427 303.376 368.715 303.216 368.955 303.008L369.555 304.232ZM372.657 292.376H374.361V305H372.657V292.376ZM373.521 289.616C373.169 289.616 372.873 289.496 372.633 289.256C372.393 289.016 372.273 288.728 372.273 288.392C372.273 288.072 372.393 287.792 372.633 287.552C372.873 287.312 373.169 287.192 373.521 287.192C373.873 287.192 374.169 287.312 374.409 287.552C374.649 287.776 374.769 288.048 374.769 288.368C374.769 288.72 374.649 289.016 374.409 289.256C374.169 289.496 373.873 289.616 373.521 289.616ZM394.847 292.28C396.431 292.28 397.671 292.736 398.567 293.648C399.479 294.56 399.935 295.904 399.935 297.68V305H398.231V297.848C398.231 296.536 397.911 295.536 397.271 294.848C396.647 294.16 395.759 293.816 394.607 293.816C393.295 293.816 392.263 294.224 391.511 295.04C390.759 295.84 390.383 296.952 390.383 298.376V305H388.679V297.848C388.679 296.536 388.359 295.536 387.719 294.848C387.095 294.16 386.199 293.816 385.031 293.816C383.735 293.816 382.703 294.224 381.935 295.04C381.183 295.84 380.807 296.952 380.807 298.376V305H379.103V292.376H380.735V294.68C381.183 293.912 381.807 293.32 382.607 292.904C383.407 292.488 384.327 292.28 385.367 292.28C386.423 292.28 387.335 292.504 388.103 292.952C388.887 293.4 389.471 294.064 389.855 294.944C390.319 294.112 390.983 293.464 391.847 293C392.727 292.52 393.727 292.28 394.847 292.28ZM415.595 299.216H405.035C405.131 300.528 405.635 301.592 406.547 302.408C407.459 303.208 408.611 303.608 410.003 303.608C410.787 303.608 411.507 303.472 412.163 303.2C412.819 302.912 413.387 302.496 413.867 301.952L414.827 303.056C414.267 303.728 413.563 304.24 412.715 304.592C411.883 304.944 410.963 305.12 409.955 305.12C408.659 305.12 407.507 304.848 406.499 304.304C405.507 303.744 404.731 302.976 404.171 302C403.611 301.024 403.331 299.92 403.331 298.688C403.331 297.456 403.595 296.352 404.123 295.376C404.667 294.4 405.403 293.64 406.331 293.096C407.275 292.552 408.331 292.28 409.499 292.28C410.667 292.28 411.715 292.552 412.643 293.096C413.571 293.64 414.299 294.4 414.827 295.376C415.355 296.336 415.619 297.44 415.619 298.688L415.595 299.216ZM409.499 293.744C408.283 293.744 407.259 294.136 406.427 294.92C405.611 295.688 405.147 296.696 405.035 297.944H413.987C413.875 296.696 413.403 295.688 412.571 294.92C411.755 294.136 410.731 293.744 409.499 293.744ZM419.087 287.192H420.791V305H419.087V287.192ZM425.532 292.376H427.236V305H425.532V292.376ZM426.396 289.616C426.044 289.616 425.748 289.496 425.508 289.256C425.268 289.016 425.148 288.728 425.148 288.392C425.148 288.072 425.268 287.792 425.508 287.552C425.748 287.312 426.044 287.192 426.396 287.192C426.748 287.192 427.044 287.312 427.284 287.552C427.524 287.776 427.644 288.048 427.644 288.368C427.644 288.72 427.524 289.016 427.284 289.256C427.044 289.496 426.748 289.616 426.396 289.616ZM438.41 292.28C439.994 292.28 441.25 292.744 442.178 293.672C443.122 294.584 443.594 295.92 443.594 297.68V305H441.89V297.848C441.89 296.536 441.562 295.536 440.906 294.848C440.25 294.16 439.314 293.816 438.098 293.816C436.738 293.816 435.658 294.224 434.858 295.04C434.074 295.84 433.682 296.952 433.682 298.376V305H431.978V292.376H433.61V294.704C434.074 293.936 434.714 293.344 435.53 292.928C436.362 292.496 437.322 292.28 438.41 292.28ZM459.259 299.216H448.699C448.795 300.528 449.299 301.592 450.211 302.408C451.123 303.208 452.275 303.608 453.667 303.608C454.451 303.608 455.171 303.472 455.827 303.2C456.483 302.912 457.051 302.496 457.531 301.952L458.491 303.056C457.931 303.728 457.227 304.24 456.379 304.592C455.547 304.944 454.627 305.12 453.619 305.12C452.323 305.12 451.171 304.848 450.163 304.304C449.171 303.744 448.395 302.976 447.835 302C447.275 301.024 446.995 299.92 446.995 298.688C446.995 297.456 447.259 296.352 447.787 295.376C448.331 294.4 449.067 293.64 449.995 293.096C450.939 292.552 451.995 292.28 453.163 292.28C454.331 292.28 455.379 292.552 456.307 293.096C457.235 293.64 457.963 294.4 458.491 295.376C459.019 296.336 459.283 297.44 459.283 298.688L459.259 299.216ZM453.163 293.744C451.947 293.744 450.923 294.136 450.091 294.92C449.275 295.688 448.811 296.696 448.699 297.944H457.651C457.539 296.696 457.067 295.688 456.235 294.92C455.419 294.136 454.395 293.744 453.163 293.744ZM473.976 284.792H475.536L467.616 307.4H466.056L473.976 284.792ZM489.857 292.28C491.041 292.28 492.113 292.552 493.073 293.096C494.033 293.624 494.785 294.376 495.329 295.352C495.873 296.328 496.145 297.44 496.145 298.688C496.145 299.936 495.873 301.048 495.329 302.024C494.785 303 494.033 303.76 493.073 304.304C492.113 304.848 491.041 305.12 489.857 305.12C488.801 305.12 487.849 304.896 487.001 304.448C486.169 304 485.497 303.352 484.985 302.504V305H483.353V287.192H485.057V294.776C485.585 293.96 486.257 293.344 487.073 292.928C487.905 292.496 488.833 292.28 489.857 292.28ZM489.737 303.608C490.617 303.608 491.417 303.408 492.137 303.008C492.857 302.592 493.417 302.008 493.817 301.256C494.233 300.504 494.441 299.648 494.441 298.688C494.441 297.728 494.233 296.872 493.817 296.12C493.417 295.368 492.857 294.792 492.137 294.392C491.417 293.976 490.617 293.768 489.737 293.768C488.841 293.768 488.033 293.976 487.313 294.392C486.609 294.792 486.049 295.368 485.633 296.12C485.233 296.872 485.033 297.728 485.033 298.688C485.033 299.648 485.233 300.504 485.633 301.256C486.049 302.008 486.609 302.592 487.313 303.008C488.033 303.408 488.841 303.608 489.737 303.608ZM510.994 292.376V305H509.362V302.696C508.914 303.464 508.298 304.064 507.514 304.496C506.73 304.912 505.834 305.12 504.826 305.12C503.178 305.12 501.874 304.664 500.914 303.752C499.97 302.824 499.498 301.472 499.498 299.696V292.376H501.202V299.528C501.202 300.856 501.53 301.864 502.186 302.552C502.842 303.24 503.778 303.584 504.994 303.584C506.322 303.584 507.37 303.184 508.138 302.384C508.906 301.568 509.29 300.44 509.29 299V292.376H510.994ZM527.287 287.192V305H525.655V302.504C525.143 303.352 524.463 304 523.615 304.448C522.783 304.896 521.839 305.12 520.783 305.12C519.599 305.12 518.527 304.848 517.567 304.304C516.607 303.76 515.855 303 515.311 302.024C514.767 301.048 514.495 299.936 514.495 298.688C514.495 297.44 514.767 296.328 515.311 295.352C515.855 294.376 516.607 293.624 517.567 293.096C518.527 292.552 519.599 292.28 520.783 292.28C521.807 292.28 522.727 292.496 523.543 292.928C524.375 293.344 525.055 293.96 525.583 294.776V287.192H527.287ZM520.927 303.608C521.807 303.608 522.599 303.408 523.303 303.008C524.023 302.592 524.583 302.008 524.983 301.256C525.399 300.504 525.607 299.648 525.607 298.688C525.607 297.728 525.399 296.872 524.983 296.12C524.583 295.368 524.023 294.792 523.303 294.392C522.599 293.976 521.807 293.768 520.927 293.768C520.031 293.768 519.223 293.976 518.503 294.392C517.799 294.792 517.239 295.368 516.823 296.12C516.423 296.872 516.223 297.728 516.223 298.688C516.223 299.648 516.423 300.504 516.823 301.256C517.239 302.008 517.799 302.592 518.503 303.008C519.223 303.408 520.031 303.608 520.927 303.608ZM543.72 292.376V303.464C543.72 305.608 543.192 307.192 542.136 308.216C541.096 309.256 539.52 309.776 537.408 309.776C536.24 309.776 535.128 309.6 534.072 309.248C533.032 308.912 532.184 308.44 531.528 307.832L532.392 306.536C533 307.08 533.736 307.504 534.6 307.808C535.48 308.112 536.4 308.264 537.36 308.264C538.96 308.264 540.136 307.888 540.888 307.136C541.64 306.4 542.016 305.248 542.016 303.68V302.072C541.488 302.872 540.792 303.48 539.928 303.896C539.08 304.312 538.136 304.52 537.096 304.52C535.912 304.52 534.832 304.264 533.856 303.752C532.896 303.224 532.136 302.496 531.576 301.568C531.032 300.624 530.76 299.56 530.76 298.376C530.76 297.192 531.032 296.136 531.576 295.208C532.136 294.28 532.896 293.56 533.856 293.048C534.816 292.536 535.896 292.28 537.096 292.28C538.168 292.28 539.136 292.496 540 292.928C540.864 293.36 541.56 293.984 542.088 294.8V292.376H543.72ZM537.264 303.008C538.176 303.008 539 302.816 539.736 302.432C540.472 302.032 541.04 301.48 541.44 300.776C541.856 300.072 542.064 299.272 542.064 298.376C542.064 297.48 541.856 296.688 541.44 296C541.04 295.296 540.472 294.752 539.736 294.368C539.016 293.968 538.192 293.768 537.264 293.768C536.352 293.768 535.528 293.96 534.792 294.344C534.072 294.728 533.504 295.272 533.088 295.976C532.688 296.68 532.488 297.48 532.488 298.376C532.488 299.272 532.688 300.072 533.088 300.776C533.504 301.48 534.072 302.032 534.792 302.432C535.528 302.816 536.352 303.008 537.264 303.008ZM559.477 299.216H548.917C549.013 300.528 549.517 301.592 550.429 302.408C551.341 303.208 552.493 303.608 553.885 303.608C554.669 303.608 555.389 303.472 556.045 303.2C556.701 302.912 557.269 302.496 557.749 301.952L558.709 303.056C558.149 303.728 557.445 304.24 556.597 304.592C555.765 304.944 554.845 305.12 553.837 305.12C552.541 305.12 551.389 304.848 550.381 304.304C549.389 303.744 548.613 302.976 548.053 302C547.493 301.024 547.213 299.92 547.213 298.688C547.213 297.456 547.477 296.352 548.005 295.376C548.549 294.4 549.285 293.64 550.213 293.096C551.157 292.552 552.213 292.28 553.381 292.28C554.549 292.28 555.597 292.552 556.525 293.096C557.453 293.64 558.181 294.4 558.709 295.376C559.237 296.336 559.501 297.44 559.501 298.688L559.477 299.216ZM553.381 293.744C552.165 293.744 551.141 294.136 550.309 294.92C549.493 295.688 549.029 296.696 548.917 297.944H557.869C557.757 296.696 557.285 295.688 556.453 294.92C555.637 294.136 554.613 293.744 553.381 293.744ZM569.618 304.232C569.298 304.52 568.898 304.744 568.418 304.904C567.954 305.048 567.466 305.12 566.954 305.12C565.77 305.12 564.858 304.8 564.218 304.16C563.578 303.52 563.258 302.616 563.258 301.448V293.816H561.002V292.376H563.258V289.616H564.962V292.376H568.802V293.816H564.962V301.352C564.962 302.104 565.146 302.68 565.514 303.08C565.898 303.464 566.442 303.656 567.146 303.656C567.498 303.656 567.834 303.6 568.154 303.488C568.49 303.376 568.778 303.216 569.018 303.008L569.618 304.232ZM578.065 297.752H584.353V299.24H578.065V297.752ZM612.974 292.376L608.198 305H606.59L602.606 294.656L598.622 305H597.014L592.262 292.376H593.894L597.854 303.104L601.91 292.376H603.374L607.406 303.104L611.414 292.376H612.974ZM621.972 292.28C623.556 292.28 624.812 292.744 625.74 293.672C626.684 294.584 627.156 295.92 627.156 297.68V305H625.452V297.848C625.452 296.536 625.124 295.536 624.468 294.848C623.812 294.16 622.876 293.816 621.66 293.816C620.3 293.816 619.22 294.224 618.42 295.04C617.636 295.84 617.244 296.952 617.244 298.376V305H615.54V287.192H617.244V294.584C617.708 293.848 618.348 293.28 619.164 292.88C619.98 292.48 620.916 292.28 621.972 292.28ZM636.198 292.28C637.846 292.28 639.11 292.696 639.99 293.528C640.87 294.344 641.31 295.56 641.31 297.176V305H639.678V303.032C639.294 303.688 638.726 304.2 637.974 304.568C637.238 304.936 636.358 305.12 635.334 305.12C633.926 305.12 632.806 304.784 631.974 304.112C631.142 303.44 630.726 302.552 630.726 301.448C630.726 300.376 631.11 299.512 631.878 298.856C632.662 298.2 633.902 297.872 635.598 297.872H639.606V297.104C639.606 296.016 639.302 295.192 638.694 294.632C638.086 294.056 637.198 293.768 636.03 293.768C635.23 293.768 634.462 293.904 633.726 294.176C632.99 294.432 632.358 294.792 631.83 295.256L631.062 293.984C631.702 293.44 632.47 293.024 633.366 292.736C634.262 292.432 635.206 292.28 636.198 292.28ZM635.598 303.776C636.558 303.776 637.382 303.56 638.07 303.128C638.758 302.68 639.27 302.04 639.606 301.208V299.144H635.646C633.486 299.144 632.406 299.896 632.406 301.4C632.406 302.136 632.686 302.72 633.246 303.152C633.806 303.568 634.59 303.776 635.598 303.776ZM652.587 304.232C652.267 304.52 651.867 304.744 651.387 304.904C650.923 305.048 650.435 305.12 649.923 305.12C648.739 305.12 647.827 304.8 647.187 304.16C646.547 303.52 646.227 302.616 646.227 301.448V293.816H643.971V292.376H646.227V289.616H647.931V292.376H651.771V293.816H647.931V301.352C647.931 302.104 648.115 302.68 648.483 303.08C648.867 303.464 649.411 303.656 650.115 303.656C650.467 303.656 650.803 303.6 651.123 303.488C651.459 303.376 651.747 303.216 651.987 303.008L652.587 304.232ZM668.618 304.232C668.298 304.52 667.898 304.744 667.418 304.904C666.954 305.048 666.466 305.12 665.954 305.12C664.77 305.12 663.858 304.8 663.218 304.16C662.578 303.52 662.258 302.616 662.258 301.448V293.816H660.002V292.376H662.258V289.616H663.962V292.376H667.802V293.816H663.962V301.352C663.962 302.104 664.146 302.68 664.514 303.08C664.898 303.464 665.442 303.656 666.146 303.656C666.498 303.656 666.834 303.6 667.154 303.488C667.49 303.376 667.778 303.216 668.018 303.008L668.618 304.232ZM678.152 292.28C679.736 292.28 680.992 292.744 681.92 293.672C682.864 294.584 683.336 295.92 683.336 297.68V305H681.632V297.848C681.632 296.536 681.304 295.536 680.648 294.848C679.992 294.16 679.056 293.816 677.84 293.816C676.48 293.816 675.4 294.224 674.6 295.04C673.816 295.84 673.424 296.952 673.424 298.376V305H671.72V287.192H673.424V294.584C673.888 293.848 674.528 293.28 675.344 292.88C676.16 292.48 677.096 292.28 678.152 292.28ZM687.962 292.376H689.666V305H687.962V292.376ZM688.826 289.616C688.474 289.616 688.178 289.496 687.938 289.256C687.698 289.016 687.578 288.728 687.578 288.392C687.578 288.072 687.698 287.792 687.938 287.552C688.178 287.312 688.474 287.192 688.826 287.192C689.178 287.192 689.474 287.312 689.714 287.552C689.954 287.776 690.074 288.048 690.074 288.368C690.074 288.72 689.954 289.016 689.714 289.256C689.474 289.496 689.178 289.616 688.826 289.616ZM697.791 305.12C696.767 305.12 695.783 304.976 694.839 304.688C693.911 304.384 693.183 304.008 692.655 303.56L693.423 302.216C693.951 302.632 694.615 302.976 695.415 303.248C696.215 303.504 697.047 303.632 697.911 303.632C699.063 303.632 699.911 303.456 700.455 303.104C701.015 302.736 701.295 302.224 701.295 301.568C701.295 301.104 701.143 300.744 700.839 300.488C700.535 300.216 700.151 300.016 699.687 299.888C699.223 299.744 698.607 299.608 697.839 299.48C696.815 299.288 695.991 299.096 695.367 298.904C694.743 298.696 694.207 298.352 693.759 297.872C693.327 297.392 693.111 296.728 693.111 295.88C693.111 294.824 693.551 293.96 694.431 293.288C695.311 292.616 696.535 292.28 698.103 292.28C698.919 292.28 699.735 292.392 700.551 292.616C701.367 292.824 702.039 293.104 702.567 293.456L701.823 294.824C700.783 294.104 699.543 293.744 698.103 293.744C697.015 293.744 696.191 293.936 695.631 294.32C695.087 294.704 694.815 295.208 694.815 295.832C694.815 296.312 694.967 296.696 695.271 296.984C695.591 297.272 695.983 297.488 696.447 297.632C696.911 297.76 697.551 297.896 698.367 298.04C699.375 298.232 700.183 298.424 700.791 298.616C701.399 298.808 701.919 299.136 702.351 299.6C702.783 300.064 702.999 300.704 702.999 301.52C702.999 302.624 702.535 303.504 701.607 304.16C700.695 304.8 699.423 305.12 697.791 305.12ZM712.431 287.192H714.135V305H712.431V287.192ZM724.036 305.12C722.82 305.12 721.724 304.848 720.748 304.304C719.772 303.744 719.004 302.976 718.444 302C717.884 301.024 717.604 299.92 717.604 298.688C717.604 297.456 717.884 296.352 718.444 295.376C719.004 294.4 719.772 293.64 720.748 293.096C721.724 292.552 722.82 292.28 724.036 292.28C725.252 292.28 726.348 292.552 727.324 293.096C728.3 293.64 729.06 294.4 729.604 295.376C730.164 296.352 730.444 297.456 730.444 298.688C730.444 299.92 730.164 301.024 729.604 302C729.06 302.976 728.3 303.744 727.324 304.304C726.348 304.848 725.252 305.12 724.036 305.12ZM724.036 303.608C724.932 303.608 725.732 303.408 726.436 303.008C727.156 302.592 727.716 302.008 728.116 301.256C728.516 300.504 728.716 299.648 728.716 298.688C728.716 297.728 728.516 296.872 728.116 296.12C727.716 295.368 727.156 294.792 726.436 294.392C725.732 293.976 724.932 293.768 724.036 293.768C723.14 293.768 722.332 293.976 721.612 294.392C720.908 294.792 720.348 295.368 719.932 296.12C719.532 296.872 719.332 297.728 719.332 298.688C719.332 299.648 719.532 300.504 719.932 301.256C720.348 302.008 720.908 302.592 721.612 303.008C722.332 303.408 723.14 303.608 724.036 303.608ZM739.083 305.12C737.867 305.12 736.771 304.848 735.795 304.304C734.819 303.744 734.051 302.976 733.491 302C732.931 301.024 732.651 299.92 732.651 298.688C732.651 297.456 732.931 296.352 733.491 295.376C734.051 294.4 734.819 293.64 735.795 293.096C736.771 292.552 737.867 292.28 739.083 292.28C740.299 292.28 741.395 292.552 742.371 293.096C743.347 293.64 744.107 294.4 744.651 295.376C745.211 296.352 745.491 297.456 745.491 298.688C745.491 299.92 745.211 301.024 744.651 302C744.107 302.976 743.347 303.744 742.371 304.304C741.395 304.848 740.299 305.12 739.083 305.12ZM739.083 303.608C739.979 303.608 740.779 303.408 741.483 303.008C742.203 302.592 742.763 302.008 743.163 301.256C743.563 300.504 743.763 299.648 743.763 298.688C743.763 297.728 743.563 296.872 743.163 296.12C742.763 295.368 742.203 294.792 741.483 294.392C740.779 293.976 739.979 293.768 739.083 293.768C738.187 293.768 737.379 293.976 736.659 294.392C735.955 294.792 735.395 295.368 734.979 296.12C734.579 296.872 734.379 297.728 734.379 298.688C734.379 299.648 734.579 300.504 734.979 301.256C735.395 302.008 735.955 302.592 736.659 303.008C737.379 303.408 738.187 303.608 739.083 303.608ZM753.65 298.664L750.674 301.4V305H748.97V287.192H750.674V299.264L758.21 292.376H760.322L754.922 297.536L760.826 305H758.738L753.65 298.664ZM766.393 305.12C765.369 305.12 764.385 304.976 763.441 304.688C762.513 304.384 761.785 304.008 761.257 303.56L762.025 302.216C762.553 302.632 763.217 302.976 764.017 303.248C764.817 303.504 765.649 303.632 766.513 303.632C767.665 303.632 768.513 303.456 769.057 303.104C769.617 302.736 769.897 302.224 769.897 301.568C769.897 301.104 769.745 300.744 769.441 300.488C769.137 300.216 768.753 300.016 768.289 299.888C767.825 299.744 767.209 299.608 766.441 299.48C765.417 299.288 764.593 299.096 763.969 298.904C763.345 298.696 762.809 298.352 762.361 297.872C761.929 297.392 761.713 296.728 761.713 295.88C761.713 294.824 762.153 293.96 763.033 293.288C763.913 292.616 765.137 292.28 766.705 292.28C767.521 292.28 768.337 292.392 769.153 292.616C769.969 292.824 770.641 293.104 771.169 293.456L770.425 294.824C769.385 294.104 768.145 293.744 766.705 293.744C765.617 293.744 764.793 293.936 764.233 294.32C763.689 294.704 763.417 295.208 763.417 295.832C763.417 296.312 763.569 296.696 763.873 296.984C764.193 297.272 764.585 297.488 765.049 297.632C765.513 297.76 766.153 297.896 766.969 298.04C767.977 298.232 768.785 298.424 769.393 298.616C770.001 298.808 770.521 299.136 770.953 299.6C771.385 300.064 771.601 300.704 771.601 301.52C771.601 302.624 771.137 303.504 770.209 304.16C769.297 304.8 768.025 305.12 766.393 305.12ZM781.032 287.192H782.736V305H781.032V287.192ZM787.478 292.376H789.182V305H787.478V292.376ZM788.342 289.616C787.99 289.616 787.694 289.496 787.454 289.256C787.214 289.016 787.094 288.728 787.094 288.392C787.094 288.072 787.214 287.792 787.454 287.552C787.694 287.312 787.99 287.192 788.342 287.192C788.694 287.192 788.99 287.312 789.23 287.552C789.47 287.776 789.59 288.048 789.59 288.368C789.59 288.72 789.47 289.016 789.23 289.256C788.99 289.496 788.694 289.616 788.342 289.616ZM798.603 298.664L795.627 301.4V305H793.923V287.192H795.627V299.264L803.163 292.376H805.275L799.875 297.536L805.779 305H803.691L798.603 298.664ZM818.813 299.216H808.253C808.349 300.528 808.853 301.592 809.765 302.408C810.677 303.208 811.829 303.608 813.221 303.608C814.005 303.608 814.725 303.472 815.381 303.2C816.037 302.912 816.605 302.496 817.085 301.952L818.045 303.056C817.485 303.728 816.781 304.24 815.933 304.592C815.101 304.944 814.181 305.12 813.173 305.12C811.877 305.12 810.725 304.848 809.717 304.304C808.725 303.744 807.949 302.976 807.389 302C806.829 301.024 806.549 299.92 806.549 298.688C806.549 297.456 806.813 296.352 807.341 295.376C807.885 294.4 808.621 293.64 809.549 293.096C810.493 292.552 811.549 292.28 812.717 292.28C813.885 292.28 814.933 292.552 815.861 293.096C816.789 293.64 817.517 294.4 818.045 295.376C818.573 296.336 818.837 297.44 818.837 298.688L818.813 299.216ZM812.717 293.744C811.501 293.744 810.477 294.136 809.645 294.92C808.829 295.688 808.365 296.696 808.253 297.944H817.205C817.093 296.696 816.621 295.688 815.789 294.92C814.973 294.136 813.949 293.744 812.717 293.744ZM168.904 328.376L164.128 341H162.52L158.536 330.656L154.552 341H152.944L148.192 328.376H149.824L153.784 339.104L157.84 328.376H159.304L163.336 339.104L167.344 328.376H168.904ZM171.47 328.376H173.174V341H171.47V328.376ZM172.334 325.616C171.982 325.616 171.686 325.496 171.446 325.256C171.206 325.016 171.086 324.728 171.086 324.392C171.086 324.072 171.206 323.792 171.446 323.552C171.686 323.312 171.982 323.192 172.334 323.192C172.686 323.192 172.982 323.312 173.222 323.552C173.462 323.776 173.582 324.048 173.582 324.368C173.582 324.72 173.462 325.016 173.222 325.256C172.982 325.496 172.686 325.616 172.334 325.616ZM184.563 340.232C184.243 340.52 183.843 340.744 183.363 340.904C182.899 341.048 182.411 341.12 181.899 341.12C180.715 341.12 179.803 340.8 179.163 340.16C178.523 339.52 178.203 338.616 178.203 337.448V329.816H175.947V328.376H178.203V325.616H179.907V328.376H183.747V329.816H179.907V337.352C179.907 338.104 180.091 338.68 180.459 339.08C180.843 339.464 181.387 339.656 182.091 339.656C182.443 339.656 182.779 339.6 183.099 339.488C183.435 339.376 183.723 339.216 183.963 339.008L184.563 340.232ZM194.097 328.28C195.681 328.28 196.937 328.744 197.865 329.672C198.809 330.584 199.281 331.92 199.281 333.68V341H197.577V333.848C197.577 332.536 197.249 331.536 196.593 330.848C195.937 330.16 195.001 329.816 193.785 329.816C192.425 329.816 191.345 330.224 190.545 331.04C189.761 331.84 189.369 332.952 189.369 334.376V341H187.665V323.192H189.369V330.584C189.833 329.848 190.473 329.28 191.289 328.88C192.105 328.48 193.041 328.28 194.097 328.28ZM215.421 341.12C214.173 341.12 213.053 340.848 212.061 340.304C211.085 339.76 210.317 339 209.757 338.024C209.197 337.032 208.917 335.92 208.917 334.688C208.917 333.456 209.197 332.352 209.757 331.376C210.317 330.4 211.085 329.64 212.061 329.096C213.053 328.552 214.173 328.28 215.421 328.28C216.509 328.28 217.477 328.496 218.325 328.928C219.189 329.344 219.869 329.96 220.365 330.776L219.093 331.64C218.677 331.016 218.149 330.552 217.509 330.248C216.869 329.928 216.173 329.768 215.421 329.768C214.509 329.768 213.685 329.976 212.949 330.392C212.229 330.792 211.661 331.368 211.245 332.12C210.845 332.872 210.645 333.728 210.645 334.688C210.645 335.664 210.845 336.528 211.245 337.28C211.661 338.016 212.229 338.592 212.949 339.008C213.685 339.408 214.509 339.608 215.421 339.608C216.173 339.608 216.869 339.456 217.509 339.152C218.149 338.848 218.677 338.384 219.093 337.76L220.365 338.624C219.869 339.44 219.189 340.064 218.325 340.496C217.461 340.912 216.493 341.12 215.421 341.12ZM228.661 341.12C227.445 341.12 226.349 340.848 225.373 340.304C224.397 339.744 223.629 338.976 223.069 338C222.509 337.024 222.229 335.92 222.229 334.688C222.229 333.456 222.509 332.352 223.069 331.376C223.629 330.4 224.397 329.64 225.373 329.096C226.349 328.552 227.445 328.28 228.661 328.28C229.877 328.28 230.973 328.552 231.949 329.096C232.925 329.64 233.685 330.4 234.229 331.376C234.789 332.352 235.069 333.456 235.069 334.688C235.069 335.92 234.789 337.024 234.229 338C233.685 338.976 232.925 339.744 231.949 340.304C230.973 340.848 229.877 341.12 228.661 341.12ZM228.661 339.608C229.557 339.608 230.357 339.408 231.061 339.008C231.781 338.592 232.341 338.008 232.741 337.256C233.141 336.504 233.341 335.648 233.341 334.688C233.341 333.728 233.141 332.872 232.741 332.12C232.341 331.368 231.781 330.792 231.061 330.392C230.357 329.976 229.557 329.768 228.661 329.768C227.765 329.768 226.957 329.976 226.237 330.392C225.533 330.792 224.973 331.368 224.557 332.12C224.157 332.872 223.957 333.728 223.957 334.688C223.957 335.648 224.157 336.504 224.557 337.256C224.973 338.008 225.533 338.592 226.237 339.008C226.957 339.408 227.765 339.608 228.661 339.608ZM254.292 328.28C255.876 328.28 257.116 328.736 258.012 329.648C258.924 330.56 259.38 331.904 259.38 333.68V341H257.676V333.848C257.676 332.536 257.356 331.536 256.716 330.848C256.092 330.16 255.204 329.816 254.052 329.816C252.74 329.816 251.708 330.224 250.956 331.04C250.204 331.84 249.828 332.952 249.828 334.376V341H248.124V333.848C248.124 332.536 247.804 331.536 247.164 330.848C246.54 330.16 245.644 329.816 244.476 329.816C243.18 329.816 242.148 330.224 241.38 331.04C240.628 331.84 240.252 332.952 240.252 334.376V341H238.548V328.376H240.18V330.68C240.628 329.912 241.252 329.32 242.052 328.904C242.852 328.488 243.772 328.28 244.812 328.28C245.868 328.28 246.78 328.504 247.548 328.952C248.332 329.4 248.916 330.064 249.3 330.944C249.764 330.112 250.428 329.464 251.292 329C252.172 328.52 253.172 328.28 254.292 328.28ZM279.745 328.28C281.329 328.28 282.569 328.736 283.465 329.648C284.377 330.56 284.833 331.904 284.833 333.68V341H283.129V333.848C283.129 332.536 282.809 331.536 282.169 330.848C281.545 330.16 280.657 329.816 279.505 329.816C278.193 329.816 277.161 330.224 276.409 331.04C275.657 331.84 275.281 332.952 275.281 334.376V341H273.577V333.848C273.577 332.536 273.257 331.536 272.617 330.848C271.993 330.16 271.097 329.816 269.929 329.816C268.633 329.816 267.601 330.224 266.833 331.04C266.081 331.84 265.705 332.952 265.705 334.376V341H264.001V328.376H265.633V330.68C266.081 329.912 266.705 329.32 267.505 328.904C268.305 328.488 269.225 328.28 270.265 328.28C271.321 328.28 272.233 328.504 273.001 328.952C273.785 329.4 274.369 330.064 274.753 330.944C275.217 330.112 275.881 329.464 276.745 329C277.625 328.52 278.625 328.28 279.745 328.28ZM289.454 328.376H291.158V341H289.454V328.376ZM290.318 325.616C289.966 325.616 289.67 325.496 289.43 325.256C289.19 325.016 289.07 324.728 289.07 324.392C289.07 324.072 289.19 323.792 289.43 323.552C289.67 323.312 289.966 323.192 290.318 323.192C290.67 323.192 290.966 323.312 291.206 323.552C291.446 323.776 291.566 324.048 291.566 324.368C291.566 324.72 291.446 325.016 291.206 325.256C290.966 325.496 290.67 325.616 290.318 325.616ZM302.547 340.232C302.227 340.52 301.827 340.744 301.347 340.904C300.883 341.048 300.395 341.12 299.883 341.12C298.699 341.12 297.787 340.8 297.147 340.16C296.507 339.52 296.187 338.616 296.187 337.448V329.816H293.931V328.376H296.187V325.616H297.891V328.376H301.731V329.816H297.891V337.352C297.891 338.104 298.075 338.68 298.443 339.08C298.827 339.464 299.371 339.656 300.075 339.656C300.427 339.656 300.763 339.6 301.083 339.488C301.419 339.376 301.707 339.216 301.947 339.008L302.547 340.232ZM321.393 328.28C322.977 328.28 324.217 328.736 325.113 329.648C326.025 330.56 326.481 331.904 326.481 333.68V341H324.777V333.848C324.777 332.536 324.457 331.536 323.817 330.848C323.193 330.16 322.305 329.816 321.153 329.816C319.841 329.816 318.809 330.224 318.057 331.04C317.305 331.84 316.929 332.952 316.929 334.376V341H315.225V333.848C315.225 332.536 314.905 331.536 314.265 330.848C313.641 330.16 312.745 329.816 311.577 329.816C310.281 329.816 309.249 330.224 308.481 331.04C307.729 331.84 307.353 332.952 307.353 334.376V341H305.649V328.376H307.281V330.68C307.729 329.912 308.353 329.32 309.153 328.904C309.953 328.488 310.873 328.28 311.913 328.28C312.969 328.28 313.881 328.504 314.649 328.952C315.433 329.4 316.017 330.064 316.401 330.944C316.865 330.112 317.529 329.464 318.393 329C319.273 328.52 320.273 328.28 321.393 328.28ZM342.141 335.216H331.581C331.677 336.528 332.181 337.592 333.093 338.408C334.005 339.208 335.157 339.608 336.549 339.608C337.333 339.608 338.053 339.472 338.709 339.2C339.365 338.912 339.933 338.496 340.413 337.952L341.373 339.056C340.813 339.728 340.109 340.24 339.261 340.592C338.429 340.944 337.509 341.12 336.501 341.12C335.205 341.12 334.053 340.848 333.045 340.304C332.053 339.744 331.277 338.976 330.717 338C330.157 337.024 329.877 335.92 329.877 334.688C329.877 333.456 330.141 332.352 330.669 331.376C331.213 330.4 331.949 329.64 332.877 329.096C333.821 328.552 334.877 328.28 336.045 328.28C337.213 328.28 338.261 328.552 339.189 329.096C340.117 329.64 340.845 330.4 341.373 331.376C341.901 332.336 342.165 333.44 342.165 334.688L342.141 335.216ZM336.045 329.744C334.829 329.744 333.805 330.136 332.973 330.92C332.157 331.688 331.693 332.696 331.581 333.944H340.533C340.421 332.696 339.949 331.688 339.117 330.92C338.301 330.136 337.277 329.744 336.045 329.744ZM352.066 328.28C353.65 328.28 354.906 328.744 355.834 329.672C356.778 330.584 357.25 331.92 357.25 333.68V341H355.546V333.848C355.546 332.536 355.218 331.536 354.562 330.848C353.906 330.16 352.97 329.816 351.754 329.816C350.394 329.816 349.314 330.224 348.514 331.04C347.73 331.84 347.338 332.952 347.338 334.376V341H345.634V328.376H347.266V330.704C347.73 329.936 348.37 329.344 349.186 328.928C350.018 328.496 350.978 328.28 352.066 328.28ZM368.524 340.232C368.204 340.52 367.804 340.744 367.324 340.904C366.86 341.048 366.372 341.12 365.86 341.12C364.676 341.12 363.764 340.8 363.124 340.16C362.484 339.52 362.164 338.616 362.164 337.448V329.816H359.908V328.376H362.164V325.616H363.868V328.376H367.708V329.816H363.868V337.352C363.868 338.104 364.052 338.68 364.42 339.08C364.804 339.464 365.348 339.656 366.052 339.656C366.404 339.656 366.74 339.6 367.06 339.488C367.396 339.376 367.684 339.216 367.924 339.008L368.524 340.232ZM382.083 324.512C381.347 324.512 380.787 324.712 380.403 325.112C380.035 325.512 379.851 326.104 379.851 326.888V328.376H383.739V329.816H379.899V341H378.195V329.816H375.939V328.376H378.195V326.816C378.195 325.664 378.523 324.752 379.179 324.08C379.851 323.408 380.795 323.072 382.011 323.072C382.491 323.072 382.955 323.144 383.403 323.288C383.851 323.416 384.227 323.608 384.531 323.864L383.955 325.136C383.459 324.72 382.835 324.512 382.083 324.512ZM389.594 330.848C389.994 330 390.586 329.36 391.37 328.928C392.17 328.496 393.154 328.28 394.322 328.28V329.936L393.914 329.912C392.586 329.912 391.546 330.32 390.794 331.136C390.042 331.952 389.666 333.096 389.666 334.568V341H387.962V328.376H389.594V330.848ZM402.45 341.12C401.234 341.12 400.138 340.848 399.162 340.304C398.186 339.744 397.418 338.976 396.858 338C396.298 337.024 396.018 335.92 396.018 334.688C396.018 333.456 396.298 332.352 396.858 331.376C397.418 330.4 398.186 329.64 399.162 329.096C400.138 328.552 401.234 328.28 402.45 328.28C403.666 328.28 404.762 328.552 405.738 329.096C406.714 329.64 407.474 330.4 408.018 331.376C408.578 332.352 408.858 333.456 408.858 334.688C408.858 335.92 408.578 337.024 408.018 338C407.474 338.976 406.714 339.744 405.738 340.304C404.762 340.848 403.666 341.12 402.45 341.12ZM402.45 339.608C403.346 339.608 404.146 339.408 404.85 339.008C405.57 338.592 406.13 338.008 406.53 337.256C406.93 336.504 407.13 335.648 407.13 334.688C407.13 333.728 406.93 332.872 406.53 332.12C406.13 331.368 405.57 330.792 404.85 330.392C404.146 329.976 403.346 329.768 402.45 329.768C401.554 329.768 400.746 329.976 400.026 330.392C399.322 330.792 398.762 331.368 398.346 332.12C397.946 332.872 397.746 333.728 397.746 334.688C397.746 335.648 397.946 336.504 398.346 337.256C398.762 338.008 399.322 338.592 400.026 339.008C400.746 339.408 401.554 339.608 402.45 339.608ZM428.081 328.28C429.665 328.28 430.905 328.736 431.801 329.648C432.713 330.56 433.169 331.904 433.169 333.68V341H431.465V333.848C431.465 332.536 431.145 331.536 430.505 330.848C429.881 330.16 428.993 329.816 427.841 329.816C426.529 329.816 425.497 330.224 424.745 331.04C423.993 331.84 423.617 332.952 423.617 334.376V341H421.913V333.848C421.913 332.536 421.593 331.536 420.953 330.848C420.329 330.16 419.433 329.816 418.265 329.816C416.969 329.816 415.937 330.224 415.169 331.04C414.417 331.84 414.041 332.952 414.041 334.376V341H412.337V328.376H413.969V330.68C414.417 329.912 415.041 329.32 415.841 328.904C416.641 328.488 417.561 328.28 418.601 328.28C419.657 328.28 420.569 328.504 421.337 328.952C422.121 329.4 422.705 330.064 423.089 330.944C423.553 330.112 424.217 329.464 425.081 329C425.961 328.52 426.961 328.28 428.081 328.28ZM458.471 324.2V341H457.007L446.207 327.368V341H444.431V324.2H445.895L456.719 337.832V324.2H458.471ZM463.595 328.376H465.299V341H463.595V328.376ZM464.459 325.616C464.107 325.616 463.811 325.496 463.571 325.256C463.331 325.016 463.211 324.728 463.211 324.392C463.211 324.072 463.331 323.792 463.571 323.552C463.811 323.312 464.107 323.192 464.459 323.192C464.811 323.192 465.107 323.312 465.347 323.552C465.587 323.776 465.707 324.048 465.707 324.368C465.707 324.72 465.587 325.016 465.347 325.256C465.107 325.496 464.811 325.616 464.459 325.616ZM473.424 341.12C472.4 341.12 471.416 340.976 470.472 340.688C469.544 340.384 468.816 340.008 468.288 339.56L469.056 338.216C469.584 338.632 470.248 338.976 471.048 339.248C471.848 339.504 472.68 339.632 473.544 339.632C474.696 339.632 475.544 339.456 476.088 339.104C476.648 338.736 476.928 338.224 476.928 337.568C476.928 337.104 476.776 336.744 476.472 336.488C476.168 336.216 475.784 336.016 475.32 335.888C474.856 335.744 474.24 335.608 473.472 335.48C472.448 335.288 471.624 335.096 471 334.904C470.376 334.696 469.84 334.352 469.392 333.872C468.96 333.392 468.744 332.728 468.744 331.88C468.744 330.824 469.184 329.96 470.064 329.288C470.944 328.616 472.168 328.28 473.736 328.28C474.552 328.28 475.368 328.392 476.184 328.616C477 328.824 477.672 329.104 478.2 329.456L477.456 330.824C476.416 330.104 475.176 329.744 473.736 329.744C472.648 329.744 471.824 329.936 471.264 330.32C470.72 330.704 470.448 331.208 470.448 331.832C470.448 332.312 470.6 332.696 470.904 332.984C471.224 333.272 471.616 333.488 472.08 333.632C472.544 333.76 473.184 333.896 474 334.04C475.008 334.232 475.816 334.424 476.424 334.616C477.032 334.808 477.552 335.136 477.984 335.6C478.416 336.064 478.632 336.704 478.632 337.52C478.632 338.624 478.168 339.504 477.24 340.16C476.328 340.8 475.056 341.12 473.424 341.12ZM485.166 341.12C484.142 341.12 483.158 340.976 482.214 340.688C481.286 340.384 480.558 340.008 480.03 339.56L480.798 338.216C481.326 338.632 481.99 338.976 482.79 339.248C483.59 339.504 484.422 339.632 485.286 339.632C486.438 339.632 487.286 339.456 487.83 339.104C488.39 338.736 488.67 338.224 488.67 337.568C488.67 337.104 488.518 336.744 488.214 336.488C487.91 336.216 487.526 336.016 487.062 335.888C486.598 335.744 485.982 335.608 485.214 335.48C484.19 335.288 483.366 335.096 482.742 334.904C482.118 334.696 481.582 334.352 481.134 333.872C480.702 333.392 480.486 332.728 480.486 331.88C480.486 330.824 480.926 329.96 481.806 329.288C482.686 328.616 483.91 328.28 485.478 328.28C486.294 328.28 487.11 328.392 487.926 328.616C488.742 328.824 489.414 329.104 489.942 329.456L489.198 330.824C488.158 330.104 486.918 329.744 485.478 329.744C484.39 329.744 483.566 329.936 483.006 330.32C482.462 330.704 482.19 331.208 482.19 331.832C482.19 332.312 482.342 332.696 482.646 332.984C482.966 333.272 483.358 333.488 483.822 333.632C484.286 333.76 484.926 333.896 485.742 334.04C486.75 334.232 487.558 334.424 488.166 334.616C488.774 334.808 489.294 335.136 489.726 335.6C490.158 336.064 490.374 336.704 490.374 337.52C490.374 338.624 489.91 339.504 488.982 340.16C488.07 340.8 486.798 341.12 485.166 341.12ZM497.94 328.28C499.588 328.28 500.852 328.696 501.732 329.528C502.612 330.344 503.052 331.56 503.052 333.176V341H501.42V339.032C501.036 339.688 500.468 340.2 499.716 340.568C498.98 340.936 498.1 341.12 497.076 341.12C495.668 341.12 494.548 340.784 493.716 340.112C492.884 339.44 492.468 338.552 492.468 337.448C492.468 336.376 492.852 335.512 493.62 334.856C494.404 334.2 495.644 333.872 497.34 333.872H501.348V333.104C501.348 332.016 501.044 331.192 500.436 330.632C499.828 330.056 498.94 329.768 497.772 329.768C496.972 329.768 496.204 329.904 495.468 330.176C494.732 330.432 494.1 330.792 493.572 331.256L492.804 329.984C493.444 329.44 494.212 329.024 495.108 328.736C496.004 328.432 496.948 328.28 497.94 328.28ZM497.34 339.776C498.3 339.776 499.124 339.56 499.812 339.128C500.5 338.68 501.012 338.04 501.348 337.208V335.144H497.388C495.228 335.144 494.148 335.896 494.148 337.4C494.148 338.136 494.428 338.72 494.988 339.152C495.548 339.568 496.332 339.776 497.34 339.776ZM514.113 328.28C515.697 328.28 516.953 328.744 517.881 329.672C518.825 330.584 519.297 331.92 519.297 333.68V341H517.593V333.848C517.593 332.536 517.265 331.536 516.609 330.848C515.953 330.16 515.017 329.816 513.801 329.816C512.441 329.816 511.361 330.224 510.561 331.04C509.777 331.84 509.385 332.952 509.385 334.376V341H507.681V328.376H509.313V330.704C509.777 329.936 510.417 329.344 511.233 328.928C512.065 328.496 513.025 328.28 514.113 328.28ZM164.776 372.2V389H163.312L152.512 375.368V389H150.736V372.2H152.2L163.024 385.832V372.2H164.776ZM169.899 376.376H171.603V389H169.899V376.376ZM170.763 373.616C170.411 373.616 170.115 373.496 169.875 373.256C169.635 373.016 169.515 372.728 169.515 372.392C169.515 372.072 169.635 371.792 169.875 371.552C170.115 371.312 170.411 371.192 170.763 371.192C171.115 371.192 171.411 371.312 171.651 371.552C171.891 371.776 172.011 372.048 172.011 372.368C172.011 372.72 171.891 373.016 171.651 373.256C171.411 373.496 171.115 373.616 170.763 373.616ZM179.729 389.12C178.705 389.12 177.721 388.976 176.777 388.688C175.849 388.384 175.121 388.008 174.593 387.56L175.361 386.216C175.889 386.632 176.553 386.976 177.353 387.248C178.153 387.504 178.985 387.632 179.849 387.632C181.001 387.632 181.849 387.456 182.393 387.104C182.953 386.736 183.233 386.224 183.233 385.568C183.233 385.104 183.081 384.744 182.777 384.488C182.473 384.216 182.089 384.016 181.625 383.888C181.161 383.744 180.545 383.608 179.777 383.48C178.753 383.288 177.929 383.096 177.305 382.904C176.681 382.696 176.145 382.352 175.697 381.872C175.265 381.392 175.049 380.728 175.049 379.88C175.049 378.824 175.489 377.96 176.369 377.288C177.249 376.616 178.473 376.28 180.041 376.28C180.857 376.28 181.673 376.392 182.489 376.616C183.305 376.824 183.977 377.104 184.505 377.456L183.761 378.824C182.721 378.104 181.481 377.744 180.041 377.744C178.953 377.744 178.129 377.936 177.569 378.32C177.025 378.704 176.753 379.208 176.753 379.832C176.753 380.312 176.905 380.696 177.209 380.984C177.529 381.272 177.921 381.488 178.385 381.632C178.849 381.76 179.489 381.896 180.305 382.04C181.313 382.232 182.121 382.424 182.729 382.616C183.337 382.808 183.857 383.136 184.289 383.6C184.721 384.064 184.937 384.704 184.937 385.52C184.937 386.624 184.473 387.504 183.545 388.16C182.633 388.8 181.361 389.12 179.729 389.12ZM191.471 389.12C190.447 389.12 189.463 388.976 188.519 388.688C187.591 388.384 186.863 388.008 186.335 387.56L187.103 386.216C187.631 386.632 188.295 386.976 189.095 387.248C189.895 387.504 190.727 387.632 191.591 387.632C192.743 387.632 193.591 387.456 194.135 387.104C194.695 386.736 194.975 386.224 194.975 385.568C194.975 385.104 194.823 384.744 194.519 384.488C194.215 384.216 193.831 384.016 193.367 383.888C192.903 383.744 192.287 383.608 191.519 383.48C190.495 383.288 189.671 383.096 189.047 382.904C188.423 382.696 187.887 382.352 187.439 381.872C187.007 381.392 186.791 380.728 186.791 379.88C186.791 378.824 187.231 377.96 188.111 377.288C188.991 376.616 190.215 376.28 191.783 376.28C192.599 376.28 193.415 376.392 194.231 376.616C195.047 376.824 195.719 377.104 196.247 377.456L195.503 378.824C194.463 378.104 193.223 377.744 191.783 377.744C190.695 377.744 189.871 377.936 189.311 378.32C188.767 378.704 188.495 379.208 188.495 379.832C188.495 380.312 188.647 380.696 188.951 380.984C189.271 381.272 189.663 381.488 190.127 381.632C190.591 381.76 191.231 381.896 192.047 382.04C193.055 382.232 193.863 382.424 194.471 382.616C195.079 382.808 195.599 383.136 196.031 383.6C196.463 384.064 196.679 384.704 196.679 385.52C196.679 386.624 196.215 387.504 195.287 388.16C194.375 388.8 193.103 389.12 191.471 389.12ZM204.245 376.28C205.893 376.28 207.157 376.696 208.037 377.528C208.917 378.344 209.357 379.56 209.357 381.176V389H207.725V387.032C207.341 387.688 206.773 388.2 206.021 388.568C205.285 388.936 204.405 389.12 203.381 389.12C201.973 389.12 200.853 388.784 200.021 388.112C199.189 387.44 198.773 386.552 198.773 385.448C198.773 384.376 199.157 383.512 199.925 382.856C200.709 382.2 201.949 381.872 203.645 381.872H207.653V381.104C207.653 380.016 207.349 379.192 206.741 378.632C206.133 378.056 205.245 377.768 204.077 377.768C203.277 377.768 202.509 377.904 201.773 378.176C201.037 378.432 200.405 378.792 199.877 379.256L199.109 377.984C199.749 377.44 200.517 377.024 201.413 376.736C202.309 376.432 203.253 376.28 204.245 376.28ZM203.645 387.776C204.605 387.776 205.429 387.56 206.117 387.128C206.805 386.68 207.317 386.04 207.653 385.208V383.144H203.693C201.533 383.144 200.453 383.896 200.453 385.4C200.453 386.136 200.733 386.72 201.293 387.152C201.853 387.568 202.637 387.776 203.645 387.776ZM220.417 376.28C222.001 376.28 223.257 376.744 224.185 377.672C225.129 378.584 225.601 379.92 225.601 381.68V389H223.897V381.848C223.897 380.536 223.569 379.536 222.913 378.848C222.257 378.16 221.321 377.816 220.105 377.816C218.745 377.816 217.665 378.224 216.865 379.04C216.081 379.84 215.689 380.952 215.689 382.376V389H213.985V376.376H215.617V378.704C216.081 377.936 216.721 377.344 217.537 376.928C218.369 376.496 219.329 376.28 220.417 376.28ZM229.508 372.2H231.02L230.9 378.536H229.628L229.508 372.2ZM238.463 389.12C237.439 389.12 236.455 388.976 235.511 388.688C234.583 388.384 233.855 388.008 233.327 387.56L234.095 386.216C234.623 386.632 235.287 386.976 236.087 387.248C236.887 387.504 237.719 387.632 238.583 387.632C239.735 387.632 240.583 387.456 241.127 387.104C241.687 386.736 241.967 386.224 241.967 385.568C241.967 385.104 241.815 384.744 241.511 384.488C241.207 384.216 240.823 384.016 240.359 383.888C239.895 383.744 239.279 383.608 238.511 383.48C237.487 383.288 236.663 383.096 236.039 382.904C235.415 382.696 234.879 382.352 234.431 381.872C233.999 381.392 233.783 380.728 233.783 379.88C233.783 378.824 234.223 377.96 235.103 377.288C235.983 376.616 237.207 376.28 238.775 376.28C239.591 376.28 240.407 376.392 241.223 376.616C242.039 376.824 242.711 377.104 243.239 377.456L242.495 378.824C241.455 378.104 240.215 377.744 238.775 377.744C237.687 377.744 236.863 377.936 236.303 378.32C235.759 378.704 235.487 379.208 235.487 379.832C235.487 380.312 235.639 380.696 235.943 380.984C236.263 381.272 236.655 381.488 237.119 381.632C237.583 381.76 238.223 381.896 239.039 382.04C240.047 382.232 240.855 382.424 241.463 382.616C242.071 382.808 242.591 383.136 243.023 383.6C243.455 384.064 243.671 384.704 243.671 385.52C243.671 386.624 243.207 387.504 242.279 388.16C241.367 388.8 240.095 389.12 238.463 389.12ZM253.103 376.376H254.807V389H253.103V376.376ZM253.967 373.616C253.615 373.616 253.319 373.496 253.079 373.256C252.839 373.016 252.719 372.728 252.719 372.392C252.719 372.072 252.839 371.792 253.079 371.552C253.319 371.312 253.615 371.192 253.967 371.192C254.319 371.192 254.615 371.312 254.855 371.552C255.095 371.776 255.215 372.048 255.215 372.368C255.215 372.72 255.095 373.016 254.855 373.256C254.615 373.496 254.319 373.616 253.967 373.616ZM271.068 371.192V389H269.436V386.504C268.924 387.352 268.244 388 267.396 388.448C266.564 388.896 265.62 389.12 264.564 389.12C263.38 389.12 262.308 388.848 261.348 388.304C260.388 387.76 259.636 387 259.092 386.024C258.548 385.048 258.276 383.936 258.276 382.688C258.276 381.44 258.548 380.328 259.092 379.352C259.636 378.376 260.388 377.624 261.348 377.096C262.308 376.552 263.38 376.28 264.564 376.28C265.588 376.28 266.508 376.496 267.324 376.928C268.156 377.344 268.836 377.96 269.364 378.776V371.192H271.068ZM264.708 387.608C265.588 387.608 266.38 387.408 267.084 387.008C267.804 386.592 268.364 386.008 268.764 385.256C269.18 384.504 269.388 383.648 269.388 382.688C269.388 381.728 269.18 380.872 268.764 380.12C268.364 379.368 267.804 378.792 267.084 378.392C266.38 377.976 265.588 377.768 264.708 377.768C263.812 377.768 263.004 377.976 262.284 378.392C261.58 378.792 261.02 379.368 260.604 380.12C260.204 380.872 260.004 381.728 260.004 382.688C260.004 383.648 260.204 384.504 260.604 385.256C261.02 386.008 261.58 386.592 262.284 387.008C263.004 387.408 263.812 387.608 264.708 387.608ZM286.806 383.216H276.246C276.342 384.528 276.846 385.592 277.758 386.408C278.67 387.208 279.822 387.608 281.214 387.608C281.998 387.608 282.718 387.472 283.374 387.2C284.03 386.912 284.598 386.496 285.078 385.952L286.038 387.056C285.478 387.728 284.774 388.24 283.926 388.592C283.094 388.944 282.174 389.12 281.166 389.12C279.87 389.12 278.718 388.848 277.71 388.304C276.718 387.744 275.942 386.976 275.382 386C274.822 385.024 274.542 383.92 274.542 382.688C274.542 381.456 274.806 380.352 275.334 379.376C275.878 378.4 276.614 377.64 277.542 377.096C278.486 376.552 279.542 376.28 280.71 376.28C281.878 376.28 282.926 376.552 283.854 377.096C284.782 377.64 285.51 378.4 286.038 379.376C286.566 380.336 286.83 381.44 286.83 382.688L286.806 383.216ZM280.71 377.744C279.494 377.744 278.47 378.136 277.638 378.92C276.822 379.688 276.358 380.696 276.246 381.944H285.198C285.086 380.696 284.614 379.688 283.782 378.92C282.966 378.136 281.942 377.744 280.71 377.744ZM294.362 376.28C296.01 376.28 297.274 376.696 298.154 377.528C299.034 378.344 299.474 379.56 299.474 381.176V389H297.842V387.032C297.458 387.688 296.89 388.2 296.138 388.568C295.402 388.936 294.522 389.12 293.498 389.12C292.09 389.12 290.97 388.784 290.138 388.112C289.306 387.44 288.89 386.552 288.89 385.448C288.89 384.376 289.274 383.512 290.042 382.856C290.826 382.2 292.066 381.872 293.762 381.872H297.77V381.104C297.77 380.016 297.466 379.192 296.858 378.632C296.25 378.056 295.362 377.768 294.194 377.768C293.394 377.768 292.626 377.904 291.89 378.176C291.154 378.432 290.522 378.792 289.994 379.256L289.226 377.984C289.866 377.44 290.634 377.024 291.53 376.736C292.426 376.432 293.37 376.28 294.362 376.28ZM293.762 387.776C294.722 387.776 295.546 387.56 296.234 387.128C296.922 386.68 297.434 386.04 297.77 385.208V383.144H293.81C291.65 383.144 290.57 383.896 290.57 385.4C290.57 386.136 290.85 386.72 291.41 387.152C291.97 387.568 292.754 387.776 293.762 387.776ZM304.103 371.192H305.807V389H304.103V371.192ZM323.477 388.232C323.157 388.52 322.757 388.744 322.277 388.904C321.813 389.048 321.325 389.12 320.813 389.12C319.629 389.12 318.717 388.8 318.077 388.16C317.437 387.52 317.117 386.616 317.117 385.448V377.816H314.861V376.376H317.117V373.616H318.821V376.376H322.661V377.816H318.821V385.352C318.821 386.104 319.005 386.68 319.373 387.08C319.757 387.464 320.301 387.656 321.005 387.656C321.357 387.656 321.693 387.6 322.013 387.488C322.349 387.376 322.637 387.216 322.877 387.008L323.477 388.232ZM326.579 376.376H328.283V389H326.579V376.376ZM327.443 373.616C327.091 373.616 326.795 373.496 326.555 373.256C326.315 373.016 326.195 372.728 326.195 372.392C326.195 372.072 326.315 371.792 326.555 371.552C326.795 371.312 327.091 371.192 327.443 371.192C327.795 371.192 328.091 371.312 328.331 371.552C328.571 371.776 328.691 372.048 328.691 372.368C328.691 372.72 328.571 373.016 328.331 373.256C328.091 373.496 327.795 373.616 327.443 373.616ZM348.768 376.28C350.352 376.28 351.592 376.736 352.488 377.648C353.4 378.56 353.856 379.904 353.856 381.68V389H352.152V381.848C352.152 380.536 351.832 379.536 351.192 378.848C350.568 378.16 349.68 377.816 348.528 377.816C347.216 377.816 346.184 378.224 345.432 379.04C344.68 379.84 344.304 380.952 344.304 382.376V389H342.6V381.848C342.6 380.536 342.28 379.536 341.64 378.848C341.016 378.16 340.12 377.816 338.952 377.816C337.656 377.816 336.624 378.224 335.856 379.04C335.104 379.84 334.728 380.952 334.728 382.376V389H333.024V376.376H334.656V378.68C335.104 377.912 335.728 377.32 336.528 376.904C337.328 376.488 338.248 376.28 339.288 376.28C340.344 376.28 341.256 376.504 342.024 376.952C342.808 377.4 343.392 378.064 343.776 378.944C344.24 378.112 344.904 377.464 345.768 377C346.648 376.52 347.648 376.28 348.768 376.28ZM369.516 383.216H358.956C359.052 384.528 359.556 385.592 360.468 386.408C361.38 387.208 362.532 387.608 363.924 387.608C364.708 387.608 365.428 387.472 366.084 387.2C366.74 386.912 367.308 386.496 367.788 385.952L368.748 387.056C368.188 387.728 367.484 388.24 366.636 388.592C365.804 388.944 364.884 389.12 363.876 389.12C362.58 389.12 361.428 388.848 360.42 388.304C359.428 387.744 358.652 386.976 358.092 386C357.532 385.024 357.252 383.92 357.252 382.688C357.252 381.456 357.516 380.352 358.044 379.376C358.588 378.4 359.324 377.64 360.252 377.096C361.196 376.552 362.252 376.28 363.42 376.28C364.588 376.28 365.636 376.552 366.564 377.096C367.492 377.64 368.22 378.4 368.748 379.376C369.276 380.336 369.54 381.44 369.54 382.688L369.516 383.216ZM363.42 377.744C362.204 377.744 361.18 378.136 360.348 378.92C359.532 379.688 359.068 380.696 358.956 381.944H367.908C367.796 380.696 367.324 379.688 366.492 378.92C365.676 378.136 364.652 377.744 363.42 377.744ZM373.009 371.192H374.713V389H373.009V371.192ZM379.454 376.376H381.158V389H379.454V376.376ZM380.318 373.616C379.966 373.616 379.67 373.496 379.43 373.256C379.19 373.016 379.07 372.728 379.07 372.392C379.07 372.072 379.19 371.792 379.43 371.552C379.67 371.312 379.966 371.192 380.318 371.192C380.67 371.192 380.966 371.312 381.206 371.552C381.446 371.776 381.566 372.048 381.566 372.368C381.566 372.72 381.446 373.016 381.206 373.256C380.966 373.496 380.67 373.616 380.318 373.616ZM392.331 376.28C393.915 376.28 395.171 376.744 396.099 377.672C397.043 378.584 397.515 379.92 397.515 381.68V389H395.811V381.848C395.811 380.536 395.483 379.536 394.827 378.848C394.171 378.16 393.235 377.816 392.019 377.816C390.659 377.816 389.579 378.224 388.779 379.04C387.995 379.84 387.603 380.952 387.603 382.376V389H385.899V376.376H387.531V378.704C387.995 377.936 388.635 377.344 389.451 376.928C390.283 376.496 391.243 376.28 392.331 376.28ZM413.181 383.216H402.621C402.717 384.528 403.221 385.592 404.133 386.408C405.045 387.208 406.197 387.608 407.589 387.608C408.373 387.608 409.093 387.472 409.749 387.2C410.405 386.912 410.973 386.496 411.453 385.952L412.413 387.056C411.853 387.728 411.149 388.24 410.301 388.592C409.469 388.944 408.549 389.12 407.541 389.12C406.245 389.12 405.093 388.848 404.085 388.304C403.093 387.744 402.317 386.976 401.757 386C401.197 385.024 400.917 383.92 400.917 382.688C400.917 381.456 401.181 380.352 401.709 379.376C402.253 378.4 402.989 377.64 403.917 377.096C404.861 376.552 405.917 376.28 407.085 376.28C408.253 376.28 409.301 376.552 410.229 377.096C411.157 377.64 411.885 378.4 412.413 379.376C412.941 380.336 413.205 381.44 413.205 382.688L413.181 383.216ZM407.085 377.744C405.869 377.744 404.845 378.136 404.013 378.92C403.197 379.688 402.733 380.696 402.621 381.944H411.573C411.461 380.696 410.989 379.688 410.157 378.92C409.341 378.136 408.317 377.744 407.085 377.744Z" fill="#141414"/>
<mask id="mask2" mask-type="alpha" maskUnits="userSpaceOnUse" x="0" y="509" width="127" height="106">
<path d="M0 509H127V615H15C6.71573 615 0 608.284 0 600V509Z" fill="white"/>
</mask>
<g mask="url(#mask2)">
<path d="M-24.9919 637.083C-44.0558 604.212 -32.2217 561.881 0.704834 542.957C33.6313 524.032 70.5063 532.416 89.5701 565.287C94.748 574.215 102.962 586.737 103.842 596.366C106.201 622.187 93.7247 648.208 69.7413 661.992C36.8147 680.917 -5.92807 669.953 -24.9919 637.083Z" fill="#1D1D1D"/>
<path d="M-24.9021 637.629C-43.8891 604.64 -32.6201 562.457 0.267853 543.41C33.913 523.925 68.1103 536.374 82.8933 562.059C92.0038 577.888 102.796 588.362 103.177 597.3C104.281 623.173 92.8645 649.066 69.026 662.872C36.138 681.919 -5.91504 670.617 -24.9021 637.629Z" fill="#3C0603"/>
<path d="M-24.8401 637.727C-43.8867 604.902 -32.6929 562.99 0.162033 544.115C33.7734 524.806 62.1258 537.444 76.9552 563.002C86.0942 578.752 102.445 581.643 103.171 597.868C104.321 623.588 92.9505 649.308 69.1361 662.989C36.2811 681.863 -5.79345 670.553 -24.8401 637.727Z" fill="#86180F"/>
<path d="M-24.8394 637.445C-43.8738 604.362 -32.7093 562.136 0.0974426 543.13C33.6595 523.687 56.0223 537.087 70.8422 562.845C79.9755 578.718 101.101 575.265 102.996 597.329C105.216 623.179 92.8071 649.155 69.0275 662.932C36.2208 681.938 -5.80486 670.527 -24.8394 637.445Z" fill="#E13021"/>
<path d="M-24.8487 637.984C-43.8747 604.982 -32.6978 562.848 0.115685 543.876C33.6846 524.466 54.03 542.58 66.6041 564.391C75.7332 580.227 98.2506 571.191 103.003 597.923C105.216 623.714 92.4549 649.038 68.6703 662.79C35.8569 681.763 -5.82278 670.987 -24.8487 637.984Z" fill="#E24D47"/>
<path d="M-23.6687 636.738C-42.6891 603.864 -32.6927 562.57 0.124664 543.663C35.4802 523.294 52.1361 551.397 61.9343 565.594C69.3729 576.371 98.2563 570.858 103.004 597.489C105.213 623.183 92.4465 648.414 68.6592 662.118C35.8418 681.026 -4.64836 669.613 -23.6687 636.738Z" fill="#E56863"/>
<path d="M-23.6797 636.568C-42.6898 603.519 -32.6806 561.997 0.14286 542.976C33.722 523.517 49.6819 552.965 57.6446 565.106C65.6071 577.247 98.9078 570.715 103.006 597.064C105.206 622.898 92.4323 648.271 68.6407 662.058C35.8172 681.079 -4.66953 669.617 -23.6797 636.568Z" fill="#F6F6F6"/>
<path d="M-25.625 638.713C-44.9903 605.198 -33.3502 561.887 0.0398865 542.624C33.43 523.362 44.6171 554.481 56.2465 568.052C67.3825 581.046 97.95 569.076 104.748 597.519C107.003 623.711 94.0195 649.425 69.8171 663.387C36.427 682.649 -6.25982 672.228 -25.625 638.713Z" fill="#141414"/>
</g>
<path d="M48.484 46.2C48.708 46.2 48.89 46.2747 49.03 46.424C49.17 46.5733 49.24 46.76 49.24 46.984V55.146C49.24 55.3887 49.156 55.594 48.988 55.762C48.8293 55.9207 48.6287 56 48.386 56C48.2553 56 48.1247 55.9813 47.994 55.944C47.8727 55.8973 47.784 55.8367 47.728 55.762L42.59 49.238V55.216C42.59 55.44 42.5153 55.6267 42.366 55.776C42.226 55.9253 42.0393 56 41.806 56C41.582 56 41.4 55.9253 41.26 55.776C41.12 55.6267 41.05 55.44 41.05 55.216V47.054C41.05 46.8113 41.1293 46.6107 41.288 46.452C41.456 46.284 41.6613 46.2 41.904 46.2C42.044 46.2 42.1793 46.228 42.31 46.284C42.45 46.34 42.5527 46.4147 42.618 46.508L47.714 53.004V46.984C47.714 46.76 47.784 46.5733 47.924 46.424C48.0733 46.2747 48.26 46.2 48.484 46.2ZM57.9249 52.08C57.9156 52.304 57.8269 52.486 57.6589 52.626C57.4909 52.766 57.2949 52.836 57.0709 52.836H52.4509C52.5629 53.3867 52.8196 53.8207 53.2209 54.138C53.6223 54.446 54.0749 54.6 54.5789 54.6C54.9616 54.6 55.2603 54.5673 55.4749 54.502C55.6896 54.4273 55.8576 54.3527 55.9789 54.278C56.1096 54.194 56.1983 54.138 56.2449 54.11C56.4129 54.026 56.5716 53.984 56.7209 53.984C56.9169 53.984 57.0849 54.054 57.2249 54.194C57.3649 54.334 57.4349 54.4973 57.4349 54.684C57.4349 54.936 57.3043 55.1647 57.0429 55.37C56.7816 55.5847 56.4316 55.7667 55.9929 55.916C55.5543 56.0653 55.1109 56.14 54.6629 56.14C53.8789 56.14 53.1929 55.9767 52.6049 55.65C52.0263 55.3233 51.5783 54.8753 51.2609 54.306C50.9436 53.7273 50.7849 53.0787 50.7849 52.36C50.7849 51.5573 50.9529 50.8527 51.2889 50.246C51.6249 49.6393 52.0683 49.1773 52.6189 48.86C53.1696 48.5333 53.7576 48.37 54.3829 48.37C54.9989 48.37 55.5776 48.538 56.1189 48.874C56.6696 49.21 57.1083 49.6627 57.4349 50.232C57.7616 50.8013 57.9249 51.4173 57.9249 52.08ZM54.3829 49.91C53.3003 49.91 52.6609 50.4187 52.4649 51.436H56.1329V51.338C56.0956 50.946 55.9043 50.61 55.5589 50.33C55.2136 50.05 54.8216 49.91 54.3829 49.91ZM64.842 54.67C64.9633 54.8193 65.024 54.9873 65.024 55.174C65.024 55.4073 64.9353 55.608 64.758 55.776C64.5807 55.944 64.3847 56.028 64.17 56.028C63.8993 56.028 63.6707 55.9067 63.484 55.664L61.804 53.578L60.166 55.664C60.082 55.776 59.9793 55.8647 59.858 55.93C59.746 55.986 59.6247 56.014 59.494 56.014C59.298 56.014 59.1113 55.9393 58.934 55.79C58.7567 55.6407 58.668 55.468 58.668 55.272C58.668 55.0853 58.738 54.908 58.878 54.74L60.824 52.36L58.808 49.854C58.6867 49.7047 58.626 49.5367 58.626 49.35C58.626 49.1167 58.71 48.9207 58.878 48.762C59.0553 48.594 59.256 48.51 59.48 48.51C59.7507 48.51 59.9793 48.6267 60.166 48.86L61.888 51.002L63.484 48.888C63.6613 48.636 63.8853 48.51 64.156 48.51C64.38 48.51 64.5667 48.5893 64.716 48.748C64.8747 48.8973 64.954 49.07 64.954 49.266C64.954 49.4713 64.8887 49.6533 64.758 49.812L62.826 52.164L64.842 54.67ZM70.4575 54.418C70.5882 54.418 70.7049 54.4833 70.8075 54.614C70.9195 54.7353 70.9755 54.8987 70.9755 55.104C70.9755 55.356 70.8355 55.5707 70.5555 55.748C70.2849 55.916 69.9769 56 69.6315 56C69.0529 56 68.5629 55.8787 68.1615 55.636C67.7695 55.384 67.5735 54.8567 67.5735 54.054V50.19H66.9295C66.7055 50.19 66.5189 50.1153 66.3695 49.966C66.2202 49.8167 66.1455 49.63 66.1455 49.406C66.1455 49.1913 66.2202 49.014 66.3695 48.874C66.5189 48.7247 66.7055 48.65 66.9295 48.65H67.5735V47.754C67.5735 47.5113 67.6529 47.3107 67.8115 47.152C67.9795 46.984 68.1849 46.9 68.4275 46.9C68.6609 46.9 68.8569 46.984 69.0155 47.152C69.1742 47.3107 69.2535 47.5113 69.2535 47.754V48.65H70.2475C70.4715 48.65 70.6582 48.7247 70.8075 48.874C70.9569 49.0233 71.0315 49.21 71.0315 49.434C71.0315 49.6487 70.9569 49.8307 70.8075 49.98C70.6582 50.12 70.4715 50.19 70.2475 50.19H69.2535V53.984C69.2535 54.18 69.3049 54.3247 69.4075 54.418C69.5102 54.502 69.6502 54.544 69.8275 54.544C69.9022 54.544 70.0049 54.5253 70.1355 54.488C70.2475 54.4413 70.3549 54.418 70.4575 54.418ZM79.7879 56.14C79.1159 56.14 78.5186 56.056 77.9959 55.888C77.4732 55.72 76.9832 55.4353 76.5259 55.034C76.2739 54.81 76.1479 54.5627 76.1479 54.292C76.1479 54.0773 76.2272 53.8907 76.3859 53.732C76.5446 53.564 76.7359 53.48 76.9599 53.48C77.1372 53.48 77.2959 53.536 77.4359 53.648C77.8092 53.956 78.1732 54.18 78.5279 54.32C78.8826 54.46 79.3026 54.53 79.7879 54.53C80.3106 54.53 80.7586 54.4133 81.1319 54.18C81.5146 53.9467 81.7059 53.6573 81.7059 53.312C81.7059 52.892 81.5192 52.5653 81.1459 52.332C80.7726 52.0893 80.1799 51.9073 79.3679 51.786C77.3239 51.4873 76.3019 50.5353 76.3019 48.93C76.3019 48.342 76.4559 47.8333 76.7639 47.404C77.0719 46.9653 77.4919 46.634 78.0239 46.41C78.5559 46.1767 79.1486 46.06 79.8019 46.06C80.3899 46.06 80.9406 46.1487 81.4539 46.326C81.9766 46.5033 82.4106 46.7367 82.7559 47.026C83.0266 47.2407 83.1619 47.488 83.1619 47.768C83.1619 47.9827 83.0826 48.174 82.9239 48.342C82.7652 48.5007 82.5786 48.58 82.3639 48.58C82.2239 48.58 82.0979 48.538 81.9859 48.454C81.7432 48.258 81.4026 48.0807 80.9639 47.922C80.5346 47.754 80.1472 47.67 79.8019 47.67C79.2139 47.67 78.7566 47.782 78.4299 48.006C78.1126 48.2207 77.9539 48.5053 77.9539 48.86C77.9539 49.2613 78.1172 49.5647 78.4439 49.77C78.7799 49.9753 79.3026 50.1433 80.0119 50.274C80.8146 50.414 81.4539 50.596 81.9299 50.82C82.4152 51.0347 82.7792 51.3333 83.0219 51.716C83.2646 52.0893 83.3859 52.5887 83.3859 53.214C83.3859 53.802 83.2179 54.32 82.8819 54.768C82.5552 55.2067 82.1166 55.5473 81.5659 55.79C81.0152 56.0233 80.4226 56.14 79.7879 56.14ZM88.4634 54.418C88.5941 54.418 88.7107 54.4833 88.8134 54.614C88.9254 54.7353 88.9814 54.8987 88.9814 55.104C88.9814 55.356 88.8414 55.5707 88.5614 55.748C88.2907 55.916 87.9827 56 87.6374 56C87.0587 56 86.5687 55.8787 86.1674 55.636C85.7754 55.384 85.5794 54.8567 85.5794 54.054V50.19H84.9354C84.7114 50.19 84.5247 50.1153 84.3754 49.966C84.2261 49.8167 84.1514 49.63 84.1514 49.406C84.1514 49.1913 84.2261 49.014 84.3754 48.874C84.5247 48.7247 84.7114 48.65 84.9354 48.65H85.5794V47.754C85.5794 47.5113 85.6587 47.3107 85.8174 47.152C85.9854 46.984 86.1907 46.9 86.4334 46.9C86.6667 46.9 86.8627 46.984 87.0214 47.152C87.1801 47.3107 87.2594 47.5113 87.2594 47.754V48.65H88.2534C88.4774 48.65 88.6641 48.7247 88.8134 48.874C88.9627 49.0233 89.0374 49.21 89.0374 49.434C89.0374 49.6487 88.9627 49.8307 88.8134 49.98C88.6641 50.12 88.4774 50.19 88.2534 50.19H87.2594V53.984C87.2594 54.18 87.3107 54.3247 87.4134 54.418C87.5161 54.502 87.6561 54.544 87.8334 54.544C87.9081 54.544 88.0107 54.5253 88.1414 54.488C88.2534 54.4413 88.3607 54.418 88.4634 54.418ZM97.2316 52.08C97.2222 52.304 97.1336 52.486 96.9656 52.626C96.7976 52.766 96.6016 52.836 96.3776 52.836H91.7576C91.8696 53.3867 92.1262 53.8207 92.5276 54.138C92.9289 54.446 93.3816 54.6 93.8856 54.6C94.2682 54.6 94.5669 54.5673 94.7816 54.502C94.9962 54.4273 95.1642 54.3527 95.2856 54.278C95.4162 54.194 95.5049 54.138 95.5516 54.11C95.7196 54.026 95.8782 53.984 96.0276 53.984C96.2236 53.984 96.3916 54.054 96.5316 54.194C96.6716 54.334 96.7416 54.4973 96.7416 54.684C96.7416 54.936 96.6109 55.1647 96.3496 55.37C96.0882 55.5847 95.7382 55.7667 95.2996 55.916C94.8609 56.0653 94.4176 56.14 93.9696 56.14C93.1856 56.14 92.4996 55.9767 91.9116 55.65C91.3329 55.3233 90.8849 54.8753 90.5676 54.306C90.2502 53.7273 90.0916 53.0787 90.0916 52.36C90.0916 51.5573 90.2596 50.8527 90.5956 50.246C90.9316 49.6393 91.3749 49.1773 91.9256 48.86C92.4762 48.5333 93.0642 48.37 93.6896 48.37C94.3056 48.37 94.8842 48.538 95.4256 48.874C95.9762 49.21 96.4149 49.6627 96.7416 50.232C97.0682 50.8013 97.2316 51.4173 97.2316 52.08ZM93.6896 49.91C92.6069 49.91 91.9676 50.4187 91.7716 51.436H95.4396V51.338C95.4022 50.946 95.2109 50.61 94.8656 50.33C94.5202 50.05 94.1282 49.91 93.6896 49.91ZM102.511 48.37C103.155 48.37 103.738 48.538 104.261 48.874C104.783 49.2007 105.194 49.658 105.493 50.246C105.801 50.834 105.955 51.5013 105.955 52.248C105.955 52.9947 105.805 53.6667 105.507 54.264C105.208 54.852 104.797 55.314 104.275 55.65C103.761 55.9767 103.192 56.14 102.567 56.14C102.119 56.14 101.694 56.0513 101.293 55.874C100.901 55.6873 100.574 55.4633 100.313 55.202V57.946C100.313 58.1887 100.233 58.3893 100.075 58.548C99.916 58.716 99.7153 58.8 99.4727 58.8C99.23 58.8 99.0293 58.7207 98.8707 58.562C98.712 58.4033 98.6327 58.198 98.6327 57.946V49.364C98.6327 49.1213 98.712 48.9207 98.8707 48.762C99.0293 48.594 99.23 48.51 99.4727 48.51C99.7153 48.51 99.916 48.594 100.075 48.762C100.233 48.9207 100.313 49.1213 100.313 49.364V49.42C100.537 49.14 100.849 48.8973 101.251 48.692C101.652 48.4773 102.072 48.37 102.511 48.37ZM102.301 54.6C102.898 54.6 103.388 54.376 103.771 53.928C104.153 53.48 104.345 52.92 104.345 52.248C104.345 51.576 104.153 51.0207 103.771 50.582C103.397 50.134 102.907 49.91 102.301 49.91C101.694 49.91 101.199 50.134 100.817 50.582C100.434 51.0207 100.243 51.576 100.243 52.248C100.243 52.92 100.434 53.48 100.817 53.928C101.199 54.376 101.694 54.6 102.301 54.6ZM106.921 54.838C106.837 54.726 106.795 54.586 106.795 54.418C106.795 54.1753 106.917 53.97 107.159 53.802C107.29 53.718 107.425 53.676 107.565 53.676C107.761 53.676 107.948 53.7647 108.125 53.942C108.405 54.2313 108.695 54.446 108.993 54.586C109.301 54.726 109.67 54.796 110.099 54.796C110.827 54.768 111.191 54.4927 111.191 53.97C111.191 53.6993 111.065 53.494 110.813 53.354C110.571 53.214 110.188 53.074 109.665 52.934C109.124 52.7847 108.681 52.6353 108.335 52.486C107.999 52.3367 107.705 52.1127 107.453 51.814C107.211 51.506 107.089 51.0953 107.089 50.582C107.089 50.134 107.215 49.7467 107.467 49.42C107.729 49.084 108.065 48.8273 108.475 48.65C108.895 48.4633 109.339 48.37 109.805 48.37C110.281 48.37 110.757 48.4587 111.233 48.636C111.709 48.8133 112.083 49.0747 112.353 49.42C112.475 49.5693 112.535 49.7373 112.535 49.924C112.535 50.1387 112.447 50.316 112.269 50.456C112.139 50.5587 111.989 50.61 111.821 50.61C111.616 50.61 111.448 50.5447 111.317 50.414C111.149 50.2087 110.93 50.0453 110.659 49.924C110.398 49.8027 110.099 49.742 109.763 49.742C109.054 49.742 108.699 49.9987 108.699 50.512C108.699 50.7173 108.765 50.8853 108.895 51.016C109.026 51.1373 109.189 51.2353 109.385 51.31C109.591 51.3753 109.875 51.4593 110.239 51.562C110.743 51.702 111.163 51.8467 111.499 51.996C111.835 52.1453 112.12 52.374 112.353 52.682C112.587 52.99 112.703 53.396 112.703 53.9C112.703 54.3573 112.568 54.7587 112.297 55.104C112.027 55.44 111.677 55.6967 111.247 55.874C110.827 56.0513 110.393 56.14 109.945 56.14C109.329 56.14 108.755 56.0373 108.223 55.832C107.691 55.6267 107.257 55.2953 106.921 54.838Z" fill="#3C0603"/>
<path opacity="0.5" d="M40 64H87" stroke="#E24D47" stroke-width="2" stroke-linecap="round"/>
</g>
<defs>
<filter id="filter0_d" x="-15" y="-11" width="983" height="645" filterUnits="userSpaceOnUse" color-interpolation-filters="sRGB">
<feFlood flood-opacity="0" result="BackgroundImageFix"/>
<feColorMatrix in="SourceAlpha" type="matrix" values="0 0 0 0 0 0 0 0 0 0 0 0 0 0 0 0 0 0 127 0"/>
<feOffset dy="4"/>
<feGaussianBlur stdDeviation="7.5"/>
<feColorMatrix type="matrix" values="0 0 0 0 0 0 0 0 0 0 0 0 0 0 0 0 0 0 0.05 0"/>
<feBlend mode="normal" in2="BackgroundImageFix" result="effect1_dropShadow"/>
<feBlend mode="normal" in="SourceGraphic" in2="effect1_dropShadow" result="shape"/>
</filter>
<filter id="filter1_d" x="111" y="178" width="413" height="90" filterUnits="userSpaceOnUse" color-interpolation-filters="sRGB">
<feFlood flood-opacity="0" result="BackgroundImageFix"/>
<feColorMatrix in="SourceAlpha" type="matrix" values="0 0 0 0 0 0 0 0 0 0 0 0 0 0 0 0 0 0 127 0"/>
<feOffset dx="6" dy="6"/>
<feGaussianBlur stdDeviation="7.5"/>
<feColorMatrix type="matrix" values="0 0 0 0 0.494118 0 0 0 0 0.458824 0 0 0 0 0.509804 0 0 0 0.2 0"/>
<feBlend mode="normal" in2="BackgroundImageFix" result="effect1_dropShadow"/>
<feBlend mode="normal" in="SourceGraphic" in2="effect1_dropShadow" result="shape"/>
</filter>
<clipPath id="clip0">
<rect width="953" height="615" fill="white"/>
</clipPath>
</defs>
</svg>
