<svg width="70" height="21" viewBox="0 0 70 21" fill="none" xmlns="http://www.w3.org/2000/svg">
<path d="M15.134 6.61C16.694 6.61 17.838 7.09533 18.566 8.066C19.3113 9.01933 19.684 10.2847 19.684 11.862V19.22C19.684 19.4453 19.606 19.636 19.45 19.792C19.3113 19.9307 19.1293 20 18.904 20C18.6787 20 18.488 19.9307 18.332 19.792C18.1933 19.636 18.124 19.4453 18.124 19.22V11.94C18.124 10.796 17.8467 9.86867 17.292 9.158C16.7547 8.43 15.914 8.066 14.77 8.066C14.042 8.066 13.3487 8.23933 12.69 8.586C12.0487 8.93267 11.5287 9.40933 11.13 10.016C10.7313 10.6053 10.532 11.2467 10.532 11.94V19.22C10.532 19.4453 10.454 19.636 10.298 19.792C10.1593 19.9307 9.97733 20 9.752 20C9.52667 20 9.336 19.9307 9.18 19.792C9.04133 19.636 8.972 19.4453 8.972 19.22V11.862C8.972 10.7353 8.712 9.82533 8.192 9.132C7.672 8.42133 6.85733 8.066 5.748 8.066C5.03733 8.066 4.36133 8.23933 3.72 8.586C3.096 8.93267 2.58467 9.40067 2.186 9.99C1.80467 10.562 1.614 11.186 1.614 11.862V19.22C1.614 19.4453 1.536 19.636 1.38 19.792C1.24133 19.9307 1.05933 20 0.834 20C0.608667 20 0.418 19.9307 0.262 19.792C0.123333 19.636 0.0540001 19.4453 0.0540001 19.22V7.572C0.0540001 7.34667 0.123333 7.16467 0.262 7.026C0.418 6.87 0.608667 6.792 0.834 6.792C1.05933 6.792 1.24133 6.87 1.38 7.026C1.536 7.16467 1.614 7.34667 1.614 7.572V9.08C2.082 8.36933 2.71467 7.78 3.512 7.312C4.30933 6.844 5.15 6.61 6.034 6.61C7.03933 6.61 7.906 6.85267 8.634 7.338C9.362 7.82333 9.882 8.534 10.194 9.47C10.558 8.70733 11.2253 8.04 12.196 7.468C13.1667 6.896 14.146 6.61 15.134 6.61ZM34.5588 6.714C34.7842 6.714 34.9662 6.792 35.1048 6.948C35.2608 7.104 35.3388 7.29467 35.3388 7.52V19.22C35.3388 19.4453 35.2608 19.636 35.1048 19.792C34.9662 19.9307 34.7842 20 34.5588 20C34.3335 20 34.1428 19.9307 33.9868 19.792C33.8482 19.636 33.7788 19.4453 33.7788 19.22V17.478C33.3455 18.258 32.6955 18.9167 31.8288 19.454C30.9622 19.9913 30.0175 20.26 28.9948 20.26C27.8335 20.26 26.7848 19.9567 25.8488 19.35C24.9302 18.7433 24.2022 17.9113 23.6648 16.854C23.1448 15.7967 22.8848 14.6093 22.8848 13.292C22.8848 11.9747 23.1535 10.796 23.6908 9.756C24.2282 8.69867 24.9562 7.87533 25.8748 7.286C26.8108 6.69667 27.8422 6.402 28.9688 6.402C30.0088 6.402 30.9622 6.65333 31.8288 7.156C32.6955 7.65867 33.3455 8.31733 33.7788 9.132V7.52C33.7788 7.29467 33.8482 7.104 33.9868 6.948C34.1428 6.792 34.3335 6.714 34.5588 6.714ZM29.1508 18.804C30.0522 18.804 30.8582 18.57 31.5688 18.102C32.2968 17.6167 32.8602 16.958 33.2588 16.126C33.6748 15.2767 33.8828 14.332 33.8828 13.292C33.8828 12.2867 33.6748 11.368 33.2588 10.536C32.8602 9.704 32.2968 9.054 31.5688 8.586C30.8582 8.10067 30.0522 7.858 29.1508 7.858C28.2495 7.858 27.4348 8.092 26.7068 8.56C25.9962 9.028 25.4328 9.678 25.0168 10.51C24.6182 11.3247 24.4188 12.252 24.4188 13.292C24.4188 14.332 24.6182 15.2767 25.0168 16.126C25.4155 16.958 25.9702 17.6167 26.6808 18.102C27.4088 18.57 28.2322 18.804 29.1508 18.804ZM38.6555 17.894C38.5168 17.6687 38.4475 17.478 38.4475 17.322C38.4475 17.0967 38.5601 16.9233 38.7855 16.802C38.8895 16.698 39.0281 16.646 39.2015 16.646C39.4095 16.646 39.6001 16.7327 39.7735 16.906C40.7961 18.258 42.1568 18.934 43.8555 18.934C44.6875 18.934 45.4068 18.7433 46.0135 18.362C46.6375 17.9633 46.9495 17.3913 46.9495 16.646C46.9495 15.918 46.6635 15.372 46.0915 15.008C45.5195 14.644 44.7221 14.332 43.6995 14.072C42.2608 13.708 41.1341 13.24 40.3195 12.668C39.5048 12.0787 39.0975 11.2207 39.0975 10.094C39.0975 9.38333 39.2968 8.75067 39.6955 8.196C40.0941 7.624 40.6315 7.182 41.3075 6.87C42.0008 6.558 42.7808 6.402 43.6475 6.402C44.3928 6.402 45.1381 6.54933 45.8835 6.844C46.6461 7.12133 47.2961 7.572 47.8335 8.196C47.9895 8.31733 48.0675 8.49067 48.0675 8.716C48.0675 8.924 47.9808 9.106 47.8075 9.262C47.6861 9.366 47.5301 9.418 47.3395 9.418C47.1661 9.418 47.0101 9.34867 46.8715 9.21C46.4555 8.742 45.9615 8.38667 45.3895 8.144C44.8175 7.90133 44.2021 7.78 43.5435 7.78C42.7288 7.78 42.0268 7.97067 41.4375 8.352C40.8655 8.73333 40.5795 9.30533 40.5795 10.068C40.6141 10.7613 40.9261 11.29 41.5155 11.654C42.1221 12.018 43.0061 12.3473 44.1675 12.642C45.0688 12.8673 45.8141 13.1187 46.4035 13.396C46.9928 13.6733 47.4695 14.0633 47.8335 14.566C48.2148 15.0687 48.4055 15.736 48.4055 16.568C48.4055 17.6947 47.9548 18.596 47.0535 19.272C46.1521 19.9307 45.0341 20.26 43.6995 20.26C41.5848 20.26 39.9035 19.4713 38.6555 17.894ZM53.313 19.22C53.313 19.4453 53.235 19.636 53.079 19.792C52.9403 19.9307 52.7583 20 52.533 20C52.3076 20 52.117 19.9307 51.961 19.792C51.8223 19.636 51.753 19.4453 51.753 19.22V1.54C51.753 1.31467 51.8223 1.13267 51.961 0.994C52.117 0.838 52.3076 0.76 52.533 0.76C52.7583 0.76 52.9403 0.838 53.079 0.994C53.235 1.13267 53.313 1.31467 53.313 1.54V19.22ZM69.6072 13.344C69.6072 14.644 69.3213 15.8227 68.7493 16.88C68.1773 17.9373 67.3886 18.7693 66.3833 19.376C65.3779 19.9653 64.2599 20.26 63.0293 20.26C61.7986 20.26 60.6806 19.9653 59.6753 19.376C58.6699 18.7693 57.8813 17.9373 57.3093 16.88C56.7373 15.8227 56.4513 14.644 56.4513 13.344C56.4513 12.044 56.7373 10.8653 57.3093 9.808C57.8813 8.75067 58.6699 7.91867 59.6753 7.312C60.6806 6.70533 61.7986 6.402 63.0293 6.402C64.2599 6.402 65.3779 6.70533 66.3833 7.312C67.3886 7.91867 68.1773 8.75067 68.7493 9.808C69.3213 10.8653 69.6072 12.044 69.6072 13.344ZM68.0473 13.344C68.0473 12.304 67.8306 11.368 67.3973 10.536C66.9639 9.704 66.3573 9.054 65.5773 8.586C64.8146 8.10067 63.9653 7.858 63.0293 7.858C62.0933 7.858 61.2439 8.10067 60.4813 8.586C59.7186 9.054 59.1119 9.704 58.6613 10.536C58.2279 11.368 58.0113 12.304 58.0113 13.344C58.0113 14.3667 58.2279 15.294 58.6613 16.126C59.1119 16.958 59.7186 17.6167 60.4813 18.102C61.2439 18.57 62.0933 18.804 63.0293 18.804C63.9653 18.804 64.8146 18.57 65.5773 18.102C66.3573 17.634 66.9639 16.984 67.3973 16.152C67.8306 15.32 68.0473 14.384 68.0473 13.344Z" fill="#321B9A"/>
</svg>
