<svg width="38" height="27" viewBox="0 0 38 27" fill="none" xmlns="http://www.w3.org/2000/svg">
<rect x="4.00049" y="0.75" width="30" height="23.25" rx="1.25" stroke="#7C5AEB" stroke-width="1.5"/>
<path d="M13.8781 6.87451H12.8313V7.92133H13.8781V6.87451Z" fill="#7C5AEB"/>
<path d="M15.9699 6.87451H14.9231V7.92133H15.9699V6.87451Z" fill="#7C5AEB"/>
<path d="M18.0682 6.87451H17.0214V7.92133H18.0682V6.87451Z" fill="#7C5AEB"/>
<path d="M10.5006 10H27.5006" stroke="#7C5AEB"/>
<rect x="10.774" y="4.86377" width="16.4545" height="15.3636" rx="1.5" stroke="#7C5AEB"/>
<path d="M18.9832 13.5171L17.7208 17.3003L18.9165 17.6993L20.1789 13.9161L18.9832 13.5171Z" fill="#7C5AEB"/>
<path d="M22.0842 13.0908L21.11 13.9154L22.6898 15.2527L21.11 16.5899L22.0842 17.4146L24.1511 15.665C24.2802 15.5556 24.3528 15.4073 24.3528 15.2527C24.3528 15.0981 24.2802 14.9497 24.1511 14.8404L22.0842 13.0908Z" fill="#7C5AEB"/>
<path d="M15.8161 13.0913L13.7492 14.8409C13.62 14.9502 13.5475 15.0985 13.5475 15.2532C13.5475 15.4078 13.62 15.5561 13.7492 15.6655L15.8161 17.4151L16.7903 16.5904L15.2105 15.2532L16.7903 13.9159L15.8161 13.0913Z" fill="#7C5AEB"/>
<path d="M1 24.75H37" stroke="#7C5AEB" stroke-width="1.5" stroke-linecap="round"/>
</svg>
