<svg width="31" height="34" viewBox="0 0 31 34" fill="none" xmlns="http://www.w3.org/2000/svg">
<path d="M2.58696 31.9348H28.413C28.737 31.9348 29 31.6718 29 31.3478V2.58696C29 2.26296 28.737 2 28.413 2H2.58696C2.26296 2 2 2.26296 2 2.58696V31.3478C2 31.6718 2.26296 31.9348 2.58696 31.9348ZM3.17391 30.7609V7.28261H27.8261V30.7609H3.17391ZM27.8261 3.17391V6.1087H3.17391V3.17391H27.8261Z" fill="#7C5AEB"/>
<path d="M11.5621 14.7402C11.6765 14.8547 11.8268 14.9122 11.977 14.9122C12.1273 14.9122 12.2776 14.8547 12.392 14.7402C12.6215 14.5107 12.6215 14.1398 12.392 13.9103L10.4592 11.9774L12.392 10.0446C12.6215 9.81506 12.6215 9.44411 12.392 9.21461C12.1625 8.98511 11.7916 8.98511 11.5621 9.21461L9.21424 11.5624C8.98474 11.7919 8.98474 12.1629 9.21424 12.3924L11.5621 14.7402Z" fill="#7C5AEB"/>
<path d="M19.4349 9.21461C19.2054 8.98511 18.8345 8.98511 18.605 9.21461C18.3755 9.44411 18.3755 9.81506 18.605 10.0446L20.5378 11.9774L18.605 13.9103C18.3755 14.1398 18.3755 14.5107 18.605 14.7402C18.7194 14.8547 18.8697 14.9122 19.02 14.9122C19.1702 14.9122 19.3205 14.8547 19.4349 14.7402L21.7828 12.3924C22.0123 12.1629 22.0123 11.7919 21.7828 11.5624L19.4349 9.21461Z" fill="#7C5AEB"/>
<path d="M14.0622 14.8509C14.1461 14.8926 14.2359 14.9125 14.324 14.9125C14.5394 14.9125 14.7466 14.794 14.8499 14.588L17.1977 9.8923C17.3427 9.60235 17.2253 9.24958 16.9353 9.10461C16.6448 8.95963 16.2926 9.07702 16.1476 9.36698L13.7998 14.0626C13.6542 14.3532 13.7722 14.7053 14.0622 14.8509Z" fill="#7C5AEB"/>
<path d="M5.51982 17.8477H9.62851C9.95251 17.8477 10.2155 17.5848 10.2155 17.2608C10.2155 16.9368 9.95251 16.6738 9.62851 16.6738H5.51982C5.19582 16.6738 4.93286 16.9368 4.93286 17.2608C4.93286 17.5848 5.19582 17.8477 5.51982 17.8477Z" fill="#7C5AEB"/>
<path d="M16.6737 19.6084C16.6737 19.2844 16.4107 19.0215 16.0867 19.0215H7.28239C6.95839 19.0215 6.69543 19.2844 6.69543 19.6084C6.69543 19.9324 6.95839 20.1954 7.28239 20.1954H16.0867C16.4107 20.1954 16.6737 19.9324 16.6737 19.6084Z" fill="#7C5AEB"/>
<path d="M7.28239 21.3691C6.95839 21.3691 6.69543 21.6321 6.69543 21.9561C6.69543 22.2801 6.95839 22.5431 7.28239 22.5431H13.152C13.476 22.5431 13.7389 22.2801 13.7389 21.9561C13.7389 21.6321 13.476 21.3691 13.152 21.3691H7.28239Z" fill="#7C5AEB"/>
<path d="M20.1954 23.7178H7.28239C6.95839 23.7178 6.69543 23.9807 6.69543 24.3047C6.69543 24.6287 6.95839 24.8917 7.28239 24.8917H20.1954C20.5194 24.8917 20.7824 24.6287 20.7824 24.3047C20.7824 23.9807 20.5194 23.7178 20.1954 23.7178Z" fill="#7C5AEB"/>
<path d="M16.0867 26.0654H7.28239C6.95839 26.0654 6.69543 26.3284 6.69543 26.6524C6.69543 26.9764 6.95839 27.2393 7.28239 27.2393H16.0867C16.4107 27.2393 16.6737 26.9764 16.6737 26.6524C16.6737 26.3284 16.4107 26.0654 16.0867 26.0654Z" fill="#7C5AEB"/>
<path d="M9.62851 28.4131H5.51982C5.19582 28.4131 4.93286 28.676 4.93286 29C4.93286 29.324 5.19582 29.587 5.51982 29.587H9.62851C9.95251 29.587 10.2155 29.324 10.2155 29C10.2155 28.676 9.95251 28.4131 9.62851 28.4131Z" fill="#7C5AEB"/>
</svg>
