<svg width="24" height="31" viewBox="0 0 24 31" fill="none" xmlns="http://www.w3.org/2000/svg">
<g clip-path="url(#clip0)">
<path d="M22.4348 31.3043H1.56522C1.1501 31.3043 0.751977 31.1394 0.458442 30.8459C0.164906 30.5524 0 30.1543 0 29.7391V1.56522C0 1.1501 0.164906 0.751977 0.458442 0.458442C0.751977 0.164906 1.1501 0 1.56522 0L16.6957 0C16.834 0 16.9667 0.0549688 17.0646 0.152814C17.1624 0.250659 17.2174 0.383365 17.2174 0.521739V6.78261C17.2174 6.92098 17.2724 7.05369 17.3702 7.15153C17.4681 7.24938 17.6008 7.30435 17.7391 7.30435H23.4783C23.6166 7.30435 23.7493 7.35932 23.8472 7.45716C23.945 7.55501 24 7.68771 24 7.82609V29.7391C24 30.1543 23.8351 30.5524 23.5416 30.8459C23.248 31.1394 22.8499 31.3043 22.4348 31.3043ZM1.56522 1.04348C1.42684 1.04348 1.29414 1.09845 1.19629 1.19629C1.09845 1.29414 1.04348 1.42684 1.04348 1.56522V29.7391C1.04348 29.8775 1.09845 30.0102 1.19629 30.1081C1.29414 30.2059 1.42684 30.2609 1.56522 30.2609H22.4348C22.5732 30.2609 22.7059 30.2059 22.8037 30.1081C22.9016 30.0102 22.9565 29.8775 22.9565 29.7391V8.34783H17.7391C17.324 8.34783 16.9259 8.18292 16.6324 7.88938C16.3388 7.59585 16.1739 7.19773 16.1739 6.78261V1.04348H1.56522Z" fill="#7C5AEB"/>
<path d="M23.4779 8.34798H17.7388C17.3237 8.34798 16.9256 8.18308 16.632 7.88954C16.3385 7.59601 16.1736 7.19789 16.1736 6.78277V0.521897C16.1739 0.417397 16.2057 0.315412 16.2647 0.229156C16.3237 0.142899 16.4072 0.0763455 16.5045 0.0381171C16.6017 -0.000111387 16.7082 -0.00825305 16.8102 0.0147468C16.9121 0.0377467 17.0048 0.0908282 17.0762 0.167115L23.8588 7.47146C23.9277 7.54579 23.9735 7.6386 23.9906 7.73853C24.0076 7.83846 23.9952 7.9412 23.9548 8.03417C23.9144 8.12715 23.8478 8.20635 23.7631 8.26208C23.6784 8.31781 23.5793 8.34766 23.4779 8.34798ZM17.2171 1.85233V6.78277C17.2171 6.92114 17.272 7.05385 17.3699 7.15169C17.4677 7.24954 17.6004 7.30451 17.7388 7.30451H22.2831L17.2171 1.85233Z" fill="#7C5AEB"/>
<path d="M2.60853 12.522C2.47016 12.522 2.33745 12.467 2.23961 12.3692C2.14176 12.2713 2.08679 12.1386 2.08679 12.0003C2.08679 11.8619 2.14176 11.7292 2.23961 11.6313C2.33745 11.5335 2.47016 11.4785 2.60853 11.4785C2.7469 11.4785 2.87961 11.5335 2.97746 11.6313C3.0753 11.7292 3.13027 11.8619 3.13027 12.0003C3.13027 12.1386 3.0753 12.2713 2.97746 12.3692C2.87961 12.467 2.7469 12.522 2.60853 12.522Z" fill="#7C5AEB"/>
<path d="M2.60853 14.6084C2.47016 14.6084 2.33745 14.5535 2.23961 14.4556C2.14176 14.3578 2.08679 14.2251 2.08679 14.0867C2.08679 13.9483 2.14176 13.8156 2.23961 13.7178C2.33745 13.6199 2.47016 13.5649 2.60853 13.5649C2.7469 13.5649 2.87961 13.6199 2.97746 13.7178C3.0753 13.8156 3.13027 13.9483 3.13027 14.0867C3.13027 14.2251 3.0753 14.3578 2.97746 14.4556C2.87961 14.5535 2.7469 14.6084 2.60853 14.6084Z" fill="#7C5AEB"/>
<path d="M2.60853 16.6958C2.47016 16.6958 2.33745 16.6409 2.23961 16.543C2.14176 16.4452 2.08679 16.3125 2.08679 16.1741C2.08679 16.0357 2.14176 15.903 2.23961 15.8052C2.33745 15.7073 2.47016 15.6523 2.60853 15.6523C2.7469 15.6523 2.87961 15.7073 2.97746 15.8052C3.0753 15.903 3.13027 16.0357 3.13027 16.1741C3.13027 16.3125 3.0753 16.4452 2.97746 16.543C2.87961 16.6409 2.7469 16.6958 2.60853 16.6958Z" fill="#7C5AEB"/>
<path d="M2.60853 18.7827C2.47016 18.7827 2.33745 18.7278 2.23961 18.6299C2.14176 18.5321 2.08679 18.3994 2.08679 18.261C2.08679 18.1226 2.14176 17.9899 2.23961 17.8921C2.33745 17.7942 2.47016 17.7393 2.60853 17.7393C2.7469 17.7393 2.87961 17.7942 2.97746 17.8921C3.0753 17.9899 3.13027 18.1226 3.13027 18.261C3.13027 18.3994 3.0753 18.5321 2.97746 18.6299C2.87961 18.7278 2.7469 18.7827 2.60853 18.7827Z" fill="#7C5AEB"/>
<path d="M2.60853 6.26076C2.47016 6.26076 2.33745 6.20579 2.23961 6.10795C2.14176 6.0101 2.08679 5.8774 2.08679 5.73902C2.08679 5.60065 2.14176 5.46794 2.23961 5.3701C2.33745 5.27225 2.47016 5.21729 2.60853 5.21729C2.7469 5.21729 2.87961 5.27225 2.97746 5.3701C3.0753 5.46794 3.13027 5.60065 3.13027 5.73902C3.13027 5.8774 3.0753 6.0101 2.97746 6.10795C2.87961 6.20579 2.7469 6.26076 2.60853 6.26076Z" fill="#7C5AEB"/>
<path d="M2.60853 8.34768C2.47016 8.34768 2.33745 8.29271 2.23961 8.19486C2.14176 8.09702 2.08679 7.96431 2.08679 7.82594C2.08679 7.68756 2.14176 7.55486 2.23961 7.45701C2.33745 7.35917 2.47016 7.3042 2.60853 7.3042C2.7469 7.3042 2.87961 7.35917 2.97746 7.45701C3.0753 7.55486 3.13027 7.68756 3.13027 7.82594C3.13027 7.96431 3.0753 8.09702 2.97746 8.19486C2.87961 8.29271 2.7469 8.34768 2.60853 8.34768Z" fill="#7C5AEB"/>
<path d="M2.60853 10.4351C2.47016 10.4351 2.33745 10.3801 2.23961 10.2823C2.14176 10.1844 2.08679 10.0517 2.08679 9.91334C2.08679 9.77497 2.14176 9.64226 2.23961 9.54442C2.33745 9.44657 2.47016 9.3916 2.60853 9.3916C2.7469 9.3916 2.87961 9.44657 2.97746 9.54442C3.0753 9.64226 3.13027 9.77497 3.13027 9.91334C3.13027 10.0517 3.0753 10.1844 2.97746 10.2823C2.87961 10.3801 2.7469 10.4351 2.60853 10.4351Z" fill="#7C5AEB"/>
<path d="M21.3915 8.34768C21.2531 8.34768 21.1204 8.29271 21.0226 8.19486C20.9247 8.09702 20.8698 7.96431 20.8698 7.82594C20.8698 7.68756 20.9247 7.55486 21.0226 7.45701C21.1204 7.35917 21.2531 7.3042 21.3915 7.3042C21.5299 7.3042 21.6626 7.35917 21.7604 7.45701C21.8583 7.55486 21.9132 7.68756 21.9132 7.82594C21.9132 7.96431 21.8583 8.09702 21.7604 8.19486C21.6626 8.29271 21.5299 8.34768 21.3915 8.34768Z" fill="#7C5AEB"/>
<path d="M21.3915 12.522C21.2531 12.522 21.1204 12.467 21.0226 12.3692C20.9247 12.2713 20.8698 12.1386 20.8698 12.0003C20.8698 11.8619 20.9247 11.7292 21.0226 11.6313C21.1204 11.5335 21.2531 11.4785 21.3915 11.4785C21.5299 11.4785 21.6626 11.5335 21.7604 11.6313C21.8583 11.7292 21.9132 11.8619 21.9132 12.0003C21.9132 12.1386 21.8583 12.2713 21.7604 12.3692C21.6626 12.467 21.5299 12.522 21.3915 12.522Z" fill="#7C5AEB"/>
<path d="M21.3915 14.6084C21.2531 14.6084 21.1204 14.5535 21.0226 14.4556C20.9247 14.3578 20.8698 14.2251 20.8698 14.0867C20.8698 13.9483 20.9247 13.8156 21.0226 13.7178C21.1204 13.6199 21.2531 13.5649 21.3915 13.5649C21.5299 13.5649 21.6626 13.6199 21.7604 13.7178C21.8583 13.8156 21.9132 13.9483 21.9132 14.0867C21.9132 14.2251 21.8583 14.3578 21.7604 14.4556C21.6626 14.5535 21.5299 14.6084 21.3915 14.6084Z" fill="#7C5AEB"/>
<path d="M21.3915 16.6958C21.2531 16.6958 21.1204 16.6409 21.0226 16.543C20.9247 16.4452 20.8698 16.3125 20.8698 16.1741C20.8698 16.0357 20.9247 15.903 21.0226 15.8052C21.1204 15.7073 21.2531 15.6523 21.3915 15.6523C21.5299 15.6523 21.6626 15.7073 21.7604 15.8052C21.8583 15.903 21.9132 16.0357 21.9132 16.1741C21.9132 16.3125 21.8583 16.4452 21.7604 16.543C21.6626 16.6409 21.5299 16.6958 21.3915 16.6958Z" fill="#7C5AEB"/>
<path d="M21.3915 18.7827C21.2531 18.7827 21.1204 18.7278 21.0226 18.6299C20.9247 18.5321 20.8698 18.3994 20.8698 18.261C20.8698 18.1226 20.9247 17.9899 21.0226 17.8921C21.1204 17.7942 21.2531 17.7393 21.3915 17.7393C21.5299 17.7393 21.6626 17.7942 21.7604 17.8921C21.8583 17.9899 21.9132 18.1226 21.9132 18.261C21.9132 18.3994 21.8583 18.5321 21.7604 18.6299C21.6626 18.7278 21.5299 18.7827 21.3915 18.7827Z" fill="#7C5AEB"/>
<path d="M21.3915 20.8697C21.2531 20.8697 21.1204 20.8147 21.0226 20.7168C20.9247 20.619 20.8698 20.4863 20.8698 20.3479C20.8698 20.2095 20.9247 20.0768 21.0226 19.979C21.1204 19.8811 21.2531 19.8262 21.3915 19.8262C21.5299 19.8262 21.6626 19.8811 21.7604 19.979C21.8583 20.0768 21.9132 20.2095 21.9132 20.3479C21.9132 20.4863 21.8583 20.619 21.7604 20.7168C21.6626 20.8147 21.5299 20.8697 21.3915 20.8697Z" fill="#7C5AEB"/>
<path d="M2.60853 20.8697C2.47016 20.8697 2.33745 20.8147 2.23961 20.7168C2.14176 20.619 2.08679 20.4863 2.08679 20.3479C2.08679 20.2095 2.14176 20.0768 2.23961 19.979C2.33745 19.8811 2.47016 19.8262 2.60853 19.8262C2.7469 19.8262 2.87961 19.8811 2.97746 19.979C3.0753 20.0768 3.13027 20.2095 3.13027 20.3479C3.13027 20.4863 3.0753 20.619 2.97746 20.7168C2.87961 20.8147 2.7469 20.8697 2.60853 20.8697Z" fill="#7C5AEB"/>
<path d="M2.60853 22.9566C2.47016 22.9566 2.33745 22.9016 2.23961 22.8038C2.14176 22.7059 2.08679 22.5732 2.08679 22.4348C2.08679 22.2965 2.14176 22.1637 2.23961 22.0659C2.33745 21.9681 2.47016 21.9131 2.60853 21.9131C2.7469 21.9131 2.87961 21.9681 2.97746 22.0659C3.0753 22.1637 3.13027 22.2965 3.13027 22.4348C3.13027 22.5732 3.0753 22.7059 2.97746 22.8038C2.87961 22.9016 2.7469 22.9566 2.60853 22.9566Z" fill="#7C5AEB"/>
<path d="M2.60853 25.0435C2.47016 25.0435 2.33745 24.9885 2.23961 24.8907C2.14176 24.7928 2.08679 24.6601 2.08679 24.5217C2.08679 24.3834 2.14176 24.2507 2.23961 24.1528C2.33745 24.055 2.47016 24 2.60853 24C2.7469 24 2.87961 24.055 2.97746 24.1528C3.0753 24.2507 3.13027 24.3834 3.13027 24.5217C3.13027 24.6601 3.0753 24.7928 2.97746 24.8907C2.87961 24.9885 2.7469 25.0435 2.60853 25.0435Z" fill="#7C5AEB"/>
<path d="M21.3915 22.9566C21.2531 22.9566 21.1204 22.9016 21.0226 22.8038C20.9247 22.7059 20.8698 22.5732 20.8698 22.4348C20.8698 22.2965 20.9247 22.1637 21.0226 22.0659C21.1204 21.9681 21.2531 21.9131 21.3915 21.9131C21.5299 21.9131 21.6626 21.9681 21.7604 22.0659C21.8583 22.1637 21.9132 22.2965 21.9132 22.4348C21.9132 22.5732 21.8583 22.7059 21.7604 22.8038C21.6626 22.9016 21.5299 22.9566 21.3915 22.9566Z" fill="#7C5AEB"/>
<path d="M21.3915 25.0435C21.2531 25.0435 21.1204 24.9885 21.0226 24.8907C20.9247 24.7928 20.8698 24.6601 20.8698 24.5217C20.8698 24.3834 20.9247 24.2507 21.0226 24.1528C21.1204 24.055 21.2531 24 21.3915 24C21.5299 24 21.6626 24.055 21.7604 24.1528C21.8583 24.2507 21.9132 24.3834 21.9132 24.5217C21.9132 24.6601 21.8583 24.7928 21.7604 24.8907C21.6626 24.9885 21.5299 25.0435 21.3915 25.0435Z" fill="#7C5AEB"/>
<path d="M21.3915 27.1304C21.2531 27.1304 21.1204 27.0754 21.0226 26.9776C20.9247 26.8797 20.8698 26.747 20.8698 26.6087C20.8698 26.4703 20.9247 26.3376 21.0226 26.2397C21.1204 26.1419 21.2531 26.0869 21.3915 26.0869C21.5299 26.0869 21.6626 26.1419 21.7604 26.2397C21.8583 26.3376 21.9132 26.4703 21.9132 26.6087C21.9132 26.747 21.8583 26.8797 21.7604 26.9776C21.6626 27.0754 21.5299 27.1304 21.3915 27.1304Z" fill="#7C5AEB"/>
<path d="M2.60853 27.1304C2.47016 27.1304 2.33745 27.0754 2.23961 26.9776C2.14176 26.8797 2.08679 26.747 2.08679 26.6087C2.08679 26.4703 2.14176 26.3376 2.23961 26.2397C2.33745 26.1419 2.47016 26.0869 2.60853 26.0869C2.7469 26.0869 2.87961 26.1419 2.97746 26.2397C3.0753 26.3376 3.13027 26.4703 3.13027 26.6087C3.13027 26.747 3.0753 26.8797 2.97746 26.9776C2.87961 27.0754 2.7469 27.1304 2.60853 27.1304Z" fill="#7C5AEB"/>
<path d="M2.60853 29.2173C2.47016 29.2173 2.33745 29.1623 2.23961 29.0645C2.14176 28.9666 2.08679 28.8339 2.08679 28.6956C2.08679 28.5572 2.14176 28.4245 2.23961 28.3266C2.33745 28.2288 2.47016 28.1738 2.60853 28.1738C2.7469 28.1738 2.87961 28.2288 2.97746 28.3266C3.0753 28.4245 3.13027 28.5572 3.13027 28.6956C3.13027 28.8339 3.0753 28.9666 2.97746 29.0645C2.87961 29.1623 2.7469 29.2173 2.60853 29.2173Z" fill="#7C5AEB"/>
<path d="M21.3915 29.2173C21.2531 29.2173 21.1204 29.1623 21.0226 29.0645C20.9247 28.9666 20.8698 28.8339 20.8698 28.6956C20.8698 28.5572 20.9247 28.4245 21.0226 28.3266C21.1204 28.2288 21.2531 28.1738 21.3915 28.1738C21.5299 28.1738 21.6626 28.2288 21.7604 28.3266C21.8583 28.4245 21.9132 28.5572 21.9132 28.6956C21.9132 28.8339 21.8583 28.9666 21.7604 29.0645C21.6626 29.1623 21.5299 29.2173 21.3915 29.2173Z" fill="#7C5AEB"/>
<path d="M8.86907 22.6954C8.75618 22.6954 8.64634 22.6588 8.55603 22.5911L6.46907 21.0258C6.40427 20.9772 6.35168 20.9142 6.31546 20.8418C6.27923 20.7693 6.26038 20.6894 6.26038 20.6084C6.26038 20.5274 6.27923 20.4476 6.31546 20.3751C6.35168 20.3027 6.40427 20.2396 6.46907 20.1911L8.55603 18.6258C8.66673 18.5428 8.80587 18.5072 8.94286 18.5267C9.07984 18.5463 9.20344 18.6195 9.28646 18.7302C9.36949 18.8409 9.40514 18.98 9.38557 19.117C9.366 19.254 9.29281 19.3776 9.18212 19.4606L7.65342 20.6084L9.18212 21.7563C9.26972 21.822 9.33443 21.9136 9.36708 22.0181C9.39973 22.1226 9.39866 22.2348 9.36404 22.3386C9.32941 22.4425 9.26297 22.5329 9.17414 22.5969C9.0853 22.6609 8.97858 22.6954 8.86907 22.6954Z" fill="#7C5AEB"/>
<path d="M15.1311 22.6954C15.0216 22.6954 14.9149 22.6609 14.826 22.5969C14.7372 22.5329 14.6708 22.4425 14.6361 22.3386C14.6015 22.2348 14.6005 22.1226 14.6331 22.0181C14.6658 21.9136 14.7305 21.822 14.8181 21.7563L16.3468 20.6084L14.8181 19.4606C14.7633 19.4195 14.7171 19.368 14.6822 19.309C14.6473 19.2501 14.6243 19.1848 14.6146 19.117C14.6049 19.0492 14.6087 18.9801 14.6257 18.9137C14.6427 18.8474 14.6726 18.785 14.7137 18.7302C14.7548 18.6754 14.8063 18.6292 14.8653 18.5943C14.9242 18.5594 14.9895 18.5364 15.0573 18.5267C15.1252 18.517 15.1942 18.5208 15.2606 18.5378C15.327 18.5548 15.3893 18.5847 15.4442 18.6258L17.5311 20.191C17.5959 20.2396 17.6485 20.3027 17.6847 20.3751C17.721 20.4476 17.7398 20.5274 17.7398 20.6084C17.7398 20.6894 17.721 20.7693 17.6847 20.8418C17.6485 20.9142 17.5959 20.9772 17.5311 21.0258L15.4442 22.591C15.3538 22.6588 15.244 22.6954 15.1311 22.6954Z" fill="#7C5AEB"/>
<path d="M10.4351 24.2608C10.3461 24.2605 10.2587 24.2375 10.1812 24.194C10.1037 24.1504 10.0385 24.0878 9.992 24.012C9.94547 23.9362 9.9191 23.8498 9.91537 23.7609C9.91165 23.672 9.93071 23.5837 9.97073 23.5043L13.1012 17.2434C13.1303 17.1799 13.1719 17.1229 13.2236 17.0758C13.2752 17.0287 13.3357 16.9925 13.4016 16.9692C13.4675 16.946 13.5373 16.9362 13.6071 16.9404C13.6768 16.9447 13.745 16.9629 13.8076 16.994C13.8701 17.0251 13.9258 17.0685 13.9713 17.1215C14.0168 17.1745 14.0512 17.2362 14.0724 17.3027C14.0936 17.3693 14.1012 17.4395 14.0948 17.509C14.0884 17.5786 14.0681 17.6462 14.0351 17.7078L10.9046 23.9686C10.8616 24.0564 10.7948 24.1304 10.7118 24.1821C10.6287 24.2337 10.5329 24.261 10.4351 24.2608Z" fill="#7C5AEB"/>
</g>
<defs>
<clipPath id="clip0">
<rect width="24" height="31" fill="white"/>
</clipPath>
</defs>
</svg>
