<svg width="28" height="32" viewBox="0 0 28 32" fill="none" xmlns="http://www.w3.org/2000/svg">
<path d="M8.98773 27.3467C8.6937 27.3467 8.45544 27.5849 8.45544 27.879C8.45544 28.173 8.6937 28.4113 8.98773 28.4113H16.0416C16.3356 28.4113 16.5739 28.173 16.5739 27.879C16.5739 27.5849 16.3356 27.3467 16.0416 27.3467H8.98773Z" fill="#7C5AEB"/>
<path d="M18.0278 25.644C17.8314 25.4164 17.685 25.1632 17.5815 24.8979H5.50372C5.20969 24.8979 4.97144 25.1362 4.97144 25.4302C4.97144 25.7243 5.20969 25.9625 5.50372 25.9625H18.3024L18.0278 25.644Z" fill="#7C5AEB"/>
<path d="M27.1589 28.0127L25.0298 25.5437V6.93312C25.0298 6.92801 25.0285 6.92333 25.0283 6.91843C25.0274 6.87393 25.0236 6.82943 25.0149 6.786C25.0136 6.77982 25.0112 6.77429 25.01 6.76811C25.0017 6.73149 24.9904 6.69572 24.9765 6.6608C24.9712 6.64718 24.965 6.63419 24.9591 6.62099C24.9461 6.5931 24.9314 6.56627 24.915 6.53987C24.908 6.52859 24.9016 6.51709 24.8939 6.50623C24.8692 6.4711 24.8424 6.43724 24.8113 6.40616L18.6234 0.21845C18.5921 0.187152 18.5582 0.160111 18.5229 0.135413C18.5129 0.128387 18.5022 0.122426 18.4918 0.115825C18.4643 0.0985793 18.4362 0.0832494 18.4073 0.0698358C18.3951 0.0643001 18.3832 0.0587644 18.3707 0.0536544C18.3334 0.0389634 18.2955 0.0268272 18.2565 0.0183106C18.2527 0.0174589 18.2489 0.0159686 18.245 0.0151169C18.201 0.00617453 18.156 0.00234205 18.1109 0.00149039C18.1062 0.00149039 18.1017 0 18.0968 0H0.745199C0.333636 0 0 0.333636 0 0.745199V31.1457C0 31.5573 0.333636 31.8909 0.745199 31.8909H23.4925C23.3488 31.7817 23.2147 31.658 23.0939 31.5181L22.1303 30.4005H1.4904V1.49061H17.3514V6.93334C17.3514 7.3449 17.6851 7.67853 18.0966 7.67853H23.5394V23.8155L22.0932 22.1386C21.7358 21.7241 21.2384 21.4735 20.6925 21.4332C20.2756 21.403 19.8666 21.499 19.5117 21.7062L18.4318 20.4538C21.2678 17.5098 21.4477 12.8217 18.7262 9.66566C17.3284 8.04475 15.383 7.06513 13.2482 6.90715C11.1139 6.75023 9.04523 7.43241 7.4241 8.83019C5.80319 10.228 4.82357 12.1736 4.6658 14.3083C4.50803 16.4427 5.19106 18.5112 6.58884 20.1323C8.17164 21.9674 10.4109 22.9087 12.6629 22.9087C14.2836 22.9087 15.9106 22.4211 17.3037 21.4281L18.383 22.6798C17.7792 23.435 17.7773 24.5384 18.4309 25.2965L23.4966 31.1708C23.854 31.5852 24.3514 31.8358 24.8971 31.8762C24.9488 31.8801 25.0002 31.882 25.0515 31.882C25.542 31.882 26.0113 31.7082 26.3864 31.3844L26.9449 30.9028C26.9451 30.9028 26.9451 30.9028 26.9451 30.9028C27.8006 30.1646 27.8964 28.8684 27.1589 28.0127ZM18.8418 6.18792V2.54432L22.4854 6.18792H18.8418ZM7.71771 19.1587C6.5799 17.8392 6.02398 16.1557 6.15237 14.4179C6.28097 12.6803 7.07812 11.0967 8.39776 9.95885C9.59242 8.92855 11.0858 8.37519 12.6475 8.37519C12.8104 8.37519 12.9741 8.38115 13.1385 8.39329C14.8761 8.52189 16.4598 9.31925 17.5976 10.6387C19.9462 13.3625 19.6413 17.4896 16.9175 19.8385C14.1939 22.1871 10.067 21.8825 7.71771 19.1587ZM25.9721 29.7739L25.4134 30.2555C25.1805 30.4565 24.8269 30.4307 24.6256 30.1972L19.56 24.3229C19.359 24.0897 19.385 23.7363 19.6179 23.5353L20.1768 23.0535C20.279 22.9653 20.4068 22.9179 20.5405 22.9179C20.5543 22.9179 20.5686 22.9183 20.5824 22.9194C20.7312 22.9304 20.8669 22.9988 20.9644 23.1118L26.03 28.9859C26.2312 29.2193 26.2053 29.5727 25.9721 29.7739Z" fill="#7C5AEB"/>
<path d="M10.431 16.8828C10.496 16.9608 10.5813 17 10.6666 17C10.7519 17 10.8373 16.9608 10.9023 16.8828C11.0326 16.7264 11.0326 16.4736 10.9023 16.3172L9.80468 15.0001L10.9023 13.6829C11.0326 13.5265 11.0326 13.2737 10.9023 13.1173C10.7719 12.9609 10.5613 12.9609 10.431 13.1173L9.09774 14.7173C8.96742 14.8737 8.96742 15.1264 9.09774 15.2828L10.431 16.8828Z" fill="#7C5AEB"/>
<path d="M15.569 13.1173C15.4387 12.9609 15.2281 12.9609 15.0977 13.1173C14.9674 13.2737 14.9674 13.5265 15.0977 13.6829L16.1953 15.0001L15.0977 16.3172C14.9674 16.4736 14.9674 16.7264 15.0977 16.8828C15.1627 16.9608 15.2481 17 15.3334 17C15.4187 17 15.504 16.9608 15.569 16.8828L16.9023 15.2828C17.0326 15.1264 17.0326 14.8737 16.9023 14.7173L15.569 13.1173Z" fill="#7C5AEB"/>
<path d="M12.1844 16.958C12.2321 16.9864 12.283 17 12.333 17C12.4553 17 12.573 16.9192 12.6316 16.7788L13.9647 13.5791C14.047 13.3815 13.9804 13.1411 13.8158 13.0423C13.6508 12.9435 13.4508 13.0235 13.3685 13.2211L12.0354 16.4208C11.9528 16.6188 12.0198 16.8588 12.1844 16.958Z" fill="#7C5AEB"/>
</svg>
