<svg width="127" height="106" viewBox="0 0 127 106" fill="none" xmlns="http://www.w3.org/2000/svg">
<mask id="mask0" mask-type="alpha" maskUnits="userSpaceOnUse" x="0" y="0" width="127" height="106">
<path d="M0 0H127V106H15C6.71573 106 0 99.2843 0 91V0Z" fill="white"/>
</mask>
<g mask="url(#mask0)">
<path d="M-22.1735 124.719C-41.2374 91.8483 -29.4033 49.5172 3.52321 30.5928C36.4497 11.6683 73.3246 20.0522 92.3885 52.923C97.5664 61.851 105.781 74.3735 106.66 84.002C109.019 109.823 96.543 135.844 72.5596 149.628C39.6331 168.553 -3.1097 157.59 -22.1735 124.719Z" fill="#458F91"/>
<path d="M-22.0837 125.265C-41.0707 92.2762 -29.8018 50.0931 3.0862 31.0463C36.7314 11.561 70.9287 24.0107 85.7117 49.6951C94.8221 65.5238 105.614 75.9985 105.995 84.9364C107.099 110.809 95.6828 136.703 71.8444 150.509C38.9564 169.555 -3.09669 158.253 -22.0837 125.265Z" fill="#7FDCDC"/>
<path d="M-22.0217 125.364C-41.0683 92.5378 -29.8745 50.6262 2.98039 31.7516C36.5918 12.4425 64.9441 25.0804 79.7735 50.6381C88.9126 66.3888 105.264 69.279 105.989 85.5044C107.139 111.225 95.7689 136.944 71.9544 150.625C39.0995 169.499 -2.9751 158.19 -22.0217 125.364Z" fill="#D8FFFF"/>
<path d="M-22.021 125.081C-41.0555 91.9986 -29.8909 49.7726 2.91579 30.7665C36.4778 11.3228 58.8406 24.7235 73.6606 50.4807C82.7938 66.3544 103.919 62.9012 105.814 84.9649C108.035 110.815 95.6254 136.791 71.8459 150.568C39.0392 169.574 -2.98652 158.163 -22.021 125.081Z" fill="#FCFCFC"/>
<path d="M-22.0304 125.621C-41.0563 92.6185 -29.8794 50.4844 2.93403 31.5118C36.503 12.1024 56.8483 30.2167 69.4224 52.0276C78.5516 67.8629 101.069 58.8272 105.821 85.5589C108.035 111.351 95.2733 136.674 71.4887 150.426C38.6753 169.399 -3.00444 158.623 -22.0304 125.621Z" fill="#FDCED7"/>
<path d="M-20.8494 124.375C-39.8697 91.4998 -29.8734 50.2067 2.944 31.2995C38.2996 10.9299 54.9555 39.0332 64.7537 53.2299C72.1922 64.0072 101.076 58.4947 105.823 85.1251C108.032 110.82 95.2658 136.05 71.4785 149.755C38.6611 168.662 -1.82903 157.249 -20.8494 124.375Z" fill="#CA6376"/>
<path d="M-20.8603 124.204C-39.8705 91.1551 -29.8613 49.6328 2.9622 30.6118C36.5414 11.1529 52.5013 40.601 60.464 52.742C68.4265 64.883 101.727 58.3514 105.825 84.7C108.026 110.534 95.2517 135.907 71.46 149.694C38.6366 168.715 -1.85019 157.253 -20.8603 124.204Z" fill="#F67990"/>
<path d="M-22.8067 126.349C-42.1719 92.8339 -30.5318 49.5231 2.85827 30.2606C36.2484 10.998 47.4355 42.1174 59.0649 55.6879C70.2008 68.6827 100.768 56.7124 107.566 85.1557C109.821 111.347 96.8378 137.061 72.6354 151.023C39.2453 170.286 -3.44145 159.864 -22.8067 126.349Z" fill="#F1B6C1"/>
</g>
</svg>
