<svg width="127" height="106" viewBox="0 0 127 106" fill="none" xmlns="http://www.w3.org/2000/svg">
<mask id="mask0" mask-type="alpha" maskUnits="userSpaceOnUse" x="0" y="0" width="127" height="106">
<path d="M0 0H127V106H15C6.71573 106 0 99.2843 0 91V0Z" fill="white"/>
</mask>
<g mask="url(#mask0)">
<g clip-path="url(#clip0)" filter="url(#filter0_d)">
<path d="M-20.3399 125.54C-39.1614 93.0867 -27.4777 51.2937 5.03025 32.6098C37.5382 13.9259 73.9444 22.2033 92.7659 54.6561C97.878 63.4706 105.988 75.834 106.856 85.3401C109.185 110.833 96.8676 136.523 73.1891 150.132C40.6811 168.816 -1.51835 157.992 -20.3399 125.54Z" fill="#59369C"/>
<path d="M-20.2505 126.078C-38.9962 93.5086 -27.8705 51.8617 4.59943 33.057C37.8169 13.8194 71.5795 26.1109 86.1746 51.4687C95.1692 67.0963 105.824 77.4378 106.2 86.2621C107.29 111.806 96.019 137.37 72.4835 151.001C40.0136 169.805 -1.50488 158.647 -20.2505 126.078Z" fill="#985ED1"/>
<path d="M-20.1893 126.175C-38.9938 93.7668 -27.9423 52.388 4.49496 33.7533C37.6791 14.6896 65.671 27.1668 80.3119 52.3997C89.3348 67.9502 105.478 70.8036 106.194 86.8228C107.33 112.216 96.1039 137.608 72.5922 151.115C40.1549 169.75 -1.38483 158.584 -20.1893 126.175Z" fill="#C27BE0"/>
<path d="M-20.1886 125.896C-38.9811 93.2346 -27.9585 51.5453 4.43119 32.7808C37.5666 13.5842 59.6451 26.8146 74.2767 52.2444C83.2938 67.9163 104.151 64.507 106.022 86.2902C108.214 111.812 95.9623 137.458 72.485 151.059C40.0953 169.824 -1.3961 158.558 -20.1886 125.896Z" fill="#E19AE3"/>
<path d="M-20.1979 126.429C-38.982 93.8465 -27.9471 52.248 4.44919 33.5165C37.5914 14.3538 57.6781 32.2379 70.0924 53.7716C79.1055 69.4056 101.337 60.4847 106.029 86.8766C108.214 112.34 95.6146 137.342 72.1324 150.919C39.7361 169.651 -1.4138 159.012 -20.1979 126.429Z" fill="#C27BE0"/>
<path d="M-19.0329 125.2C-37.8115 92.7426 -27.9422 51.9744 4.45805 33.3075C39.3642 13.1969 55.8083 40.943 65.482 54.9592C72.826 65.5995 101.342 60.157 106.03 86.4489C108.21 111.817 95.6063 136.727 72.1214 150.257C39.7211 168.924 -0.254318 157.656 -19.0329 125.2Z" fill="#985ED1"/>
<path d="M-19.0437 125.031C-37.8122 92.4023 -27.9302 51.4078 4.47602 32.6286C37.6283 13.417 53.3854 42.4908 61.2468 54.4774C69.1081 66.4642 101.985 60.0156 106.031 86.0292C108.204 111.535 95.5923 136.585 72.1031 150.197C39.6969 168.976 -0.2752 157.66 -19.0437 125.031Z" fill="#59369C"/>
<path d="M-20.9647 127.149C-40.0838 94.0596 -28.5917 51.2993 4.37398 32.2816C37.3396 13.2638 48.3845 43.9877 59.866 57.3857C70.8605 70.2153 102.817 62.8636 107.751 86.4789C112.686 110.094 97.1588 137.724 73.2641 151.509C40.2985 170.527 -1.84566 160.238 -20.9647 127.149Z" fill="#2D124F"/>
</g>
</g>
<defs>
<filter id="filter0_d" x="-36" y="21" width="148" height="148" filterUnits="userSpaceOnUse" color-interpolation-filters="sRGB">
<feFlood flood-opacity="0" result="BackgroundImageFix"/>
<feColorMatrix in="SourceAlpha" type="matrix" values="0 0 0 0 0 0 0 0 0 0 0 0 0 0 0 0 0 0 127 0"/>
<feOffset dy="4"/>
<feGaussianBlur stdDeviation="2"/>
<feColorMatrix type="matrix" values="0 0 0 0 0 0 0 0 0 0 0 0 0 0 0 0 0 0 0.25 0"/>
<feBlend mode="normal" in2="BackgroundImageFix" result="effect1_dropShadow"/>
<feBlend mode="normal" in="SourceGraphic" in2="effect1_dropShadow" result="shape"/>
</filter>
<clipPath id="clip0">
<rect width="140" height="140" fill="white" transform="translate(108 161) rotate(-180)"/>
</clipPath>
</defs>
</svg>
