<svg width="127" height="106" viewBox="0 0 127 106" fill="none" xmlns="http://www.w3.org/2000/svg">
<mask id="mask0" mask-type="alpha" maskUnits="userSpaceOnUse" x="0" y="0" width="127" height="106">
<path d="M0 0H127V106H15C6.71573 106 0 99.2843 0 91V0Z" fill="white"/>
</mask>
<g mask="url(#mask0)">
<path d="M-22.2697 120.723C-38.9243 87.6691 -24.9933 47.1856 8.10696 30.6697C41.2072 14.1538 76.5829 24.4176 93.2375 57.4715C97.7611 66.4493 105.031 79.0962 105.335 88.5089C106.15 113.751 92.5289 138.339 68.4189 150.369C35.3187 166.885 -5.615 153.777 -22.2697 120.723Z" fill="#098089"/>
<path d="M-22.2131 121.259C-38.7863 88.0949 -25.4132 47.7229 7.65657 31.0858C41.4877 14.0657 74.027 28.1296 86.9306 53.9507C94.8829 69.8636 104.777 80.6668 104.636 89.3796C104.227 114.6 91.6438 139.125 67.6736 151.184C34.6038 167.821 -5.63984 154.423 -22.2131 121.259Z" fill="#B5DDE0"/>
<path d="M-22.1585 121.359C-38.7989 88.3494 -25.5145 48.237 7.5133 31.7655C41.3015 14.9147 68.1466 28.8269 81.1026 54.5275C89.0871 70.3662 104.821 74.1129 104.597 89.9315C104.243 115.007 91.7137 139.364 67.7739 151.303C34.7462 167.775 -5.51797 154.368 -22.1585 121.359Z" fill="#DAEEEF"/>
<path d="M-22.1416 121.084C-38.7556 87.8259 -25.4815 47.4062 7.50689 30.804C41.2548 13.8195 62.2322 28.1304 75.1676 54.0245C83.1394 69.9825 103.879 67.8344 104.458 89.3968C105.137 114.66 91.5829 139.208 67.6717 151.241C34.6832 167.844 -5.52754 154.342 -22.1416 121.084Z" fill="#F8BD9D"/>
<path d="M-22.1816 121.608C-38.7919 88.4285 -25.5111 48.0989 7.48196 31.5297C41.2346 14.5789 59.9804 33.3577 70.958 55.2859C78.928 71.2064 101.341 63.7097 104.431 89.9748C105.106 115.181 91.2472 139.073 67.3325 151.083C34.3394 167.653 -5.5713 154.788 -22.1816 121.608Z" fill="#F39F71"/>
<path d="M-20.9622 120.464C-37.5743 87.4089 -25.4896 47.8294 7.50353 31.324C43.0484 13.542 57.6347 41.8224 66.3491 56.1878C72.9649 67.0932 101.366 63.387 104.457 89.5533C105.134 114.664 91.2754 138.466 67.3607 150.43C34.3676 166.935 -4.35 153.52 -20.9622 120.464Z" fill="#FC7C2D"/>
<path d="M-20.963 120.298C-37.5553 87.0737 -25.4449 47.2721 7.5606 30.6564C41.326 13.6581 55.1585 43.2063 62.2059 55.4677C69.2532 67.7292 102.007 63.285 104.483 89.14C105.144 114.386 91.2698 138.326 67.3462 150.37C34.3407 166.986 -4.37077 153.522 -20.963 120.298Z" fill="#FF6100"/>
<path d="M-22.9783 122.272C-39.8891 88.5743 -26.0906 47.127 7.47977 30.3088C41.0501 13.4906 50.1461 44.3906 60.6769 58.2521C70.761 71.5254 101.169 61.6363 106.151 89.6829C106.844 115.279 92.7462 139.539 68.4132 151.73C34.8428 168.548 -6.06749 155.97 -22.9783 122.272Z" fill="#F9945D"/>
</g>
</svg>
