<svg width="127" height="106" viewBox="0 0 127 106" fill="none" xmlns="http://www.w3.org/2000/svg">
<mask id="mask0" mask-type="alpha" maskUnits="userSpaceOnUse" x="0" y="0" width="127" height="106">
<path d="M0 0H127V106H15C6.71573 106 0 99.2843 0 91V0Z" fill="white"/>
</mask>
<g mask="url(#mask0)">
<path d="M-23.3274 121.068C-40.2416 87.4988 -26.0934 46.3844 7.52256 29.6111C41.1386 12.8379 77.0655 23.2616 93.9797 56.8306C98.5737 65.9483 105.957 78.7922 106.266 88.3516C107.094 113.987 93.26 138.958 68.7744 151.175C35.1584 167.949 -6.41321 154.637 -23.3274 121.068Z" fill="#F2F2F2"/>
<path d="M-23.2695 121.612C-40.101 87.9313 -26.5195 46.9303 7.06554 30.0339C41.4239 12.7485 74.4702 27.0316 87.5749 53.2551C95.6511 69.416 105.699 80.3875 105.556 89.236C105.141 114.85 92.3615 139.756 68.0178 152.003C34.4327 168.9 -6.43804 155.293 -23.2695 121.612Z" fill="#E3E6EB"/>
<path d="M-23.2141 121.714C-40.1138 88.1898 -26.6224 47.4524 6.92003 30.7242C41.2347 13.6108 68.4981 27.7398 81.656 53.8409C89.765 69.9264 105.744 73.7314 105.517 89.7965C105.157 115.263 92.4325 139.999 68.1197 152.125C34.5773 168.853 -6.31428 155.237 -23.2141 121.714Z" fill="#C7CDD6"/>
<path d="M-23.1969 121.434C-40.0698 87.6581 -26.5889 46.6086 6.91353 29.7477C41.1873 12.4986 62.4916 27.0325 75.6286 53.33C83.7246 69.5367 104.787 67.3551 105.375 89.2535C106.064 114.91 92.2997 139.84 68.0158 152.062C34.5134 168.923 -6.32399 155.21 -23.1969 121.434Z" fill="#909CAD"/>
<path d="M-23.2376 121.967C-40.1067 88.2702 -26.6189 47.3122 6.8882 30.4847C41.1668 13.2698 60.2047 32.3412 71.3534 54.6111C79.4476 70.7796 102.209 63.1662 105.348 89.8406C106.033 115.439 91.9587 139.704 67.6713 151.901C34.1642 168.729 -6.36844 155.664 -23.2376 121.967Z" fill="#696D7D"/>
<path d="M-21.9999 120.805C-38.8709 87.2342 -26.598 47.038 6.9093 30.2754C43.0081 12.2163 57.8216 40.9374 66.6719 55.5266C73.3908 66.6019 102.234 62.838 105.374 89.4121C106.061 114.914 91.9866 139.087 67.6993 151.237C34.192 168 -5.12892 154.375 -21.9999 120.805Z" fill="#353C47"/>
<path d="M-22.0008 120.636C-38.8517 86.8938 -26.5526 46.472 6.96726 29.5974C41.2588 12.3342 55.3069 42.3428 62.4641 54.7953C69.6211 67.2478 102.886 62.7344 105.4 88.9923C106.071 114.632 91.9809 138.945 67.6845 151.177C34.1646 168.051 -5.15002 154.377 -22.0008 120.636Z" fill="#141710"/>
<path d="M-24.047 122.641C-41.2214 88.418 -27.2078 46.3249 6.88563 29.2446C40.9791 12.1644 50.2168 43.5459 60.9117 57.6233C71.1529 71.1035 102.035 61.0603 107.094 89.5439C107.798 115.539 93.4807 140.177 68.7685 152.557C34.6751 169.638 -6.87271 156.864 -24.047 122.641Z" fill="#FDC300"/>
<path d="M-21.9929 125.083C-41.0567 92.212 -29.2226 49.881 3.70387 30.9565C36.6304 12.0321 73.5053 20.416 92.5691 53.2867C97.747 62.2147 105.961 74.7372 106.841 84.3657C109.2 110.187 96.7237 136.208 72.7403 149.992C39.8138 168.917 -2.92903 157.953 -21.9929 125.083Z" fill="#80DFFF"/>
<path d="M-21.903 125.629C-40.89 92.64 -29.6211 50.4569 3.26689 31.4101C36.9121 11.9248 71.1093 24.3745 85.8924 50.0589C95.0028 65.8876 105.795 76.3623 106.176 85.3002C107.28 111.173 95.8635 137.066 72.0251 150.872C39.1371 169.919 -2.916 158.617 -21.903 125.629Z" fill="#73CDFF"/>
<path d="M-21.841 125.727C-40.8876 92.9016 -29.6938 50.9899 3.16107 32.1153C36.7724 12.8061 65.1248 25.444 79.9542 51.0018C89.0932 66.7525 105.444 69.6427 106.17 85.8681C107.32 111.588 95.9496 137.308 72.1351 150.989C39.2802 169.863 -2.79441 158.553 -21.841 125.727Z" fill="#68BAFF"/>
<path d="M-21.8403 125.445C-40.8748 92.3624 -29.7102 50.1364 3.09648 31.1303C36.6585 11.6866 59.0213 25.0873 73.8413 50.8445C82.9745 66.7182 104.1 63.2649 105.995 85.3286C108.215 111.179 95.8061 137.155 72.0266 150.932C39.2198 169.938 -2.80582 158.527 -21.8403 125.445Z" fill="#5CA7FF"/>
<path d="M-21.8497 125.984C-40.8756 92.9823 -29.6987 50.8482 3.11472 31.8755C36.6836 12.4661 57.029 30.5804 69.6031 52.3913C78.7322 68.2267 101.25 59.1909 106.002 85.9226C108.215 111.714 95.4539 137.038 71.6694 150.79C38.8559 169.763 -2.82375 158.987 -21.8497 125.984Z" fill="#4F94FF"/>
<path d="M-20.6697 124.738C-39.69 91.8635 -29.6937 50.5704 3.12369 31.6632C38.4793 11.2936 55.1351 39.3969 64.9333 53.5936C72.3719 64.3709 101.255 58.8584 106.003 85.4888C108.212 111.183 95.4455 136.414 71.6582 150.118C38.8408 169.026 -1.64934 157.613 -20.6697 124.738Z" fill="#4381FF"/>
<path d="M-20.6807 124.568C-39.6908 91.5189 -29.6816 49.9966 3.14188 30.9756C36.721 11.5166 52.681 40.9647 60.6436 53.1057C68.6062 65.2467 101.907 58.7151 106.005 85.0637C108.205 110.898 95.4313 136.271 71.6397 150.058C38.8162 169.079 -1.6705 157.617 -20.6807 124.568Z" fill="#376EFF"/>
<path d="M-22.625 126.713C-41.9902 93.1977 -30.3502 49.8869 3.03989 30.6243C36.43 11.3617 47.6171 42.4811 59.2465 56.0517C70.3825 69.0464 100.95 57.0761 107.748 85.5194C110.003 111.711 97.0195 137.425 72.8171 151.387C39.427 170.649 -3.25981 160.228 -22.625 126.713Z" fill="#0A0A33"/>
</g>
</svg>
