<svg width="94" height="94" viewBox="0 0 94 94" fill="none" xmlns="http://www.w3.org/2000/svg">
<path d="M6.71933 69.8843C-6.08068 47.814 1.86507 19.3917 23.9729 6.68527C46.0807 -6.02114 70.8395 -0.391947 83.6395 21.6784C87.1161 27.6729 92.6314 36.0809 93.2221 42.5458C94.806 59.8828 86.429 77.354 70.3259 86.6092C48.2181 99.3156 19.5193 91.9547 6.71933 69.8843Z" fill="#3C515D"/>
<path d="M6.78025 70.2507C-5.96817 48.1012 1.59811 19.7783 23.6801 6.98974C46.2704 -6.09327 69.2314 2.26584 79.1572 19.5111C85.2742 30.1389 92.5202 37.1719 92.7762 43.1731C93.5173 60.5446 85.8521 77.9304 69.8462 87.2001C47.7643 99.9886 19.5287 92.4001 6.78025 70.2507Z" fill="#C4D9DC"/>
<path d="M6.82187 70.3171C-5.96656 48.2769 1.54926 20.1362 23.609 7.46323C46.1766 -5.5015 65.2132 2.98394 75.1701 20.1441C81.3063 30.7196 92.2848 32.6602 92.772 43.5544C93.5442 60.8238 85.9098 78.0923 69.9201 87.2781C47.8604 99.9511 19.6103 92.3573 6.82187 70.3171Z" fill="#E9F5F6"/>
<path d="M6.82235 70.1272C-5.95794 47.9149 1.53826 19.5631 23.5656 6.80186C46.1002 -6.25322 61.1152 2.7444 71.0657 20.0386C77.198 30.6966 91.3821 28.378 92.6545 43.1922C94.1453 60.549 85.8135 77.99 69.8472 87.2398C47.8199 100.001 19.6026 92.3394 6.82235 70.1272Z" fill="#FFF7F5"/>
<path d="M6.81606 70.4897C-5.9585 48.331 1.546 20.041 23.5779 7.30224C46.117 -5.72982 59.7775 6.43266 68.2201 21.0771C74.3496 31.7094 89.4685 25.6426 92.6594 43.591C94.1454 60.9083 85.5771 77.9111 69.6074 87.1447C47.5755 99.8835 19.5906 92.6483 6.81606 70.4897Z" fill="#FFE2DE"/>
<path d="M7.60834 69.6531C-5.16246 47.58 1.54936 19.8546 23.5839 7.15978C47.3227 -6.51692 58.5059 12.3524 65.0847 21.8845C70.0791 29.1207 89.4723 25.4194 92.6601 43.2998C94.143 60.5518 85.5714 77.4923 69.5999 86.694C47.5654 99.3889 20.3792 91.7262 7.60834 69.6531Z" fill="#FFC6C4"/>
<path d="M7.60098 69.5385C-5.16298 47.3486 1.55752 19.4693 23.5961 6.69808C46.1421 -6.36721 56.8581 13.4051 62.2044 21.5569C67.5507 29.7087 89.9097 25.3232 92.6613 43.0144C94.1388 60.3604 85.5619 77.3963 69.5875 86.6534C47.5489 99.4246 20.3649 91.7285 7.60098 69.5385Z" fill="#6F373B"/>
<path d="M6.29463 70.9786C-6.70774 48.4756 1.10774 19.3955 23.5268 6.46201C45.9459 -6.47146 53.4572 14.423 61.2655 23.5347C68.7425 32.2598 89.2664 24.2225 93.8308 43.3202C95.345 60.9057 86.6274 78.1708 70.3772 87.5454C47.9581 100.479 19.297 93.4817 6.29463 70.9786Z" fill="#D69A9E"/>
</svg>
