<svg width="127" height="106" viewBox="0 0 127 106" fill="none" xmlns="http://www.w3.org/2000/svg">
<mask id="mask0" mask-type="alpha" maskUnits="userSpaceOnUse" x="0" y="0" width="127" height="106">
<path d="M0 0H127V106H15C6.71573 106 0 99.2843 0 91V0Z" fill="white"/>
</mask>
<g mask="url(#mask0)">
<path d="M-23.3274 121.068C-40.2416 87.4988 -26.0934 46.3844 7.52256 29.6111C41.1386 12.8379 77.0655 23.2616 93.9797 56.8306C98.5737 65.9483 105.957 78.7922 106.266 88.3516C107.094 113.987 93.26 138.958 68.7744 151.175C35.1584 167.949 -6.41321 154.637 -23.3274 121.068Z" fill="#F2F2F2"/>
<path d="M-23.2695 121.612C-40.101 87.9313 -26.5195 46.9303 7.06554 30.0339C41.4239 12.7485 74.4702 27.0316 87.5749 53.2551C95.6511 69.416 105.699 80.3875 105.556 89.236C105.141 114.85 92.3615 139.756 68.0178 152.003C34.4327 168.9 -6.43804 155.293 -23.2695 121.612Z" fill="#E3E6EB"/>
<path d="M-23.2141 121.714C-40.1138 88.1898 -26.6224 47.4524 6.92003 30.7242C41.2347 13.6108 68.4981 27.7398 81.656 53.8409C89.765 69.9264 105.744 73.7314 105.517 89.7965C105.157 115.263 92.4325 139.999 68.1197 152.125C34.5773 168.853 -6.31428 155.237 -23.2141 121.714Z" fill="#C7CDD6"/>
<path d="M-23.1969 121.434C-40.0698 87.6581 -26.5889 46.6086 6.91353 29.7477C41.1873 12.4986 62.4916 27.0325 75.6286 53.33C83.7246 69.5367 104.787 67.3551 105.375 89.2535C106.064 114.91 92.2997 139.84 68.0158 152.062C34.5134 168.923 -6.32399 155.21 -23.1969 121.434Z" fill="#909CAD"/>
<path d="M-23.2376 121.967C-40.1067 88.2702 -26.6189 47.3122 6.8882 30.4847C41.1668 13.2698 60.2047 32.3412 71.3534 54.6111C79.4476 70.7796 102.209 63.1662 105.348 89.8406C106.033 115.439 91.9587 139.704 67.6713 151.901C34.1642 168.729 -6.36844 155.664 -23.2376 121.967Z" fill="#696D7D"/>
<path d="M-21.9999 120.805C-38.8709 87.2342 -26.598 47.038 6.9093 30.2754C43.0081 12.2163 57.8216 40.9374 66.6719 55.5266C73.3908 66.6019 102.234 62.838 105.374 89.4121C106.061 114.914 91.9866 139.087 67.6993 151.237C34.192 168 -5.12892 154.375 -21.9999 120.805Z" fill="#353C47"/>
<path d="M-22.0008 120.636C-38.8517 86.8938 -26.5526 46.472 6.96726 29.5974C41.2588 12.3342 55.3069 42.3428 62.4641 54.7953C69.6211 67.2478 102.886 62.7344 105.4 88.9923C106.071 114.632 91.9809 138.945 67.6845 151.177C34.1646 168.051 -5.15002 154.377 -22.0008 120.636Z" fill="#141710"/>
<path d="M-24.047 122.641C-41.2214 88.418 -27.2078 46.3249 6.88563 29.2446C40.9791 12.1644 50.2168 43.5459 60.9117 57.6233C71.1529 71.1035 102.035 61.0603 107.094 89.5439C107.798 115.539 93.4807 140.177 68.7685 152.557C34.6751 169.638 -6.87271 156.864 -24.047 122.641Z" fill="#FDC300"/>
<path d="M-21.9919 125.083C-41.0557 92.212 -29.2217 49.881 3.70486 30.9565C36.6314 12.0321 73.5063 20.416 92.5701 53.2867C97.748 62.2147 105.962 74.7372 106.842 84.3657C109.201 110.187 96.7247 136.208 72.7413 149.992C39.8147 168.917 -2.92805 157.953 -21.9919 125.083Z" fill="#6B6B60"/>
<path d="M-21.9021 125.628C-40.889 92.64 -29.6201 50.4569 3.26786 31.4101C36.9131 11.9248 71.1103 24.3745 85.8933 50.0589C95.0038 65.8876 105.796 76.3623 106.177 85.3002C107.281 111.173 95.8645 137.066 72.026 150.872C39.138 169.919 -2.91504 158.617 -21.9021 125.628Z" fill="#B6B6A3"/>
<path d="M-21.8401 125.727C-40.8867 92.9016 -29.6929 50.9899 3.16204 32.1153C36.7734 12.8062 65.1258 25.444 79.9552 51.0018C89.0942 66.7525 105.445 69.6427 106.171 85.8681C107.321 111.589 95.9505 137.308 72.1361 150.989C39.2811 169.863 -2.79345 158.553 -21.8401 125.727Z" fill="#CECEC5"/>
<path d="M-21.8394 125.445C-40.8738 92.3624 -29.7093 50.1364 3.09745 31.1303C36.6595 11.6866 59.0223 25.0873 73.8422 50.8445C82.9755 66.7182 104.101 63.2649 105.996 85.3286C108.216 111.179 95.8071 137.155 72.0275 150.932C39.2208 169.938 -2.80486 158.527 -21.8394 125.445Z" fill="#B7B7B7"/>
<path d="M-21.8487 125.984C-40.8747 92.9822 -29.6977 50.8482 3.1157 31.8755C36.6846 12.4661 57.03 30.5804 69.6041 52.3913C78.7332 68.2267 101.251 59.1909 106.003 85.9226C108.216 111.714 95.4549 137.038 71.6703 150.79C38.8569 169.763 -2.82278 158.987 -21.8487 125.984Z" fill="#969797"/>
<path d="M-20.6687 124.738C-39.6891 91.8635 -29.6927 50.5704 3.12468 31.6632C38.4803 11.2936 55.1361 39.3969 64.9343 53.5936C72.3729 64.3709 101.256 58.8584 106.004 85.4888C108.213 111.183 95.4465 136.414 71.6592 150.118C38.8418 169.026 -1.64835 157.613 -20.6687 124.738Z" fill="#666867"/>
<path d="M-20.6797 124.568C-39.6898 91.5189 -29.6806 49.9966 3.14288 30.9755C36.722 11.5166 52.6819 40.9647 60.6446 53.1057C68.6072 65.2467 101.908 58.7151 106.006 85.0637C108.206 110.898 95.4323 136.271 71.6407 150.058C38.8172 169.079 -1.66951 157.617 -20.6797 124.568Z" fill="#565656"/>
<path d="M-22.625 126.713C-41.9902 93.1977 -30.3502 49.8869 3.03991 30.6243C36.43 11.3617 47.6172 42.4811 59.2465 56.0516C70.3825 69.0464 100.95 57.0761 107.748 85.5194C110.003 111.711 97.0195 137.425 72.8171 151.387C39.427 170.649 -3.25981 160.228 -22.625 126.713Z" fill="#DBDBD0"/>
</g>
</svg>
