<svg width="127" height="106" viewBox="0 0 127 106" fill="none" xmlns="http://www.w3.org/2000/svg">
<mask id="mask0" mask-type="alpha" maskUnits="userSpaceOnUse" x="0" y="0" width="127" height="106">
<path d="M0 0H127V106H15C6.71573 106 0 99.2843 0 91V0Z" fill="white"/>
</mask>
<g mask="url(#mask0)">
<path d="M-23.3274 121.069C-40.2416 87.4997 -26.0934 46.3854 7.52256 29.6121C41.1386 12.8388 77.0655 23.2626 93.9797 56.8316C98.5737 65.9492 105.957 78.7931 106.266 88.3526C107.094 113.988 93.26 138.959 68.7744 151.176C35.1584 167.95 -6.41321 154.638 -23.3274 121.069Z" fill="#F2F2F2"/>
<path d="M-23.2695 121.613C-40.101 87.9318 -26.5195 46.9308 7.06554 30.0344C41.4239 12.749 74.4702 27.0321 87.5749 53.2555C95.6511 69.4165 105.699 80.388 105.556 89.2365C105.141 114.85 92.3615 139.757 68.0178 152.004C34.4327 168.9 -6.43804 155.294 -23.2695 121.613Z" fill="#E3E6EB"/>
<path d="M-23.2141 121.714C-40.1138 88.1903 -26.6224 47.4529 6.92003 30.7247C41.2347 13.6113 68.4981 27.7403 81.656 53.8413C89.765 69.9269 105.744 73.7319 105.517 89.797C105.157 115.263 92.4325 140 68.1197 152.125C34.5773 168.853 -6.31428 155.238 -23.2141 121.714Z" fill="#C7CDD6"/>
<path d="M-23.1969 121.435C-40.0698 87.6586 -26.5889 46.6091 6.91353 29.7482C41.1873 12.499 62.4916 27.033 75.6286 53.3305C83.7246 69.5372 104.787 67.3556 105.375 89.254C106.064 114.911 92.2997 139.841 68.0158 152.062C34.5134 168.923 -6.32399 155.211 -23.1969 121.435Z" fill="#909CAD"/>
<path d="M-23.2376 121.967C-40.1067 88.2706 -26.6189 47.3126 6.8882 30.4852C41.1668 13.2703 60.2047 32.3417 71.3534 54.6116C79.4476 70.7801 102.209 63.1667 105.348 89.8411C106.033 115.439 91.9587 139.705 67.6713 151.902C34.1642 168.729 -6.36844 155.664 -23.2376 121.967Z" fill="#696D7D"/>
<path d="M-21.9999 120.805C-38.8709 87.2347 -26.598 47.0385 6.9093 30.2759C43.0081 12.2168 57.8216 40.9378 66.6719 55.5271C73.3908 66.6024 102.234 62.8385 105.374 89.4125C106.061 114.915 91.9866 139.088 67.6993 151.238C34.192 168.001 -5.12892 154.376 -21.9999 120.805Z" fill="#353C47"/>
<path d="M-22.0008 120.636C-38.8517 86.8943 -26.5526 46.4725 6.96726 29.5979C41.2588 12.3347 55.3069 42.3433 62.4641 54.7958C69.6211 67.2483 102.886 62.7349 105.4 88.9928C106.071 114.633 91.9809 138.946 67.6845 151.177C34.1646 168.052 -5.15002 154.378 -22.0008 120.636Z" fill="#141710"/>
<path d="M-24.047 122.641C-41.2214 88.4185 -27.2078 46.3254 6.88563 29.2451C40.9791 12.1648 50.2168 43.5463 60.9117 57.6238C71.1529 71.104 102.035 61.0608 107.094 89.5444C107.798 115.54 93.4807 140.177 68.7685 152.558C34.6751 169.638 -6.87271 156.864 -24.047 122.641Z" fill="#FDC300"/>
</g>
</svg>
