<svg width="127" height="106" viewBox="0 0 127 106" fill="none" xmlns="http://www.w3.org/2000/svg">
<mask id="mask0" mask-type="alpha" maskUnits="userSpaceOnUse" x="0" y="0" width="127" height="106">
<path d="M0 0H127V106H15C6.71573 106 0 99.2843 0 91V0Z" fill="white"/>
</mask>
<g mask="url(#mask0)">
<path d="M-23.3274 121.068C-40.2416 87.4988 -26.0934 46.3844 7.52256 29.6111C41.1386 12.8379 77.0655 23.2616 93.9797 56.8306C98.5737 65.9483 105.957 78.7922 106.266 88.3516C107.094 113.987 93.26 138.958 68.7744 151.175C35.1584 167.949 -6.41321 154.637 -23.3274 121.068Z" fill="#F2F2F2"/>
<path d="M-23.2695 121.612C-40.101 87.9313 -26.5195 46.9303 7.06554 30.0339C41.4239 12.7485 74.4702 27.0316 87.5749 53.2551C95.6511 69.416 105.699 80.3875 105.556 89.236C105.141 114.85 92.3615 139.756 68.0178 152.003C34.4327 168.9 -6.43804 155.293 -23.2695 121.612Z" fill="#E3E6EB"/>
<path d="M-23.2141 121.714C-40.1138 88.1898 -26.6224 47.4524 6.92003 30.7242C41.2347 13.6108 68.4981 27.7398 81.656 53.8409C89.765 69.9264 105.744 73.7314 105.517 89.7965C105.157 115.263 92.4325 139.999 68.1197 152.125C34.5773 168.853 -6.31428 155.237 -23.2141 121.714Z" fill="#C7CDD6"/>
<path d="M-23.1969 121.434C-40.0698 87.6581 -26.5889 46.6086 6.91353 29.7477C41.1873 12.4986 62.4916 27.0325 75.6286 53.33C83.7246 69.5367 104.787 67.3551 105.375 89.2535C106.064 114.91 92.2997 139.84 68.0158 152.062C34.5134 168.923 -6.32399 155.21 -23.1969 121.434Z" fill="#909CAD"/>
<path d="M-23.2376 121.967C-40.1067 88.2702 -26.6189 47.3122 6.8882 30.4847C41.1668 13.2698 60.2047 32.3412 71.3534 54.6111C79.4476 70.7796 102.209 63.1662 105.348 89.8406C106.033 115.439 91.9587 139.704 67.6713 151.901C34.1642 168.729 -6.36844 155.664 -23.2376 121.967Z" fill="#696D7D"/>
<path d="M-21.9999 120.805C-38.8709 87.2342 -26.598 47.038 6.9093 30.2754C43.0081 12.2163 57.8216 40.9374 66.6719 55.5266C73.3908 66.6019 102.234 62.838 105.374 89.4121C106.061 114.914 91.9866 139.087 67.6993 151.237C34.192 168 -5.12892 154.375 -21.9999 120.805Z" fill="#353C47"/>
<path d="M-22.0008 120.636C-38.8517 86.8938 -26.5526 46.472 6.96726 29.5974C41.2588 12.3342 55.3069 42.3428 62.4641 54.7953C69.6211 67.2478 102.886 62.7344 105.4 88.9923C106.071 114.632 91.9809 138.945 67.6845 151.177C34.1646 168.051 -5.15002 154.377 -22.0008 120.636Z" fill="#141710"/>
<path d="M-24.047 122.641C-41.2214 88.418 -27.2078 46.3249 6.88563 29.2446C40.9791 12.1644 50.2168 43.5459 60.9117 57.6233C71.1529 71.1035 102.035 61.0603 107.094 89.5439C107.798 115.539 93.4807 140.177 68.7685 152.557C34.6751 169.638 -6.87271 156.864 -24.047 122.641Z" fill="#FDC300"/>
<g clip-path="url(#clip0)">
<path d="M-22.0396 125.083C-41.012 92.212 -29.2346 49.8809 3.53395 30.9565C36.3025 12.032 73.0005 20.4159 91.9729 53.2867C97.126 62.2147 105.301 74.7372 106.176 84.3657C108.524 110.187 96.1076 136.208 72.2392 149.992C39.4706 168.917 -3.06715 157.953 -22.0396 125.083Z" fill="#F8E583"/>
<path d="M-21.9504 125.628C-40.8463 92.64 -29.6315 50.4569 3.09877 31.4101C36.5826 11.9248 70.6158 24.3745 85.3279 50.0589C94.3947 65.8876 105.135 76.3623 105.514 85.3002C106.613 111.173 95.2512 137.066 71.5271 150.872C38.7969 169.919 -3.05447 158.617 -21.9504 125.628Z" fill="#9BB1EA"/>
<path d="M-21.8887 125.727C-40.844 92.9016 -29.7039 50.9899 2.99346 32.1153C36.4436 12.8061 64.6599 25.444 79.4182 51.0018C88.5134 66.7525 104.786 69.6427 105.508 85.8681C106.653 111.588 95.3369 137.308 71.6366 150.989C38.9393 169.863 -2.93347 158.553 -21.8887 125.727Z" fill="#C1D0F6"/>
<path d="M-21.888 125.445C-40.8312 92.3624 -29.7202 50.1364 2.92917 31.1303C36.3302 11.6865 58.5857 25.0872 73.3346 50.8445C82.424 66.7182 103.448 63.2649 105.334 85.3286C107.544 111.179 95.1941 137.155 71.5286 150.932C38.8792 169.938 -2.94483 158.527 -21.888 125.445Z" fill="#E0F8F3"/>
<path d="M-21.8973 125.984C-40.832 92.9822 -29.7087 50.8482 2.94732 31.8755C36.3552 12.4661 56.603 30.5804 69.1168 52.3913C78.2021 68.2267 100.612 59.1909 105.341 85.9226C107.544 111.714 94.8436 137.038 71.1731 150.79C38.5171 169.763 -2.96267 158.987 -21.8973 125.984Z" fill="#A5DAEF"/>
<path d="M-20.723 124.738C-39.6521 91.8635 -29.7037 50.5704 2.95626 31.6632C38.1422 11.2936 54.7182 39.3969 64.4694 53.5936C71.8723 64.3709 100.617 58.8584 105.342 85.4888C107.54 111.183 94.8352 136.414 71.162 150.118C38.502 169.026 -1.79389 157.613 -20.723 124.738Z" fill="#679EB4"/>
<path d="M-20.7339 124.568C-39.6529 91.5189 -29.6916 49.9966 2.97436 30.9755C36.3925 11.5166 52.2758 40.9647 60.2003 53.1057C68.1246 65.2467 101.266 58.7151 105.344 85.0637C107.534 110.898 94.8211 136.271 71.1436 150.058C38.4776 169.079 -1.81495 157.617 -20.7339 124.568Z" fill="#206783"/>
<path d="M-22.67 126.713C-41.9423 93.1977 -30.3581 49.8869 2.87185 30.6243C36.1018 11.3616 47.2352 42.4811 58.8088 56.0516C69.8914 69.0464 102.104 61.6 107.078 85.5194C112.052 109.439 96.4006 137.425 72.3143 151.387C39.0843 170.649 -3.39766 160.228 -22.67 126.713Z" fill="#66B6BD"/>
</g>
</g>
<defs>
<clipPath id="clip0">
<rect width="140" height="140" fill="white" transform="translate(108 161) rotate(-180)"/>
</clipPath>
</defs>
</svg>
