<svg width="205" height="408" viewBox="0 0 205 408" fill="none" xmlns="http://www.w3.org/2000/svg">
<g filter="url(#filter0_d)">
<path d="M15 24C15 15.7157 21.7157 9 30 9H175C183.284 9 190 15.7157 190 24V372C190 380.284 183.284 387 175 387H30C21.7157 387 15 380.284 15 372V24Z" fill="#1F2277"/>
<path d="M43.0362 197.136C43.1962 197.243 43.2762 197.376 43.2762 197.536C43.2762 197.589 43.2549 197.659 43.2122 197.744C43.1696 197.819 43.1109 197.877 43.0362 197.92C42.9616 197.963 42.8816 197.984 42.7962 197.984C42.6896 197.984 42.5989 197.963 42.5242 197.92C42.2256 197.749 41.9856 197.472 41.8042 197.088C41.6229 196.704 41.5322 196.091 41.5322 195.248C41.5322 194.501 41.3242 193.979 40.9082 193.68C40.4922 193.371 39.9962 193.216 39.4202 193.216H35.8682V197.52C35.8682 197.659 35.8256 197.776 35.7402 197.872C35.6549 197.957 35.5429 198 35.4042 198C35.2549 198 35.1269 197.957 35.0202 197.872C34.9136 197.776 34.8602 197.659 34.8602 197.52V187.28C34.8602 187.141 34.9029 187.029 34.9882 186.944C35.0842 186.848 35.2016 186.8 35.3402 186.8H39.6602C40.2682 186.8 40.8122 186.933 41.2922 187.2C41.7722 187.456 42.1456 187.813 42.4122 188.272C42.6896 188.731 42.8282 189.248 42.8282 189.824C42.8282 190.507 42.6469 191.109 42.2842 191.632C41.9322 192.144 41.4682 192.496 40.8922 192.688C41.3616 192.869 41.7456 193.179 42.0442 193.616C42.3429 194.043 42.4976 194.565 42.5082 195.184C42.5189 195.845 42.5616 196.309 42.6362 196.576C42.7216 196.843 42.8549 197.029 43.0362 197.136ZM39.7082 192.336C40.0816 192.304 40.4282 192.181 40.7482 191.968C41.0682 191.755 41.3242 191.467 41.5162 191.104C41.7082 190.741 41.8042 190.325 41.8042 189.856C41.8042 189.248 41.5962 188.747 41.1802 188.352C40.7749 187.947 40.2416 187.744 39.5802 187.744H35.8682V192.336H39.7082ZM52.4129 193.904C52.4129 194.704 52.2369 195.429 51.8849 196.08C51.5329 196.731 51.0475 197.243 50.4289 197.616C49.8102 197.979 49.1222 198.16 48.3649 198.16C47.6075 198.16 46.9195 197.979 46.3009 197.616C45.6822 197.243 45.1969 196.731 44.8449 196.08C44.4929 195.429 44.3169 194.704 44.3169 193.904C44.3169 193.104 44.4929 192.379 44.8449 191.728C45.1969 191.077 45.6822 190.565 46.3009 190.192C46.9195 189.819 47.6075 189.632 48.3649 189.632C49.1222 189.632 49.8102 189.819 50.4289 190.192C51.0475 190.565 51.5329 191.077 51.8849 191.728C52.2369 192.379 52.4129 193.104 52.4129 193.904ZM51.4529 193.904C51.4529 193.264 51.3195 192.688 51.0529 192.176C50.7862 191.664 50.4129 191.264 49.9329 190.976C49.4635 190.677 48.9409 190.528 48.3649 190.528C47.7889 190.528 47.2662 190.677 46.7969 190.976C46.3275 191.264 45.9542 191.664 45.6769 192.176C45.4102 192.688 45.2769 193.264 45.2769 193.904C45.2769 194.533 45.4102 195.104 45.6769 195.616C45.9542 196.128 46.3275 196.533 46.7969 196.832C47.2662 197.12 47.7889 197.264 48.3649 197.264C48.9409 197.264 49.4635 197.12 49.9329 196.832C50.4129 196.544 50.7862 196.144 51.0529 195.632C51.3195 195.12 51.4529 194.544 51.4529 193.904ZM53.5125 196.704C53.4272 196.565 53.3845 196.448 53.3845 196.352C53.3845 196.213 53.4538 196.107 53.5925 196.032C53.6565 195.968 53.7418 195.936 53.8485 195.936C53.9765 195.936 54.0938 195.989 54.2005 196.096C54.8298 196.928 55.6672 197.344 56.7125 197.344C57.2245 197.344 57.6672 197.227 58.0405 196.992C58.4245 196.747 58.6165 196.395 58.6165 195.936C58.6165 195.488 58.4405 195.152 58.0885 194.928C57.7365 194.704 57.2458 194.512 56.6165 194.352C55.7312 194.128 55.0378 193.84 54.5365 193.488C54.0352 193.125 53.7845 192.597 53.7845 191.904C53.7845 191.467 53.9072 191.077 54.1525 190.736C54.3978 190.384 54.7285 190.112 55.1445 189.92C55.5712 189.728 56.0512 189.632 56.5845 189.632C57.0432 189.632 57.5018 189.723 57.9605 189.904C58.4298 190.075 58.8298 190.352 59.1605 190.736C59.2565 190.811 59.3045 190.917 59.3045 191.056C59.3045 191.184 59.2512 191.296 59.1445 191.392C59.0698 191.456 58.9738 191.488 58.8565 191.488C58.7498 191.488 58.6538 191.445 58.5685 191.36C58.3125 191.072 58.0085 190.853 57.6565 190.704C57.3045 190.555 56.9258 190.48 56.5205 190.48C56.0192 190.48 55.5872 190.597 55.2245 190.832C54.8725 191.067 54.6965 191.419 54.6965 191.888C54.7178 192.315 54.9098 192.64 55.2725 192.864C55.6458 193.088 56.1898 193.291 56.9045 193.472C57.4592 193.611 57.9178 193.765 58.2805 193.936C58.6432 194.107 58.9365 194.347 59.1605 194.656C59.3952 194.965 59.5125 195.376 59.5125 195.888C59.5125 196.581 59.2352 197.136 58.6805 197.552C58.1258 197.957 57.4378 198.16 56.6165 198.16C55.3152 198.16 54.2805 197.675 53.5125 196.704ZM60.6125 196.704C60.5272 196.565 60.4845 196.448 60.4845 196.352C60.4845 196.213 60.5538 196.107 60.6925 196.032C60.7565 195.968 60.8418 195.936 60.9485 195.936C61.0765 195.936 61.1938 195.989 61.3005 196.096C61.9298 196.928 62.7672 197.344 63.8125 197.344C64.3245 197.344 64.7672 197.227 65.1405 196.992C65.5245 196.747 65.7165 196.395 65.7165 195.936C65.7165 195.488 65.5405 195.152 65.1885 194.928C64.8365 194.704 64.3458 194.512 63.7165 194.352C62.8312 194.128 62.1378 193.84 61.6365 193.488C61.1352 193.125 60.8845 192.597 60.8845 191.904C60.8845 191.467 61.0072 191.077 61.2525 190.736C61.4978 190.384 61.8285 190.112 62.2445 189.92C62.6712 189.728 63.1512 189.632 63.6845 189.632C64.1432 189.632 64.6018 189.723 65.0605 189.904C65.5298 190.075 65.9298 190.352 66.2605 190.736C66.3565 190.811 66.4045 190.917 66.4045 191.056C66.4045 191.184 66.3512 191.296 66.2445 191.392C66.1698 191.456 66.0738 191.488 65.9565 191.488C65.8498 191.488 65.7538 191.445 65.6685 191.36C65.4125 191.072 65.1085 190.853 64.7565 190.704C64.4045 190.555 64.0258 190.48 63.6205 190.48C63.1192 190.48 62.6872 190.597 62.3245 190.832C61.9725 191.067 61.7965 191.419 61.7965 191.888C61.8178 192.315 62.0098 192.64 62.3725 192.864C62.7458 193.088 63.2898 193.291 64.0045 193.472C64.5592 193.611 65.0178 193.765 65.3805 193.936C65.7432 194.107 66.0365 194.347 66.2605 194.656C66.4952 194.965 66.6125 195.376 66.6125 195.888C66.6125 196.581 66.3352 197.136 65.7805 197.552C65.2258 197.957 64.5378 198.16 63.7165 198.16C62.4152 198.16 61.3805 197.675 60.6125 196.704ZM69.4085 197.952C69.4085 198.251 69.3285 198.549 69.1685 198.848C69.0192 199.157 68.8272 199.408 68.5925 199.6C68.3578 199.803 68.1285 199.904 67.9045 199.904C67.7872 199.904 67.6858 199.872 67.6005 199.808C67.5258 199.755 67.4885 199.669 67.4885 199.552C67.4885 199.445 67.5152 199.371 67.5685 199.328C67.6218 199.285 67.7018 199.248 67.8085 199.216C67.9258 199.184 68.0112 199.152 68.0645 199.12C68.2138 199.045 68.3258 198.933 68.4005 198.784C68.4858 198.645 68.5285 198.491 68.5285 198.32C68.5285 198.203 68.4965 198.107 68.4325 198.032C68.3685 197.957 68.2832 197.92 68.1765 197.92C68.0058 197.92 67.8618 197.968 67.7445 198.064C67.6165 197.957 67.5525 197.829 67.5525 197.68C67.5525 197.488 67.6485 197.323 67.8405 197.184C68.0325 197.035 68.2405 196.96 68.4645 196.96C68.7418 196.96 68.9658 197.051 69.1365 197.232C69.3178 197.403 69.4085 197.643 69.4085 197.952ZM74.3969 196.704C74.3115 196.565 74.2689 196.448 74.2689 196.352C74.2689 196.213 74.3382 196.107 74.4769 196.032C74.5409 195.968 74.6262 195.936 74.7329 195.936C74.8609 195.936 74.9782 195.989 75.0849 196.096C75.7142 196.928 76.5515 197.344 77.5969 197.344C78.1089 197.344 78.5515 197.227 78.9249 196.992C79.3089 196.747 79.5009 196.395 79.5009 195.936C79.5009 195.488 79.3249 195.152 78.9729 194.928C78.6209 194.704 78.1302 194.512 77.5009 194.352C76.6155 194.128 75.9222 193.84 75.4209 193.488C74.9195 193.125 74.6689 192.597 74.6689 191.904C74.6689 191.467 74.7915 191.077 75.0369 190.736C75.2822 190.384 75.6129 190.112 76.0289 189.92C76.4555 189.728 76.9355 189.632 77.4689 189.632C77.9275 189.632 78.3862 189.723 78.8449 189.904C79.3142 190.075 79.7142 190.352 80.0449 190.736C80.1409 190.811 80.1889 190.917 80.1889 191.056C80.1889 191.184 80.1355 191.296 80.0289 191.392C79.9542 191.456 79.8582 191.488 79.7409 191.488C79.6342 191.488 79.5382 191.445 79.4529 191.36C79.1969 191.072 78.8929 190.853 78.5409 190.704C78.1889 190.555 77.8102 190.48 77.4049 190.48C76.9035 190.48 76.4715 190.597 76.1089 190.832C75.7569 191.067 75.5809 191.419 75.5809 191.888C75.6022 192.315 75.7942 192.64 76.1569 192.864C76.5302 193.088 77.0742 193.291 77.7889 193.472C78.3435 193.611 78.8022 193.765 79.1649 193.936C79.5275 194.107 79.8209 194.347 80.0449 194.656C80.2795 194.965 80.3969 195.376 80.3969 195.888C80.3969 196.581 80.1195 197.136 79.5649 197.552C79.0102 197.957 78.3222 198.16 77.5009 198.16C76.1995 198.16 75.1649 197.675 74.3969 196.704ZM83.0169 197.52C83.0169 197.659 82.9689 197.776 82.8729 197.872C82.7875 197.957 82.6755 198 82.5369 198C82.3982 198 82.2809 197.957 82.1849 197.872C82.0995 197.776 82.0569 197.659 82.0569 197.52V186.64C82.0569 186.501 82.0995 186.389 82.1849 186.304C82.2809 186.208 82.3982 186.16 82.5369 186.16C82.6755 186.16 82.7875 186.208 82.8729 186.304C82.9689 186.389 83.0169 186.501 83.0169 186.64V197.52ZM86.1764 197.52C86.1764 197.659 86.1284 197.776 86.0324 197.872C85.947 197.957 85.835 198 85.6964 198C85.5577 198 85.4404 197.957 85.3444 197.872C85.259 197.776 85.2164 197.659 85.2164 197.52V190.16C85.2164 190.021 85.259 189.909 85.3444 189.824C85.4404 189.728 85.5577 189.68 85.6964 189.68C85.835 189.68 85.947 189.728 86.0324 189.824C86.1284 189.909 86.1764 190.021 86.1764 190.16V197.52ZM85.6964 188.608C85.483 188.608 85.3177 188.56 85.2004 188.464C85.083 188.357 85.0244 188.208 85.0244 188.016V187.856C85.0244 187.664 85.083 187.52 85.2004 187.424C85.3284 187.317 85.499 187.264 85.7124 187.264C86.139 187.264 86.3524 187.461 86.3524 187.856V188.016C86.3524 188.208 86.2937 188.357 86.1764 188.464C86.0697 188.56 85.9097 188.608 85.6964 188.608ZM94.9102 186.16C95.0489 186.16 95.1609 186.208 95.2462 186.304C95.3422 186.389 95.3902 186.501 95.3902 186.64V197.52C95.3902 197.659 95.3422 197.776 95.2462 197.872C95.1609 197.957 95.0489 198 94.9102 198C94.7716 198 94.6542 197.957 94.5582 197.872C94.4729 197.776 94.4302 197.659 94.4302 197.52V196.4C94.1636 196.891 93.7636 197.307 93.2302 197.648C92.7076 197.989 92.1262 198.16 91.4862 198.16C90.7822 198.16 90.1422 197.979 89.5662 197.616C89.0009 197.243 88.5529 196.731 88.2222 196.08C87.8916 195.429 87.7262 194.699 87.7262 193.888C87.7262 193.088 87.8916 192.363 88.2222 191.712C88.5529 191.061 89.0009 190.555 89.5662 190.192C90.1422 189.819 90.7769 189.632 91.4702 189.632C92.0996 189.632 92.6809 189.792 93.2142 190.112C93.7476 190.421 94.1529 190.827 94.4302 191.328V186.64C94.4302 186.501 94.4729 186.389 94.5582 186.304C94.6542 186.208 94.7716 186.16 94.9102 186.16ZM91.5822 197.264C92.1369 197.264 92.6329 197.12 93.0702 196.832C93.5182 196.544 93.8649 196.144 94.1102 195.632C94.3662 195.109 94.4942 194.528 94.4942 193.888C94.4942 193.259 94.3662 192.688 94.1102 192.176C93.8649 191.664 93.5182 191.264 93.0702 190.976C92.6329 190.677 92.1369 190.528 91.5822 190.528C91.0276 190.528 90.5262 190.677 90.0782 190.976C89.6409 191.264 89.2942 191.664 89.0382 192.176C88.7929 192.688 88.6702 193.259 88.6702 193.888C88.6702 194.528 88.7929 195.104 89.0382 195.616C89.2942 196.128 89.6409 196.533 90.0782 196.832C90.5262 197.12 91.0276 197.264 91.5822 197.264ZM104.407 193.44C104.407 193.568 104.359 193.68 104.263 193.776C104.167 193.861 104.055 193.904 103.927 193.904H97.8792C97.8792 194.544 98.0072 195.12 98.2632 195.632C98.5299 196.133 98.9032 196.533 99.3832 196.832C99.8739 197.12 100.45 197.264 101.111 197.264C101.623 197.264 102.082 197.157 102.487 196.944C102.893 196.731 103.218 196.459 103.463 196.128C103.581 196.032 103.693 195.984 103.799 195.984C103.906 195.984 104.002 196.027 104.087 196.112C104.173 196.197 104.215 196.293 104.215 196.4C104.215 196.517 104.162 196.629 104.055 196.736C103.714 197.152 103.282 197.493 102.759 197.76C102.247 198.027 101.703 198.16 101.127 198.16C100.306 198.16 99.5806 197.984 98.9512 197.632C98.3219 197.28 97.8312 196.789 97.4792 196.16C97.1272 195.52 96.9512 194.784 96.9512 193.952C96.9512 193.077 97.1219 192.315 97.4632 191.664C97.8152 191.003 98.2792 190.501 98.8552 190.16C99.4312 189.808 100.045 189.632 100.695 189.632C101.335 189.632 101.933 189.781 102.487 190.08C103.053 190.379 103.511 190.816 103.863 191.392C104.215 191.968 104.397 192.651 104.407 193.44ZM100.695 190.56C100.077 190.56 99.5006 190.773 98.9672 191.2C98.4446 191.627 98.1086 192.24 97.9592 193.04H103.415V192.912C103.362 192.432 103.202 192.016 102.935 191.664C102.669 191.301 102.333 191.029 101.927 190.848C101.533 190.656 101.122 190.56 100.695 190.56ZM111.561 190.752V196.112C111.561 196.517 111.636 196.795 111.785 196.944C111.934 197.083 112.132 197.152 112.377 197.152C112.441 197.152 112.521 197.141 112.617 197.12C112.713 197.088 112.788 197.072 112.841 197.072C112.937 197.072 113.017 197.115 113.081 197.2C113.156 197.275 113.193 197.365 113.193 197.472C113.193 197.621 113.108 197.749 112.937 197.856C112.766 197.952 112.564 198 112.329 198C112.041 198 111.785 197.973 111.561 197.92C111.337 197.867 111.118 197.707 110.905 197.44C110.702 197.173 110.601 196.747 110.601 196.16V190.752H109.433C109.305 190.752 109.193 190.709 109.097 190.624C109.012 190.539 108.969 190.432 108.969 190.304C108.969 190.176 109.012 190.069 109.097 189.984C109.193 189.899 109.305 189.856 109.433 189.856H110.601V188.08C110.601 187.941 110.644 187.829 110.729 187.744C110.825 187.648 110.942 187.6 111.081 187.6C111.22 187.6 111.332 187.648 111.417 187.744C111.513 187.829 111.561 187.941 111.561 188.08V189.856H113.161C113.278 189.856 113.38 189.904 113.465 190C113.561 190.096 113.609 190.203 113.609 190.32C113.609 190.448 113.566 190.555 113.481 190.64C113.396 190.715 113.289 190.752 113.161 190.752H111.561ZM118.711 189.76C119.671 189.76 120.385 190.064 120.855 190.672C121.324 191.269 121.559 192.043 121.559 192.992V197.52C121.559 197.659 121.511 197.776 121.415 197.872C121.329 197.957 121.217 198 121.079 198C120.94 198 120.823 197.957 120.727 197.872C120.641 197.776 120.599 197.659 120.599 197.52V192.992C120.599 192.299 120.433 191.739 120.103 191.312C119.772 190.875 119.255 190.656 118.551 190.656C118.103 190.656 117.676 190.763 117.271 190.976C116.876 191.189 116.556 191.477 116.311 191.84C116.065 192.192 115.943 192.576 115.943 192.992V197.52C115.943 197.659 115.895 197.776 115.799 197.872C115.713 197.957 115.601 198 115.463 198C115.324 198 115.207 197.957 115.111 197.872C115.025 197.776 114.983 197.659 114.983 197.52V186.64C114.983 186.501 115.025 186.389 115.111 186.304C115.207 186.208 115.324 186.16 115.463 186.16C115.601 186.16 115.713 186.208 115.799 186.304C115.895 186.389 115.943 186.501 115.943 186.64V191.328C116.231 190.869 116.631 190.496 117.143 190.208C117.655 189.909 118.177 189.76 118.711 189.76ZM130.588 193.44C130.588 193.568 130.54 193.68 130.444 193.776C130.348 193.861 130.236 193.904 130.108 193.904H124.06C124.06 194.544 124.188 195.12 124.444 195.632C124.711 196.133 125.084 196.533 125.564 196.832C126.055 197.12 126.631 197.264 127.292 197.264C127.804 197.264 128.263 197.157 128.668 196.944C129.074 196.731 129.399 196.459 129.644 196.128C129.762 196.032 129.874 195.984 129.98 195.984C130.087 195.984 130.183 196.027 130.268 196.112C130.354 196.197 130.396 196.293 130.396 196.4C130.396 196.517 130.343 196.629 130.236 196.736C129.895 197.152 129.463 197.493 128.94 197.76C128.428 198.027 127.884 198.16 127.308 198.16C126.487 198.16 125.762 197.984 125.132 197.632C124.503 197.28 124.012 196.789 123.66 196.16C123.308 195.52 123.132 194.784 123.132 193.952C123.132 193.077 123.303 192.315 123.644 191.664C123.996 191.003 124.46 190.501 125.036 190.16C125.612 189.808 126.226 189.632 126.876 189.632C127.516 189.632 128.114 189.781 128.668 190.08C129.234 190.379 129.692 190.816 130.044 191.392C130.396 191.968 130.578 192.651 130.588 193.44ZM126.876 190.56C126.258 190.56 125.682 190.773 125.148 191.2C124.626 191.627 124.29 192.24 124.14 193.04H129.596V192.912C129.543 192.432 129.383 192.016 129.116 191.664C128.85 191.301 128.514 191.029 128.108 190.848C127.714 190.656 127.303 190.56 126.876 190.56ZM135.678 196.704C135.593 196.565 135.55 196.448 135.55 196.352C135.55 196.213 135.619 196.107 135.758 196.032C135.822 195.968 135.907 195.936 136.014 195.936C136.142 195.936 136.259 195.989 136.366 196.096C136.995 196.928 137.833 197.344 138.878 197.344C139.39 197.344 139.833 197.227 140.206 196.992C140.59 196.747 140.782 196.395 140.782 195.936C140.782 195.488 140.606 195.152 140.254 194.928C139.902 194.704 139.411 194.512 138.782 194.352C137.897 194.128 137.203 193.84 136.702 193.488C136.201 193.125 135.95 192.597 135.95 191.904C135.95 191.467 136.073 191.077 136.318 190.736C136.563 190.384 136.894 190.112 137.31 189.92C137.737 189.728 138.217 189.632 138.75 189.632C139.209 189.632 139.667 189.723 140.126 189.904C140.595 190.075 140.995 190.352 141.326 190.736C141.422 190.811 141.47 190.917 141.47 191.056C141.47 191.184 141.417 191.296 141.31 191.392C141.235 191.456 141.139 191.488 141.022 191.488C140.915 191.488 140.819 191.445 140.734 191.36C140.478 191.072 140.174 190.853 139.822 190.704C139.47 190.555 139.091 190.48 138.686 190.48C138.185 190.48 137.753 190.597 137.39 190.832C137.038 191.067 136.862 191.419 136.862 191.888C136.883 192.315 137.075 192.64 137.438 192.864C137.811 193.088 138.355 193.291 139.07 193.472C139.625 193.611 140.083 193.765 140.446 193.936C140.809 194.107 141.102 194.347 141.326 194.656C141.561 194.965 141.678 195.376 141.678 195.888C141.678 196.581 141.401 197.136 140.846 197.552C140.291 197.957 139.603 198.16 138.782 198.16C137.481 198.16 136.446 197.675 135.678 196.704ZM146.778 189.632C147.279 189.632 147.743 189.691 148.17 189.808C148.607 189.915 148.954 190.064 149.21 190.256C149.477 190.448 149.61 190.656 149.61 190.88C149.61 190.997 149.567 191.104 149.482 191.2C149.407 191.296 149.311 191.344 149.194 191.344C149.087 191.344 148.997 191.323 148.922 191.28C148.858 191.237 148.783 191.173 148.698 191.088C148.559 190.949 148.426 190.848 148.298 190.784C148.138 190.709 147.925 190.651 147.658 190.608C147.402 190.555 147.125 190.528 146.826 190.528C146.239 190.528 145.701 190.677 145.21 190.976C144.73 191.275 144.351 191.68 144.074 192.192C143.797 192.704 143.658 193.269 143.658 193.888C143.658 194.528 143.791 195.104 144.058 195.616C144.325 196.128 144.693 196.533 145.162 196.832C145.642 197.12 146.186 197.264 146.794 197.264C147.178 197.264 147.482 197.232 147.706 197.168C147.941 197.104 148.17 197.013 148.394 196.896C148.469 196.853 148.597 196.757 148.778 196.608C148.863 196.533 148.938 196.48 149.002 196.448C149.066 196.405 149.135 196.384 149.21 196.384C149.338 196.384 149.439 196.427 149.514 196.512C149.589 196.587 149.626 196.688 149.626 196.816C149.626 196.997 149.498 197.195 149.242 197.408C148.986 197.611 148.634 197.787 148.186 197.936C147.738 198.085 147.242 198.16 146.698 198.16C145.919 198.16 145.226 197.979 144.618 197.616C144.01 197.243 143.535 196.731 143.194 196.08C142.863 195.429 142.698 194.699 142.698 193.888C142.698 193.109 142.869 192.4 143.21 191.76C143.551 191.109 144.031 190.592 144.65 190.208C145.269 189.824 145.978 189.632 146.778 189.632ZM157.701 189.824C157.84 189.824 157.952 189.872 158.037 189.968C158.133 190.064 158.181 190.181 158.181 190.32V197.52C158.181 197.659 158.133 197.776 158.037 197.872C157.952 197.957 157.84 198 157.701 198C157.562 198 157.445 197.957 157.349 197.872C157.264 197.776 157.221 197.659 157.221 197.52V196.448C156.954 196.928 156.554 197.333 156.021 197.664C155.488 197.995 154.906 198.16 154.277 198.16C153.562 198.16 152.917 197.973 152.341 197.6C151.776 197.227 151.328 196.715 150.997 196.064C150.677 195.413 150.517 194.683 150.517 193.872C150.517 193.061 150.682 192.336 151.013 191.696C151.344 191.045 151.792 190.539 152.357 190.176C152.933 189.813 153.568 189.632 154.261 189.632C154.901 189.632 155.488 189.787 156.021 190.096C156.554 190.405 156.954 190.811 157.221 191.312V190.32C157.221 190.181 157.264 190.064 157.349 189.968C157.445 189.872 157.562 189.824 157.701 189.824ZM154.373 197.264C154.928 197.264 155.424 197.12 155.861 196.832C156.309 196.533 156.656 196.128 156.901 195.616C157.157 195.093 157.285 194.512 157.285 193.872C157.285 193.253 157.157 192.688 156.901 192.176C156.656 191.664 156.309 191.264 155.861 190.976C155.424 190.677 154.928 190.528 154.373 190.528C153.818 190.528 153.317 190.672 152.869 190.96C152.432 191.248 152.085 191.648 151.829 192.16C151.584 192.661 151.461 193.232 151.461 193.872C151.461 194.512 151.584 195.093 151.829 195.616C152.074 196.128 152.416 196.533 152.853 196.832C153.301 197.12 153.808 197.264 154.373 197.264ZM161.342 197.52C161.342 197.659 161.294 197.776 161.198 197.872C161.113 197.957 161.001 198 160.862 198C160.723 198 160.606 197.957 160.51 197.872C160.425 197.776 160.382 197.659 160.382 197.52V186.64C160.382 186.501 160.425 186.389 160.51 186.304C160.606 186.208 160.723 186.16 160.862 186.16C161.001 186.16 161.113 186.208 161.198 186.304C161.294 186.389 161.342 186.501 161.342 186.64V197.52ZM170.329 193.44C170.329 193.568 170.281 193.68 170.185 193.776C170.089 193.861 169.977 193.904 169.849 193.904H163.801C163.801 194.544 163.929 195.12 164.185 195.632C164.452 196.133 164.825 196.533 165.305 196.832C165.796 197.12 166.372 197.264 167.033 197.264C167.545 197.264 168.004 197.157 168.409 196.944C168.814 196.731 169.14 196.459 169.385 196.128C169.502 196.032 169.614 195.984 169.721 195.984C169.828 195.984 169.924 196.027 170.009 196.112C170.094 196.197 170.137 196.293 170.137 196.4C170.137 196.517 170.084 196.629 169.977 196.736C169.636 197.152 169.204 197.493 168.681 197.76C168.169 198.027 167.625 198.16 167.049 198.16C166.228 198.16 165.502 197.984 164.873 197.632C164.244 197.28 163.753 196.789 163.401 196.16C163.049 195.52 162.873 194.784 162.873 193.952C162.873 193.077 163.044 192.315 163.385 191.664C163.737 191.003 164.201 190.501 164.777 190.16C165.353 189.808 165.966 189.632 166.617 189.632C167.257 189.632 167.854 189.781 168.409 190.08C168.974 190.379 169.433 190.816 169.785 191.392C170.137 191.968 170.318 192.651 170.329 193.44ZM166.617 190.56C165.998 190.56 165.422 190.773 164.889 191.2C164.366 191.627 164.03 192.24 163.881 193.04H169.337V192.912C169.284 192.432 169.124 192.016 168.857 191.664C168.59 191.301 168.254 191.029 167.849 190.848C167.454 190.656 167.044 190.56 166.617 190.56ZM29.4531 208.752V214.112C29.4531 214.517 29.5277 214.795 29.6771 214.944C29.8264 215.083 30.0237 215.152 30.2691 215.152C30.3331 215.152 30.4131 215.141 30.5091 215.12C30.6051 215.088 30.6797 215.072 30.7331 215.072C30.8291 215.072 30.9091 215.115 30.9731 215.2C31.0477 215.275 31.0851 215.365 31.0851 215.472C31.0851 215.621 30.9997 215.749 30.8291 215.856C30.6584 215.952 30.4557 216 30.2211 216C29.9331 216 29.6771 215.973 29.4531 215.92C29.2291 215.867 29.0104 215.707 28.7971 215.44C28.5944 215.173 28.4931 214.747 28.4931 214.16V208.752H27.3251C27.1971 208.752 27.0851 208.709 26.9891 208.624C26.9037 208.539 26.8611 208.432 26.8611 208.304C26.8611 208.176 26.9037 208.069 26.9891 207.984C27.0851 207.899 27.1971 207.856 27.3251 207.856H28.4931V206.08C28.4931 205.941 28.5357 205.829 28.6211 205.744C28.7171 205.648 28.8344 205.6 28.9731 205.6C29.1117 205.6 29.2237 205.648 29.3091 205.744C29.4051 205.829 29.4531 205.941 29.4531 206.08V207.856H31.0531C31.1704 207.856 31.2717 207.904 31.3571 208C31.4531 208.096 31.5011 208.203 31.5011 208.32C31.5011 208.448 31.4584 208.555 31.3731 208.64C31.2877 208.715 31.1811 208.752 31.0531 208.752H29.4531ZM40.3488 211.904C40.3488 212.704 40.1728 213.429 39.8208 214.08C39.4688 214.731 38.9835 215.243 38.3648 215.616C37.7461 215.979 37.0581 216.16 36.3008 216.16C35.5435 216.16 34.8555 215.979 34.2368 215.616C33.6181 215.243 33.1328 214.731 32.7808 214.08C32.4288 213.429 32.2528 212.704 32.2528 211.904C32.2528 211.104 32.4288 210.379 32.7808 209.728C33.1328 209.077 33.6181 208.565 34.2368 208.192C34.8555 207.819 35.5435 207.632 36.3008 207.632C37.0581 207.632 37.7461 207.819 38.3648 208.192C38.9835 208.565 39.4688 209.077 39.8208 209.728C40.1728 210.379 40.3488 211.104 40.3488 211.904ZM39.3888 211.904C39.3888 211.264 39.2555 210.688 38.9888 210.176C38.7221 209.664 38.3488 209.264 37.8688 208.976C37.3995 208.677 36.8768 208.528 36.3008 208.528C35.7248 208.528 35.2021 208.677 34.7328 208.976C34.2635 209.264 33.8901 209.664 33.6128 210.176C33.3461 210.688 33.2128 211.264 33.2128 211.904C33.2128 212.533 33.3461 213.104 33.6128 213.616C33.8901 214.128 34.2635 214.533 34.7328 214.832C35.2021 215.12 35.7248 215.264 36.3008 215.264C36.8768 215.264 37.3995 215.12 37.8688 214.832C38.3488 214.544 38.7221 214.144 38.9888 213.632C39.2555 213.12 39.3888 212.544 39.3888 211.904ZM45.4234 214.704C45.3381 214.565 45.2954 214.448 45.2954 214.352C45.2954 214.213 45.3648 214.107 45.5034 214.032C45.5674 213.968 45.6528 213.936 45.7594 213.936C45.8874 213.936 46.0048 213.989 46.1114 214.096C46.7408 214.928 47.5781 215.344 48.6234 215.344C49.1354 215.344 49.5781 215.227 49.9514 214.992C50.3354 214.747 50.5274 214.395 50.5274 213.936C50.5274 213.488 50.3514 213.152 49.9994 212.928C49.6474 212.704 49.1568 212.512 48.5274 212.352C47.6421 212.128 46.9488 211.84 46.4474 211.488C45.9461 211.125 45.6954 210.597 45.6954 209.904C45.6954 209.467 45.8181 209.077 46.0634 208.736C46.3088 208.384 46.6394 208.112 47.0554 207.92C47.4821 207.728 47.9621 207.632 48.4954 207.632C48.9541 207.632 49.4128 207.723 49.8714 207.904C50.3408 208.075 50.7408 208.352 51.0714 208.736C51.1674 208.811 51.2154 208.917 51.2154 209.056C51.2154 209.184 51.1621 209.296 51.0554 209.392C50.9808 209.456 50.8848 209.488 50.7674 209.488C50.6608 209.488 50.5648 209.445 50.4794 209.36C50.2234 209.072 49.9194 208.853 49.5674 208.704C49.2154 208.555 48.8368 208.48 48.4314 208.48C47.9301 208.48 47.4981 208.597 47.1354 208.832C46.7834 209.067 46.6074 209.419 46.6074 209.888C46.6288 210.315 46.8208 210.64 47.1834 210.864C47.5568 211.088 48.1008 211.291 48.8154 211.472C49.3701 211.611 49.8288 211.765 50.1914 211.936C50.5541 212.107 50.8474 212.347 51.0714 212.656C51.3061 212.965 51.4234 213.376 51.4234 213.888C51.4234 214.581 51.1461 215.136 50.5914 215.552C50.0368 215.957 49.3488 216.16 48.5274 216.16C47.2261 216.16 46.1914 215.675 45.4234 214.704ZM56.7154 207.76C57.6754 207.76 58.3901 208.064 58.8594 208.672C59.3288 209.269 59.5634 210.043 59.5634 210.992V215.52C59.5634 215.659 59.5154 215.776 59.4194 215.872C59.3341 215.957 59.2221 216 59.0834 216C58.9448 216 58.8274 215.957 58.7314 215.872C58.6461 215.776 58.6034 215.659 58.6034 215.52V210.992C58.6034 210.299 58.4381 209.739 58.1074 209.312C57.7768 208.875 57.2594 208.656 56.5554 208.656C56.1074 208.656 55.6808 208.763 55.2754 208.976C54.8808 209.189 54.5608 209.477 54.3154 209.84C54.0701 210.192 53.9474 210.576 53.9474 210.992V215.52C53.9474 215.659 53.8994 215.776 53.8034 215.872C53.7181 215.957 53.6061 216 53.4674 216C53.3288 216 53.2114 215.957 53.1154 215.872C53.0301 215.776 52.9874 215.659 52.9874 215.52V204.64C52.9874 204.501 53.0301 204.389 53.1154 204.304C53.2114 204.208 53.3288 204.16 53.4674 204.16C53.6061 204.16 53.7181 204.208 53.8034 204.304C53.8994 204.389 53.9474 204.501 53.9474 204.64V209.328C54.2354 208.869 54.6354 208.496 55.1474 208.208C55.6594 207.909 56.1821 207.76 56.7154 207.76ZM69.2332 211.904C69.2332 212.704 69.0572 213.429 68.7052 214.08C68.3532 214.731 67.8679 215.243 67.2492 215.616C66.6305 215.979 65.9425 216.16 65.1852 216.16C64.4279 216.16 63.7399 215.979 63.1212 215.616C62.5025 215.243 62.0172 214.731 61.6652 214.08C61.3132 213.429 61.1372 212.704 61.1372 211.904C61.1372 211.104 61.3132 210.379 61.6652 209.728C62.0172 209.077 62.5025 208.565 63.1212 208.192C63.7399 207.819 64.4279 207.632 65.1852 207.632C65.9425 207.632 66.6305 207.819 67.2492 208.192C67.8679 208.565 68.3532 209.077 68.7052 209.728C69.0572 210.379 69.2332 211.104 69.2332 211.904ZM68.2732 211.904C68.2732 211.264 68.1399 210.688 67.8732 210.176C67.6065 209.664 67.2332 209.264 66.7532 208.976C66.2839 208.677 65.7612 208.528 65.1852 208.528C64.6092 208.528 64.0865 208.677 63.6172 208.976C63.1479 209.264 62.7745 209.664 62.4972 210.176C62.2305 210.688 62.0972 211.264 62.0972 211.904C62.0972 212.533 62.2305 213.104 62.4972 213.616C62.7745 214.128 63.1479 214.533 63.6172 214.832C64.0865 215.12 64.6092 215.264 65.1852 215.264C65.7612 215.264 66.2839 215.12 66.7532 214.832C67.2332 214.544 67.6065 214.144 67.8732 213.632C68.1399 213.12 68.2732 212.544 68.2732 211.904ZM80.5088 207.648C80.6475 207.648 80.7595 207.691 80.8448 207.776C80.9408 207.861 80.9888 207.979 80.9888 208.128C80.9888 208.139 80.9728 208.208 80.9408 208.336L78.4768 215.696C78.4235 215.792 78.3541 215.872 78.2688 215.936C78.1835 215.989 78.0928 216.011 77.9968 216C77.9008 216 77.8155 215.973 77.7408 215.92C77.6661 215.867 77.6075 215.792 77.5648 215.696L75.4688 210.768L73.5968 215.696C73.5541 215.781 73.4901 215.856 73.4048 215.92C73.3301 215.973 73.2501 216 73.1648 216C73.0581 216.011 72.9568 215.989 72.8608 215.936C72.7755 215.872 72.7168 215.792 72.6848 215.696L70.1568 208.336C70.1248 208.272 70.1088 208.203 70.1088 208.128C70.1088 207.989 70.1568 207.877 70.2528 207.792C70.3488 207.696 70.4661 207.648 70.6048 207.648C70.7008 207.648 70.7861 207.68 70.8608 207.744C70.9461 207.797 71.0048 207.872 71.0368 207.968L73.1648 214.352L75.0688 209.568C75.1435 209.365 75.2928 209.264 75.5168 209.264C75.7301 209.264 75.8795 209.365 75.9648 209.568L77.9648 214.32L80.0608 207.968C80.1248 207.755 80.2741 207.648 80.5088 207.648ZM95.6831 207.76C96.6431 207.76 97.3471 208.059 97.7951 208.656C98.2537 209.243 98.4831 210.021 98.4831 210.992V215.52C98.4831 215.659 98.4351 215.776 98.3391 215.872C98.2537 215.957 98.1417 216 98.0031 216C97.8644 216 97.7471 215.957 97.6511 215.872C97.5657 215.776 97.5231 215.659 97.5231 215.52V211.04C97.5231 210.336 97.3524 209.765 97.0111 209.328C96.6804 208.88 96.1631 208.656 95.4591 208.656C95.0111 208.656 94.5844 208.763 94.1791 208.976C93.7844 209.189 93.4644 209.483 93.2191 209.856C92.9737 210.219 92.8511 210.613 92.8511 211.04V215.52C92.8511 215.659 92.8031 215.776 92.7071 215.872C92.6217 215.957 92.5097 216 92.3711 216C92.2324 216 92.1151 215.957 92.0191 215.872C91.9337 215.776 91.8911 215.659 91.8911 215.52V210.992C91.8911 210.299 91.7311 209.739 91.4111 209.312C91.0911 208.875 90.5897 208.656 89.9071 208.656C89.4697 208.656 89.0537 208.763 88.6591 208.976C88.2751 209.189 87.9604 209.477 87.7151 209.84C87.4804 210.192 87.3631 210.576 87.3631 210.992V215.52C87.3631 215.659 87.3151 215.776 87.2191 215.872C87.1337 215.957 87.0217 216 86.8831 216C86.7444 216 86.6271 215.957 86.5311 215.872C86.4457 215.776 86.4031 215.659 86.4031 215.52V208.352C86.4031 208.213 86.4457 208.101 86.5311 208.016C86.6271 207.92 86.7444 207.872 86.8831 207.872C87.0217 207.872 87.1337 207.92 87.2191 208.016C87.3151 208.101 87.3631 208.213 87.3631 208.352V209.28C87.6511 208.843 88.0404 208.48 88.5311 208.192C89.0217 207.904 89.5391 207.76 90.0831 207.76C90.7017 207.76 91.2351 207.909 91.6831 208.208C92.1311 208.507 92.4511 208.944 92.6431 209.52C92.8671 209.051 93.2777 208.64 93.8751 208.288C94.4724 207.936 95.0751 207.76 95.6831 207.76ZM107.509 211.44C107.509 211.568 107.461 211.68 107.365 211.776C107.269 211.861 107.157 211.904 107.029 211.904H100.981C100.981 212.544 101.109 213.12 101.365 213.632C101.631 214.133 102.005 214.533 102.485 214.832C102.975 215.12 103.551 215.264 104.213 215.264C104.725 215.264 105.183 215.157 105.589 214.944C105.994 214.731 106.319 214.459 106.565 214.128C106.682 214.032 106.794 213.984 106.901 213.984C107.007 213.984 107.103 214.027 107.189 214.112C107.274 214.197 107.317 214.293 107.317 214.4C107.317 214.517 107.263 214.629 107.157 214.736C106.815 215.152 106.383 215.493 105.861 215.76C105.349 216.027 104.805 216.16 104.229 216.16C103.407 216.16 102.682 215.984 102.053 215.632C101.423 215.28 100.933 214.789 100.581 214.16C100.229 213.52 100.053 212.784 100.053 211.952C100.053 211.077 100.223 210.315 100.565 209.664C100.917 209.003 101.381 208.501 101.957 208.16C102.533 207.808 103.146 207.632 103.797 207.632C104.437 207.632 105.034 207.781 105.589 208.08C106.154 208.379 106.613 208.816 106.965 209.392C107.317 209.968 107.498 210.651 107.509 211.44ZM103.797 208.56C103.178 208.56 102.602 208.773 102.069 209.2C101.546 209.627 101.21 210.24 101.061 211.04H106.517V210.912C106.463 210.432 106.303 210.016 106.037 209.664C105.77 209.301 105.434 209.029 105.029 208.848C104.634 208.656 104.223 208.56 103.797 208.56ZM116.79 207.76C117.75 207.76 118.465 208.064 118.934 208.672C119.404 209.269 119.638 210.043 119.638 210.992V215.52C119.638 215.659 119.59 215.776 119.494 215.872C119.409 215.957 119.297 216 119.158 216C119.02 216 118.902 215.957 118.806 215.872C118.721 215.776 118.678 215.659 118.678 215.52V210.992C118.678 210.299 118.513 209.739 118.182 209.312C117.852 208.875 117.334 208.656 116.63 208.656C116.182 208.656 115.756 208.763 115.35 208.976C114.956 209.189 114.636 209.477 114.39 209.84C114.145 210.192 114.022 210.576 114.022 210.992V215.52C114.022 215.659 113.974 215.776 113.878 215.872C113.793 215.957 113.681 216 113.542 216C113.404 216 113.286 215.957 113.19 215.872C113.105 215.776 113.062 215.659 113.062 215.52V204.64C113.062 204.501 113.105 204.389 113.19 204.304C113.286 204.208 113.404 204.16 113.542 204.16C113.681 204.16 113.793 204.208 113.878 204.304C113.974 204.389 114.022 204.501 114.022 204.64V209.328C114.31 208.869 114.71 208.496 115.222 208.208C115.734 207.909 116.257 207.76 116.79 207.76ZM129.308 211.904C129.308 212.704 129.132 213.429 128.78 214.08C128.428 214.731 127.943 215.243 127.324 215.616C126.706 215.979 126.018 216.16 125.26 216.16C124.503 216.16 123.815 215.979 123.196 215.616C122.578 215.243 122.092 214.731 121.74 214.08C121.388 213.429 121.212 212.704 121.212 211.904C121.212 211.104 121.388 210.379 121.74 209.728C122.092 209.077 122.578 208.565 123.196 208.192C123.815 207.819 124.503 207.632 125.26 207.632C126.018 207.632 126.706 207.819 127.324 208.192C127.943 208.565 128.428 209.077 128.78 209.728C129.132 210.379 129.308 211.104 129.308 211.904ZM128.348 211.904C128.348 211.264 128.215 210.688 127.948 210.176C127.682 209.664 127.308 209.264 126.828 208.976C126.359 208.677 125.836 208.528 125.26 208.528C124.684 208.528 124.162 208.677 123.692 208.976C123.223 209.264 122.85 209.664 122.572 210.176C122.306 210.688 122.172 211.264 122.172 211.904C122.172 212.533 122.306 213.104 122.572 213.616C122.85 214.128 123.223 214.533 123.692 214.832C124.162 215.12 124.684 215.264 125.26 215.264C125.836 215.264 126.359 215.12 126.828 214.832C127.308 214.544 127.682 214.144 127.948 213.632C128.215 213.12 128.348 212.544 128.348 211.904ZM140.584 207.648C140.722 207.648 140.834 207.691 140.92 207.776C141.016 207.861 141.064 207.979 141.064 208.128C141.064 208.139 141.048 208.208 141.016 208.336L138.552 215.696C138.498 215.792 138.429 215.872 138.344 215.936C138.258 215.989 138.168 216.011 138.072 216C137.976 216 137.89 215.973 137.816 215.92C137.741 215.867 137.682 215.792 137.64 215.696L135.544 210.768L133.672 215.696C133.629 215.781 133.565 215.856 133.48 215.92C133.405 215.973 133.325 216 133.24 216C133.133 216.011 133.032 215.989 132.936 215.936C132.85 215.872 132.792 215.792 132.76 215.696L130.232 208.336C130.2 208.272 130.184 208.203 130.184 208.128C130.184 207.989 130.232 207.877 130.328 207.792C130.424 207.696 130.541 207.648 130.68 207.648C130.776 207.648 130.861 207.68 130.936 207.744C131.021 207.797 131.08 207.872 131.112 207.968L133.24 214.352L135.144 209.568C135.218 209.365 135.368 209.264 135.592 209.264C135.805 209.264 135.954 209.365 136.04 209.568L138.04 214.32L140.136 207.968C140.2 207.755 140.349 207.648 140.584 207.648ZM152.574 207.68C152.713 207.68 152.825 207.728 152.91 207.824C153.006 207.909 153.054 208.021 153.054 208.16V215.216C153.054 216.059 152.889 216.779 152.558 217.376C152.227 217.973 151.769 218.427 151.182 218.736C150.595 219.045 149.934 219.2 149.198 219.2C148.75 219.2 148.329 219.152 147.934 219.056C147.55 218.96 147.23 218.832 146.974 218.672C146.75 218.533 146.638 218.379 146.638 218.208C146.638 218.187 146.649 218.133 146.67 218.048C146.702 217.941 146.755 217.861 146.83 217.808C146.905 217.755 146.985 217.728 147.07 217.728C147.134 217.728 147.198 217.744 147.262 217.776C147.945 218.149 148.595 218.336 149.214 218.336C150.099 218.336 150.798 218.059 151.31 217.504C151.833 216.949 152.094 216.192 152.094 215.232V214.672C151.827 215.12 151.443 215.483 150.942 215.76C150.441 216.027 149.897 216.16 149.31 216.16C148.382 216.16 147.678 215.883 147.198 215.328C146.718 214.773 146.478 214.021 146.478 213.072V208.16C146.478 208.021 146.521 207.909 146.606 207.824C146.702 207.728 146.819 207.68 146.958 207.68C147.097 207.68 147.209 207.728 147.294 207.824C147.39 207.909 147.438 208.021 147.438 208.16V212.928C147.438 213.696 147.603 214.277 147.934 214.672C148.275 215.067 148.803 215.264 149.518 215.264C149.955 215.264 150.371 215.157 150.766 214.944C151.171 214.72 151.491 214.432 151.726 214.08C151.971 213.717 152.094 213.333 152.094 212.928V208.16C152.094 208.021 152.137 207.909 152.222 207.824C152.318 207.728 152.435 207.68 152.574 207.68ZM162.646 211.904C162.646 212.704 162.47 213.429 162.118 214.08C161.766 214.731 161.28 215.243 160.662 215.616C160.043 215.979 159.355 216.16 158.598 216.16C157.84 216.16 157.152 215.979 156.534 215.616C155.915 215.243 155.43 214.731 155.078 214.08C154.726 213.429 154.55 212.704 154.55 211.904C154.55 211.104 154.726 210.379 155.078 209.728C155.43 209.077 155.915 208.565 156.534 208.192C157.152 207.819 157.84 207.632 158.598 207.632C159.355 207.632 160.043 207.819 160.662 208.192C161.28 208.565 161.766 209.077 162.118 209.728C162.47 210.379 162.646 211.104 162.646 211.904ZM161.686 211.904C161.686 211.264 161.552 210.688 161.286 210.176C161.019 209.664 160.646 209.264 160.166 208.976C159.696 208.677 159.174 208.528 158.598 208.528C158.022 208.528 157.499 208.677 157.03 208.976C156.56 209.264 156.187 209.664 155.91 210.176C155.643 210.688 155.51 211.264 155.51 211.904C155.51 212.533 155.643 213.104 155.91 213.616C156.187 214.128 156.56 214.533 157.03 214.832C157.499 215.12 158.022 215.264 158.598 215.264C159.174 215.264 159.696 215.12 160.166 214.832C160.646 214.544 161.019 214.144 161.286 213.632C161.552 213.12 161.686 212.544 161.686 211.904ZM170.321 207.872C170.46 207.872 170.572 207.92 170.657 208.016C170.753 208.101 170.801 208.213 170.801 208.352V212.864C170.801 213.909 170.508 214.715 169.921 215.28C169.335 215.835 168.524 216.112 167.489 216.112C166.465 216.112 165.66 215.835 165.073 215.28C164.497 214.715 164.209 213.909 164.209 212.864V208.352C164.209 208.213 164.252 208.101 164.337 208.016C164.433 207.92 164.551 207.872 164.689 207.872C164.828 207.872 164.94 207.92 165.025 208.016C165.121 208.101 165.169 208.213 165.169 208.352V212.864C165.169 213.632 165.372 214.219 165.777 214.624C166.183 215.019 166.753 215.216 167.489 215.216C168.236 215.216 168.812 215.019 169.217 214.624C169.633 214.219 169.841 213.632 169.841 212.864V208.352C169.841 208.213 169.884 208.101 169.969 208.016C170.065 207.92 170.183 207.872 170.321 207.872ZM176.743 207.632C176.956 207.632 177.148 207.675 177.319 207.76C177.489 207.845 177.575 207.973 177.575 208.144C177.575 208.293 177.532 208.416 177.447 208.512C177.361 208.597 177.26 208.64 177.143 208.64C177.089 208.64 176.983 208.613 176.823 208.56C176.673 208.507 176.529 208.48 176.391 208.48C175.996 208.48 175.601 208.635 175.207 208.944C174.823 209.243 174.503 209.632 174.247 210.112C174.001 210.592 173.879 211.077 173.879 211.568V215.52C173.879 215.659 173.831 215.776 173.735 215.872C173.649 215.957 173.537 216 173.399 216C173.26 216 173.143 215.957 173.047 215.872C172.961 215.776 172.919 215.659 172.919 215.52V208.352C172.919 208.213 172.961 208.101 173.047 208.016C173.143 207.92 173.26 207.872 173.399 207.872C173.537 207.872 173.649 207.92 173.735 208.016C173.831 208.101 173.879 208.213 173.879 208.352V209.76C174.124 209.152 174.492 208.651 174.983 208.256C175.484 207.851 176.071 207.643 176.743 207.632ZM72.0915 222.16C72.2302 222.16 72.3422 222.208 72.4275 222.304C72.5235 222.389 72.5715 222.501 72.5715 222.64V233.52C72.5715 233.659 72.5235 233.776 72.4275 233.872C72.3422 233.957 72.2302 234 72.0915 234C71.9528 234 71.8355 233.957 71.7395 233.872C71.6542 233.776 71.6115 233.659 71.6115 233.52V232.4C71.3448 232.891 70.9448 233.307 70.4115 233.648C69.8888 233.989 69.3075 234.16 68.6675 234.16C67.9635 234.16 67.3235 233.979 66.7475 233.616C66.1822 233.243 65.7342 232.731 65.4035 232.08C65.0728 231.429 64.9075 230.699 64.9075 229.888C64.9075 229.088 65.0728 228.363 65.4035 227.712C65.7342 227.061 66.1822 226.555 66.7475 226.192C67.3235 225.819 67.9582 225.632 68.6515 225.632C69.2808 225.632 69.8622 225.792 70.3955 226.112C70.9288 226.421 71.3342 226.827 71.6115 227.328V222.64C71.6115 222.501 71.6542 222.389 71.7395 222.304C71.8355 222.208 71.9528 222.16 72.0915 222.16ZM68.7635 233.264C69.3182 233.264 69.8142 233.12 70.2515 232.832C70.6995 232.544 71.0462 232.144 71.2915 231.632C71.5475 231.109 71.6755 230.528 71.6755 229.888C71.6755 229.259 71.5475 228.688 71.2915 228.176C71.0462 227.664 70.6995 227.264 70.2515 226.976C69.8142 226.677 69.3182 226.528 68.7635 226.528C68.2088 226.528 67.7075 226.677 67.2595 226.976C66.8222 227.264 66.4755 227.664 66.2195 228.176C65.9742 228.688 65.8515 229.259 65.8515 229.888C65.8515 230.528 65.9742 231.104 66.2195 231.616C66.4755 232.128 66.8222 232.533 67.2595 232.832C67.7075 233.12 68.2088 233.264 68.7635 233.264ZM81.3165 225.824C81.4552 225.824 81.5672 225.872 81.6525 225.968C81.7485 226.064 81.7965 226.181 81.7965 226.32V233.52C81.7965 233.659 81.7485 233.776 81.6525 233.872C81.5672 233.957 81.4552 234 81.3165 234C81.1778 234 81.0605 233.957 80.9645 233.872C80.8792 233.776 80.8365 233.659 80.8365 233.52V232.448C80.5698 232.928 80.1698 233.333 79.6365 233.664C79.1032 233.995 78.5218 234.16 77.8925 234.16C77.1778 234.16 76.5325 233.973 75.9565 233.6C75.3912 233.227 74.9432 232.715 74.6125 232.064C74.2925 231.413 74.1325 230.683 74.1325 229.872C74.1325 229.061 74.2978 228.336 74.6285 227.696C74.9592 227.045 75.4072 226.539 75.9725 226.176C76.5485 225.813 77.1832 225.632 77.8765 225.632C78.5165 225.632 79.1032 225.787 79.6365 226.096C80.1698 226.405 80.5698 226.811 80.8365 227.312V226.32C80.8365 226.181 80.8792 226.064 80.9645 225.968C81.0605 225.872 81.1778 225.824 81.3165 225.824ZM77.9885 233.264C78.5432 233.264 79.0392 233.12 79.4765 232.832C79.9245 232.533 80.2712 232.128 80.5165 231.616C80.7725 231.093 80.9005 230.512 80.9005 229.872C80.9005 229.253 80.7725 228.688 80.5165 228.176C80.2712 227.664 79.9245 227.264 79.4765 226.976C79.0392 226.677 78.5432 226.528 77.9885 226.528C77.4338 226.528 76.9325 226.672 76.4845 226.96C76.0472 227.248 75.7005 227.648 75.4445 228.16C75.1992 228.661 75.0765 229.232 75.0765 229.872C75.0765 230.512 75.1992 231.093 75.4445 231.616C75.6898 232.128 76.0312 232.533 76.4685 232.832C76.9165 233.12 77.4232 233.264 77.9885 233.264ZM89.81 225.68C89.9487 225.68 90.0607 225.728 90.146 225.824C90.242 225.909 90.29 226.021 90.29 226.16V233.216C90.29 234.059 90.1247 234.779 89.794 235.376C89.4633 235.973 89.0047 236.427 88.418 236.736C87.8313 237.045 87.17 237.2 86.434 237.2C85.986 237.2 85.5647 237.152 85.17 237.056C84.786 236.96 84.466 236.832 84.21 236.672C83.986 236.533 83.874 236.379 83.874 236.208C83.874 236.187 83.8847 236.133 83.906 236.048C83.938 235.941 83.9913 235.861 84.066 235.808C84.1407 235.755 84.2207 235.728 84.306 235.728C84.37 235.728 84.434 235.744 84.498 235.776C85.1807 236.149 85.8313 236.336 86.45 236.336C87.3353 236.336 88.034 236.059 88.546 235.504C89.0687 234.949 89.33 234.192 89.33 233.232V232.672C89.0633 233.12 88.6793 233.483 88.178 233.76C87.6767 234.027 87.1327 234.16 86.546 234.16C85.618 234.16 84.914 233.883 84.434 233.328C83.954 232.773 83.714 232.021 83.714 231.072V226.16C83.714 226.021 83.7567 225.909 83.842 225.824C83.938 225.728 84.0553 225.68 84.194 225.68C84.3327 225.68 84.4447 225.728 84.53 225.824C84.626 225.909 84.674 226.021 84.674 226.16V230.928C84.674 231.696 84.8393 232.277 85.17 232.672C85.5113 233.067 86.0393 233.264 86.754 233.264C87.1913 233.264 87.6073 233.157 88.002 232.944C88.4073 232.72 88.7273 232.432 88.962 232.08C89.2073 231.717 89.33 231.333 89.33 230.928V226.16C89.33 226.021 89.3727 225.909 89.458 225.824C89.554 225.728 89.6713 225.68 89.81 225.68ZM97.3108 233.52C97.3108 233.659 97.2628 233.776 97.1668 233.872C97.0814 233.957 96.9694 234 96.8308 234C96.6921 234 96.5748 233.957 96.4788 233.872C96.3934 233.776 96.3508 233.659 96.3508 233.52V226.16C96.3508 226.021 96.3934 225.909 96.4788 225.824C96.5748 225.728 96.6921 225.68 96.8308 225.68C96.9694 225.68 97.0814 225.728 97.1668 225.824C97.2628 225.909 97.3108 226.021 97.3108 226.16V233.52ZM96.8308 224.608C96.6174 224.608 96.4521 224.56 96.3348 224.464C96.2174 224.357 96.1588 224.208 96.1588 224.016V223.856C96.1588 223.664 96.2174 223.52 96.3348 223.424C96.4628 223.317 96.6334 223.264 96.8468 223.264C97.2734 223.264 97.4868 223.461 97.4868 223.856V224.016C97.4868 224.208 97.4281 224.357 97.3108 224.464C97.2041 224.56 97.0441 224.608 96.8308 224.608ZM98.9406 232.704C98.8553 232.565 98.8126 232.448 98.8126 232.352C98.8126 232.213 98.882 232.107 99.0206 232.032C99.0846 231.968 99.17 231.936 99.2766 231.936C99.4046 231.936 99.522 231.989 99.6286 232.096C100.258 232.928 101.095 233.344 102.141 233.344C102.653 233.344 103.095 233.227 103.469 232.992C103.853 232.747 104.045 232.395 104.045 231.936C104.045 231.488 103.869 231.152 103.517 230.928C103.165 230.704 102.674 230.512 102.045 230.352C101.159 230.128 100.466 229.84 99.9646 229.488C99.4633 229.125 99.2126 228.597 99.2126 227.904C99.2126 227.467 99.3353 227.077 99.5806 226.736C99.826 226.384 100.157 226.112 100.573 225.92C100.999 225.728 101.479 225.632 102.013 225.632C102.471 225.632 102.93 225.723 103.389 225.904C103.858 226.075 104.258 226.352 104.589 226.736C104.685 226.811 104.733 226.917 104.733 227.056C104.733 227.184 104.679 227.296 104.573 227.392C104.498 227.456 104.402 227.488 104.285 227.488C104.178 227.488 104.082 227.445 103.997 227.36C103.741 227.072 103.437 226.853 103.085 226.704C102.733 226.555 102.354 226.48 101.949 226.48C101.447 226.48 101.015 226.597 100.653 226.832C100.301 227.067 100.125 227.419 100.125 227.888C100.146 228.315 100.338 228.64 100.701 228.864C101.074 229.088 101.618 229.291 102.333 229.472C102.887 229.611 103.346 229.765 103.709 229.936C104.071 230.107 104.365 230.347 104.589 230.656C104.823 230.965 104.941 231.376 104.941 231.888C104.941 232.581 104.663 233.136 104.109 233.552C103.554 233.957 102.866 234.16 102.045 234.16C100.743 234.16 99.7086 233.675 98.9406 232.704ZM117.392 225.824C117.53 225.824 117.642 225.872 117.728 225.968C117.824 226.053 117.872 226.171 117.872 226.32V233.248C117.872 234.08 117.696 234.789 117.344 235.376C117.002 235.973 116.528 236.427 115.92 236.736C115.322 237.045 114.634 237.2 113.856 237.2C113.482 237.2 113.088 237.152 112.672 237.056C112.266 236.96 111.914 236.837 111.616 236.688C111.328 236.539 111.162 236.384 111.12 236.224C111.045 236.149 111.008 236.064 111.008 235.968C111.008 235.861 111.056 235.776 111.152 235.712C111.194 235.68 111.248 235.664 111.312 235.664C111.376 235.664 111.498 235.701 111.68 235.776L112.016 235.92C112.677 236.176 113.296 236.304 113.872 236.304C114.821 236.304 115.562 236.032 116.096 235.488C116.64 234.955 116.912 234.229 116.912 233.312V232.32C116.645 232.896 116.224 233.349 115.648 233.68C115.072 234 114.469 234.16 113.84 234.16C113.104 234.16 112.437 233.979 111.84 233.616C111.253 233.243 110.789 232.731 110.448 232.08C110.106 231.429 109.936 230.699 109.936 229.888C109.936 229.088 110.106 228.363 110.448 227.712C110.789 227.061 111.253 226.555 111.84 226.192C112.437 225.819 113.098 225.632 113.824 225.632C114.496 225.632 115.109 225.803 115.664 226.144C116.229 226.475 116.645 226.875 116.912 227.344V226.32C116.912 226.181 116.954 226.064 117.04 225.968C117.136 225.872 117.253 225.824 117.392 225.824ZM113.92 233.264C114.506 233.264 115.029 233.125 115.488 232.848C115.957 232.56 116.32 232.16 116.576 231.648C116.842 231.125 116.976 230.539 116.976 229.888C116.976 229.237 116.842 228.656 116.576 228.144C116.32 227.632 115.957 227.237 115.488 226.96C115.029 226.672 114.506 226.528 113.92 226.528C113.344 226.528 112.821 226.677 112.352 226.976C111.893 227.264 111.53 227.664 111.264 228.176C111.008 228.688 110.88 229.259 110.88 229.888C110.88 230.528 111.008 231.104 111.264 231.616C111.53 232.128 111.893 232.533 112.352 232.832C112.821 233.12 113.344 233.264 113.92 233.264ZM127.241 229.904C127.241 230.704 127.065 231.429 126.713 232.08C126.361 232.731 125.876 233.243 125.257 233.616C124.638 233.979 123.95 234.16 123.193 234.16C122.436 234.16 121.748 233.979 121.129 233.616C120.51 233.243 120.025 232.731 119.673 232.08C119.321 231.429 119.145 230.704 119.145 229.904C119.145 229.104 119.321 228.379 119.673 227.728C120.025 227.077 120.51 226.565 121.129 226.192C121.748 225.819 122.436 225.632 123.193 225.632C123.95 225.632 124.638 225.819 125.257 226.192C125.876 226.565 126.361 227.077 126.713 227.728C127.065 228.379 127.241 229.104 127.241 229.904ZM126.281 229.904C126.281 229.264 126.148 228.688 125.881 228.176C125.614 227.664 125.241 227.264 124.761 226.976C124.292 226.677 123.769 226.528 123.193 226.528C122.617 226.528 122.094 226.677 121.625 226.976C121.156 227.264 120.782 227.664 120.505 228.176C120.238 228.688 120.105 229.264 120.105 229.904C120.105 230.533 120.238 231.104 120.505 231.616C120.782 232.128 121.156 232.533 121.625 232.832C122.094 233.12 122.617 233.264 123.193 233.264C123.769 233.264 124.292 233.12 124.761 232.832C125.241 232.544 125.614 232.144 125.881 231.632C126.148 231.12 126.281 230.544 126.281 229.904ZM129.733 233.52C129.733 233.659 129.685 233.776 129.589 233.872C129.503 233.957 129.391 234 129.253 234C129.114 234 128.997 233.957 128.901 233.872C128.815 233.776 128.773 233.659 128.773 233.52V226.16C128.773 226.021 128.815 225.909 128.901 225.824C128.997 225.728 129.114 225.68 129.253 225.68C129.391 225.68 129.503 225.728 129.589 225.824C129.685 225.909 129.733 226.021 129.733 226.16V233.52ZM129.253 224.608C129.039 224.608 128.874 224.56 128.757 224.464C128.639 224.357 128.581 224.208 128.581 224.016V223.856C128.581 223.664 128.639 223.52 128.757 223.424C128.885 223.317 129.055 223.264 129.269 223.264C129.695 223.264 129.909 223.461 129.909 223.856V224.016C129.909 224.208 129.85 224.357 129.733 224.464C129.626 224.56 129.466 224.608 129.253 224.608ZM135.683 225.632C136.675 225.632 137.4 225.925 137.859 226.512C138.328 227.088 138.562 227.856 138.562 228.816V233.52C138.562 233.659 138.515 233.776 138.419 233.872C138.323 233.957 138.211 234 138.083 234C137.944 234 137.827 233.957 137.731 233.872C137.645 233.776 137.603 233.659 137.603 233.52V228.864C137.603 228.171 137.427 227.611 137.075 227.184C136.733 226.747 136.2 226.528 135.475 226.528C135.016 226.528 134.579 226.635 134.163 226.848C133.757 227.061 133.427 227.349 133.171 227.712C132.915 228.064 132.787 228.448 132.787 228.864V233.52C132.787 233.659 132.739 233.776 132.643 233.872C132.557 233.957 132.445 234 132.307 234C132.168 234 132.051 233.957 131.955 233.872C131.869 233.776 131.827 233.659 131.827 233.52V226.352C131.827 226.213 131.869 226.101 131.955 226.016C132.051 225.92 132.168 225.872 132.307 225.872C132.445 225.872 132.557 225.92 132.643 226.016C132.739 226.101 132.787 226.213 132.787 226.352V227.232C133.075 226.773 133.485 226.395 134.019 226.096C134.563 225.787 135.117 225.632 135.683 225.632Z" fill="white"/>
<path d="M143.209 88.3724C156.145 110.678 148.115 139.402 125.772 152.244C103.429 165.085 78.4065 159.396 65.4703 137.091C61.9567 131.033 56.3828 122.535 55.7858 116.002C54.185 98.4804 62.6511 80.8233 78.9256 71.4696C101.269 58.628 130.273 66.0673 143.209 88.3724Z" fill="#FFB987"/>
<path d="M143.148 88.0021C156.032 110.387 148.385 139.011 126.068 151.936C103.238 165.158 80.0323 156.71 70.001 139.281C63.8189 128.541 56.4958 121.433 56.237 115.368C55.488 97.8114 63.2348 80.2406 79.4109 70.8724C101.728 57.9478 130.264 65.617 143.148 88.0021Z" fill="#FF9A87"/>
<path d="M143.106 87.9349C156.03 110.21 148.434 138.65 126.14 151.457C103.332 164.56 84.0932 155.984 74.0304 138.642C67.8289 127.954 56.7336 125.992 56.2413 114.982C55.4608 97.5292 63.1764 80.077 79.3362 70.7935C101.631 57.9857 130.181 65.6602 143.106 87.9349Z" fill="#FF7E87"/>
<path d="M143.105 88.1269C156.022 110.575 148.446 139.229 126.184 152.126C103.41 165.32 88.2349 156.227 78.1785 138.748C71.9809 127.977 57.6459 130.32 56.36 115.348C54.8533 97.807 63.2738 80.1804 79.4099 70.8322C101.672 57.9352 130.189 65.6783 143.105 88.1269Z" fill="#FF6887"/>
<path d="M143.112 87.7605C156.022 110.155 148.438 138.746 126.172 151.62C103.393 164.791 89.5868 152.499 81.0544 137.699C74.8596 126.953 59.58 133.085 56.3551 114.945C54.8533 97.4438 63.5127 80.2601 79.6523 70.9283C101.919 58.054 130.201 65.3661 143.112 87.7605Z" fill="#FF6887"/>
<path d="M142.311 88.6061C155.218 110.914 148.434 138.934 126.165 151.764C102.174 165.586 90.8719 146.516 84.2231 136.883C79.1756 129.57 59.5761 133.31 56.3544 115.24C54.8557 97.8042 63.5185 80.6835 79.6598 71.3839C101.929 58.554 129.404 66.2982 142.311 88.6061Z" fill="#FF6887"/>
<path d="M142.318 88.7219C155.218 111.148 148.426 139.324 126.153 152.231C103.367 165.435 92.5373 145.453 87.134 137.214C81.7309 128.975 59.134 133.408 56.3532 115.528C54.8599 97.9977 63.5281 80.7805 79.6724 71.425C101.945 58.5179 129.419 66.2959 142.318 88.7219Z" fill="#FF5387"/>
<path d="M143.638 87.2663C156.779 110.009 148.88 139.398 126.223 152.469C103.565 165.54 95.9741 144.424 88.0827 135.215C80.5262 126.397 59.7839 134.52 55.171 115.219C53.6407 97.4464 62.4511 79.9976 78.8741 70.5232C101.532 57.4522 130.498 64.5238 143.638 87.2663Z" fill="#4C40CF"/>
<path opacity="0.2" d="M32 309.899L173 309.899" stroke="#F0F1FF" stroke-linecap="round" stroke-linejoin="round"/>
<circle cx="102.312" cy="309.899" r="4.31193" fill="#7D80DC"/>
<path d="M94.9168 284.472C95.0128 284.472 95.0928 284.508 95.1568 284.58C95.2288 284.644 95.2648 284.728 95.2648 284.832V292.512C95.2648 292.616 95.2288 292.704 95.1568 292.776C95.0848 292.84 94.9968 292.872 94.8928 292.872C94.7808 292.872 94.6888 292.84 94.6168 292.776C94.5448 292.704 94.5088 292.616 94.5088 292.512V285.912L91.6888 290.184C91.6088 290.288 91.5168 290.336 91.4128 290.328H91.3888C91.2928 290.328 91.2048 290.28 91.1248 290.184L88.3048 285.888V292.512C88.3048 292.616 88.2688 292.704 88.1968 292.776C88.1328 292.84 88.0488 292.872 87.9448 292.872C87.8408 292.872 87.7568 292.84 87.6928 292.776C87.6288 292.704 87.5968 292.616 87.5968 292.512V284.832C87.5968 284.736 87.6288 284.652 87.6928 284.58C87.7648 284.508 87.8528 284.472 87.9568 284.472C88.0128 284.472 88.0728 284.488 88.1368 284.52C88.2008 284.544 88.2488 284.58 88.2808 284.628L91.4248 289.344L94.5928 284.628C94.6808 284.508 94.7888 284.456 94.9168 284.472ZM98.0385 292.512C98.0385 292.616 98.0025 292.704 97.9305 292.776C97.8665 292.84 97.7825 292.872 97.6785 292.872C97.5745 292.872 97.4865 292.84 97.4145 292.776C97.3505 292.704 97.3185 292.616 97.3185 292.512V286.992C97.3185 286.888 97.3505 286.804 97.4145 286.74C97.4865 286.668 97.5745 286.632 97.6785 286.632C97.7825 286.632 97.8665 286.668 97.9305 286.74C98.0025 286.804 98.0385 286.888 98.0385 286.992V292.512ZM97.6785 285.828C97.5185 285.828 97.3945 285.792 97.3065 285.72C97.2185 285.64 97.1745 285.528 97.1745 285.384V285.264C97.1745 285.12 97.2185 285.012 97.3065 284.94C97.4025 284.86 97.5305 284.82 97.6905 284.82C98.0105 284.82 98.1705 284.968 98.1705 285.264V285.384C98.1705 285.528 98.1265 285.64 98.0385 285.72C97.9585 285.792 97.8385 285.828 97.6785 285.828ZM104.277 292.332C104.333 292.396 104.361 292.468 104.361 292.548C104.361 292.644 104.325 292.732 104.253 292.812C104.181 292.884 104.097 292.92 104.001 292.92C103.889 292.92 103.789 292.864 103.701 292.752L101.865 290.376L100.029 292.764C99.9569 292.86 99.8609 292.908 99.7409 292.908C99.6529 292.908 99.5729 292.88 99.5009 292.824C99.4289 292.76 99.3929 292.68 99.3929 292.584C99.3929 292.496 99.4209 292.42 99.4769 292.356L101.445 289.836L99.4409 287.256C99.3929 287.192 99.3689 287.12 99.3689 287.04C99.3689 286.944 99.4049 286.86 99.4769 286.788C99.5569 286.716 99.6449 286.68 99.7409 286.68C99.8609 286.68 99.9569 286.732 100.029 286.836L101.901 289.248L103.701 286.836C103.781 286.732 103.881 286.68 104.001 286.68C104.105 286.68 104.185 286.712 104.241 286.776C104.305 286.832 104.337 286.904 104.337 286.992C104.337 287.08 104.309 287.156 104.253 287.22L102.309 289.776L104.277 292.332ZM110.777 289.452C110.777 289.548 110.741 289.632 110.669 289.704C110.597 289.768 110.513 289.8 110.417 289.8H105.881C105.881 290.28 105.977 290.712 106.169 291.096C106.369 291.472 106.649 291.772 107.009 291.996C107.377 292.212 107.809 292.32 108.305 292.32C108.689 292.32 109.033 292.24 109.337 292.08C109.641 291.92 109.885 291.716 110.069 291.468C110.157 291.396 110.241 291.36 110.321 291.36C110.401 291.36 110.473 291.392 110.537 291.456C110.601 291.52 110.633 291.592 110.633 291.672C110.633 291.76 110.593 291.844 110.513 291.924C110.257 292.236 109.933 292.492 109.541 292.692C109.157 292.892 108.749 292.992 108.317 292.992C107.701 292.992 107.157 292.86 106.685 292.596C106.213 292.332 105.845 291.964 105.581 291.492C105.317 291.012 105.185 290.46 105.185 289.836C105.185 289.18 105.313 288.608 105.569 288.12C105.833 287.624 106.181 287.248 106.613 286.992C107.045 286.728 107.505 286.596 107.993 286.596C108.473 286.596 108.921 286.708 109.337 286.932C109.761 287.156 110.105 287.484 110.369 287.916C110.633 288.348 110.769 288.86 110.777 289.452ZM107.993 287.292C107.529 287.292 107.097 287.452 106.697 287.772C106.305 288.092 106.053 288.552 105.941 289.152H110.033V289.056C109.993 288.696 109.873 288.384 109.673 288.12C109.473 287.848 109.221 287.644 108.917 287.508C108.621 287.364 108.313 287.292 107.993 287.292ZM117.241 283.992C117.345 283.992 117.429 284.028 117.493 284.1C117.565 284.164 117.601 284.248 117.601 284.352V292.512C117.601 292.616 117.565 292.704 117.493 292.776C117.429 292.84 117.345 292.872 117.241 292.872C117.137 292.872 117.049 292.84 116.977 292.776C116.913 292.704 116.881 292.616 116.881 292.512V291.672C116.681 292.04 116.381 292.352 115.981 292.608C115.589 292.864 115.153 292.992 114.673 292.992C114.145 292.992 113.665 292.856 113.233 292.584C112.809 292.304 112.473 291.92 112.225 291.432C111.977 290.944 111.853 290.396 111.853 289.788C111.853 289.188 111.977 288.644 112.225 288.156C112.473 287.668 112.809 287.288 113.233 287.016C113.665 286.736 114.141 286.596 114.661 286.596C115.133 286.596 115.569 286.716 115.969 286.956C116.369 287.188 116.673 287.492 116.881 287.868V284.352C116.881 284.248 116.913 284.164 116.977 284.1C117.049 284.028 117.137 283.992 117.241 283.992ZM114.745 292.32C115.161 292.32 115.533 292.212 115.861 291.996C116.197 291.78 116.457 291.48 116.641 291.096C116.833 290.704 116.929 290.268 116.929 289.788C116.929 289.316 116.833 288.888 116.641 288.504C116.457 288.12 116.197 287.82 115.861 287.604C115.533 287.38 115.161 287.268 114.745 287.268C114.329 287.268 113.953 287.38 113.617 287.604C113.289 287.82 113.029 288.12 112.837 288.504C112.653 288.888 112.561 289.316 112.561 289.788C112.561 290.268 112.653 290.7 112.837 291.084C113.029 291.468 113.289 291.772 113.617 291.996C113.953 292.212 114.329 292.32 114.745 292.32Z" fill="#F0F1FF"/>
<g clip-path="url(#clip0)">
<path d="M111.594 267.505C112.167 262.203 107.438 257.322 103.257 257.156C97.779 256.94 92.6057 262.055 93.196 267.505C93.727 272.408 97.7528 275.995 102.682 275.842C107.445 275.693 111.081 272.243 111.594 267.505Z" stroke="#FFC9B3" stroke-linecap="round"/>
<path d="M103.786 269.798H100.624" stroke="#FFC9B3" stroke-linecap="round"/>
<path d="M99.8076 264.343C99.8076 264.82 99.5502 264.918 99.2326 264.918C98.9151 264.918 98.6577 264.82 98.6577 264.343C98.6577 263.867 98.9151 263.768 99.2326 263.768C99.5502 263.768 99.8076 263.867 99.8076 264.343Z" fill="#FFC9B3"/>
<path d="M106.057 264.542C105.821 264.956 105.549 264.915 105.273 264.758C104.997 264.601 104.822 264.388 105.057 263.974C105.292 263.56 105.565 263.601 105.841 263.758C106.117 263.915 106.292 264.128 106.057 264.542Z" fill="#FFC9B3"/>
</g>
<path d="M36.8 319.19C36.8693 319.19 36.928 319.214 36.976 319.262C37.024 319.305 37.048 319.355 37.048 319.414C37.048 319.451 37.04 319.491 37.024 319.534L34.888 324.638C34.8667 324.686 34.8347 324.726 34.792 324.758C34.7493 324.785 34.704 324.798 34.656 324.798C34.608 324.798 34.5627 324.785 34.52 324.758C34.4827 324.731 34.4533 324.694 34.432 324.646L32.304 319.55C32.288 319.518 32.28 319.475 32.28 319.422C32.28 319.353 32.304 319.297 32.352 319.254C32.4 319.211 32.4533 319.19 32.512 319.19C32.624 319.19 32.704 319.249 32.752 319.366L34.68 323.974L36.576 319.35C36.6027 319.302 36.6347 319.265 36.672 319.238C36.7147 319.206 36.7573 319.19 36.8 319.19ZM41.0768 322.518C41.0768 322.582 41.0528 322.638 41.0048 322.686C40.9568 322.729 40.9008 322.75 40.8368 322.75H37.8128C37.8128 323.07 37.8768 323.358 38.0048 323.614C38.1381 323.865 38.3248 324.065 38.5648 324.214C38.8101 324.358 39.0981 324.43 39.4288 324.43C39.6848 324.43 39.9141 324.377 40.1168 324.27C40.3195 324.163 40.4821 324.027 40.6048 323.862C40.6635 323.814 40.7195 323.79 40.7728 323.79C40.8261 323.79 40.8741 323.811 40.9168 323.854C40.9595 323.897 40.9808 323.945 40.9808 323.998C40.9808 324.057 40.9541 324.113 40.9008 324.166C40.7301 324.374 40.5141 324.545 40.2528 324.678C39.9968 324.811 39.7248 324.878 39.4368 324.878C39.0261 324.878 38.6635 324.79 38.3488 324.614C38.0341 324.438 37.7888 324.193 37.6128 323.878C37.4368 323.558 37.3488 323.19 37.3488 322.774C37.3488 322.337 37.4341 321.955 37.6048 321.63C37.7808 321.299 38.0128 321.049 38.3008 320.878C38.5888 320.702 38.8955 320.614 39.2208 320.614C39.5408 320.614 39.8395 320.689 40.1168 320.838C40.3995 320.987 40.6288 321.206 40.8048 321.494C40.9808 321.782 41.0715 322.123 41.0768 322.518ZM39.2208 321.078C38.9115 321.078 38.6235 321.185 38.3568 321.398C38.0955 321.611 37.9275 321.918 37.8528 322.318H40.5808V322.254C40.5541 322.014 40.4741 321.806 40.3408 321.63C40.2075 321.449 40.0395 321.313 39.8368 321.222C39.6395 321.126 39.4341 321.078 39.2208 321.078ZM43.8341 320.614C43.9408 320.614 44.0368 320.635 44.1221 320.678C44.2075 320.721 44.2501 320.785 44.2501 320.87C44.2501 320.945 44.2288 321.006 44.1861 321.054C44.1435 321.097 44.0928 321.118 44.0341 321.118C44.0075 321.118 43.9541 321.105 43.8741 321.078C43.7995 321.051 43.7275 321.038 43.6581 321.038C43.4608 321.038 43.2635 321.115 43.0661 321.27C42.8741 321.419 42.7141 321.614 42.5861 321.854C42.4635 322.094 42.4021 322.337 42.4021 322.582V324.558C42.4021 324.627 42.3781 324.686 42.3301 324.734C42.2875 324.777 42.2315 324.798 42.1621 324.798C42.0928 324.798 42.0341 324.777 41.9861 324.734C41.9435 324.686 41.9221 324.627 41.9221 324.558V320.974C41.9221 320.905 41.9435 320.849 41.9861 320.806C42.0341 320.758 42.0928 320.734 42.1621 320.734C42.2315 320.734 42.2875 320.758 42.3301 320.806C42.3781 320.849 42.4021 320.905 42.4021 320.974V321.678C42.5248 321.374 42.7088 321.123 42.9541 320.926C43.2048 320.723 43.4981 320.619 43.8341 320.614ZM47.9042 320.638C47.9736 320.638 48.0296 320.662 48.0723 320.71C48.1202 320.753 48.1442 320.809 48.1442 320.878V324.406C48.1442 324.827 48.0616 325.187 47.8963 325.486C47.7309 325.785 47.5016 326.011 47.2083 326.166C46.9149 326.321 46.5842 326.398 46.2162 326.398C45.9922 326.398 45.7816 326.374 45.5842 326.326C45.3922 326.278 45.2322 326.214 45.1042 326.134C44.9922 326.065 44.9362 325.987 44.9362 325.902C44.9362 325.891 44.9416 325.865 44.9522 325.822C44.9682 325.769 44.9949 325.729 45.0322 325.702C45.0696 325.675 45.1096 325.662 45.1522 325.662C45.1842 325.662 45.2162 325.67 45.2482 325.686C45.5896 325.873 45.9149 325.966 46.2242 325.966C46.6669 325.966 47.0162 325.827 47.2722 325.55C47.5336 325.273 47.6642 324.894 47.6642 324.414V324.134C47.5309 324.358 47.3389 324.539 47.0882 324.678C46.8376 324.811 46.5656 324.878 46.2722 324.878C45.8082 324.878 45.4562 324.739 45.2162 324.462C44.9762 324.185 44.8562 323.809 44.8562 323.334V320.878C44.8562 320.809 44.8776 320.753 44.9202 320.71C44.9682 320.662 45.0269 320.638 45.0962 320.638C45.1656 320.638 45.2216 320.662 45.2642 320.71C45.3122 320.753 45.3362 320.809 45.3362 320.878V323.262C45.3362 323.646 45.4189 323.937 45.5842 324.134C45.7549 324.331 46.0189 324.43 46.3763 324.43C46.5949 324.43 46.8029 324.377 47.0002 324.27C47.2029 324.158 47.3629 324.014 47.4802 323.838C47.6029 323.657 47.6642 323.465 47.6642 323.262V320.878C47.6642 320.809 47.6856 320.753 47.7283 320.71C47.7763 320.662 47.8349 320.638 47.9042 320.638ZM54.4146 321.822C54.7346 321.902 54.996 322.062 55.1986 322.302C55.4013 322.542 55.5026 322.854 55.5026 323.238C55.5026 323.761 55.34 324.153 55.0146 324.414C54.6946 324.67 54.2946 324.798 53.8146 324.798H51.6626C51.5933 324.798 51.5346 324.777 51.4866 324.734C51.444 324.686 51.4226 324.627 51.4226 324.558V319.438C51.4226 319.369 51.444 319.313 51.4866 319.27C51.5346 319.222 51.5933 319.198 51.6626 319.198H53.7826C54.2306 319.198 54.58 319.321 54.8306 319.566C55.0866 319.811 55.2146 320.147 55.2146 320.574C55.2146 320.857 55.1453 321.11 55.0066 321.334C54.868 321.558 54.6706 321.721 54.4146 321.822ZM54.7026 320.614C54.7026 320.321 54.6146 320.091 54.4386 319.926C54.268 319.755 54.028 319.67 53.7186 319.67H51.9346V321.67H53.7186C54.0066 321.665 54.2413 321.571 54.4226 321.39C54.6093 321.209 54.7026 320.95 54.7026 320.614ZM53.7906 324.326C54.148 324.326 54.436 324.235 54.6546 324.054C54.8786 323.873 54.9906 323.601 54.9906 323.238C54.9906 322.865 54.876 322.59 54.6466 322.414C54.4226 322.238 54.132 322.15 53.7746 322.15H51.9346V324.326H53.7906ZM59.6896 320.71C59.7589 320.71 59.8149 320.734 59.8576 320.782C59.9056 320.83 59.9296 320.889 59.9296 320.958V324.558C59.9296 324.627 59.9056 324.686 59.8576 324.734C59.8149 324.777 59.7589 324.798 59.6896 324.798C59.6202 324.798 59.5616 324.777 59.5136 324.734C59.4709 324.686 59.4496 324.627 59.4496 324.558V324.022C59.3162 324.262 59.1162 324.465 58.8496 324.63C58.5829 324.795 58.2922 324.878 57.9776 324.878C57.6202 324.878 57.2976 324.785 57.0096 324.598C56.7269 324.411 56.5029 324.155 56.3376 323.83C56.1776 323.505 56.0976 323.139 56.0976 322.734C56.0976 322.329 56.1802 321.966 56.3456 321.646C56.5109 321.321 56.7349 321.067 57.0176 320.886C57.3056 320.705 57.6229 320.614 57.9696 320.614C58.2896 320.614 58.5829 320.691 58.8496 320.846C59.1162 321.001 59.3162 321.203 59.4496 321.454V320.958C59.4496 320.889 59.4709 320.83 59.5136 320.782C59.5616 320.734 59.6202 320.71 59.6896 320.71ZM58.0256 324.43C58.3029 324.43 58.5509 324.358 58.7696 324.214C58.9936 324.065 59.1669 323.862 59.2896 323.606C59.4176 323.345 59.4816 323.054 59.4816 322.734C59.4816 322.425 59.4176 322.142 59.2896 321.886C59.1669 321.63 58.9936 321.43 58.7696 321.286C58.5509 321.137 58.3029 321.062 58.0256 321.062C57.7482 321.062 57.4976 321.134 57.2736 321.278C57.0549 321.422 56.8816 321.622 56.7536 321.878C56.6309 322.129 56.5696 322.414 56.5696 322.734C56.5696 323.054 56.6309 323.345 56.7536 323.606C56.8762 323.862 57.0469 324.065 57.2656 324.214C57.4896 324.358 57.7429 324.43 58.0256 324.43ZM64.3581 318.878C64.4274 318.878 64.4834 318.902 64.5261 318.95C64.5741 318.993 64.5981 319.049 64.5981 319.118V324.558C64.5981 324.627 64.5741 324.686 64.5261 324.734C64.4834 324.777 64.4274 324.798 64.3581 324.798C64.2887 324.798 64.2301 324.777 64.1821 324.734C64.1394 324.686 64.1181 324.627 64.1181 324.558V323.998C63.9847 324.243 63.7847 324.451 63.5181 324.622C63.2567 324.793 62.9661 324.878 62.6461 324.878C62.2941 324.878 61.9741 324.787 61.6861 324.606C61.4034 324.419 61.1794 324.163 61.0141 323.838C60.8487 323.513 60.7661 323.147 60.7661 322.742C60.7661 322.342 60.8487 321.979 61.0141 321.654C61.1794 321.329 61.4034 321.075 61.6861 320.894C61.9741 320.707 62.2914 320.614 62.6381 320.614C62.9527 320.614 63.2434 320.694 63.5101 320.854C63.7767 321.009 63.9794 321.211 64.1181 321.462V319.118C64.1181 319.049 64.1394 318.993 64.1821 318.95C64.2301 318.902 64.2887 318.878 64.3581 318.878ZM62.6941 324.43C62.9714 324.43 63.2194 324.358 63.4381 324.214C63.6621 324.07 63.8354 323.87 63.9581 323.614C64.0861 323.353 64.1501 323.062 64.1501 322.742C64.1501 322.427 64.0861 322.142 63.9581 321.886C63.8354 321.63 63.6621 321.43 63.4381 321.286C63.2194 321.137 62.9714 321.062 62.6941 321.062C62.4167 321.062 62.1661 321.137 61.9421 321.286C61.7234 321.43 61.5501 321.63 61.4221 321.886C61.2994 322.142 61.2381 322.427 61.2381 322.742C61.2381 323.062 61.2994 323.35 61.4221 323.606C61.5501 323.862 61.7234 324.065 61.9421 324.214C62.1661 324.358 62.4167 324.43 62.6941 324.43Z" fill="#F0F1FF"/>
<path d="M138.863 319.19C138.933 319.19 138.991 319.214 139.039 319.262C139.087 319.305 139.111 319.355 139.111 319.414C139.111 319.451 139.103 319.491 139.087 319.534L136.951 324.638C136.93 324.686 136.898 324.726 136.855 324.758C136.813 324.785 136.767 324.798 136.719 324.798C136.671 324.798 136.626 324.785 136.583 324.758C136.546 324.731 136.517 324.694 136.495 324.646L134.367 319.55C134.351 319.518 134.343 319.475 134.343 319.422C134.343 319.353 134.367 319.297 134.415 319.254C134.463 319.211 134.517 319.19 134.575 319.19C134.687 319.19 134.767 319.249 134.815 319.366L136.743 323.974L138.639 319.35C138.666 319.302 138.698 319.265 138.735 319.238C138.778 319.206 138.821 319.19 138.863 319.19ZM143.14 322.518C143.14 322.582 143.116 322.638 143.068 322.686C143.02 322.729 142.964 322.75 142.9 322.75H139.876C139.876 323.07 139.94 323.358 140.068 323.614C140.202 323.865 140.388 324.065 140.628 324.214C140.874 324.358 141.162 324.43 141.492 324.43C141.748 324.43 141.978 324.377 142.18 324.27C142.383 324.163 142.546 324.027 142.668 323.862C142.727 323.814 142.783 323.79 142.836 323.79C142.89 323.79 142.938 323.811 142.98 323.854C143.023 323.897 143.044 323.945 143.044 323.998C143.044 324.057 143.018 324.113 142.964 324.166C142.794 324.374 142.578 324.545 142.316 324.678C142.06 324.811 141.788 324.878 141.5 324.878C141.09 324.878 140.727 324.79 140.412 324.614C140.098 324.438 139.852 324.193 139.676 323.878C139.5 323.558 139.412 323.19 139.412 322.774C139.412 322.337 139.498 321.955 139.668 321.63C139.844 321.299 140.076 321.049 140.364 320.878C140.652 320.702 140.959 320.614 141.284 320.614C141.604 320.614 141.903 320.689 142.18 320.838C142.463 320.987 142.692 321.206 142.868 321.494C143.044 321.782 143.135 322.123 143.14 322.518ZM141.284 321.078C140.975 321.078 140.687 321.185 140.42 321.398C140.159 321.611 139.991 321.918 139.916 322.318H142.644V322.254C142.618 322.014 142.538 321.806 142.404 321.63C142.271 321.449 142.103 321.313 141.9 321.222C141.703 321.126 141.498 321.078 141.284 321.078ZM145.898 320.614C146.004 320.614 146.1 320.635 146.186 320.678C146.271 320.721 146.314 320.785 146.314 320.87C146.314 320.945 146.292 321.006 146.25 321.054C146.207 321.097 146.156 321.118 146.098 321.118C146.071 321.118 146.018 321.105 145.938 321.078C145.863 321.051 145.791 321.038 145.722 321.038C145.524 321.038 145.327 321.115 145.13 321.27C144.938 321.419 144.778 321.614 144.65 321.854C144.527 322.094 144.466 322.337 144.466 322.582V324.558C144.466 324.627 144.442 324.686 144.394 324.734C144.351 324.777 144.295 324.798 144.226 324.798C144.156 324.798 144.098 324.777 144.05 324.734C144.007 324.686 143.986 324.627 143.986 324.558V320.974C143.986 320.905 144.007 320.849 144.05 320.806C144.098 320.758 144.156 320.734 144.226 320.734C144.295 320.734 144.351 320.758 144.394 320.806C144.442 320.849 144.466 320.905 144.466 320.974V321.678C144.588 321.374 144.772 321.123 145.018 320.926C145.268 320.723 145.562 320.619 145.898 320.614ZM149.968 320.638C150.037 320.638 150.093 320.662 150.136 320.71C150.184 320.753 150.208 320.809 150.208 320.878V324.406C150.208 324.827 150.125 325.187 149.96 325.486C149.794 325.785 149.565 326.011 149.272 326.166C148.978 326.321 148.648 326.398 148.28 326.398C148.056 326.398 147.845 326.374 147.648 326.326C147.456 326.278 147.296 326.214 147.168 326.134C147.056 326.065 147 325.987 147 325.902C147 325.891 147.005 325.865 147.016 325.822C147.032 325.769 147.058 325.729 147.096 325.702C147.133 325.675 147.173 325.662 147.216 325.662C147.248 325.662 147.28 325.67 147.312 325.686C147.653 325.873 147.978 325.966 148.288 325.966C148.73 325.966 149.08 325.827 149.336 325.55C149.597 325.273 149.728 324.894 149.728 324.414V324.134C149.594 324.358 149.402 324.539 149.152 324.678C148.901 324.811 148.629 324.878 148.336 324.878C147.872 324.878 147.52 324.739 147.28 324.462C147.04 324.185 146.92 323.809 146.92 323.334V320.878C146.92 320.809 146.941 320.753 146.984 320.71C147.032 320.662 147.09 320.638 147.16 320.638C147.229 320.638 147.285 320.662 147.328 320.71C147.376 320.753 147.4 320.809 147.4 320.878V323.262C147.4 323.646 147.482 323.937 147.648 324.134C147.818 324.331 148.082 324.43 148.44 324.43C148.658 324.43 148.866 324.377 149.064 324.27C149.266 324.158 149.426 324.014 149.544 323.838C149.666 323.657 149.728 323.465 149.728 323.262V320.878C149.728 320.809 149.749 320.753 149.792 320.71C149.84 320.662 149.898 320.638 149.968 320.638ZM157.574 321.974C157.643 321.974 157.699 321.998 157.742 322.046C157.79 322.089 157.814 322.145 157.814 322.214V324.142C157.814 324.233 157.774 324.305 157.694 324.358C157.454 324.523 157.187 324.651 156.894 324.742C156.601 324.833 156.302 324.878 155.998 324.878C155.454 324.878 154.963 324.753 154.526 324.502C154.089 324.251 153.745 323.907 153.494 323.47C153.243 323.033 153.118 322.542 153.118 321.998C153.118 321.454 153.243 320.963 153.494 320.526C153.745 320.089 154.089 319.745 154.526 319.494C154.963 319.243 155.454 319.118 155.998 319.118C156.281 319.118 156.553 319.153 156.814 319.222C157.081 319.291 157.318 319.39 157.526 319.518C157.601 319.566 157.638 319.633 157.638 319.718C157.638 319.787 157.614 319.846 157.566 319.894C157.523 319.942 157.473 319.966 157.414 319.966C157.361 319.966 157.313 319.953 157.27 319.926C156.87 319.707 156.446 319.598 155.998 319.598C155.545 319.598 155.137 319.702 154.774 319.91C154.417 320.118 154.137 320.406 153.934 320.774C153.731 321.137 153.63 321.545 153.63 321.998C153.63 322.451 153.731 322.862 153.934 323.23C154.137 323.593 154.417 323.878 154.774 324.086C155.137 324.294 155.545 324.398 155.998 324.398C156.227 324.398 156.457 324.366 156.686 324.302C156.921 324.238 157.129 324.15 157.31 324.038V322.454H156.046C155.977 322.454 155.918 322.433 155.87 322.39C155.822 322.342 155.798 322.283 155.798 322.214C155.798 322.145 155.822 322.089 155.87 322.046C155.918 321.998 155.977 321.974 156.046 321.974H157.574ZM162.561 322.75C162.561 323.15 162.473 323.513 162.297 323.838C162.121 324.163 161.878 324.419 161.569 324.606C161.259 324.787 160.915 324.878 160.537 324.878C160.158 324.878 159.814 324.787 159.505 324.606C159.195 324.419 158.953 324.163 158.777 323.838C158.601 323.513 158.513 323.15 158.513 322.75C158.513 322.35 158.601 321.987 158.777 321.662C158.953 321.337 159.195 321.081 159.505 320.894C159.814 320.707 160.158 320.614 160.537 320.614C160.915 320.614 161.259 320.707 161.569 320.894C161.878 321.081 162.121 321.337 162.297 321.662C162.473 321.987 162.561 322.35 162.561 322.75ZM162.081 322.75C162.081 322.43 162.014 322.142 161.881 321.886C161.747 321.63 161.561 321.43 161.321 321.286C161.086 321.137 160.825 321.062 160.537 321.062C160.249 321.062 159.987 321.137 159.753 321.286C159.518 321.43 159.331 321.63 159.193 321.886C159.059 322.142 158.993 322.43 158.993 322.75C158.993 323.065 159.059 323.35 159.193 323.606C159.331 323.862 159.518 324.065 159.753 324.214C159.987 324.358 160.249 324.43 160.537 324.43C160.825 324.43 161.086 324.358 161.321 324.214C161.561 324.07 161.747 323.87 161.881 323.614C162.014 323.358 162.081 323.07 162.081 322.75ZM167.174 322.75C167.174 323.15 167.086 323.513 166.91 323.838C166.734 324.163 166.492 324.419 166.182 324.606C165.873 324.787 165.529 324.878 165.15 324.878C164.772 324.878 164.428 324.787 164.118 324.606C163.809 324.419 163.566 324.163 163.39 323.838C163.214 323.513 163.126 323.15 163.126 322.75C163.126 322.35 163.214 321.987 163.39 321.662C163.566 321.337 163.809 321.081 164.118 320.894C164.428 320.707 164.772 320.614 165.15 320.614C165.529 320.614 165.873 320.707 166.182 320.894C166.492 321.081 166.734 321.337 166.91 321.662C167.086 321.987 167.174 322.35 167.174 322.75ZM166.694 322.75C166.694 322.43 166.628 322.142 166.494 321.886C166.361 321.63 166.174 321.43 165.934 321.286C165.7 321.137 165.438 321.062 165.15 321.062C164.862 321.062 164.601 321.137 164.366 321.286C164.132 321.43 163.945 321.63 163.806 321.886C163.673 322.142 163.606 322.43 163.606 322.75C163.606 323.065 163.673 323.35 163.806 323.606C163.945 323.862 164.132 324.065 164.366 324.214C164.601 324.358 164.862 324.43 165.15 324.43C165.438 324.43 165.7 324.358 165.934 324.214C166.174 324.07 166.361 323.87 166.494 323.614C166.628 323.358 166.694 323.07 166.694 322.75ZM171.332 318.878C171.401 318.878 171.457 318.902 171.5 318.95C171.548 318.993 171.572 319.049 171.572 319.118V324.558C171.572 324.627 171.548 324.686 171.5 324.734C171.457 324.777 171.401 324.798 171.332 324.798C171.263 324.798 171.204 324.777 171.156 324.734C171.113 324.686 171.092 324.627 171.092 324.558V323.998C170.959 324.243 170.759 324.451 170.492 324.622C170.231 324.793 169.94 324.878 169.62 324.878C169.268 324.878 168.948 324.787 168.66 324.606C168.377 324.419 168.153 324.163 167.988 323.838C167.823 323.513 167.74 323.147 167.74 322.742C167.74 322.342 167.823 321.979 167.988 321.654C168.153 321.329 168.377 321.075 168.66 320.894C168.948 320.707 169.265 320.614 169.612 320.614C169.927 320.614 170.217 320.694 170.484 320.854C170.751 321.009 170.953 321.211 171.092 321.462V319.118C171.092 319.049 171.113 318.993 171.156 318.95C171.204 318.902 171.263 318.878 171.332 318.878ZM169.668 324.43C169.945 324.43 170.193 324.358 170.412 324.214C170.636 324.07 170.809 323.87 170.932 323.614C171.06 323.353 171.124 323.062 171.124 322.742C171.124 322.427 171.06 322.142 170.932 321.886C170.809 321.63 170.636 321.43 170.412 321.286C170.193 321.137 169.945 321.062 169.668 321.062C169.391 321.062 169.14 321.137 168.916 321.286C168.697 321.43 168.524 321.63 168.396 321.886C168.273 322.142 168.212 322.427 168.212 322.742C168.212 323.062 168.273 323.35 168.396 323.606C168.524 323.862 168.697 324.065 168.916 324.214C169.14 324.358 169.391 324.43 169.668 324.43Z" fill="#F0F1FF"/>
<path d="M81.3561 352C81.4494 352 81.5227 352.03 81.5761 352.09C81.6361 352.143 81.6661 352.217 81.6661 352.31V358.69C81.6594 358.783 81.6261 358.86 81.5661 358.92C81.5061 358.973 81.4327 359 81.3461 359C81.2594 359 81.1861 358.97 81.1261 358.91C81.0661 358.85 81.0361 358.777 81.0361 358.69V355.71H76.9761V358.69C76.9694 358.777 76.9361 358.85 76.8761 358.91C76.8161 358.97 76.7427 359 76.6561 359C76.5627 359 76.4861 358.973 76.4261 358.92C76.3727 358.86 76.3461 358.783 76.3461 358.69V352.31C76.3461 352.217 76.3761 352.143 76.4361 352.09C76.4961 352.03 76.5727 352 76.6661 352C76.7527 352 76.8261 352.03 76.8861 352.09C76.9461 352.15 76.9761 352.223 76.9761 352.31V355.13H81.0361V352.31C81.0361 352.223 81.0661 352.15 81.1261 352.09C81.1927 352.03 81.2694 352 81.3561 352ZM87.7133 356.44C87.7133 356.94 87.6033 357.393 87.3833 357.8C87.1633 358.207 86.86 358.527 86.4733 358.76C86.0867 358.987 85.6567 359.1 85.1833 359.1C84.71 359.1 84.28 358.987 83.8933 358.76C83.5067 358.527 83.2033 358.207 82.9833 357.8C82.7633 357.393 82.6533 356.94 82.6533 356.44C82.6533 355.94 82.7633 355.487 82.9833 355.08C83.2033 354.673 83.5067 354.353 83.8933 354.12C84.28 353.887 84.71 353.77 85.1833 353.77C85.6567 353.77 86.0867 353.887 86.4733 354.12C86.86 354.353 87.1633 354.673 87.3833 355.08C87.6033 355.487 87.7133 355.94 87.7133 356.44ZM87.1133 356.44C87.1133 356.04 87.03 355.68 86.8633 355.36C86.6967 355.04 86.4633 354.79 86.1633 354.61C85.87 354.423 85.5433 354.33 85.1833 354.33C84.8233 354.33 84.4967 354.423 84.2033 354.61C83.91 354.79 83.6767 355.04 83.5033 355.36C83.3367 355.68 83.2533 356.04 83.2533 356.44C83.2533 356.833 83.3367 357.19 83.5033 357.51C83.6767 357.83 83.91 358.083 84.2033 358.27C84.4967 358.45 84.8233 358.54 85.1833 358.54C85.5433 358.54 85.87 358.45 86.1633 358.27C86.4633 358.09 86.6967 357.84 86.8633 357.52C87.03 357.2 87.1133 356.84 87.1133 356.44ZM89.2006 358.7C89.2006 358.787 89.1706 358.86 89.1106 358.92C89.0573 358.973 88.9873 359 88.9006 359C88.8139 359 88.7406 358.973 88.6806 358.92C88.6273 358.86 88.6006 358.787 88.6006 358.7V351.9C88.6006 351.813 88.6273 351.743 88.6806 351.69C88.7406 351.63 88.8139 351.6 88.9006 351.6C88.9873 351.6 89.0573 351.63 89.1106 351.69C89.1706 351.743 89.2006 351.813 89.2006 351.9V358.7ZM94.4976 351.6C94.5843 351.6 94.6543 351.63 94.7076 351.69C94.7676 351.743 94.7976 351.813 94.7976 351.9V358.7C94.7976 358.787 94.7676 358.86 94.7076 358.92C94.6543 358.973 94.5843 359 94.4976 359C94.411 359 94.3376 358.973 94.2776 358.92C94.2243 358.86 94.1976 358.787 94.1976 358.7V358C94.031 358.307 93.781 358.567 93.4476 358.78C93.121 358.993 92.7576 359.1 92.3576 359.1C91.9176 359.1 91.5176 358.987 91.1576 358.76C90.8043 358.527 90.5243 358.207 90.3176 357.8C90.111 357.393 90.0076 356.937 90.0076 356.43C90.0076 355.93 90.111 355.477 90.3176 355.07C90.5243 354.663 90.8043 354.347 91.1576 354.12C91.5176 353.887 91.9143 353.77 92.3476 353.77C92.741 353.77 93.1043 353.87 93.4376 354.07C93.771 354.263 94.0243 354.517 94.1976 354.83V351.9C94.1976 351.813 94.2243 351.743 94.2776 351.69C94.3376 351.63 94.411 351.6 94.4976 351.6ZM92.4176 358.54C92.7643 358.54 93.0743 358.45 93.3476 358.27C93.6276 358.09 93.8443 357.84 93.9976 357.52C94.1576 357.193 94.2376 356.83 94.2376 356.43C94.2376 356.037 94.1576 355.68 93.9976 355.36C93.8443 355.04 93.6276 354.79 93.3476 354.61C93.0743 354.423 92.7643 354.33 92.4176 354.33C92.071 354.33 91.7576 354.423 91.4776 354.61C91.2043 354.79 90.9876 355.04 90.8276 355.36C90.6743 355.68 90.5976 356.037 90.5976 356.43C90.5976 356.83 90.6743 357.19 90.8276 357.51C90.9876 357.83 91.2043 358.083 91.4776 358.27C91.7576 358.45 92.071 358.54 92.4176 358.54ZM99.2976 354.47V357.82C99.2976 358.073 99.3443 358.247 99.4376 358.34C99.5309 358.427 99.6543 358.47 99.8076 358.47C99.8476 358.47 99.8976 358.463 99.9576 358.45C100.018 358.43 100.064 358.42 100.098 358.42C100.158 358.42 100.208 358.447 100.248 358.5C100.294 358.547 100.318 358.603 100.318 358.67C100.318 358.763 100.264 358.843 100.158 358.91C100.051 358.97 99.9243 359 99.7776 359C99.5976 359 99.4376 358.983 99.2976 358.95C99.1576 358.917 99.0209 358.817 98.8876 358.65C98.7609 358.483 98.6976 358.217 98.6976 357.85V354.47H97.9676C97.8876 354.47 97.8176 354.443 97.7576 354.39C97.7043 354.337 97.6776 354.27 97.6776 354.19C97.6776 354.11 97.7043 354.043 97.7576 353.99C97.8176 353.937 97.8876 353.91 97.9676 353.91H98.6976V352.8C98.6976 352.713 98.7243 352.643 98.7776 352.59C98.8376 352.53 98.9109 352.5 98.9976 352.5C99.0843 352.5 99.1543 352.53 99.2076 352.59C99.2676 352.643 99.2976 352.713 99.2976 352.8V353.91H100.298C100.371 353.91 100.434 353.94 100.488 354C100.548 354.06 100.578 354.127 100.578 354.2C100.578 354.28 100.551 354.347 100.498 354.4C100.444 354.447 100.378 354.47 100.298 354.47H99.2976ZM105.957 356.44C105.957 356.94 105.847 357.393 105.627 357.8C105.407 358.207 105.104 358.527 104.717 358.76C104.331 358.987 103.901 359.1 103.427 359.1C102.954 359.1 102.524 358.987 102.137 358.76C101.751 358.527 101.447 358.207 101.227 357.8C101.007 357.393 100.897 356.94 100.897 356.44C100.897 355.94 101.007 355.487 101.227 355.08C101.447 354.673 101.751 354.353 102.137 354.12C102.524 353.887 102.954 353.77 103.427 353.77C103.901 353.77 104.331 353.887 104.717 354.12C105.104 354.353 105.407 354.673 105.627 355.08C105.847 355.487 105.957 355.94 105.957 356.44ZM105.357 356.44C105.357 356.04 105.274 355.68 105.107 355.36C104.941 355.04 104.707 354.79 104.407 354.61C104.114 354.423 103.787 354.33 103.427 354.33C103.067 354.33 102.741 354.423 102.447 354.61C102.154 354.79 101.921 355.04 101.747 355.36C101.581 355.68 101.497 356.04 101.497 356.44C101.497 356.833 101.581 357.19 101.747 357.51C101.921 357.83 102.154 358.083 102.447 358.27C102.741 358.45 103.067 358.54 103.427 358.54C103.787 358.54 104.114 358.45 104.407 358.27C104.707 358.09 104.941 357.84 105.107 357.52C105.274 357.2 105.357 356.84 105.357 356.44ZM108.829 358.19C108.776 358.103 108.749 358.03 108.749 357.97C108.749 357.883 108.792 357.817 108.879 357.77C108.919 357.73 108.972 357.71 109.039 357.71C109.119 357.71 109.192 357.743 109.259 357.81C109.652 358.33 110.176 358.59 110.829 358.59C111.149 358.59 111.426 358.517 111.659 358.37C111.899 358.217 112.019 357.997 112.019 357.71C112.019 357.43 111.909 357.22 111.689 357.08C111.469 356.94 111.162 356.82 110.769 356.72C110.216 356.58 109.782 356.4 109.469 356.18C109.156 355.953 108.999 355.623 108.999 355.19C108.999 354.917 109.076 354.673 109.229 354.46C109.382 354.24 109.589 354.07 109.849 353.95C110.116 353.83 110.416 353.77 110.749 353.77C111.036 353.77 111.322 353.827 111.609 353.94C111.902 354.047 112.152 354.22 112.359 354.46C112.419 354.507 112.449 354.573 112.449 354.66C112.449 354.74 112.416 354.81 112.349 354.87C112.302 354.91 112.242 354.93 112.169 354.93C112.102 354.93 112.042 354.903 111.989 354.85C111.829 354.67 111.639 354.533 111.419 354.44C111.199 354.347 110.962 354.3 110.709 354.3C110.396 354.3 110.126 354.373 109.899 354.52C109.679 354.667 109.569 354.887 109.569 355.18C109.582 355.447 109.702 355.65 109.929 355.79C110.162 355.93 110.502 356.057 110.949 356.17C111.296 356.257 111.582 356.353 111.809 356.46C112.036 356.567 112.219 356.717 112.359 356.91C112.506 357.103 112.579 357.36 112.579 357.68C112.579 358.113 112.406 358.46 112.059 358.72C111.712 358.973 111.282 359.1 110.769 359.1C109.956 359.1 109.309 358.797 108.829 358.19ZM117.635 353.89C117.721 353.89 117.791 353.92 117.845 353.98C117.905 354.04 117.935 354.113 117.935 354.2V358.7C117.935 358.787 117.905 358.86 117.845 358.92C117.791 358.973 117.721 359 117.635 359C117.548 359 117.475 358.973 117.415 358.92C117.361 358.86 117.335 358.787 117.335 358.7V358.03C117.168 358.33 116.918 358.583 116.585 358.79C116.251 358.997 115.888 359.1 115.495 359.1C115.048 359.1 114.645 358.983 114.285 358.75C113.931 358.517 113.651 358.197 113.445 357.79C113.245 357.383 113.145 356.927 113.145 356.42C113.145 355.913 113.248 355.46 113.455 355.06C113.661 354.653 113.941 354.337 114.295 354.11C114.655 353.883 115.051 353.77 115.485 353.77C115.885 353.77 116.251 353.867 116.585 354.06C116.918 354.253 117.168 354.507 117.335 354.82V354.2C117.335 354.113 117.361 354.04 117.415 353.98C117.475 353.92 117.548 353.89 117.635 353.89ZM115.555 358.54C115.901 358.54 116.211 358.45 116.485 358.27C116.765 358.083 116.981 357.83 117.135 357.51C117.295 357.183 117.375 356.82 117.375 356.42C117.375 356.033 117.295 355.68 117.135 355.36C116.981 355.04 116.765 354.79 116.485 354.61C116.211 354.423 115.901 354.33 115.555 354.33C115.208 354.33 114.895 354.42 114.615 354.6C114.341 354.78 114.125 355.03 113.965 355.35C113.811 355.663 113.735 356.02 113.735 356.42C113.735 356.82 113.811 357.183 113.965 357.51C114.118 357.83 114.331 358.083 114.605 358.27C114.885 358.45 115.201 358.54 115.555 358.54ZM122.843 353.79C122.91 353.79 122.973 353.813 123.033 353.86C123.093 353.907 123.123 353.967 123.123 354.04C123.123 354.1 123.11 354.157 123.083 354.21L121.123 358.81C121.096 358.863 121.056 358.91 121.003 358.95C120.956 358.983 120.906 359 120.853 359C120.786 359.007 120.726 358.993 120.673 358.96C120.62 358.927 120.58 358.877 120.553 358.81L118.583 354.21C118.583 354.197 118.576 354.177 118.563 354.15C118.556 354.123 118.553 354.097 118.553 354.07C118.553 353.99 118.58 353.923 118.633 353.87C118.686 353.81 118.763 353.78 118.863 353.78C118.923 353.78 118.976 353.8 119.023 353.84C119.076 353.873 119.116 353.92 119.143 353.98L120.843 358.03L122.553 353.98C122.58 353.92 122.616 353.873 122.663 353.84C122.716 353.8 122.776 353.783 122.843 353.79ZM128.147 356.15C128.147 356.23 128.117 356.3 128.057 356.36C127.997 356.413 127.927 356.44 127.847 356.44H124.067C124.067 356.84 124.147 357.2 124.307 357.52C124.474 357.833 124.707 358.083 125.007 358.27C125.314 358.45 125.674 358.54 126.087 358.54C126.407 358.54 126.694 358.473 126.947 358.34C127.201 358.207 127.404 358.037 127.557 357.83C127.631 357.77 127.701 357.74 127.767 357.74C127.834 357.74 127.894 357.767 127.947 357.82C128.001 357.873 128.027 357.933 128.027 358C128.027 358.073 127.994 358.143 127.927 358.21C127.714 358.47 127.444 358.683 127.117 358.85C126.797 359.017 126.457 359.1 126.097 359.1C125.584 359.1 125.131 358.99 124.737 358.77C124.344 358.55 124.037 358.243 123.817 357.85C123.597 357.45 123.487 356.99 123.487 356.47C123.487 355.923 123.594 355.447 123.807 355.04C124.027 354.627 124.317 354.313 124.677 354.1C125.037 353.88 125.421 353.77 125.827 353.77C126.227 353.77 126.601 353.863 126.947 354.05C127.301 354.237 127.587 354.51 127.807 354.87C128.027 355.23 128.141 355.657 128.147 356.15ZM125.827 354.35C125.441 354.35 125.081 354.483 124.747 354.75C124.421 355.017 124.211 355.4 124.117 355.9H127.527V355.82C127.494 355.52 127.394 355.26 127.227 355.04C127.061 354.813 126.851 354.643 126.597 354.53C126.351 354.41 126.094 354.35 125.827 354.35Z" fill="white"/>
</g>
<defs>
<filter id="filter0_d" x="0" y="0" width="205" height="408" filterUnits="userSpaceOnUse" color-interpolation-filters="sRGB">
<feFlood flood-opacity="0" result="BackgroundImageFix"/>
<feColorMatrix in="SourceAlpha" type="matrix" values="0 0 0 0 0 0 0 0 0 0 0 0 0 0 0 0 0 0 127 0"/>
<feOffset dy="6"/>
<feGaussianBlur stdDeviation="7.5"/>
<feColorMatrix type="matrix" values="0 0 0 0 0 0 0 0 0 0 0 0 0 0 0 0 0 0 0.1 0"/>
<feBlend mode="normal" in2="BackgroundImageFix" result="effect1_dropShadow"/>
<feBlend mode="normal" in="SourceGraphic" in2="effect1_dropShadow" result="shape"/>
</filter>
<clipPath id="clip0">
<rect width="20.6972" height="20.6972" fill="white" transform="translate(92 256)"/>
</clipPath>
</defs>
</svg>
