<svg width="26" height="29" viewBox="0 0 26 29" fill="none" xmlns="http://www.w3.org/2000/svg">
<path d="M10.6048 7.73097C11.7678 7.73097 12.7105 6.7882 12.7105 5.62522C12.7105 4.46225 11.7678 3.51947 10.6048 3.51947C9.4418 3.51947 8.49902 4.46225 8.49902 5.62522C8.49902 6.7882 9.4418 7.73097 10.6048 7.73097Z" fill="#AFA7B1"/>
<path d="M7.17477 11.982H14.0325C14.0989 11.982 14.1626 11.9556 14.2096 11.9087C14.2565 11.8617 14.2829 11.798 14.2829 11.7316V11.58C14.282 10.715 13.938 9.88571 13.3264 9.27407C12.7148 8.66244 11.8855 8.31844 11.0205 8.31757H10.1867C9.32177 8.31844 8.49246 8.66244 7.88082 9.27407C7.26919 9.88571 6.92519 10.715 6.92432 11.58V11.7316C6.92432 11.798 6.9507 11.8617 6.99767 11.9087C7.04464 11.9556 7.10834 11.982 7.17477 11.982Z" fill="#AFA7B1"/>
<path d="M25.5 3.95446C25.5 2.90567 25.0834 1.89984 24.3418 1.15824C23.6002 0.41663 22.5943 0 21.5455 0H7.45446C6.40567 0 5.39984 0.41663 4.65824 1.15824C3.91663 1.89984 3.5 2.90567 3.5 3.95446V22.1977C3.5 23.2465 3.91663 24.2523 4.65824 24.994C5.39984 25.7356 6.40567 26.1522 7.45446 26.1522H21.5455C22.5943 26.1522 23.6002 25.7356 24.3418 24.994C25.0834 24.2523 25.5 23.2465 25.5 22.1977V3.95446ZM24.1818 22.1944C24.1818 22.8936 23.9041 23.5642 23.4097 24.0586C22.9153 24.553 22.2447 24.8307 21.5455 24.8307H7.45446C6.75527 24.8307 6.08472 24.553 5.59031 24.0586C5.09591 23.5642 4.81815 22.8936 4.81815 22.1944V3.95446C4.81815 3.25527 5.09591 2.58472 5.59031 2.09031C6.08472 1.59591 6.75527 1.31815 7.45446 1.31815H21.5455C22.2447 1.31815 22.9153 1.59591 23.4097 2.09031C23.9041 2.58472 24.1818 3.25527 24.1818 3.95446V22.1944Z" fill="#AFA7B1"/>
<path d="M21.9642 6.05365H16.2797C16.1049 6.05365 15.9372 6.12309 15.8136 6.24669C15.69 6.37029 15.6206 6.53793 15.6206 6.71273C15.6206 6.88753 15.69 7.05516 15.8136 7.17877C15.9372 7.30237 16.1049 7.3718 16.2797 7.3718H21.9642C22.139 7.3718 22.3067 7.30237 22.4303 7.17877C22.5539 7.05516 22.6233 6.88753 22.6233 6.71273C22.6233 6.53793 22.5539 6.37029 22.4303 6.24669C22.3067 6.12309 22.139 6.05365 21.9642 6.05365Z" fill="#AFA7B1"/>
<path d="M21.9642 10.0081H16.2797C16.1049 10.0081 15.9372 10.0775 15.8136 10.2011C15.69 10.3247 15.6206 10.4924 15.6206 10.6672C15.6206 10.842 15.69 11.0096 15.8136 11.1332C15.9372 11.2568 16.1049 11.3262 16.2797 11.3262H21.9642C22.139 11.3262 22.3067 11.2568 22.4303 11.1332C22.5539 11.0096 22.6233 10.842 22.6233 10.6672C22.6233 10.4924 22.5539 10.3247 22.4303 10.2011C22.3067 10.0775 22.139 10.0081 21.9642 10.0081Z" fill="#AFA7B1"/>
<path d="M21.9643 15.9398H7.38222C7.20742 15.9398 7.03978 16.0092 6.91618 16.1328C6.79258 16.2564 6.72314 16.4241 6.72314 16.5989C6.72314 16.7737 6.79258 16.9413 6.91618 17.0649C7.03978 17.1885 7.20742 17.2579 7.38222 17.2579H21.9643C22.1391 17.2579 22.3067 17.1885 22.4303 17.0649C22.5539 16.9413 22.6234 16.7737 22.6234 16.5989C22.6234 16.4241 22.5539 16.2564 22.4303 16.1328C22.3067 16.0092 22.1391 15.9398 21.9643 15.9398Z" fill="#AFA7B1"/>
<path d="M21.9643 19.8943H7.38222C7.20742 19.8943 7.03978 19.9637 6.91618 20.0873C6.79258 20.2109 6.72314 20.3785 6.72314 20.5533C6.72314 20.7281 6.79258 20.8958 6.91618 21.0194C7.03978 21.143 7.20742 21.2124 7.38222 21.2124H21.9643C22.1391 21.2124 22.3067 21.143 22.4303 21.0194C22.5539 20.8958 22.6234 20.7281 22.6234 20.5533C22.6234 20.3785 22.5539 20.2109 22.4303 20.0873C22.3067 19.9637 22.1391 19.8943 21.9643 19.8943Z" fill="#AFA7B1"/>
<path d="M4 7H3C1.89543 7 1 7.89543 1 9V26C1 27.1046 1.89543 28 3 28H19C20.1046 28 21 27.1046 21 26V26" stroke="#AFA7B1" stroke-width="1.3"/>
</svg>
