<svg width="32" height="41" viewBox="0 0 32 41" fill="none" xmlns="http://www.w3.org/2000/svg">
<g filter="url(#filter0_d)">
<path d="M11.2054 14.0464H14.4749L15.0871 15.485C15.1635 15.666 15.3376 15.7839 15.531 15.7857H15.5823C15.7941 15.7642 15.9679 15.6053 16.0116 15.393L16.6652 12.3072L17.3384 13.8973C17.3773 13.9882 17.4655 14.0468 17.5628 14.0464H20.9334C20.4486 14.9464 19.691 15.837 18.7108 16.7026C18.0693 17.2691 17.3794 17.7816 16.6897 18.2296C16.4664 18.3746 16.2583 18.5028 16.0702 18.6134C15.8818 18.5027 15.6736 18.3744 15.4502 18.2293C14.7601 17.7811 14.0699 17.2684 13.4281 16.7016C12.4481 15.8363 11.6905 14.9459 11.2054 14.0464ZM10.9657 13.1881C10.6631 12.476 10.536 11.76 10.6089 11.048C10.7463 9.71369 11.4666 8.96328 12.5759 8.77426C13.6203 8.5963 14.8613 8.96751 15.6613 9.69245L16.0705 10.0632L16.4794 9.69213C17.2771 8.96797 18.5194 8.59714 19.5651 8.77555C20.6754 8.96497 21.3944 9.71478 21.5281 11.0469C21.6015 11.7595 21.4749 12.4758 21.1727 13.1881H17.7238L17.1116 11.7495C17.027 11.5515 16.8265 11.4317 16.6156 11.4532C16.4046 11.4748 16.2315 11.6327 16.1872 11.8439L15.5335 14.9273L14.8603 13.3422C14.8229 13.2494 14.7344 13.1886 14.6359 13.1881H10.9657ZM27.9963 5.88827C27.9987 5.91287 28 5.93778 28 5.96275V32.1988C28 32.6104 27.6662 32.9441 27.2547 32.9441H4.74534C4.33369 32.9441 4 32.6104 4 32.1988V0.745264C4 0.333686 4.33369 0 4.74534 0H22.0372C22.0622 0 22.0871 0.00131462 22.1118 0.00369978C22.1298 0.00548864 22.1475 0.00852799 22.1652 0.0115819C22.1714 0.012702 22.1778 0.013209 22.1841 0.0144774C22.2054 0.0187239 22.2263 0.0243671 22.2469 0.0304025C22.2495 0.031147 22.252 0.0315883 22.2545 0.0323328C22.2755 0.0387437 22.296 0.0462466 22.3161 0.0543706C22.3183 0.0553392 22.3207 0.0559758 22.323 0.0569444C22.342 0.0648477 22.3604 0.0737755 22.3786 0.0831645C22.382 0.0849534 22.3856 0.0863623 22.389 0.0881512C22.4054 0.0968715 22.421 0.10671 22.4365 0.116623C22.4415 0.119826 22.4468 0.122672 22.4518 0.125953C22.4657 0.13527 22.4789 0.145503 22.4921 0.155712C22.4981 0.16041 22.5045 0.1647 22.5105 0.169546C22.5241 0.1808 22.5368 0.192946 22.5497 0.205096C22.5544 0.209567 22.5596 0.213592 22.5643 0.218287L27.7817 5.43561C27.7863 5.44031 27.7903 5.44548 27.7949 5.45025C27.807 5.46307 27.8192 5.47586 27.8304 5.4895C27.8353 5.49546 27.8395 5.50189 27.8442 5.508C27.8544 5.52119 27.8647 5.53428 27.874 5.54822C27.8774 5.55321 27.8801 5.55843 27.8833 5.5635C27.8932 5.57908 27.903 5.59463 27.9117 5.61095C27.9136 5.61438 27.915 5.61814 27.9168 5.62157C27.9262 5.63975 27.9352 5.65806 27.9431 5.67706C27.944 5.6793 27.9447 5.68167 27.9456 5.68398C27.9537 5.70411 27.9612 5.72465 27.9676 5.74559C27.9684 5.74812 27.9689 5.75062 27.9696 5.75315C27.9756 5.7738 27.9811 5.79473 27.9854 5.81605C27.9866 5.82231 27.9872 5.82861 27.9883 5.83487C27.9914 5.8526 27.9945 5.87016 27.9963 5.88827ZM22.7826 2.5448V5.21733H25.4552L22.7826 2.5448ZM5.49069 31.4534H26.5093V6.70801H22.0372C21.6257 6.70801 21.2919 6.37433 21.2919 5.96275V1.49069H5.49069V31.4534ZM9.69922 25.3669C9.22859 25.3669 8.89243 25.0307 8.89243 24.5601C8.89243 24.0894 9.22859 23.7197 9.69922 23.7197H14.6072C15.0778 23.7197 15.414 24.0894 15.414 24.5601C15.414 25.0307 15.0778 25.3669 14.6072 25.3669H9.69922ZM9.69922 28.6614C9.22859 28.6614 8.89243 28.3251 8.89243 27.8545C8.89243 27.3839 9.22859 27.0142 9.69922 27.0142H14.6072C15.0778 27.0142 15.414 27.3839 15.414 27.8545C15.414 28.3251 15.0778 28.6614 14.6072 28.6614H9.69922ZM9.69922 22.0725C9.22859 22.0725 8.89243 21.7363 8.89243 21.2657C8.89243 20.795 9.22859 20.4253 9.69922 20.4253H22.1844C22.655 20.4253 22.9911 20.795 22.9911 21.2657C22.9911 21.7363 22.655 22.0725 22.1844 22.0725H9.69922ZM17.2764 25.3669C16.8057 25.3669 16.4696 25.0307 16.4696 24.5601C16.4696 24.0894 16.8057 23.7197 17.2764 23.7197H22.1844C22.655 23.7197 22.9911 24.0894 22.9911 24.5601C22.9911 25.0307 22.655 25.3669 22.1844 25.3669H17.2764ZM17.2764 28.6614C16.8057 28.6614 16.4696 28.3251 16.4696 27.8545C16.4696 27.3839 16.8057 27.0142 17.2764 27.0142H22.1844C22.655 27.0142 22.9911 27.3839 22.9911 27.8545C22.9911 28.3251 22.655 28.6614 22.1844 28.6614H17.2764Z" fill="#AFA7B1"/>
</g>
<defs>
<filter id="filter0_d" x="0" y="0" width="32" height="41" filterUnits="userSpaceOnUse" color-interpolation-filters="sRGB">
<feFlood flood-opacity="0" result="BackgroundImageFix"/>
<feColorMatrix in="SourceAlpha" type="matrix" values="0 0 0 0 0 0 0 0 0 0 0 0 0 0 0 0 0 0 127 0"/>
<feOffset dy="4"/>
<feGaussianBlur stdDeviation="2"/>
<feColorMatrix type="matrix" values="0 0 0 0 0 0 0 0 0 0 0 0 0 0 0 0 0 0 0.25 0"/>
<feBlend mode="normal" in2="BackgroundImageFix" result="effect1_dropShadow"/>
<feBlend mode="normal" in="SourceGraphic" in2="effect1_dropShadow" result="shape"/>
</filter>
</defs>
</svg>
