<svg width="245" height="438" viewBox="0 0 245 438" fill="none" xmlns="http://www.w3.org/2000/svg">
<g opacity="0.1" filter="url(#filter0_f)">
<path fill-rule="evenodd" clip-rule="evenodd" d="M122.5 417.977C179.109 417.977 225 408.864 225 397.622C225 386.38 162.144 381.284 122.5 381.284C82.8562 381.284 20 386.38 20 397.622C20 408.864 65.8908 417.977 122.5 417.977Z" fill="url(#paint0_linear)"/>
</g>
<g filter="url(#filter1_f)">
<path fill-rule="evenodd" clip-rule="evenodd" d="M122.5 400.428C176.906 400.428 221.012 398.658 221.012 398.658C221.012 398.658 160.601 397.238 122.5 397.238C84.3987 397.238 23.9883 398.658 23.9883 398.658C23.9883 398.658 68.0935 400.428 122.5 400.428Z" fill="#04001A"/>
</g>
<g opacity="0.5" filter="url(#filter2_f)">
<path fill-rule="evenodd" clip-rule="evenodd" d="M122.5 398.833C168.096 398.833 205.058 397.063 205.058 397.063C205.058 397.063 154.431 395.642 122.5 395.642C90.569 395.642 39.9417 397.063 39.9417 397.063C39.9417 397.063 76.9043 398.833 122.5 398.833Z" fill="#04001A"/>
</g>
<g clip-path="url(#clip0)">
<g filter="url(#filter3_i)">
<path fill-rule="evenodd" clip-rule="evenodd" d="M59.3818 0.923828C36.05 0.923828 25.3501 11.9859 25.3501 34.9555V363.877C25.3501 386.846 36.05 397.909 59.3818 397.909H186.423C208.994 397.909 220.455 386.067 220.455 363.877V34.9555C220.455 11.9859 209.755 0.923828 186.423 0.923828H59.3818Z" fill="#C9C6C8"/>
</g>
<path fill-rule="evenodd" clip-rule="evenodd" d="M25.9987 25.2267C28.6382 9.86048 39.3578 2.92572 59.3783 2.92572H186.42C206.445 2.92572 217.165 9.86369 219.801 25.2374C216.052 11.4823 205.453 4.31156 186.419 4.31156H59.3778C40.3482 4.31156 29.7506 11.4786 25.9987 25.2267ZM25.8674 372.803C28.2655 388.733 39.0072 395.907 59.3783 395.907H186.42C206.39 395.907 217.662 387.936 219.995 371.951C216.33 386.198 205.315 394.213 186.419 394.213H59.3778C40.1213 394.213 29.4991 386.874 25.8674 372.803Z" fill="url(#paint1_linear)"/>
<path fill-rule="evenodd" clip-rule="evenodd" d="M25.9987 25.2267C28.6382 9.86048 39.3578 2.92572 59.3783 2.92572H186.42C206.445 2.92572 217.165 9.86369 219.801 25.2374C216.052 11.4823 205.453 4.31156 186.419 4.31156H59.3778C40.3482 4.31156 29.7506 11.4786 25.9987 25.2267ZM25.8674 372.803C28.2655 388.733 39.0072 395.907 59.3783 395.907H186.42C206.39 395.907 217.662 387.936 219.995 371.951C216.33 386.198 205.315 394.213 186.419 394.213H59.3778C40.1213 394.213 29.4991 386.874 25.8674 372.803Z" fill="url(#paint2_linear)"/>
<path fill-rule="evenodd" clip-rule="evenodd" d="M59.3782 4.31158H186.419C210.841 4.31158 221.375 16.1154 221.375 38.4844V360.04C221.375 381.656 210.071 394.213 186.419 394.213H59.3782C34.9569 394.213 24.4226 382.409 24.4226 360.04V38.4844C24.4226 16.1154 34.9569 4.31158 59.3782 4.31158Z" fill="url(#paint3_linear)"/>
<path fill-rule="evenodd" clip-rule="evenodd" d="M59.3782 4.31158H186.419C210.841 4.31158 221.375 16.1154 221.375 38.4844V360.04C221.375 381.656 210.071 394.213 186.419 394.213H59.3782C34.9569 394.213 24.4226 382.409 24.4226 360.04V38.4844C24.4226 16.1154 34.9569 4.31158 59.3782 4.31158Z" fill="url(#paint4_linear)"/>
<path d="M27.6406 34.9554C27.6406 23.99 30.1188 16.0729 35.2887 10.8931C40.4585 5.71334 48.3755 3.21517 59.3809 3.21517H186.422C197.428 3.21517 205.344 5.71334 210.514 10.8931C215.684 16.0729 218.162 23.99 218.162 34.9554V363.877C218.162 374.447 215.497 382.368 210.227 387.649C204.958 392.929 197.037 395.617 186.422 395.617H59.3809C48.3755 395.617 40.4585 393.119 35.2887 387.939C30.1188 382.759 27.6406 374.842 27.6406 363.877V34.9554Z" fill="url(#paint5_linear)" stroke="black" stroke-width="0.579151"/>
<g filter="url(#filter4_dd)">
<path fill-rule="evenodd" clip-rule="evenodd" d="M59.3797 4.77362H186.421C207.37 4.77362 216.449 13.8702 216.449 34.8016V363.723C216.449 383.883 206.601 393.751 186.421 393.751H59.3797C38.431 393.751 29.3518 384.654 29.3518 363.723V34.8016C29.3518 13.8702 38.431 4.77362 59.3797 4.77362Z" fill="url(#paint6_linear)"/>
<path fill-rule="evenodd" clip-rule="evenodd" d="M59.3797 4.77362H186.421C207.37 4.77362 216.449 13.8702 216.449 34.8016V363.723C216.449 383.883 206.601 393.751 186.421 393.751H59.3797C38.431 393.751 29.3518 384.654 29.3518 363.723V34.8016C29.3518 13.8702 38.431 4.77362 59.3797 4.77362Z" fill="url(#paint7_radial)"/>
</g>
<path d="M59.3803 7.85315C40.1394 7.85315 32.4321 15.5639 32.4321 34.8013V363.723C32.4321 382.96 40.1394 390.671 59.3803 390.671H186.422C204.893 390.671 213.37 382.189 213.37 363.723V34.8013C213.37 15.5639 205.662 7.85315 186.422 7.85315H59.3803Z" fill="black"/>
</g>
<g clip-path="url(#clip1)">
<g filter="url(#filter5_i)">
<path fill-rule="evenodd" clip-rule="evenodd" d="M113.287 398.217C118.499 398.217 129.266 398.217 134.522 398.217C134.567 398.217 134.612 398.217 134.656 398.218C135.933 398.228 135.808 398.989 134.531 398.989H113.278C112.001 398.989 111.876 398.228 113.153 398.218C113.197 398.217 113.242 398.217 113.287 398.217Z" fill="#343434"/>
</g>
</g>
<rect opacity="0.602808" x="24.4219" y="38.1898" width="3.38777" height="2.77181" fill="black"/>
<rect opacity="0.602808" x="217.989" y="38.1891" width="3.38777" height="2.77181" fill="black"/>
<rect opacity="0.602808" x="24.4229" y="357.871" width="3.38777" height="2.77181" fill="black"/>
<rect opacity="0.602808" x="217.989" y="357.871" width="3.38777" height="2.77181" fill="black"/>
<g opacity="0.801364" clip-path="url(#clip2)">
<rect x="110.97" y="14.3211" width="24.0224" height="3.23378" rx="1.61689" fill="#1D1C1C"/>
<mask id="mask0" mask-type="alpha" maskUnits="userSpaceOnUse" x="110" y="14" width="25" height="4">
<rect x="110.966" y="14.3211" width="24.0224" height="3.23378" rx="1.61689" fill="white"/>
</mask>
<g mask="url(#mask0)">
<path fill-rule="evenodd" clip-rule="evenodd" d="M110.966 14.3215H134.988V14.5415H110.966V14.3215ZM110.966 14.9815H134.989V15.2015H110.966V14.9815ZM134.989 15.6413H110.966V15.8613H134.989V15.6413ZM110.966 16.3013H134.989V16.5212H110.966V16.3013ZM134.989 16.9613H110.966V17.1812H134.989V16.9613Z" fill="black" fill-opacity="0.15"/>
<path fill-rule="evenodd" clip-rule="evenodd" d="M110.966 14.7832H134.988V15.0032H110.966V14.7832ZM110.966 15.4429H134.989V15.6629H110.966V15.4429ZM134.989 16.1029H110.966V16.3229H134.989V16.1029ZM110.966 16.7629H134.989V16.9829H110.966V16.7629ZM134.989 17.4229H110.966V17.6429H134.989V17.4229Z" fill="white" fill-opacity="0.03"/>
<path fill-rule="evenodd" clip-rule="evenodd" d="M111.991 14.1011H112.248V17.8409H111.991V14.1011ZM111.221 14.1013H111.478V17.8411H111.221V14.1013ZM113.02 14.1011H112.763V17.8409H113.02V14.1011ZM113.532 14.1011H113.79V17.8409H113.532V14.1011ZM114.563 14.1011H114.306V17.8409H114.563V14.1011ZM115.079 14.1011H115.336V17.8409H115.079V14.1011ZM116.105 14.1011H115.848V17.8409H116.105V14.1011ZM116.618 14.1011H116.875V17.8409H116.618V14.1011ZM117.645 14.1011H117.388V17.8409H117.645V14.1011ZM118.161 14.1011H118.418V17.8409H118.161V14.1011ZM119.191 14.1011H118.934V17.8409H119.191V14.1011ZM119.703 14.1011H119.96V17.8409H119.703V14.1011ZM120.729 14.1011H120.472V17.8409H120.729V14.1011ZM121.245 14.1011H121.502V17.8409H121.245V14.1011ZM122.271 14.1011H122.014V17.8409H122.271V14.1011ZM122.787 14.1011H123.044V17.8409H122.787V14.1011ZM123.814 14.1011H123.557V17.8409H123.814V14.1011ZM124.33 14.1011H124.587V17.8409H124.33V14.1011ZM125.356 14.1011H125.099V17.8409H125.356V14.1011ZM125.869 14.1011H126.126V17.8409H125.869V14.1011ZM126.899 14.1011H126.642V17.8409H126.899V14.1011ZM127.412 14.1011H127.669V17.8409H127.412V14.1011ZM128.441 14.1011H128.184V17.8409H128.441V14.1011ZM128.953 14.1011H129.21V17.8409H128.953V14.1011ZM129.983 14.1011H129.726V17.8409H129.983V14.1011ZM130.499 14.1011H130.756V17.8409H130.499V14.1011ZM131.526 14.1011H131.269V17.8409H131.526V14.1011ZM132.041 14.1011H132.299V17.8409H132.041V14.1011ZM133.065 14.1011H132.808V17.8409H133.065V14.1011ZM133.581 14.1011H133.838V17.8409H133.581V14.1011ZM134.611 14.1011H134.353V17.8409H134.611V14.1011Z" fill="black" fill-opacity="0.15"/>
<path fill-rule="evenodd" clip-rule="evenodd" d="M115.644 14.1011H115.387V17.8409H115.644V14.1011ZM111.532 14.1011H111.789V17.8409H111.532V14.1011ZM110.762 14.1014H111.019V17.8412H110.762V14.1014ZM112.562 14.1011H112.305V17.8409H112.562V14.1011ZM113.071 14.1011H113.328V17.8409H113.071V14.1011ZM114.101 14.1011H113.844V17.8409H114.101V14.1011ZM114.613 14.1011H114.87V17.8409H114.613V14.1011ZM116.159 14.1011H116.416V17.8409H116.159V14.1011ZM117.186 14.1011H116.929V17.8409H117.186V14.1011ZM117.701 14.1011H117.958V17.8409H117.701V14.1011ZM118.727 14.1011H118.47V17.8409H118.727V14.1011ZM119.241 14.1011H119.498V17.8409H119.241V14.1011ZM120.27 14.1011H120.013V17.8409H120.27V14.1011ZM120.786 14.1011H121.043V17.8409H120.786V14.1011ZM121.81 14.1011H121.552V17.8409H121.81V14.1011ZM122.325 14.1011H122.582V17.8409H122.325V14.1011ZM123.352 14.1011H123.095V17.8409H123.352V14.1011ZM123.868 14.1011H124.125V17.8409H123.868V14.1011ZM124.898 14.1011H124.641V17.8409H124.898V14.1011ZM125.41 14.1011H125.667V17.8409H125.41V14.1011ZM126.44 14.1011H126.182V17.8409H126.44V14.1011ZM126.955 14.1011H127.212V17.8409H126.955V14.1011ZM127.985 14.1011H127.728V17.8409H127.985V14.1011ZM128.498 14.1011H128.755V17.8409H128.498V14.1011ZM129.528 14.1011H129.271V17.8409H129.528V14.1011ZM130.037 14.1011H130.294V17.8409H130.037V14.1011ZM131.064 14.1011H130.807V17.8409H131.064V14.1011ZM131.579 14.1011H131.836V17.8409H131.579V14.1011ZM132.61 14.1011H132.353V17.8409H132.61V14.1011ZM133.122 14.1011H133.379V17.8409H133.122V14.1011ZM134.152 14.1011H133.895V17.8409H134.152V14.1011Z" fill="white" fill-opacity="0.03"/>
</g>
<g opacity="0.244441" filter="url(#filter6_iii)">
<rect x="110.97" y="14.3211" width="24.0224" height="3.23378" rx="1.61689" fill="black" fill-opacity="0.01"/>
</g>
<mask id="mask1" mask-type="alpha" maskUnits="userSpaceOnUse" x="110" y="14" width="25" height="4">
<rect x="110.97" y="14.3211" width="24.0224" height="3.23378" rx="1.61689" fill="white"/>
</mask>
<g mask="url(#mask1)">
</g>
</g>
<g clip-path="url(#clip3)">
<path fill-rule="evenodd" clip-rule="evenodd" d="M144.074 18.787C145.69 18.787 147 17.477 147 15.8612C147 14.2453 145.69 12.9354 144.074 12.9354C142.458 12.9354 141.148 14.2453 141.148 15.8612C141.148 17.477 142.458 18.787 144.074 18.787Z" fill="url(#paint8_radial)"/>
<g opacity="0.387535" filter="url(#filter7_dd)">
<path fill-rule="evenodd" clip-rule="evenodd" d="M144.071 17.401C144.922 17.401 145.611 16.7115 145.611 15.8611C145.611 15.0106 144.922 14.3212 144.071 14.3212C143.221 14.3212 142.531 15.0106 142.531 15.8611C142.531 16.7115 143.221 17.401 144.071 17.401Z" fill="url(#paint9_radial)"/>
</g>
<mask id="mask2" mask-type="alpha" maskUnits="userSpaceOnUse" x="142" y="14" width="4" height="4">
<path fill-rule="evenodd" clip-rule="evenodd" d="M144.071 17.401C144.922 17.401 145.611 16.7115 145.611 15.8611C145.611 15.0106 144.922 14.3212 144.071 14.3212C143.221 14.3212 142.531 15.0106 142.531 15.8611C142.531 16.7115 143.221 17.401 144.071 17.401Z" fill="white"/>
</mask>
<g mask="url(#mask2)">
<g filter="url(#filter8_f)">
<path fill-rule="evenodd" clip-rule="evenodd" d="M142.616 15.0831C142.787 14.3973 143.278 13.8553 142.909 13.7632C142.54 13.6712 142.452 13.6742 141.913 14.9774C141.373 16.2806 141.991 16.8224 142.36 16.9145C142.729 17.0065 142.445 15.7688 142.616 15.0831Z" fill="#3E89CC"/>
</g>
<g filter="url(#filter9_f)">
<path fill-rule="evenodd" clip-rule="evenodd" d="M145.304 16.631C145.815 16.631 146.228 16.1139 146.228 15.4761C146.228 14.8382 145.815 14.3212 145.304 14.3212C144.794 14.3212 144.38 14.8382 144.38 15.4761C144.38 16.1139 144.794 16.631 145.304 16.631Z" fill="#1C5894"/>
</g>
<g filter="url(#filter10_f)">
<path fill-rule="evenodd" clip-rule="evenodd" d="M144.645 17.9117C145.372 17.7031 145.851 17.1491 145.715 16.6744C145.579 16.1997 144.879 15.9839 144.152 16.1925C143.424 16.4011 142.945 16.955 143.081 17.4298C143.217 17.9045 143.917 18.1203 144.645 17.9117Z" fill="#0A152B"/>
</g>
<g style="mix-blend-mode:hue">
<rect x="141.938" y="14.0522" width="5.33333" height="5.33333" fill="#C4C4C4"/>
</g>
</g>
</g>
<mask id="mask3" mask-type="alpha" maskUnits="userSpaceOnUse" x="37" y="12" width="174" height="376">
<path fill-rule="evenodd" clip-rule="evenodd" d="M171.895 16.0037V16.1577C171.895 20.4377 168.629 25.8591 161.115 25.8591H86.2766C78.7629 25.8591 75.4974 20.4377 75.4974 16.1577V16.0037C75.4974 14.0242 75.4974 12 71.9556 12H57.0186C44.5355 12 37 19.5355 37 32.0186V367.1C37 379.583 44.5355 387.118 57.0186 387.118H190.219C202.703 387.118 210.238 379.583 210.238 367.1V32.0186C210.238 19.5355 202.703 12 190.219 12H175.437C171.895 12 171.895 14.0242 171.895 16.0037Z" fill="white"/>
</mask>
<g mask="url(#mask3)">
<g clip-path="url(#clip4)">
<rect width="175" height="378" transform="translate(36 10.9998)" fill="#344A5D"/>
<rect width="175" height="378" transform="translate(36 11)" fill="#F9F9F9"/>
<path d="M164.242 90.3724C177.116 112.678 169.124 141.402 146.888 154.244C124.652 167.085 99.7502 161.396 86.876 139.091C83.3793 133.033 77.8321 124.535 77.238 118.002C75.6449 100.48 84.0704 82.8233 100.267 73.4696C122.503 60.628 151.368 68.0673 164.242 90.3724Z" fill="#BABFBF"/>
<path d="M164.181 90.0021C177.003 112.387 169.393 141.011 147.183 153.936C124.462 167.158 101.368 158.71 91.3846 141.281C85.2322 130.541 77.9443 123.433 77.6867 117.368C76.9413 99.8114 84.651 82.2406 100.749 72.8724C122.959 59.9478 151.358 67.617 164.181 90.0021Z" fill="#D3DADA"/>
<path d="M164.139 89.9349C177.001 112.21 169.442 140.65 147.254 153.457C124.556 166.56 105.409 157.984 95.3948 140.642C89.223 129.954 78.1809 127.992 77.691 116.982C76.9143 99.5292 84.5928 82.077 100.675 72.7935C122.863 59.9857 151.276 67.6602 164.139 89.9349Z" fill="#E6ECEC"/>
<path d="M164.138 90.1269C176.993 112.575 169.453 141.229 147.298 154.126C124.633 167.32 109.531 158.227 99.5229 140.748C93.3551 129.977 79.0889 132.32 77.8091 117.348C76.3097 99.807 84.6897 82.1804 100.748 72.8322C122.903 59.9352 151.284 67.6783 164.138 90.1269Z" fill="#FCFCFC"/>
<path d="M164.145 89.7605C176.993 112.155 169.445 140.746 147.286 153.62C124.616 166.791 110.877 154.499 102.385 139.699C96.22 128.953 81.0136 135.085 77.8042 116.945C76.3096 99.4438 84.9276 82.2601 100.99 72.9283C123.149 60.054 151.296 67.3661 164.145 89.7605Z" fill="#EAE8EB"/>
<path d="M163.348 90.6061C176.193 112.914 169.442 140.934 147.28 153.764C123.403 167.586 112.156 148.516 105.539 138.883C100.515 131.57 81.0098 135.31 77.8035 117.24C76.312 99.8042 84.9332 82.6835 100.997 73.3839C123.159 60.554 150.503 68.2982 163.348 90.6061Z" fill="#D6D1D8"/>
<path d="M163.355 90.7219C176.193 113.148 169.434 141.324 147.267 154.231C124.591 167.435 113.813 147.453 108.436 139.214C103.058 130.975 80.5698 135.408 77.8023 117.528C76.3163 99.9977 84.9428 82.7805 101.01 73.425C123.176 60.5179 150.517 68.2959 163.355 90.7219Z" fill="#AFA7B1"/>
<path d="M164.669 89.2663C177.747 112.009 169.886 141.398 147.337 154.469C124.788 167.54 117.233 146.424 109.38 137.215C101.859 128.397 80.0011 133.45 76.6258 117.219C73.2506 100.988 83.871 81.9976 100.215 72.5232C122.764 59.4522 151.591 66.5238 164.669 89.2663Z" fill="#3F3C44"/>
<path d="M67.7731 188.8C67.9225 188.8 68.0398 188.848 68.1251 188.944C68.2211 189.029 68.2691 189.147 68.2691 189.296V199.504C68.2585 199.653 68.2051 199.776 68.1091 199.872C68.0131 199.957 67.8958 200 67.7571 200C67.6185 200 67.5011 199.952 67.4051 199.856C67.3091 199.76 67.2611 199.643 67.2611 199.504V194.736H60.7651V199.504C60.7545 199.643 60.7011 199.76 60.6051 199.856C60.5091 199.952 60.3918 200 60.2531 200C60.1038 200 59.9811 199.957 59.8851 199.872C59.7998 199.776 59.7571 199.653 59.7571 199.504V189.296C59.7571 189.147 59.8051 189.029 59.9011 188.944C59.9971 188.848 60.1198 188.8 60.2691 188.8C60.4078 188.8 60.5251 188.848 60.6211 188.944C60.7171 189.04 60.7651 189.157 60.7651 189.296V193.808H67.2611V189.296C67.2611 189.157 67.3091 189.04 67.4051 188.944C67.5118 188.848 67.6345 188.8 67.7731 188.8ZM71.5608 199.52C71.5608 199.659 71.5128 199.776 71.4168 199.872C71.3314 199.957 71.2194 200 71.0808 200C70.9421 200 70.8248 199.957 70.7288 199.872C70.6434 199.776 70.6008 199.659 70.6008 199.52V192.16C70.6008 192.021 70.6434 191.909 70.7288 191.824C70.8248 191.728 70.9421 191.68 71.0808 191.68C71.2194 191.68 71.3314 191.728 71.4168 191.824C71.5128 191.909 71.5608 192.021 71.5608 192.16V199.52ZM71.0808 190.608C70.8674 190.608 70.7021 190.56 70.5848 190.464C70.4674 190.357 70.4088 190.208 70.4088 190.016V189.856C70.4088 189.664 70.4674 189.52 70.5848 189.424C70.7128 189.317 70.8834 189.264 71.0968 189.264C71.5234 189.264 71.7368 189.461 71.7368 189.856V190.016C71.7368 190.208 71.6781 190.357 71.5608 190.464C71.4541 190.56 71.2941 190.608 71.0808 190.608ZM79.2296 192.752V198.112C79.2296 198.517 79.3043 198.795 79.4536 198.944C79.603 199.083 79.8003 199.152 80.0456 199.152C80.1096 199.152 80.1896 199.141 80.2856 199.12C80.3816 199.088 80.4563 199.072 80.5096 199.072C80.6056 199.072 80.6856 199.115 80.7496 199.2C80.8243 199.275 80.8616 199.365 80.8616 199.472C80.8616 199.621 80.7763 199.749 80.6056 199.856C80.435 199.952 80.2323 200 79.9976 200C79.7096 200 79.4536 199.973 79.2296 199.92C79.0056 199.867 78.787 199.707 78.5736 199.44C78.371 199.173 78.2696 198.747 78.2696 198.16V192.752H77.1016C76.9736 192.752 76.8616 192.709 76.7656 192.624C76.6803 192.539 76.6376 192.432 76.6376 192.304C76.6376 192.176 76.6803 192.069 76.7656 191.984C76.8616 191.899 76.9736 191.856 77.1016 191.856H78.2696V190.08C78.2696 189.941 78.3123 189.829 78.3976 189.744C78.4936 189.648 78.611 189.6 78.7496 189.6C78.8883 189.6 79.0003 189.648 79.0856 189.744C79.1816 189.829 79.2296 189.941 79.2296 190.08V191.856H80.8296C80.947 191.856 81.0483 191.904 81.1336 192C81.2296 192.096 81.2776 192.203 81.2776 192.32C81.2776 192.448 81.235 192.555 81.1496 192.64C81.0643 192.715 80.9576 192.752 80.8296 192.752H79.2296ZM86.3795 191.76C87.3395 191.76 88.0542 192.064 88.5235 192.672C88.9928 193.269 89.2275 194.043 89.2275 194.992V199.52C89.2275 199.659 89.1795 199.776 89.0835 199.872C88.9982 199.957 88.8862 200 88.7475 200C88.6088 200 88.4915 199.957 88.3955 199.872C88.3102 199.776 88.2675 199.659 88.2675 199.52V194.992C88.2675 194.299 88.1022 193.739 87.7715 193.312C87.4408 192.875 86.9235 192.656 86.2195 192.656C85.7715 192.656 85.3448 192.763 84.9395 192.976C84.5448 193.189 84.2248 193.477 83.9795 193.84C83.7342 194.192 83.6115 194.576 83.6115 194.992V199.52C83.6115 199.659 83.5635 199.776 83.4675 199.872C83.3822 199.957 83.2702 200 83.1315 200C82.9928 200 82.8755 199.957 82.7795 199.872C82.6942 199.776 82.6515 199.659 82.6515 199.52V188.64C82.6515 188.501 82.6942 188.389 82.7795 188.304C82.8755 188.208 82.9928 188.16 83.1315 188.16C83.2702 188.16 83.3822 188.208 83.4675 188.304C83.5635 188.389 83.6115 188.501 83.6115 188.64V193.328C83.8995 192.869 84.2995 192.496 84.8115 192.208C85.3235 191.909 85.8462 191.76 86.3795 191.76ZM98.2573 195.44C98.2573 195.568 98.2093 195.68 98.1133 195.776C98.0173 195.861 97.9053 195.904 97.7773 195.904H91.7293C91.7293 196.544 91.8573 197.12 92.1133 197.632C92.3799 198.133 92.7533 198.533 93.2333 198.832C93.7239 199.12 94.2999 199.264 94.9613 199.264C95.4733 199.264 95.9319 199.157 96.3373 198.944C96.7426 198.731 97.0679 198.459 97.3133 198.128C97.4306 198.032 97.5426 197.984 97.6493 197.984C97.7559 197.984 97.8519 198.027 97.9373 198.112C98.0226 198.197 98.0653 198.293 98.0653 198.4C98.0653 198.517 98.0119 198.629 97.9053 198.736C97.5639 199.152 97.1319 199.493 96.6093 199.76C96.0973 200.027 95.5533 200.16 94.9773 200.16C94.1559 200.16 93.4306 199.984 92.8013 199.632C92.1719 199.28 91.6813 198.789 91.3293 198.16C90.9773 197.52 90.8013 196.784 90.8013 195.952C90.8013 195.077 90.9719 194.315 91.3133 193.664C91.6653 193.003 92.1293 192.501 92.7053 192.16C93.2813 191.808 93.8946 191.632 94.5453 191.632C95.1853 191.632 95.7826 191.781 96.3373 192.08C96.9026 192.379 97.3613 192.816 97.7133 193.392C98.0653 193.968 98.2466 194.651 98.2573 195.44ZM94.5453 192.56C93.9266 192.56 93.3506 192.773 92.8173 193.2C92.2946 193.627 91.9586 194.24 91.8093 195.04H97.2653V194.912C97.2119 194.432 97.0519 194.016 96.7853 193.664C96.5186 193.301 96.1826 193.029 95.7773 192.848C95.3826 192.656 94.9719 192.56 94.5453 192.56ZM103.66 191.632C103.873 191.632 104.065 191.675 104.236 191.76C104.407 191.845 104.492 191.973 104.492 192.144C104.492 192.293 104.449 192.416 104.364 192.512C104.279 192.597 104.177 192.64 104.06 192.64C104.007 192.64 103.9 192.613 103.74 192.56C103.591 192.507 103.447 192.48 103.308 192.48C102.913 192.48 102.519 192.635 102.124 192.944C101.74 193.243 101.42 193.632 101.164 194.112C100.919 194.592 100.796 195.077 100.796 195.568V199.52C100.796 199.659 100.748 199.776 100.652 199.872C100.567 199.957 100.455 200 100.316 200C100.177 200 100.06 199.957 99.9639 199.872C99.8785 199.776 99.8359 199.659 99.8359 199.52V192.352C99.8359 192.213 99.8785 192.101 99.9639 192.016C100.06 191.92 100.177 191.872 100.316 191.872C100.455 191.872 100.567 191.92 100.652 192.016C100.748 192.101 100.796 192.213 100.796 192.352V193.76C101.041 193.152 101.409 192.651 101.9 192.256C102.401 191.851 102.988 191.643 103.66 191.632ZM112.145 195.44C112.145 195.568 112.097 195.68 112.001 195.776C111.905 195.861 111.793 195.904 111.665 195.904H105.617C105.617 196.544 105.745 197.12 106.001 197.632C106.267 198.133 106.641 198.533 107.121 198.832C107.611 199.12 108.187 199.264 108.849 199.264C109.361 199.264 109.819 199.157 110.225 198.944C110.63 198.731 110.955 198.459 111.201 198.128C111.318 198.032 111.43 197.984 111.537 197.984C111.643 197.984 111.739 198.027 111.825 198.112C111.91 198.197 111.953 198.293 111.953 198.4C111.953 198.517 111.899 198.629 111.793 198.736C111.451 199.152 111.019 199.493 110.497 199.76C109.985 200.027 109.441 200.16 108.865 200.16C108.043 200.16 107.318 199.984 106.689 199.632C106.059 199.28 105.569 198.789 105.217 198.16C104.865 197.52 104.689 196.784 104.689 195.952C104.689 195.077 104.859 194.315 105.201 193.664C105.553 193.003 106.017 192.501 106.593 192.16C107.169 191.808 107.782 191.632 108.433 191.632C109.073 191.632 109.67 191.781 110.225 192.08C110.79 192.379 111.249 192.816 111.601 193.392C111.953 193.968 112.134 194.651 112.145 195.44ZM108.433 192.56C107.814 192.56 107.238 192.773 106.705 193.2C106.182 193.627 105.846 194.24 105.697 195.04H111.153V194.912C111.099 194.432 110.939 194.016 110.673 193.664C110.406 193.301 110.07 193.029 109.665 192.848C109.27 192.656 108.859 192.56 108.433 192.56ZM113.947 196.864C113.755 196.864 113.643 196.752 113.611 196.528L113.435 189.456C113.435 189.253 113.478 189.093 113.563 188.976C113.649 188.859 113.777 188.8 113.947 188.8C114.118 188.8 114.246 188.864 114.331 188.992C114.417 189.109 114.454 189.264 114.443 189.456L114.267 196.528C114.257 196.752 114.15 196.864 113.947 196.864ZM113.899 200C113.707 200 113.563 199.947 113.467 199.84C113.371 199.733 113.323 199.584 113.323 199.392V199.04C113.323 198.848 113.371 198.699 113.467 198.592C113.563 198.485 113.707 198.432 113.899 198.432H113.995C114.177 198.432 114.315 198.485 114.411 198.592C114.507 198.699 114.555 198.848 114.555 199.04V199.392C114.555 199.584 114.507 199.733 114.411 199.84C114.315 199.947 114.177 200 113.995 200H113.899ZM121.5 199.504C121.489 199.643 121.436 199.76 121.34 199.856C121.244 199.952 121.126 200 120.988 200C120.838 200 120.716 199.957 120.62 199.872C120.534 199.776 120.492 199.653 120.492 199.504V189.296C120.492 189.147 120.54 189.029 120.636 188.944C120.732 188.848 120.854 188.8 121.004 188.8C121.142 188.8 121.26 188.848 121.356 188.944C121.452 189.04 121.5 189.157 121.5 189.296V199.504ZM123.708 189.216C123.74 188.939 123.894 188.8 124.172 188.8H124.7C124.902 188.821 125.004 188.917 125.004 189.088C125.004 189.109 124.993 189.163 124.972 189.248L123.948 192.704C123.884 192.928 123.734 193.04 123.5 193.04C123.425 193.04 123.366 193.003 123.324 192.928C123.292 192.853 123.281 192.752 123.292 192.624L123.708 189.216ZM135.825 191.76C136.785 191.76 137.489 192.059 137.937 192.656C138.396 193.243 138.625 194.021 138.625 194.992V199.52C138.625 199.659 138.577 199.776 138.481 199.872C138.396 199.957 138.284 200 138.145 200C138.007 200 137.889 199.957 137.793 199.872C137.708 199.776 137.665 199.659 137.665 199.52V195.04C137.665 194.336 137.495 193.765 137.153 193.328C136.823 192.88 136.305 192.656 135.601 192.656C135.153 192.656 134.727 192.763 134.321 192.976C133.927 193.189 133.607 193.483 133.361 193.856C133.116 194.219 132.993 194.613 132.993 195.04V199.52C132.993 199.659 132.945 199.776 132.849 199.872C132.764 199.957 132.652 200 132.513 200C132.375 200 132.257 199.957 132.161 199.872C132.076 199.776 132.033 199.659 132.033 199.52V194.992C132.033 194.299 131.873 193.739 131.553 193.312C131.233 192.875 130.732 192.656 130.049 192.656C129.612 192.656 129.196 192.763 128.801 192.976C128.417 193.189 128.103 193.477 127.857 193.84C127.623 194.192 127.505 194.576 127.505 194.992V199.52C127.505 199.659 127.457 199.776 127.361 199.872C127.276 199.957 127.164 200 127.025 200C126.887 200 126.769 199.957 126.673 199.872C126.588 199.776 126.545 199.659 126.545 199.52V192.352C126.545 192.213 126.588 192.101 126.673 192.016C126.769 191.92 126.887 191.872 127.025 191.872C127.164 191.872 127.276 191.92 127.361 192.016C127.457 192.101 127.505 192.213 127.505 192.352V193.28C127.793 192.843 128.183 192.48 128.673 192.192C129.164 191.904 129.681 191.76 130.225 191.76C130.844 191.76 131.377 191.909 131.825 192.208C132.273 192.507 132.593 192.944 132.785 193.52C133.009 193.051 133.42 192.64 134.017 192.288C134.615 191.936 135.217 191.76 135.825 191.76ZM154.714 188.8C154.842 188.8 154.949 188.848 155.034 188.944C155.13 189.029 155.178 189.141 155.178 189.28V199.52C155.178 199.659 155.13 199.776 155.034 199.872C154.938 199.957 154.821 200 154.682 200C154.533 200 154.41 199.957 154.314 199.872C154.218 199.776 154.17 199.659 154.17 199.52V190.72L150.41 196.416C150.303 196.555 150.181 196.619 150.042 196.608H150.01C149.882 196.608 149.765 196.544 149.658 196.416L145.898 190.688V199.52C145.898 199.659 145.85 199.776 145.754 199.872C145.669 199.957 145.557 200 145.418 200C145.279 200 145.167 199.957 145.082 199.872C144.997 199.776 144.954 199.659 144.954 199.52V189.28C144.954 189.152 144.997 189.04 145.082 188.944C145.178 188.848 145.295 188.8 145.434 188.8C145.509 188.8 145.589 188.821 145.674 188.864C145.759 188.896 145.823 188.944 145.866 189.008L150.058 195.296L154.282 189.008C154.399 188.848 154.543 188.779 154.714 188.8ZM164.188 191.824C164.327 191.824 164.439 191.872 164.524 191.968C164.62 192.064 164.668 192.181 164.668 192.32V199.52C164.668 199.659 164.62 199.776 164.524 199.872C164.439 199.957 164.327 200 164.188 200C164.05 200 163.932 199.957 163.836 199.872C163.751 199.776 163.708 199.659 163.708 199.52V198.448C163.442 198.928 163.042 199.333 162.508 199.664C161.975 199.995 161.394 200.16 160.764 200.16C160.05 200.16 159.404 199.973 158.828 199.6C158.263 199.227 157.815 198.715 157.484 198.064C157.164 197.413 157.004 196.683 157.004 195.872C157.004 195.061 157.17 194.336 157.5 193.696C157.831 193.045 158.279 192.539 158.844 192.176C159.42 191.813 160.055 191.632 160.748 191.632C161.388 191.632 161.975 191.787 162.508 192.096C163.042 192.405 163.442 192.811 163.708 193.312V192.32C163.708 192.181 163.751 192.064 163.836 191.968C163.932 191.872 164.05 191.824 164.188 191.824ZM160.86 199.264C161.415 199.264 161.911 199.12 162.348 198.832C162.796 198.533 163.143 198.128 163.388 197.616C163.644 197.093 163.772 196.512 163.772 195.872C163.772 195.253 163.644 194.688 163.388 194.176C163.143 193.664 162.796 193.264 162.348 192.976C161.911 192.677 161.415 192.528 160.86 192.528C160.306 192.528 159.804 192.672 159.356 192.96C158.919 193.248 158.572 193.648 158.316 194.16C158.071 194.661 157.948 195.232 157.948 195.872C157.948 196.512 158.071 197.093 158.316 197.616C158.562 198.128 158.903 198.533 159.34 198.832C159.788 199.12 160.295 199.264 160.86 199.264ZM166.309 198.704C166.224 198.565 166.181 198.448 166.181 198.352C166.181 198.213 166.251 198.107 166.389 198.032C166.453 197.968 166.539 197.936 166.645 197.936C166.773 197.936 166.891 197.989 166.997 198.096C167.627 198.928 168.464 199.344 169.509 199.344C170.021 199.344 170.464 199.227 170.837 198.992C171.221 198.747 171.413 198.395 171.413 197.936C171.413 197.488 171.237 197.152 170.885 196.928C170.533 196.704 170.043 196.512 169.413 196.352C168.528 196.128 167.835 195.84 167.333 195.488C166.832 195.125 166.581 194.597 166.581 193.904C166.581 193.467 166.704 193.077 166.949 192.736C167.195 192.384 167.525 192.112 167.941 191.92C168.368 191.728 168.848 191.632 169.381 191.632C169.84 191.632 170.299 191.723 170.757 191.904C171.227 192.075 171.627 192.352 171.957 192.736C172.053 192.811 172.101 192.917 172.101 193.056C172.101 193.184 172.048 193.296 171.941 193.392C171.867 193.456 171.771 193.488 171.653 193.488C171.547 193.488 171.451 193.445 171.365 193.36C171.109 193.072 170.805 192.853 170.453 192.704C170.101 192.555 169.723 192.48 169.317 192.48C168.816 192.48 168.384 192.597 168.021 192.832C167.669 193.067 167.493 193.419 167.493 193.888C167.515 194.315 167.707 194.64 168.069 194.864C168.443 195.088 168.987 195.291 169.701 195.472C170.256 195.611 170.715 195.765 171.077 195.936C171.44 196.107 171.733 196.347 171.957 196.656C172.192 196.965 172.309 197.376 172.309 197.888C172.309 198.581 172.032 199.136 171.477 199.552C170.923 199.957 170.235 200.16 169.413 200.16C168.112 200.16 167.077 199.675 166.309 198.704ZM174.929 199.52C174.929 199.659 174.881 199.776 174.785 199.872C174.7 199.957 174.588 200 174.449 200C174.311 200 174.193 199.957 174.097 199.872C174.012 199.776 173.969 199.659 173.969 199.52V188.64C173.969 188.501 174.012 188.389 174.097 188.304C174.193 188.208 174.311 188.16 174.449 188.16C174.588 188.16 174.7 188.208 174.785 188.304C174.881 188.389 174.929 188.501 174.929 188.64V199.52ZM184.557 195.904C184.557 196.704 184.381 197.429 184.029 198.08C183.677 198.731 183.191 199.243 182.573 199.616C181.954 199.979 181.266 200.16 180.509 200.16C179.751 200.16 179.063 199.979 178.445 199.616C177.826 199.243 177.341 198.731 176.989 198.08C176.637 197.429 176.461 196.704 176.461 195.904C176.461 195.104 176.637 194.379 176.989 193.728C177.341 193.077 177.826 192.565 178.445 192.192C179.063 191.819 179.751 191.632 180.509 191.632C181.266 191.632 181.954 191.819 182.573 192.192C183.191 192.565 183.677 193.077 184.029 193.728C184.381 194.379 184.557 195.104 184.557 195.904ZM183.597 195.904C183.597 195.264 183.463 194.688 183.197 194.176C182.93 193.664 182.557 193.264 182.077 192.976C181.607 192.677 181.085 192.528 180.509 192.528C179.933 192.528 179.41 192.677 178.941 192.976C178.471 193.264 178.098 193.664 177.821 194.176C177.554 194.688 177.421 195.264 177.421 195.904C177.421 196.533 177.554 197.104 177.821 197.616C178.098 198.128 178.471 198.533 178.941 198.832C179.41 199.12 179.933 199.264 180.509 199.264C181.085 199.264 181.607 199.12 182.077 198.832C182.557 198.544 182.93 198.144 183.197 197.632C183.463 197.12 183.597 196.544 183.597 195.904ZM186.248 200C186.067 200 185.928 199.947 185.832 199.84C185.736 199.723 185.688 199.568 185.688 199.376V199.04C185.688 198.848 185.736 198.699 185.832 198.592C185.928 198.485 186.067 198.432 186.248 198.432H186.36C186.542 198.432 186.68 198.485 186.776 198.592C186.872 198.699 186.92 198.848 186.92 199.04V199.376C186.92 199.568 186.872 199.723 186.776 199.84C186.68 199.947 186.542 200 186.36 200H186.248ZM74.5601 217.056C74.6987 217.056 74.8107 217.099 74.8961 217.184C74.9921 217.269 75.0401 217.381 75.0401 217.52C75.0401 217.659 74.9921 217.776 74.8961 217.872C74.8107 217.957 74.6987 218 74.5601 218H68.8481C68.7094 218 68.5921 217.957 68.4961 217.872C68.4107 217.776 68.3681 217.659 68.3681 217.52V207.28C68.3681 207.141 68.4161 207.029 68.5121 206.944C68.6081 206.848 68.7307 206.8 68.8801 206.8C69.0187 206.8 69.1361 206.848 69.2321 206.944C69.3281 207.029 69.3761 207.141 69.3761 207.28V217.056H74.5601ZM83.1557 213.44C83.1557 213.568 83.1077 213.68 83.0117 213.776C82.9157 213.861 82.8037 213.904 82.6757 213.904H76.6277C76.6277 214.544 76.7557 215.12 77.0117 215.632C77.2784 216.133 77.6517 216.533 78.1317 216.832C78.6224 217.12 79.1984 217.264 79.8597 217.264C80.3717 217.264 80.8304 217.157 81.2357 216.944C81.641 216.731 81.9664 216.459 82.2117 216.128C82.329 216.032 82.441 215.984 82.5477 215.984C82.6544 215.984 82.7504 216.027 82.8357 216.112C82.921 216.197 82.9637 216.293 82.9637 216.4C82.9637 216.517 82.9104 216.629 82.8037 216.736C82.4624 217.152 82.0304 217.493 81.5077 217.76C80.9957 218.027 80.4517 218.16 79.8757 218.16C79.0544 218.16 78.329 217.984 77.6997 217.632C77.0704 217.28 76.5797 216.789 76.2277 216.16C75.8757 215.52 75.6997 214.784 75.6997 213.952C75.6997 213.077 75.8704 212.315 76.2117 211.664C76.5637 211.003 77.0277 210.501 77.6037 210.16C78.1797 209.808 78.793 209.632 79.4437 209.632C80.0837 209.632 80.681 209.781 81.2357 210.08C81.801 210.379 82.2597 210.816 82.6117 211.392C82.9637 211.968 83.145 212.651 83.1557 213.44ZM79.4437 210.56C78.825 210.56 78.249 210.773 77.7157 211.2C77.193 211.627 76.857 212.24 76.7077 213.04H82.1637V212.912C82.1104 212.432 81.9504 212.016 81.6837 211.664C81.417 211.301 81.081 211.029 80.6757 210.848C80.281 210.656 79.8704 210.56 79.4437 210.56ZM86.3343 210.752V216.112C86.3343 216.517 86.409 216.795 86.5583 216.944C86.7076 217.083 86.905 217.152 87.1503 217.152C87.2143 217.152 87.2943 217.141 87.3903 217.12C87.4863 217.088 87.561 217.072 87.6143 217.072C87.7103 217.072 87.7903 217.115 87.8543 217.2C87.929 217.275 87.9663 217.365 87.9663 217.472C87.9663 217.621 87.881 217.749 87.7103 217.856C87.5396 217.952 87.337 218 87.1023 218C86.8143 218 86.5583 217.973 86.3343 217.92C86.1103 217.867 85.8916 217.707 85.6783 217.44C85.4756 217.173 85.3743 216.747 85.3743 216.16V210.752H84.2063C84.0783 210.752 83.9663 210.709 83.8703 210.624C83.785 210.539 83.7423 210.432 83.7423 210.304C83.7423 210.176 83.785 210.069 83.8703 209.984C83.9663 209.899 84.0783 209.856 84.2063 209.856H85.3743V208.08C85.3743 207.941 85.417 207.829 85.5023 207.744C85.5983 207.648 85.7156 207.6 85.8543 207.6C85.993 207.6 86.105 207.648 86.1903 207.744C86.2863 207.829 86.3343 207.941 86.3343 208.08V209.856H87.9343C88.0516 209.856 88.153 209.904 88.2383 210C88.3343 210.096 88.3823 210.203 88.3823 210.32C88.3823 210.448 88.3396 210.555 88.2543 210.64C88.169 210.715 88.0623 210.752 87.9343 210.752H86.3343ZM90.9882 207.664C90.9882 207.963 90.9082 208.267 90.7482 208.576C90.5989 208.875 90.4069 209.125 90.1722 209.328C89.9375 209.52 89.7082 209.616 89.4842 209.616C89.3669 209.616 89.2655 209.589 89.1802 209.536C89.1055 209.472 89.0682 209.381 89.0682 209.264C89.0682 209.157 89.0949 209.083 89.1482 209.04C89.2015 208.997 89.2815 208.96 89.3882 208.928C89.5055 208.896 89.5909 208.864 89.6442 208.832C89.7935 208.757 89.9055 208.651 89.9802 208.512C90.0655 208.363 90.1082 208.203 90.1082 208.032C90.1082 207.915 90.0762 207.819 90.0122 207.744C89.9482 207.669 89.8629 207.632 89.7562 207.632C89.6069 207.632 89.4629 207.68 89.3242 207.776C89.1962 207.669 89.1322 207.541 89.1322 207.392C89.1322 207.211 89.2282 207.051 89.4202 206.912C89.6122 206.763 89.8202 206.688 90.0442 206.688C90.3215 206.688 90.5455 206.773 90.7162 206.944C90.8975 207.115 90.9882 207.355 90.9882 207.664ZM92.0016 216.704C91.9162 216.565 91.8736 216.448 91.8736 216.352C91.8736 216.213 91.9429 216.107 92.0816 216.032C92.1456 215.968 92.2309 215.936 92.3376 215.936C92.4656 215.936 92.5829 215.989 92.6896 216.096C93.3189 216.928 94.1562 217.344 95.2016 217.344C95.7136 217.344 96.1562 217.227 96.5296 216.992C96.9136 216.747 97.1056 216.395 97.1056 215.936C97.1056 215.488 96.9296 215.152 96.5776 214.928C96.2256 214.704 95.7349 214.512 95.1056 214.352C94.2202 214.128 93.5269 213.84 93.0256 213.488C92.5242 213.125 92.2736 212.597 92.2736 211.904C92.2736 211.467 92.3962 211.077 92.6416 210.736C92.8869 210.384 93.2176 210.112 93.6336 209.92C94.0602 209.728 94.5402 209.632 95.0736 209.632C95.5322 209.632 95.9909 209.723 96.4496 209.904C96.9189 210.075 97.3189 210.352 97.6496 210.736C97.7456 210.811 97.7936 210.917 97.7936 211.056C97.7936 211.184 97.7402 211.296 97.6336 211.392C97.5589 211.456 97.4629 211.488 97.3456 211.488C97.2389 211.488 97.1429 211.445 97.0576 211.36C96.8016 211.072 96.4976 210.853 96.1456 210.704C95.7936 210.555 95.4149 210.48 95.0096 210.48C94.5082 210.48 94.0762 210.597 93.7136 210.832C93.3616 211.067 93.1856 211.419 93.1856 211.888C93.2069 212.315 93.3989 212.64 93.7616 212.864C94.1349 213.088 94.6789 213.291 95.3936 213.472C95.9482 213.611 96.4069 213.765 96.7696 213.936C97.1322 214.107 97.4256 214.347 97.6496 214.656C97.8842 214.965 98.0016 215.376 98.0016 215.888C98.0016 216.581 97.7242 217.136 97.1696 217.552C96.6149 217.957 95.9269 218.16 95.1056 218.16C93.8042 218.16 92.7696 217.675 92.0016 216.704ZM110.453 209.824C110.591 209.824 110.703 209.872 110.789 209.968C110.885 210.053 110.933 210.171 110.933 210.32V217.248C110.933 218.08 110.757 218.789 110.405 219.376C110.063 219.973 109.589 220.427 108.981 220.736C108.383 221.045 107.695 221.2 106.917 221.2C106.543 221.2 106.149 221.152 105.733 221.056C105.327 220.96 104.975 220.837 104.677 220.688C104.389 220.539 104.223 220.384 104.181 220.224C104.106 220.149 104.069 220.064 104.069 219.968C104.069 219.861 104.117 219.776 104.213 219.712C104.255 219.68 104.309 219.664 104.373 219.664C104.437 219.664 104.559 219.701 104.741 219.776L105.077 219.92C105.738 220.176 106.357 220.304 106.933 220.304C107.882 220.304 108.623 220.032 109.157 219.488C109.701 218.955 109.973 218.229 109.973 217.312V216.32C109.706 216.896 109.285 217.349 108.709 217.68C108.133 218 107.53 218.16 106.901 218.16C106.165 218.16 105.498 217.979 104.901 217.616C104.314 217.243 103.85 216.731 103.509 216.08C103.167 215.429 102.997 214.699 102.997 213.888C102.997 213.088 103.167 212.363 103.509 211.712C103.85 211.061 104.314 210.555 104.901 210.192C105.498 209.819 106.159 209.632 106.885 209.632C107.557 209.632 108.17 209.803 108.725 210.144C109.29 210.475 109.706 210.875 109.973 211.344V210.32C109.973 210.181 110.015 210.064 110.101 209.968C110.197 209.872 110.314 209.824 110.453 209.824ZM106.981 217.264C107.567 217.264 108.09 217.125 108.549 216.848C109.018 216.56 109.381 216.16 109.637 215.648C109.903 215.125 110.037 214.539 110.037 213.888C110.037 213.237 109.903 212.656 109.637 212.144C109.381 211.632 109.018 211.237 108.549 210.96C108.09 210.672 107.567 210.528 106.981 210.528C106.405 210.528 105.882 210.677 105.413 210.976C104.954 211.264 104.591 211.664 104.325 212.176C104.069 212.688 103.941 213.259 103.941 213.888C103.941 214.528 104.069 215.104 104.325 215.616C104.591 216.128 104.954 216.533 105.413 216.832C105.882 217.12 106.405 217.264 106.981 217.264ZM119.662 213.44C119.662 213.568 119.614 213.68 119.518 213.776C119.422 213.861 119.31 213.904 119.182 213.904H113.134C113.134 214.544 113.262 215.12 113.518 215.632C113.785 216.133 114.158 216.533 114.638 216.832C115.129 217.12 115.705 217.264 116.366 217.264C116.878 217.264 117.337 217.157 117.742 216.944C118.147 216.731 118.473 216.459 118.718 216.128C118.835 216.032 118.947 215.984 119.054 215.984C119.161 215.984 119.257 216.027 119.342 216.112C119.427 216.197 119.47 216.293 119.47 216.4C119.47 216.517 119.417 216.629 119.31 216.736C118.969 217.152 118.537 217.493 118.014 217.76C117.502 218.027 116.958 218.16 116.382 218.16C115.561 218.16 114.835 217.984 114.206 217.632C113.577 217.28 113.086 216.789 112.734 216.16C112.382 215.52 112.206 214.784 112.206 213.952C112.206 213.077 112.377 212.315 112.718 211.664C113.07 211.003 113.534 210.501 114.11 210.16C114.686 209.808 115.299 209.632 115.95 209.632C116.59 209.632 117.187 209.781 117.742 210.08C118.307 210.379 118.766 210.816 119.118 211.392C119.47 211.968 119.651 212.651 119.662 213.44ZM115.95 210.56C115.331 210.56 114.755 210.773 114.222 211.2C113.699 211.627 113.363 212.24 113.214 213.04H118.67V212.912C118.617 212.432 118.457 212.016 118.19 211.664C117.923 211.301 117.587 211.029 117.182 210.848C116.787 210.656 116.377 210.56 115.95 210.56ZM122.841 210.752V216.112C122.841 216.517 122.915 216.795 123.065 216.944C123.214 217.083 123.411 217.152 123.657 217.152C123.721 217.152 123.801 217.141 123.897 217.12C123.993 217.088 124.067 217.072 124.121 217.072C124.217 217.072 124.297 217.115 124.361 217.2C124.435 217.275 124.473 217.365 124.473 217.472C124.473 217.621 124.387 217.749 124.217 217.856C124.046 217.952 123.843 218 123.609 218C123.321 218 123.065 217.973 122.841 217.92C122.617 217.867 122.398 217.707 122.185 217.44C121.982 217.173 121.881 216.747 121.881 216.16V210.752H120.713C120.585 210.752 120.473 210.709 120.377 210.624C120.291 210.539 120.249 210.432 120.249 210.304C120.249 210.176 120.291 210.069 120.377 209.984C120.473 209.899 120.585 209.856 120.713 209.856H121.881V208.08C121.881 207.941 121.923 207.829 122.009 207.744C122.105 207.648 122.222 207.6 122.361 207.6C122.499 207.6 122.611 207.648 122.697 207.744C122.793 207.829 122.841 207.941 122.841 208.08V209.856H124.441C124.558 209.856 124.659 209.904 124.745 210C124.841 210.096 124.889 210.203 124.889 210.32C124.889 210.448 124.846 210.555 124.761 210.64C124.675 210.715 124.569 210.752 124.441 210.752H122.841ZM129.773 216.704C129.688 216.565 129.645 216.448 129.645 216.352C129.645 216.213 129.715 216.107 129.853 216.032C129.917 215.968 130.003 215.936 130.109 215.936C130.237 215.936 130.355 215.989 130.461 216.096C131.091 216.928 131.928 217.344 132.973 217.344C133.485 217.344 133.928 217.227 134.301 216.992C134.685 216.747 134.877 216.395 134.877 215.936C134.877 215.488 134.701 215.152 134.349 214.928C133.997 214.704 133.507 214.512 132.877 214.352C131.992 214.128 131.299 213.84 130.797 213.488C130.296 213.125 130.045 212.597 130.045 211.904C130.045 211.467 130.168 211.077 130.413 210.736C130.659 210.384 130.989 210.112 131.405 209.92C131.832 209.728 132.312 209.632 132.845 209.632C133.304 209.632 133.763 209.723 134.221 209.904C134.691 210.075 135.091 210.352 135.421 210.736C135.517 210.811 135.565 210.917 135.565 211.056C135.565 211.184 135.512 211.296 135.405 211.392C135.331 211.456 135.235 211.488 135.117 211.488C135.011 211.488 134.915 211.445 134.829 211.36C134.573 211.072 134.269 210.853 133.917 210.704C133.565 210.555 133.187 210.48 132.781 210.48C132.28 210.48 131.848 210.597 131.485 210.832C131.133 211.067 130.957 211.419 130.957 211.888C130.979 212.315 131.171 212.64 131.533 212.864C131.907 213.088 132.451 213.291 133.165 213.472C133.72 213.611 134.179 213.765 134.541 213.936C134.904 214.107 135.197 214.347 135.421 214.656C135.656 214.965 135.773 215.376 135.773 215.888C135.773 216.581 135.496 217.136 134.941 217.552C134.387 217.957 133.699 218.16 132.877 218.16C131.576 218.16 130.541 217.675 129.773 216.704ZM138.937 210.752V216.112C138.937 216.517 139.012 216.795 139.161 216.944C139.311 217.083 139.508 217.152 139.753 217.152C139.817 217.152 139.897 217.141 139.993 217.12C140.089 217.088 140.164 217.072 140.217 217.072C140.313 217.072 140.393 217.115 140.457 217.2C140.532 217.275 140.569 217.365 140.569 217.472C140.569 217.621 140.484 217.749 140.313 217.856C140.143 217.952 139.94 218 139.705 218C139.417 218 139.161 217.973 138.937 217.92C138.713 217.867 138.495 217.707 138.281 217.44C138.079 217.173 137.977 216.747 137.977 216.16V210.752H136.809C136.681 210.752 136.569 210.709 136.473 210.624C136.388 210.539 136.345 210.432 136.345 210.304C136.345 210.176 136.388 210.069 136.473 209.984C136.569 209.899 136.681 209.856 136.809 209.856H137.977V208.08C137.977 207.941 138.02 207.829 138.105 207.744C138.201 207.648 138.319 207.6 138.457 207.6C138.596 207.6 138.708 207.648 138.793 207.744C138.889 207.829 138.937 207.941 138.937 208.08V209.856H140.537C140.655 209.856 140.756 209.904 140.841 210C140.937 210.096 140.985 210.203 140.985 210.32C140.985 210.448 140.943 210.555 140.857 210.64C140.772 210.715 140.665 210.752 140.537 210.752H138.937ZM148.999 209.824C149.138 209.824 149.25 209.872 149.335 209.968C149.431 210.064 149.479 210.181 149.479 210.32V217.52C149.479 217.659 149.431 217.776 149.335 217.872C149.25 217.957 149.138 218 148.999 218C148.861 218 148.743 217.957 148.647 217.872C148.562 217.776 148.519 217.659 148.519 217.52V216.448C148.253 216.928 147.853 217.333 147.319 217.664C146.786 217.995 146.205 218.16 145.575 218.16C144.861 218.16 144.215 217.973 143.639 217.6C143.074 217.227 142.626 216.715 142.295 216.064C141.975 215.413 141.815 214.683 141.815 213.872C141.815 213.061 141.981 212.336 142.311 211.696C142.642 211.045 143.09 210.539 143.655 210.176C144.231 209.813 144.866 209.632 145.559 209.632C146.199 209.632 146.786 209.787 147.319 210.096C147.853 210.405 148.253 210.811 148.519 211.312V210.32C148.519 210.181 148.562 210.064 148.647 209.968C148.743 209.872 148.861 209.824 148.999 209.824ZM145.671 217.264C146.226 217.264 146.722 217.12 147.159 216.832C147.607 216.533 147.954 216.128 148.199 215.616C148.455 215.093 148.583 214.512 148.583 213.872C148.583 213.253 148.455 212.688 148.199 212.176C147.954 211.664 147.607 211.264 147.159 210.976C146.722 210.677 146.226 210.528 145.671 210.528C145.117 210.528 144.615 210.672 144.167 210.96C143.73 211.248 143.383 211.648 143.127 212.16C142.882 212.661 142.759 213.232 142.759 213.872C142.759 214.512 142.882 215.093 143.127 215.616C143.373 216.128 143.714 216.533 144.151 216.832C144.599 217.12 145.106 217.264 145.671 217.264ZM155.408 209.632C155.622 209.632 155.814 209.675 155.984 209.76C156.155 209.845 156.24 209.973 156.24 210.144C156.24 210.293 156.198 210.416 156.112 210.512C156.027 210.597 155.926 210.64 155.808 210.64C155.755 210.64 155.648 210.613 155.488 210.56C155.339 210.507 155.195 210.48 155.056 210.48C154.662 210.48 154.267 210.635 153.872 210.944C153.488 211.243 153.168 211.632 152.912 212.112C152.667 212.592 152.544 213.077 152.544 213.568V217.52C152.544 217.659 152.496 217.776 152.4 217.872C152.315 217.957 152.203 218 152.064 218C151.926 218 151.808 217.957 151.712 217.872C151.627 217.776 151.584 217.659 151.584 217.52V210.352C151.584 210.213 151.627 210.101 151.712 210.016C151.808 209.92 151.926 209.872 152.064 209.872C152.203 209.872 152.315 209.92 152.4 210.016C152.496 210.101 152.544 210.213 152.544 210.352V211.76C152.79 211.152 153.158 210.651 153.648 210.256C154.15 209.851 154.736 209.643 155.408 209.632ZM158.941 210.752V216.112C158.941 216.517 159.015 216.795 159.165 216.944C159.314 217.083 159.511 217.152 159.757 217.152C159.821 217.152 159.901 217.141 159.997 217.12C160.093 217.088 160.167 217.072 160.221 217.072C160.317 217.072 160.397 217.115 160.461 217.2C160.535 217.275 160.573 217.365 160.573 217.472C160.573 217.621 160.487 217.749 160.317 217.856C160.146 217.952 159.943 218 159.709 218C159.421 218 159.165 217.973 158.941 217.92C158.717 217.867 158.498 217.707 158.285 217.44C158.082 217.173 157.981 216.747 157.981 216.16V210.752H156.813C156.685 210.752 156.573 210.709 156.477 210.624C156.391 210.539 156.349 210.432 156.349 210.304C156.349 210.176 156.391 210.069 156.477 209.984C156.573 209.899 156.685 209.856 156.813 209.856H157.981V208.08C157.981 207.941 158.023 207.829 158.109 207.744C158.205 207.648 158.322 207.6 158.461 207.6C158.599 207.6 158.711 207.648 158.797 207.744C158.893 207.829 158.941 207.941 158.941 208.08V209.856H160.541C160.658 209.856 160.759 209.904 160.845 210C160.941 210.096 160.989 210.203 160.989 210.32C160.989 210.448 160.946 210.555 160.861 210.64C160.775 210.715 160.669 210.752 160.541 210.752H158.941ZM169.196 213.44C169.196 213.568 169.148 213.68 169.052 213.776C168.956 213.861 168.844 213.904 168.716 213.904H162.668C162.668 214.544 162.796 215.12 163.052 215.632C163.319 216.133 163.692 216.533 164.172 216.832C164.663 217.12 165.239 217.264 165.9 217.264C166.412 217.264 166.871 217.157 167.276 216.944C167.682 216.731 168.007 216.459 168.252 216.128C168.37 216.032 168.482 215.984 168.588 215.984C168.695 215.984 168.791 216.027 168.876 216.112C168.962 216.197 169.004 216.293 169.004 216.4C169.004 216.517 168.951 216.629 168.844 216.736C168.503 217.152 168.071 217.493 167.548 217.76C167.036 218.027 166.492 218.16 165.916 218.16C165.095 218.16 164.37 217.984 163.74 217.632C163.111 217.28 162.62 216.789 162.268 216.16C161.916 215.52 161.74 214.784 161.74 213.952C161.74 213.077 161.911 212.315 162.252 211.664C162.604 211.003 163.068 210.501 163.644 210.16C164.22 209.808 164.834 209.632 165.484 209.632C166.124 209.632 166.722 209.781 167.276 210.08C167.842 210.379 168.3 210.816 168.652 211.392C169.004 211.968 169.186 212.651 169.196 213.44ZM165.484 210.56C164.866 210.56 164.29 210.773 163.756 211.2C163.234 211.627 162.898 212.24 162.748 213.04H168.204V212.912C168.151 212.432 167.991 212.016 167.724 211.664C167.458 211.301 167.122 211.029 166.716 210.848C166.322 210.656 165.911 210.56 165.484 210.56ZM177.415 206.16C177.554 206.16 177.666 206.208 177.751 206.304C177.847 206.389 177.895 206.501 177.895 206.64V217.52C177.895 217.659 177.847 217.776 177.751 217.872C177.666 217.957 177.554 218 177.415 218C177.276 218 177.159 217.957 177.063 217.872C176.978 217.776 176.935 217.659 176.935 217.52V216.4C176.668 216.891 176.268 217.307 175.735 217.648C175.212 217.989 174.631 218.16 173.991 218.16C173.287 218.16 172.647 217.979 172.071 217.616C171.506 217.243 171.058 216.731 170.727 216.08C170.396 215.429 170.231 214.699 170.231 213.888C170.231 213.088 170.396 212.363 170.727 211.712C171.058 211.061 171.506 210.555 172.071 210.192C172.647 209.819 173.282 209.632 173.975 209.632C174.604 209.632 175.186 209.792 175.719 210.112C176.252 210.421 176.658 210.827 176.935 211.328V206.64C176.935 206.501 176.978 206.389 177.063 206.304C177.159 206.208 177.276 206.16 177.415 206.16ZM174.087 217.264C174.642 217.264 175.138 217.12 175.575 216.832C176.023 216.544 176.37 216.144 176.615 215.632C176.871 215.109 176.999 214.528 176.999 213.888C176.999 213.259 176.871 212.688 176.615 212.176C176.37 211.664 176.023 211.264 175.575 210.976C175.138 210.677 174.642 210.528 174.087 210.528C173.532 210.528 173.031 210.677 172.583 210.976C172.146 211.264 171.799 211.664 171.543 212.176C171.298 212.688 171.175 213.259 171.175 213.888C171.175 214.528 171.298 215.104 171.543 215.616C171.799 216.128 172.146 216.533 172.583 216.832C173.031 217.12 173.532 217.264 174.087 217.264Z" fill="#3F3C44"/>
<path d="M71.7395 354C71.8261 354 71.8961 354.027 71.9495 354.08C72.0095 354.133 72.0395 354.203 72.0395 354.29C72.0395 354.377 72.0095 354.447 71.9495 354.5C71.8961 354.547 71.8261 354.57 71.7395 354.57H69.6695V360.7C69.6695 360.787 69.6395 360.86 69.5795 360.92C69.5195 360.973 69.4461 361 69.3595 361C69.2661 361 69.1895 360.973 69.1295 360.92C69.0761 360.86 69.0495 360.787 69.0495 360.7V354.57H66.9795C66.8928 354.57 66.8195 354.543 66.7595 354.49C66.7061 354.437 66.6795 354.367 66.6795 354.28C66.6795 354.2 66.7061 354.133 66.7595 354.08C66.8195 354.027 66.8928 354 66.9795 354H71.7395ZM75.9185 355.89C76.0052 355.89 76.0752 355.92 76.1285 355.98C76.1885 356.04 76.2185 356.113 76.2185 356.2V360.7C76.2185 360.787 76.1885 360.86 76.1285 360.92C76.0752 360.973 76.0052 361 75.9185 361C75.8319 361 75.7585 360.973 75.6985 360.92C75.6452 360.86 75.6185 360.787 75.6185 360.7V360.03C75.4519 360.33 75.2019 360.583 74.8685 360.79C74.5352 360.997 74.1719 361.1 73.7785 361.1C73.3319 361.1 72.9285 360.983 72.5685 360.75C72.2152 360.517 71.9352 360.197 71.7285 359.79C71.5285 359.383 71.4285 358.927 71.4285 358.42C71.4285 357.913 71.5319 357.46 71.7385 357.06C71.9452 356.653 72.2252 356.337 72.5785 356.11C72.9385 355.883 73.3352 355.77 73.7685 355.77C74.1685 355.77 74.5352 355.867 74.8685 356.06C75.2019 356.253 75.4519 356.507 75.6185 356.82V356.2C75.6185 356.113 75.6452 356.04 75.6985 355.98C75.7585 355.92 75.8319 355.89 75.9185 355.89ZM73.8385 360.54C74.1852 360.54 74.4952 360.45 74.7685 360.27C75.0485 360.083 75.2652 359.83 75.4185 359.51C75.5785 359.183 75.6585 358.82 75.6585 358.42C75.6585 358.033 75.5785 357.68 75.4185 357.36C75.2652 357.04 75.0485 356.79 74.7685 356.61C74.4952 356.423 74.1852 356.33 73.8385 356.33C73.4919 356.33 73.1785 356.42 72.8985 356.6C72.6252 356.78 72.4085 357.03 72.2485 357.35C72.0952 357.663 72.0185 358.02 72.0185 358.42C72.0185 358.82 72.0952 359.183 72.2485 359.51C72.4019 359.83 72.6152 360.083 72.8885 360.27C73.1685 360.45 73.4852 360.54 73.8385 360.54ZM79.8141 355.85C80.2541 355.85 80.6541 355.963 81.0141 356.19C81.3741 356.41 81.6541 356.72 81.8541 357.12C82.0608 357.513 82.1641 357.957 82.1641 358.45C82.1641 358.95 82.0608 359.4 81.8541 359.8C81.6541 360.193 81.3741 360.503 81.0141 360.73C80.6608 360.957 80.2641 361.07 79.8241 361.07C79.4375 361.07 79.0808 360.98 78.7541 360.8C78.4341 360.613 78.1775 360.367 77.9841 360.06V362.7C77.9841 362.787 77.9541 362.857 77.8941 362.91C77.8408 362.97 77.7708 363 77.6841 363C77.5975 363 77.5241 362.97 77.4641 362.91C77.4108 362.857 77.3841 362.787 77.3841 362.7V356.18C77.3841 356.093 77.4108 356.02 77.4641 355.96C77.5241 355.9 77.5975 355.87 77.6841 355.87C77.7708 355.87 77.8408 355.9 77.8941 355.96C77.9541 356.02 77.9841 356.093 77.9841 356.18V356.86C78.1575 356.547 78.4075 356.3 78.7341 356.12C79.0608 355.94 79.4208 355.85 79.8141 355.85ZM79.7641 360.51C80.1108 360.51 80.4208 360.423 80.6941 360.25C80.9741 360.07 81.1908 359.823 81.3441 359.51C81.5041 359.197 81.5841 358.843 81.5841 358.45C81.5841 358.063 81.5041 357.717 81.3441 357.41C81.1908 357.097 80.9741 356.853 80.6941 356.68C80.4208 356.5 80.1108 356.41 79.7641 356.41C79.4108 356.41 79.0941 356.497 78.8141 356.67C78.5341 356.843 78.3175 357.087 78.1641 357.4C78.0108 357.707 77.9341 358.057 77.9341 358.45C77.9341 358.843 78.0108 359.197 78.1641 359.51C78.3175 359.823 78.5341 360.07 78.8141 360.25C79.0941 360.423 79.4108 360.51 79.7641 360.51ZM86.3341 356.47V359.82C86.3341 360.073 86.3808 360.247 86.4741 360.34C86.5675 360.427 86.6908 360.47 86.8441 360.47C86.8841 360.47 86.9341 360.463 86.9941 360.45C87.0541 360.43 87.1008 360.42 87.1341 360.42C87.1941 360.42 87.2441 360.447 87.2841 360.5C87.3308 360.547 87.3541 360.603 87.3541 360.67C87.3541 360.763 87.3008 360.843 87.1941 360.91C87.0875 360.97 86.9608 361 86.8141 361C86.6341 361 86.4741 360.983 86.3341 360.95C86.1941 360.917 86.0575 360.817 85.9241 360.65C85.7975 360.483 85.7341 360.217 85.7341 359.85V356.47H85.0041C84.9241 356.47 84.8541 356.443 84.7941 356.39C84.7408 356.337 84.7141 356.27 84.7141 356.19C84.7141 356.11 84.7408 356.043 84.7941 355.99C84.8541 355.937 84.9241 355.91 85.0041 355.91H85.7341V354.8C85.7341 354.713 85.7608 354.643 85.8141 354.59C85.8741 354.53 85.9475 354.5 86.0341 354.5C86.1208 354.5 86.1908 354.53 86.2441 354.59C86.3041 354.643 86.3341 354.713 86.3341 354.8V355.91H87.3341C87.4075 355.91 87.4708 355.94 87.5241 356C87.5841 356.06 87.6141 356.127 87.6141 356.2C87.6141 356.28 87.5875 356.347 87.5341 356.4C87.4808 356.447 87.4141 356.47 87.3341 356.47H86.3341ZM92.994 358.44C92.994 358.94 92.884 359.393 92.664 359.8C92.444 360.207 92.1407 360.527 91.754 360.76C91.3673 360.987 90.9373 361.1 90.464 361.1C89.9907 361.1 89.5607 360.987 89.174 360.76C88.7873 360.527 88.484 360.207 88.264 359.8C88.044 359.393 87.934 358.94 87.934 358.44C87.934 357.94 88.044 357.487 88.264 357.08C88.484 356.673 88.7873 356.353 89.174 356.12C89.5607 355.887 89.9907 355.77 90.464 355.77C90.9373 355.77 91.3673 355.887 91.754 356.12C92.1407 356.353 92.444 356.673 92.664 357.08C92.884 357.487 92.994 357.94 92.994 358.44ZM92.394 358.44C92.394 358.04 92.3107 357.68 92.144 357.36C91.9773 357.04 91.744 356.79 91.444 356.61C91.1507 356.423 90.824 356.33 90.464 356.33C90.104 356.33 89.7773 356.423 89.484 356.61C89.1907 356.79 88.9573 357.04 88.784 357.36C88.6173 357.68 88.534 358.04 88.534 358.44C88.534 358.833 88.6173 359.19 88.784 359.51C88.9573 359.83 89.1907 360.083 89.484 360.27C89.7773 360.45 90.104 360.54 90.464 360.54C90.824 360.54 91.1507 360.45 91.444 360.27C91.744 360.09 91.9773 359.84 92.144 359.52C92.3107 359.2 92.394 358.84 92.394 358.44ZM97.1556 356.47V359.82C97.1556 360.073 97.2023 360.247 97.2956 360.34C97.389 360.427 97.5123 360.47 97.6656 360.47C97.7056 360.47 97.7556 360.463 97.8156 360.45C97.8756 360.43 97.9223 360.42 97.9556 360.42C98.0156 360.42 98.0656 360.447 98.1056 360.5C98.1523 360.547 98.1756 360.603 98.1756 360.67C98.1756 360.763 98.1223 360.843 98.0156 360.91C97.909 360.97 97.7823 361 97.6356 361C97.4556 361 97.2956 360.983 97.1556 360.95C97.0156 360.917 96.879 360.817 96.7456 360.65C96.619 360.483 96.5556 360.217 96.5556 359.85V356.47H95.8256C95.7456 356.47 95.6756 356.443 95.6156 356.39C95.5623 356.337 95.5356 356.27 95.5356 356.19C95.5356 356.11 95.5623 356.043 95.6156 355.99C95.6756 355.937 95.7456 355.91 95.8256 355.91H96.5556V354.8C96.5556 354.713 96.5823 354.643 96.6356 354.59C96.6956 354.53 96.769 354.5 96.8556 354.5C96.9423 354.5 97.0123 354.53 97.0656 354.59C97.1256 354.643 97.1556 354.713 97.1556 354.8V355.91H98.1556C98.229 355.91 98.2923 355.94 98.3456 356C98.4056 356.06 98.4356 356.127 98.4356 356.2C98.4356 356.28 98.409 356.347 98.3556 356.4C98.3023 356.447 98.2356 356.47 98.1556 356.47H97.1556ZM102.954 355.8C103.041 355.8 103.111 355.83 103.164 355.89C103.224 355.943 103.254 356.013 103.254 356.1V360.51C103.254 361.037 103.151 361.487 102.944 361.86C102.738 362.233 102.451 362.517 102.084 362.71C101.718 362.903 101.304 363 100.844 363C100.564 363 100.301 362.97 100.054 362.91C99.8143 362.85 99.6143 362.77 99.4543 362.67C99.3143 362.583 99.2443 362.487 99.2443 362.38C99.2443 362.367 99.251 362.333 99.2643 362.28C99.2843 362.213 99.3176 362.163 99.3643 362.13C99.411 362.097 99.461 362.08 99.5143 362.08C99.5543 362.08 99.5943 362.09 99.6343 362.11C100.061 362.343 100.468 362.46 100.854 362.46C101.408 362.46 101.844 362.287 102.164 361.94C102.491 361.593 102.654 361.12 102.654 360.52V360.17C102.488 360.45 102.248 360.677 101.934 360.85C101.621 361.017 101.281 361.1 100.914 361.1C100.334 361.1 99.8943 360.927 99.5943 360.58C99.2943 360.233 99.1443 359.763 99.1443 359.17V356.1C99.1443 356.013 99.171 355.943 99.2243 355.89C99.2843 355.83 99.3576 355.8 99.4443 355.8C99.531 355.8 99.601 355.83 99.6543 355.89C99.7143 355.943 99.7443 356.013 99.7443 356.1V359.08C99.7443 359.56 99.8476 359.923 100.054 360.17C100.268 360.417 100.598 360.54 101.044 360.54C101.318 360.54 101.578 360.473 101.824 360.34C102.078 360.2 102.278 360.02 102.424 359.8C102.578 359.573 102.654 359.333 102.654 359.08V356.1C102.654 356.013 102.681 355.943 102.734 355.89C102.794 355.83 102.868 355.8 102.954 355.8ZM106.858 355.85C107.298 355.85 107.698 355.963 108.058 356.19C108.418 356.41 108.698 356.72 108.898 357.12C109.105 357.513 109.208 357.957 109.208 358.45C109.208 358.95 109.105 359.4 108.898 359.8C108.698 360.193 108.418 360.503 108.058 360.73C107.705 360.957 107.308 361.07 106.868 361.07C106.481 361.07 106.125 360.98 105.798 360.8C105.478 360.613 105.221 360.367 105.028 360.06V362.7C105.028 362.787 104.998 362.857 104.938 362.91C104.885 362.97 104.815 363 104.728 363C104.641 363 104.568 362.97 104.508 362.91C104.455 362.857 104.428 362.787 104.428 362.7V356.18C104.428 356.093 104.455 356.02 104.508 355.96C104.568 355.9 104.641 355.87 104.728 355.87C104.815 355.87 104.885 355.9 104.938 355.96C104.998 356.02 105.028 356.093 105.028 356.18V356.86C105.201 356.547 105.451 356.3 105.778 356.12C106.105 355.94 106.465 355.85 106.858 355.85ZM106.808 360.51C107.155 360.51 107.465 360.423 107.738 360.25C108.018 360.07 108.235 359.823 108.388 359.51C108.548 359.197 108.628 358.843 108.628 358.45C108.628 358.063 108.548 357.717 108.388 357.41C108.235 357.097 108.018 356.853 107.738 356.68C107.465 356.5 107.155 356.41 106.808 356.41C106.455 356.41 106.138 356.497 105.858 356.67C105.578 356.843 105.361 357.087 105.208 357.4C105.055 357.707 104.978 358.057 104.978 358.45C104.978 358.843 105.055 359.197 105.208 359.51C105.361 359.823 105.578 360.07 105.858 360.25C106.138 360.423 106.455 360.51 106.808 360.51ZM114.364 358.15C114.364 358.23 114.334 358.3 114.274 358.36C114.214 358.413 114.144 358.44 114.064 358.44H110.284C110.284 358.84 110.364 359.2 110.524 359.52C110.69 359.833 110.924 360.083 111.224 360.27C111.53 360.45 111.89 360.54 112.304 360.54C112.624 360.54 112.91 360.473 113.164 360.34C113.417 360.207 113.62 360.037 113.774 359.83C113.847 359.77 113.917 359.74 113.984 359.74C114.05 359.74 114.11 359.767 114.164 359.82C114.217 359.873 114.244 359.933 114.244 360C114.244 360.073 114.21 360.143 114.144 360.21C113.93 360.47 113.66 360.683 113.334 360.85C113.014 361.017 112.674 361.1 112.314 361.1C111.8 361.1 111.347 360.99 110.954 360.77C110.56 360.55 110.254 360.243 110.034 359.85C109.814 359.45 109.704 358.99 109.704 358.47C109.704 357.923 109.81 357.447 110.024 357.04C110.244 356.627 110.534 356.313 110.894 356.1C111.254 355.88 111.637 355.77 112.044 355.77C112.444 355.77 112.817 355.863 113.164 356.05C113.517 356.237 113.804 356.51 114.024 356.87C114.244 357.23 114.357 357.657 114.364 358.15ZM112.044 356.35C111.657 356.35 111.297 356.483 110.964 356.75C110.637 357.017 110.427 357.4 110.334 357.9H113.744V357.82C113.71 357.52 113.61 357.26 113.444 357.04C113.277 356.813 113.067 356.643 112.814 356.53C112.567 356.41 112.31 356.35 112.044 356.35ZM122.255 358.44C122.255 358.94 122.145 359.393 121.925 359.8C121.705 360.207 121.401 360.527 121.015 360.76C120.628 360.987 120.198 361.1 119.725 361.1C119.251 361.1 118.821 360.987 118.435 360.76C118.048 360.527 117.745 360.207 117.525 359.8C117.305 359.393 117.195 358.94 117.195 358.44C117.195 357.94 117.305 357.487 117.525 357.08C117.745 356.673 118.048 356.353 118.435 356.12C118.821 355.887 119.251 355.77 119.725 355.77C120.198 355.77 120.628 355.887 121.015 356.12C121.401 356.353 121.705 356.673 121.925 357.08C122.145 357.487 122.255 357.94 122.255 358.44ZM121.655 358.44C121.655 358.04 121.571 357.68 121.405 357.36C121.238 357.04 121.005 356.79 120.705 356.61C120.411 356.423 120.085 356.33 119.725 356.33C119.365 356.33 119.038 356.423 118.745 356.61C118.451 356.79 118.218 357.04 118.045 357.36C117.878 357.68 117.795 358.04 117.795 358.44C117.795 358.833 117.878 359.19 118.045 359.51C118.218 359.83 118.451 360.083 118.745 360.27C119.038 360.45 119.365 360.54 119.725 360.54C120.085 360.54 120.411 360.45 120.705 360.27C121.005 360.09 121.238 359.84 121.405 359.52C121.571 359.2 121.655 358.84 121.655 358.44ZM125.472 355.77C125.605 355.77 125.725 355.797 125.832 355.85C125.938 355.903 125.992 355.983 125.992 356.09C125.992 356.183 125.965 356.26 125.912 356.32C125.858 356.373 125.795 356.4 125.722 356.4C125.688 356.4 125.622 356.383 125.522 356.35C125.428 356.317 125.338 356.3 125.252 356.3C125.005 356.3 124.758 356.397 124.512 356.59C124.272 356.777 124.072 357.02 123.912 357.32C123.758 357.62 123.682 357.923 123.682 358.23V360.7C123.682 360.787 123.652 360.86 123.592 360.92C123.538 360.973 123.468 361 123.382 361C123.295 361 123.222 360.973 123.162 360.92C123.108 360.86 123.082 360.787 123.082 360.7V356.22C123.082 356.133 123.108 356.063 123.162 356.01C123.222 355.95 123.295 355.92 123.382 355.92C123.468 355.92 123.538 355.95 123.592 356.01C123.652 356.063 123.682 356.133 123.682 356.22V357.1C123.835 356.72 124.065 356.407 124.372 356.16C124.685 355.907 125.052 355.777 125.472 355.77ZM131.294 355.85C131.734 355.85 132.134 355.963 132.494 356.19C132.854 356.41 133.134 356.72 133.334 357.12C133.54 357.513 133.644 357.957 133.644 358.45C133.644 358.95 133.54 359.4 133.334 359.8C133.134 360.193 132.854 360.503 132.494 360.73C132.14 360.957 131.744 361.07 131.304 361.07C130.917 361.07 130.56 360.98 130.234 360.8C129.914 360.613 129.657 360.367 129.464 360.06V362.7C129.464 362.787 129.434 362.857 129.374 362.91C129.32 362.97 129.25 363 129.164 363C129.077 363 129.004 362.97 128.944 362.91C128.89 362.857 128.864 362.787 128.864 362.7V356.18C128.864 356.093 128.89 356.02 128.944 355.96C129.004 355.9 129.077 355.87 129.164 355.87C129.25 355.87 129.32 355.9 129.374 355.96C129.434 356.02 129.464 356.093 129.464 356.18V356.86C129.637 356.547 129.887 356.3 130.214 356.12C130.54 355.94 130.9 355.85 131.294 355.85ZM131.244 360.51C131.59 360.51 131.9 360.423 132.174 360.25C132.454 360.07 132.67 359.823 132.824 359.51C132.984 359.197 133.064 358.843 133.064 358.45C133.064 358.063 132.984 357.717 132.824 357.41C132.67 357.097 132.454 356.853 132.174 356.68C131.9 356.5 131.59 356.41 131.244 356.41C130.89 356.41 130.574 356.497 130.294 356.67C130.014 356.843 129.797 357.087 129.644 357.4C129.49 357.707 129.414 358.057 129.414 358.45C129.414 358.843 129.49 359.197 129.644 359.51C129.797 359.823 130.014 360.07 130.294 360.25C130.574 360.423 130.89 360.51 131.244 360.51ZM136.869 355.77C137.003 355.77 137.123 355.797 137.229 355.85C137.336 355.903 137.389 355.983 137.389 356.09C137.389 356.183 137.363 356.26 137.309 356.32C137.256 356.373 137.193 356.4 137.119 356.4C137.086 356.4 137.019 356.383 136.919 356.35C136.826 356.317 136.736 356.3 136.649 356.3C136.403 356.3 136.156 356.397 135.909 356.59C135.669 356.777 135.469 357.02 135.309 357.32C135.156 357.62 135.079 357.923 135.079 358.23V360.7C135.079 360.787 135.049 360.86 134.989 360.92C134.936 360.973 134.866 361 134.779 361C134.693 361 134.619 360.973 134.559 360.92C134.506 360.86 134.479 360.787 134.479 360.7V356.22C134.479 356.133 134.506 356.063 134.559 356.01C134.619 355.95 134.693 355.92 134.779 355.92C134.866 355.92 134.936 355.95 134.989 356.01C135.049 356.063 135.079 356.133 135.079 356.22V357.1C135.233 356.72 135.463 356.407 135.769 356.16C136.083 355.907 136.449 355.777 136.869 355.77ZM142.022 358.15C142.022 358.23 141.992 358.3 141.932 358.36C141.872 358.413 141.802 358.44 141.722 358.44H137.942C137.942 358.84 138.022 359.2 138.182 359.52C138.349 359.833 138.582 360.083 138.882 360.27C139.189 360.45 139.549 360.54 139.962 360.54C140.282 360.54 140.569 360.473 140.822 360.34C141.076 360.207 141.279 360.037 141.432 359.83C141.506 359.77 141.576 359.74 141.642 359.74C141.709 359.74 141.769 359.767 141.822 359.82C141.876 359.873 141.902 359.933 141.902 360C141.902 360.073 141.869 360.143 141.802 360.21C141.589 360.47 141.319 360.683 140.992 360.85C140.672 361.017 140.332 361.1 139.972 361.1C139.459 361.1 139.006 360.99 138.612 360.77C138.219 360.55 137.912 360.243 137.692 359.85C137.472 359.45 137.362 358.99 137.362 358.47C137.362 357.923 137.469 357.447 137.682 357.04C137.902 356.627 138.192 356.313 138.552 356.1C138.912 355.88 139.296 355.77 139.702 355.77C140.102 355.77 140.476 355.863 140.822 356.05C141.176 356.237 141.462 356.51 141.682 356.87C141.902 357.23 142.016 357.657 142.022 358.15ZM139.702 356.35C139.316 356.35 138.956 356.483 138.622 356.75C138.296 357.017 138.086 357.4 137.992 357.9H141.402V357.82C141.369 357.52 141.269 357.26 141.102 357.04C140.936 356.813 140.726 356.643 140.472 356.53C140.226 356.41 139.969 356.35 139.702 356.35ZM142.569 360.19C142.516 360.103 142.489 360.03 142.489 359.97C142.489 359.883 142.532 359.817 142.619 359.77C142.659 359.73 142.712 359.71 142.779 359.71C142.859 359.71 142.932 359.743 142.999 359.81C143.392 360.33 143.916 360.59 144.569 360.59C144.889 360.59 145.166 360.517 145.399 360.37C145.639 360.217 145.759 359.997 145.759 359.71C145.759 359.43 145.649 359.22 145.429 359.08C145.209 358.94 144.902 358.82 144.509 358.72C143.956 358.58 143.522 358.4 143.209 358.18C142.896 357.953 142.739 357.623 142.739 357.19C142.739 356.917 142.816 356.673 142.969 356.46C143.122 356.24 143.329 356.07 143.589 355.95C143.856 355.83 144.156 355.77 144.489 355.77C144.776 355.77 145.062 355.827 145.349 355.94C145.642 356.047 145.892 356.22 146.099 356.46C146.159 356.507 146.189 356.573 146.189 356.66C146.189 356.74 146.156 356.81 146.089 356.87C146.042 356.91 145.982 356.93 145.909 356.93C145.842 356.93 145.782 356.903 145.729 356.85C145.569 356.67 145.379 356.533 145.159 356.44C144.939 356.347 144.702 356.3 144.449 356.3C144.136 356.3 143.866 356.373 143.639 356.52C143.419 356.667 143.309 356.887 143.309 357.18C143.322 357.447 143.442 357.65 143.669 357.79C143.902 357.93 144.242 358.057 144.689 358.17C145.036 358.257 145.322 358.353 145.549 358.46C145.776 358.567 145.959 358.717 146.099 358.91C146.246 359.103 146.319 359.36 146.319 359.68C146.319 360.113 146.146 360.46 145.799 360.72C145.452 360.973 145.022 361.1 144.509 361.1C143.696 361.1 143.049 360.797 142.569 360.19ZM146.857 360.19C146.803 360.103 146.777 360.03 146.777 359.97C146.777 359.883 146.82 359.817 146.907 359.77C146.947 359.73 147 359.71 147.067 359.71C147.147 359.71 147.22 359.743 147.287 359.81C147.68 360.33 148.203 360.59 148.857 360.59C149.177 360.59 149.453 360.517 149.687 360.37C149.927 360.217 150.047 359.997 150.047 359.71C150.047 359.43 149.937 359.22 149.717 359.08C149.497 358.94 149.19 358.82 148.797 358.72C148.243 358.58 147.81 358.4 147.497 358.18C147.183 357.953 147.027 357.623 147.027 357.19C147.027 356.917 147.103 356.673 147.257 356.46C147.41 356.24 147.617 356.07 147.877 355.95C148.143 355.83 148.443 355.77 148.777 355.77C149.063 355.77 149.35 355.827 149.637 355.94C149.93 356.047 150.18 356.22 150.387 356.46C150.447 356.507 150.477 356.573 150.477 356.66C150.477 356.74 150.443 356.81 150.377 356.87C150.33 356.91 150.27 356.93 150.197 356.93C150.13 356.93 150.07 356.903 150.017 356.85C149.857 356.67 149.667 356.533 149.447 356.44C149.227 356.347 148.99 356.3 148.737 356.3C148.423 356.3 148.153 356.373 147.927 356.52C147.707 356.667 147.597 356.887 147.597 357.18C147.61 357.447 147.73 357.65 147.957 357.79C148.19 357.93 148.53 358.057 148.977 358.17C149.323 358.257 149.61 358.353 149.837 358.46C150.063 358.567 150.247 358.717 150.387 358.91C150.533 359.103 150.607 359.36 150.607 359.68C150.607 360.113 150.433 360.46 150.087 360.72C149.74 360.973 149.31 361.1 148.797 361.1C147.983 361.1 147.337 360.797 146.857 360.19ZM154.769 356.47V359.82C154.769 360.073 154.815 360.247 154.909 360.34C155.002 360.427 155.125 360.47 155.279 360.47C155.319 360.47 155.369 360.463 155.429 360.45C155.489 360.43 155.535 360.42 155.569 360.42C155.629 360.42 155.679 360.447 155.719 360.5C155.765 360.547 155.789 360.603 155.789 360.67C155.789 360.763 155.735 360.843 155.629 360.91C155.522 360.97 155.395 361 155.249 361C155.069 361 154.909 360.983 154.769 360.95C154.629 360.917 154.492 360.817 154.359 360.65C154.232 360.483 154.169 360.217 154.169 359.85V356.47H153.439C153.359 356.47 153.289 356.443 153.229 356.39C153.175 356.337 153.149 356.27 153.149 356.19C153.149 356.11 153.175 356.043 153.229 355.99C153.289 355.937 153.359 355.91 153.439 355.91H154.169V354.8C154.169 354.713 154.195 354.643 154.249 354.59C154.309 354.53 154.382 354.5 154.469 354.5C154.555 354.5 154.625 354.53 154.679 354.59C154.739 354.643 154.769 354.713 154.769 354.8V355.91H155.769C155.842 355.91 155.905 355.94 155.959 356C156.019 356.06 156.049 356.127 156.049 356.2C156.049 356.28 156.022 356.347 155.969 356.4C155.915 356.447 155.849 356.47 155.769 356.47H154.769ZM161.428 358.44C161.428 358.94 161.318 359.393 161.098 359.8C160.878 360.207 160.575 360.527 160.188 360.76C159.802 360.987 159.372 361.1 158.898 361.1C158.425 361.1 157.995 360.987 157.608 360.76C157.222 360.527 156.918 360.207 156.698 359.8C156.478 359.393 156.368 358.94 156.368 358.44C156.368 357.94 156.478 357.487 156.698 357.08C156.918 356.673 157.222 356.353 157.608 356.12C157.995 355.887 158.425 355.77 158.898 355.77C159.372 355.77 159.802 355.887 160.188 356.12C160.575 356.353 160.878 356.673 161.098 357.08C161.318 357.487 161.428 357.94 161.428 358.44ZM160.828 358.44C160.828 358.04 160.745 357.68 160.578 357.36C160.412 357.04 160.178 356.79 159.878 356.61C159.585 356.423 159.258 356.33 158.898 356.33C158.538 356.33 158.212 356.423 157.918 356.61C157.625 356.79 157.392 357.04 157.218 357.36C157.052 357.68 156.968 358.04 156.968 358.44C156.968 358.833 157.052 359.19 157.218 359.51C157.392 359.83 157.625 360.083 157.918 360.27C158.212 360.45 158.538 360.54 158.898 360.54C159.258 360.54 159.585 360.45 159.878 360.27C160.178 360.09 160.412 359.84 160.578 359.52C160.745 359.2 160.828 358.84 160.828 358.44ZM165.59 356.47V359.82C165.59 360.073 165.637 360.247 165.73 360.34C165.823 360.427 165.947 360.47 166.1 360.47C166.14 360.47 166.19 360.463 166.25 360.45C166.31 360.43 166.357 360.42 166.39 360.42C166.45 360.42 166.5 360.447 166.54 360.5C166.587 360.547 166.61 360.603 166.61 360.67C166.61 360.763 166.557 360.843 166.45 360.91C166.343 360.97 166.217 361 166.07 361C165.89 361 165.73 360.983 165.59 360.95C165.45 360.917 165.313 360.817 165.18 360.65C165.053 360.483 164.99 360.217 164.99 359.85V356.47H164.26C164.18 356.47 164.11 356.443 164.05 356.39C163.997 356.337 163.97 356.27 163.97 356.19C163.97 356.11 163.997 356.043 164.05 355.99C164.11 355.937 164.18 355.91 164.26 355.91H164.99V354.8C164.99 354.713 165.017 354.643 165.07 354.59C165.13 354.53 165.203 354.5 165.29 354.5C165.377 354.5 165.447 354.53 165.5 354.59C165.56 354.643 165.59 354.713 165.59 354.8V355.91H166.59C166.663 355.91 166.727 355.94 166.78 356C166.84 356.06 166.87 356.127 166.87 356.2C166.87 356.28 166.843 356.347 166.79 356.4C166.737 356.447 166.67 356.47 166.59 356.47H165.59ZM171.729 355.89C171.815 355.89 171.885 355.92 171.939 355.98C171.999 356.04 172.029 356.113 172.029 356.2V360.7C172.029 360.787 171.999 360.86 171.939 360.92C171.885 360.973 171.815 361 171.729 361C171.642 361 171.569 360.973 171.509 360.92C171.455 360.86 171.429 360.787 171.429 360.7V360.03C171.262 360.33 171.012 360.583 170.679 360.79C170.345 360.997 169.982 361.1 169.589 361.1C169.142 361.1 168.739 360.983 168.379 360.75C168.025 360.517 167.745 360.197 167.539 359.79C167.339 359.383 167.239 358.927 167.239 358.42C167.239 357.913 167.342 357.46 167.549 357.06C167.755 356.653 168.035 356.337 168.389 356.11C168.749 355.883 169.145 355.77 169.579 355.77C169.979 355.77 170.345 355.867 170.679 356.06C171.012 356.253 171.262 356.507 171.429 356.82V356.2C171.429 356.113 171.455 356.04 171.509 355.98C171.569 355.92 171.642 355.89 171.729 355.89ZM169.649 360.54C169.995 360.54 170.305 360.45 170.579 360.27C170.859 360.083 171.075 359.83 171.229 359.51C171.389 359.183 171.469 358.82 171.469 358.42C171.469 358.033 171.389 357.68 171.229 357.36C171.075 357.04 170.859 356.79 170.579 356.61C170.305 356.423 169.995 356.33 169.649 356.33C169.302 356.33 168.989 356.42 168.709 356.6C168.435 356.78 168.219 357.03 168.059 357.35C167.905 357.663 167.829 358.02 167.829 358.42C167.829 358.82 167.905 359.183 168.059 359.51C168.212 359.83 168.425 360.083 168.699 360.27C168.979 360.45 169.295 360.54 169.649 360.54ZM173.854 360.7C173.854 360.787 173.824 360.86 173.764 360.92C173.711 360.973 173.641 361 173.554 361C173.468 361 173.394 360.973 173.334 360.92C173.281 360.86 173.254 360.787 173.254 360.7V353.9C173.254 353.813 173.281 353.743 173.334 353.69C173.394 353.63 173.468 353.6 173.554 353.6C173.641 353.6 173.711 353.63 173.764 353.69C173.824 353.743 173.854 353.813 173.854 353.9V360.7ZM179.149 360.47C179.209 360.537 179.239 360.613 179.239 360.7C179.239 360.787 179.202 360.86 179.129 360.92C179.062 360.973 178.999 361 178.939 361C178.852 361 178.779 360.963 178.719 360.89L176.509 358.55L175.759 359.19V360.7C175.759 360.787 175.729 360.86 175.669 360.92C175.616 360.973 175.546 361 175.459 361C175.372 361 175.299 360.973 175.239 360.92C175.186 360.86 175.159 360.787 175.159 360.7V353.9C175.159 353.813 175.186 353.743 175.239 353.69C175.299 353.63 175.372 353.6 175.459 353.6C175.546 353.6 175.616 353.63 175.669 353.69C175.729 353.743 175.759 353.813 175.759 353.9V358.46L178.649 355.97C178.709 355.903 178.779 355.87 178.859 355.87C178.932 355.87 178.999 355.903 179.059 355.97C179.119 356.03 179.149 356.097 179.149 356.17C179.149 356.25 179.112 356.327 179.039 356.4L176.979 358.15L179.149 360.47Z" fill="#3F3C44"/>
</g>
</g>
<defs>
<filter id="filter0_f" x="0" y="361.284" width="245" height="76.6926" filterUnits="userSpaceOnUse" color-interpolation-filters="sRGB">
<feFlood flood-opacity="0" result="BackgroundImageFix"/>
<feBlend mode="normal" in="SourceGraphic" in2="BackgroundImageFix" result="shape"/>
<feGaussianBlur stdDeviation="10" result="effect1_foregroundBlur"/>
</filter>
<filter id="filter1_f" x="19.9883" y="393.238" width="205.023" height="11.1907" filterUnits="userSpaceOnUse" color-interpolation-filters="sRGB">
<feFlood flood-opacity="0" result="BackgroundImageFix"/>
<feBlend mode="normal" in="SourceGraphic" in2="BackgroundImageFix" result="shape"/>
<feGaussianBlur stdDeviation="2" result="effect1_foregroundBlur"/>
</filter>
<filter id="filter2_f" x="35.9417" y="391.642" width="173.117" height="11.1907" filterUnits="userSpaceOnUse" color-interpolation-filters="sRGB">
<feFlood flood-opacity="0" result="BackgroundImageFix"/>
<feBlend mode="normal" in="SourceGraphic" in2="BackgroundImageFix" result="shape"/>
<feGaussianBlur stdDeviation="2" result="effect1_foregroundBlur"/>
</filter>
<filter id="filter3_i" x="25.3501" y="0.923828" width="195.105" height="396.985" filterUnits="userSpaceOnUse" color-interpolation-filters="sRGB">
<feFlood flood-opacity="0" result="BackgroundImageFix"/>
<feBlend mode="normal" in="SourceGraphic" in2="BackgroundImageFix" result="shape"/>
<feColorMatrix in="SourceAlpha" type="matrix" values="0 0 0 0 0 0 0 0 0 0 0 0 0 0 0 0 0 0 127 0" result="hardAlpha"/>
<feOffset/>
<feGaussianBlur stdDeviation="0.772201"/>
<feComposite in2="hardAlpha" operator="arithmetic" k2="-1" k3="1"/>
<feColorMatrix type="matrix" values="0 0 0 0 0 0 0 0 0 0 0 0 0 0 0 0 0 0 0.5 0"/>
<feBlend mode="normal" in2="shape" result="effect1_innerShadow"/>
</filter>
<filter id="filter4_dd" x="29.3518" y="4.19447" width="187.097" height="390.136" filterUnits="userSpaceOnUse" color-interpolation-filters="sRGB">
<feFlood flood-opacity="0" result="BackgroundImageFix"/>
<feColorMatrix in="SourceAlpha" type="matrix" values="0 0 0 0 0 0 0 0 0 0 0 0 0 0 0 0 0 0 127 0"/>
<feOffset dy="0.579151"/>
<feColorMatrix type="matrix" values="0 0 0 0 0 0 0 0 0 0 0 0 0 0 0 0 0 0 0.5 0"/>
<feBlend mode="normal" in2="BackgroundImageFix" result="effect1_dropShadow"/>
<feColorMatrix in="SourceAlpha" type="matrix" values="0 0 0 0 0 0 0 0 0 0 0 0 0 0 0 0 0 0 127 0"/>
<feOffset dy="-0.579151"/>
<feColorMatrix type="matrix" values="0 0 0 0 0 0 0 0 0 0 0 0 0 0 0 0 0 0 0.5 0"/>
<feBlend mode="normal" in2="effect1_dropShadow" result="effect2_dropShadow"/>
<feBlend mode="normal" in="SourceGraphic" in2="effect2_dropShadow" result="shape"/>
</filter>
<filter id="filter5_i" x="112.255" y="398.217" width="23.2983" height="0.965251" filterUnits="userSpaceOnUse" color-interpolation-filters="sRGB">
<feFlood flood-opacity="0" result="BackgroundImageFix"/>
<feBlend mode="normal" in="SourceGraphic" in2="BackgroundImageFix" result="shape"/>
<feColorMatrix in="SourceAlpha" type="matrix" values="0 0 0 0 0 0 0 0 0 0 0 0 0 0 0 0 0 0 127 0" result="hardAlpha"/>
<feOffset dy="0.19305"/>
<feGaussianBlur stdDeviation="0.19305"/>
<feComposite in2="hardAlpha" operator="arithmetic" k2="-1" k3="1"/>
<feColorMatrix type="matrix" values="0 0 0 0 0.592157 0 0 0 0 0.592157 0 0 0 0 0.592157 0 0 0 1 0"/>
<feBlend mode="normal" in2="shape" result="effect1_innerShadow"/>
</filter>
<filter id="filter6_iii" x="110.97" y="14.3211" width="24.0224" height="3.23378" filterUnits="userSpaceOnUse" color-interpolation-filters="sRGB">
<feFlood flood-opacity="0" result="BackgroundImageFix"/>
<feBlend mode="normal" in="SourceGraphic" in2="BackgroundImageFix" result="shape"/>
<feColorMatrix in="SourceAlpha" type="matrix" values="0 0 0 0 0 0 0 0 0 0 0 0 0 0 0 0 0 0 127 0" result="hardAlpha"/>
<feOffset/>
<feGaussianBlur stdDeviation="0.3861"/>
<feComposite in2="hardAlpha" operator="arithmetic" k2="-1" k3="1"/>
<feColorMatrix type="matrix" values="0 0 0 0 0 0 0 0 0 0 0 0 0 0 0 0 0 0 0.795035 0"/>
<feBlend mode="normal" in2="shape" result="effect1_innerShadow"/>
<feColorMatrix in="SourceAlpha" type="matrix" values="0 0 0 0 0 0 0 0 0 0 0 0 0 0 0 0 0 0 127 0" result="hardAlpha"/>
<feOffset dy="-0.772201"/>
<feComposite in2="hardAlpha" operator="arithmetic" k2="-1" k3="1"/>
<feColorMatrix type="matrix" values="0 0 0 0 0 0 0 0 0 0 0 0 0 0 0 0 0 0 0.80013 0"/>
<feBlend mode="normal" in2="effect1_innerShadow" result="effect2_innerShadow"/>
<feColorMatrix in="SourceAlpha" type="matrix" values="0 0 0 0 0 0 0 0 0 0 0 0 0 0 0 0 0 0 127 0" result="hardAlpha"/>
<feOffset dy="-0.3861"/>
<feComposite in2="hardAlpha" operator="arithmetic" k2="-1" k3="1"/>
<feColorMatrix type="matrix" values="0 0 0 0 1 0 0 0 0 1 0 0 0 0 1 0 0 0 0.197067 0"/>
<feBlend mode="normal" in2="effect2_innerShadow" result="effect3_innerShadow"/>
</filter>
<filter id="filter7_dd" x="141.566" y="13.3559" width="5.01029" height="5.01029" filterUnits="userSpaceOnUse" color-interpolation-filters="sRGB">
<feFlood flood-opacity="0" result="BackgroundImageFix"/>
<feColorMatrix in="SourceAlpha" type="matrix" values="0 0 0 0 0 0 0 0 0 0 0 0 0 0 0 0 0 0 127 0"/>
<feOffset/>
<feGaussianBlur stdDeviation="0.482625"/>
<feColorMatrix type="matrix" values="0 0 0 0 0 0 0 0 0 0 0 0 0 0 0 0 0 0 0.4 0"/>
<feBlend mode="normal" in2="BackgroundImageFix" result="effect1_dropShadow"/>
<feColorMatrix in="SourceAlpha" type="matrix" values="0 0 0 0 0 0 0 0 0 0 0 0 0 0 0 0 0 0 127 0"/>
<feOffset/>
<feColorMatrix type="matrix" values="0 0 0 0 0 0 0 0 0 0 0 0 0 0 0 0 0 0 1 0"/>
<feBlend mode="normal" in2="effect1_dropShadow" result="effect2_dropShadow"/>
<feBlend mode="normal" in="SourceGraphic" in2="effect2_dropShadow" result="shape"/>
</filter>
<filter id="filter8_f" x="140.651" y="12.6795" width="3.44102" height="5.28939" filterUnits="userSpaceOnUse" color-interpolation-filters="sRGB">
<feFlood flood-opacity="0" result="BackgroundImageFix"/>
<feBlend mode="normal" in="SourceGraphic" in2="BackgroundImageFix" result="shape"/>
<feGaussianBlur stdDeviation="0.524765" result="effect1_foregroundBlur"/>
</filter>
<filter id="filter9_f" x="143.331" y="13.2716" width="3.94693" height="4.4089" filterUnits="userSpaceOnUse" color-interpolation-filters="sRGB">
<feFlood flood-opacity="0" result="BackgroundImageFix"/>
<feBlend mode="normal" in="SourceGraphic" in2="BackgroundImageFix" result="shape"/>
<feGaussianBlur stdDeviation="0.524765" result="effect1_foregroundBlur"/>
</filter>
<filter id="filter10_f" x="142.27" y="15.325" width="4.2564" height="3.45419" filterUnits="userSpaceOnUse" color-interpolation-filters="sRGB">
<feFlood flood-opacity="0" result="BackgroundImageFix"/>
<feBlend mode="normal" in="SourceGraphic" in2="BackgroundImageFix" result="shape"/>
<feGaussianBlur stdDeviation="0.393984" result="effect1_foregroundBlur"/>
</filter>
<linearGradient id="paint0_linear" x1="122.5" y1="397.238" x2="122.5" y2="425.156" gradientUnits="userSpaceOnUse">
<stop offset="0.111483" stop-color="#04001A"/>
<stop offset="1" stop-color="#04001A" stop-opacity="0"/>
</linearGradient>
<linearGradient id="paint1_linear" x1="116.716" y1="2.92572" x2="116.716" y2="28.0898" gradientUnits="userSpaceOnUse">
<stop stop-opacity="0.901495"/>
<stop offset="1" stop-opacity="0.01"/>
</linearGradient>
<linearGradient id="paint2_linear" x1="129.792" y1="395.907" x2="129.792" y2="368.128" gradientUnits="userSpaceOnUse">
<stop stop-opacity="0.9"/>
<stop offset="1" stop-opacity="0.01"/>
</linearGradient>
<linearGradient id="paint3_linear" x1="116.593" y1="4.31158" x2="116.593" y2="29.2784" gradientUnits="userSpaceOnUse">
<stop stop-opacity="0.5"/>
<stop offset="1" stop-opacity="0.01"/>
</linearGradient>
<linearGradient id="paint4_linear" x1="129.86" y1="394.213" x2="129.86" y2="366.652" gradientUnits="userSpaceOnUse">
<stop stop-opacity="0.5"/>
<stop offset="1" stop-opacity="0.01"/>
</linearGradient>
<linearGradient id="paint5_linear" x1="27.3511" y1="2.9256" x2="27.3511" y2="395.907" gradientUnits="userSpaceOnUse">
<stop stop-color="#5F5F5F"/>
<stop offset="0.0101238" stop-color="#222222"/>
<stop offset="1" stop-color="#252525"/>
</linearGradient>
<linearGradient id="paint6_linear" x1="29.3518" y1="4.77362" x2="29.3518" y2="393.751" gradientUnits="userSpaceOnUse">
<stop stop-color="#6D6D6D"/>
<stop offset="0.0161168"/>
<stop offset="0.984697"/>
<stop offset="1" stop-color="#5C5C5C"/>
</linearGradient>
<radialGradient id="paint7_radial" cx="0" cy="0" r="1" gradientUnits="userSpaceOnUse" gradientTransform="translate(118.5 389.833) rotate(90) scale(112.634 39.5513)">
<stop stop-color="white" stop-opacity="0.151268"/>
<stop offset="1" stop-color="white" stop-opacity="0.01"/>
</radialGradient>
<radialGradient id="paint8_radial" cx="0" cy="0" r="1" gradientUnits="userSpaceOnUse" gradientTransform="translate(148.232 20.7839) rotate(45.1938) scale(5.8903)">
<stop stop-color="#434343"/>
<stop offset="1" stop-color="#121212"/>
</radialGradient>
<radialGradient id="paint9_radial" cx="0" cy="0" r="1" gradientUnits="userSpaceOnUse" gradientTransform="translate(144.071 14.3212) rotate(90) scale(3.07979)">
<stop stop-color="#2A4893"/>
<stop offset="1" stop-color="#213054"/>
</radialGradient>
<clipPath id="clip0">
<rect width="196.952" height="398.833" fill="white" transform="translate(24.4219)"/>
</clipPath>
<clipPath id="clip1">
<rect width="23.0984" height="0.615958" fill="white" transform="translate(111.426 398.217)"/>
</clipPath>
<clipPath id="clip2">
<rect width="24.0224" height="3.23378" fill="white" transform="translate(110.965 14.321)"/>
</clipPath>
<clipPath id="clip3">
<rect width="5.8516" height="5.8516" fill="white" transform="translate(141.149 12.9353)"/>
</clipPath>
<clipPath id="clip4">
<rect width="175" height="378" fill="white" transform="translate(36 10.9998)"/>
</clipPath>
</defs>
</svg>
