<svg width="127" height="106" viewBox="0 0 127 106" fill="none" xmlns="http://www.w3.org/2000/svg">
<mask id="mask0" mask-type="alpha" maskUnits="userSpaceOnUse" x="0" y="0" width="127" height="106">
<path d="M0 0H127V106H15C6.71573 106 0 99.2843 0 91V0Z" fill="white"/>
</mask>
<g mask="url(#mask0)">
<path d="M-25.0403 128.083C-44.0127 95.212 -32.2354 52.881 0.533203 33.9565C33.3018 15.032 69.9998 23.4159 88.9722 56.2867C94.1253 65.2147 102.3 77.7372 103.176 87.3657C105.523 113.187 93.1068 139.208 69.2385 152.992C36.4699 171.917 -6.06789 160.953 -25.0403 128.083Z" fill="#BABFBF"/>
<path d="M-24.9502 128.628C-43.8461 95.6399 -32.6312 53.4568 0.098999 34.41C33.5828 14.9247 67.616 27.3744 82.3281 53.0588C91.3949 68.8875 102.135 79.3622 102.515 88.3001C103.613 114.173 92.2515 140.066 68.5274 153.872C35.7971 172.919 -6.05423 161.617 -24.9502 128.628Z" fill="#D3DADA"/>
<path d="M-24.8885 128.727C-43.8437 95.9015 -32.7036 53.9899 -0.00630951 35.1152C33.4438 15.8061 61.6602 28.444 76.4185 54.0017C85.5137 69.7524 101.786 72.6426 102.508 88.8681C103.653 114.588 92.3371 140.308 68.6369 153.989C35.9395 172.863 -5.93323 161.553 -24.8885 128.727Z" fill="#E6ECEC"/>
<path d="M-24.8878 128.445C-43.8309 95.3624 -32.7199 53.1364 -0.0705948 34.1302C33.3305 14.6865 55.586 28.0872 70.3349 53.8445C79.4243 69.7181 100.448 66.2649 102.334 88.3286C104.544 114.179 92.1943 140.155 68.5288 153.931C35.8795 172.938 -5.94459 161.527 -24.8878 128.445Z" fill="#FCFCFC"/>
<path d="M-24.8971 128.984C-43.8318 95.9822 -32.7085 53.8481 -0.0524445 34.8755C33.3555 15.466 53.6032 33.5803 66.117 55.3913C75.2024 71.2266 97.6117 62.1908 102.341 88.9226C104.544 114.714 91.8438 140.038 68.1734 153.79C35.5173 172.762 -5.96243 161.987 -24.8971 128.984Z" fill="#EAE8EB"/>
<path d="M-23.7228 127.738C-42.6519 94.8635 -32.7035 53.5704 -0.0435104 34.6632C35.1425 14.2936 51.7185 42.3969 61.4697 56.5936C68.8725 67.3709 97.6174 61.8584 102.342 88.4888C104.54 114.183 91.8355 139.414 68.1623 153.118C35.5023 172.026 -4.79365 160.613 -23.7228 127.738Z" fill="#D6D1D8"/>
<path d="M-23.7337 127.568C-42.6526 94.5189 -32.6914 52.9966 -0.0254059 33.9755C33.3927 14.5166 49.276 43.9647 57.2005 56.1057C65.1249 68.2467 98.2658 61.7151 102.344 88.0637C104.534 113.898 91.8214 139.271 68.1438 153.058C35.4778 172.079 -4.8147 160.617 -23.7337 127.568Z" fill="#AFA7B1"/>
<path d="M-25.67 129.713C-44.9423 96.1977 -33.3581 52.8868 -0.128166 33.6242C33.1018 14.3616 44.2352 45.481 55.8088 59.0516C66.8913 72.0464 99.1036 64.6 104.078 88.5194C109.052 112.439 93.4006 140.425 69.3143 154.387C36.0844 173.649 -6.39766 163.228 -25.67 129.713Z" fill="#3F3C44"/>
</g>
</svg>
