<svg width="205" height="408" viewBox="0 0 205 408" fill="none" xmlns="http://www.w3.org/2000/svg">
<g filter="url(#filter0_d)">
<path d="M15 24C15 15.7157 21.7157 9 30 9H175C183.284 9 190 15.7157 190 24V372C190 380.284 183.284 387 175 387H30C21.7157 387 15 380.284 15 372V24Z" fill="#FCFCFF"/>
<path d="M53.3653 186.8C53.5146 186.8 53.632 186.848 53.7173 186.944C53.8133 187.029 53.8613 187.147 53.8613 187.296V197.504C53.8506 197.653 53.7973 197.776 53.7013 197.872C53.6053 197.957 53.488 198 53.3493 198C53.2106 198 53.0933 197.952 52.9973 197.856C52.9013 197.76 52.8533 197.643 52.8533 197.504V192.736H46.3573V197.504C46.3466 197.643 46.2933 197.76 46.1973 197.856C46.1013 197.952 45.984 198 45.8453 198C45.696 198 45.5733 197.957 45.4773 197.872C45.392 197.776 45.3493 197.653 45.3493 197.504V187.296C45.3493 187.147 45.3973 187.029 45.4933 186.944C45.5893 186.848 45.712 186.8 45.8613 186.8C46 186.8 46.1173 186.848 46.2133 186.944C46.3093 187.04 46.3573 187.157 46.3573 187.296V191.808H52.8533V187.296C52.8533 187.157 52.9013 187.04 52.9973 186.944C53.104 186.848 53.2266 186.8 53.3653 186.8ZM57.1529 197.52C57.1529 197.659 57.1049 197.776 57.0089 197.872C56.9236 197.957 56.8116 198 56.6729 198C56.5343 198 56.4169 197.957 56.3209 197.872C56.2356 197.776 56.1929 197.659 56.1929 197.52V190.16C56.1929 190.021 56.2356 189.909 56.3209 189.824C56.4169 189.728 56.5343 189.68 56.6729 189.68C56.8116 189.68 56.9236 189.728 57.0089 189.824C57.1049 189.909 57.1529 190.021 57.1529 190.16V197.52ZM56.6729 188.608C56.4596 188.608 56.2943 188.56 56.1769 188.464C56.0596 188.357 56.0009 188.208 56.0009 188.016V187.856C56.0009 187.664 56.0596 187.52 56.1769 187.424C56.3049 187.317 56.4756 187.264 56.6889 187.264C57.1156 187.264 57.3289 187.461 57.3289 187.856V188.016C57.3289 188.208 57.2703 188.357 57.1529 188.464C57.0463 188.56 56.8863 188.608 56.6729 188.608ZM64.8218 190.752V196.112C64.8218 196.517 64.8965 196.795 65.0458 196.944C65.1951 197.083 65.3925 197.152 65.6378 197.152C65.7018 197.152 65.7818 197.141 65.8778 197.12C65.9738 197.088 66.0485 197.072 66.1018 197.072C66.1978 197.072 66.2778 197.115 66.3418 197.2C66.4165 197.275 66.4538 197.365 66.4538 197.472C66.4538 197.621 66.3685 197.749 66.1978 197.856C66.0271 197.952 65.8245 198 65.5898 198C65.3018 198 65.0458 197.973 64.8218 197.92C64.5978 197.867 64.3791 197.707 64.1658 197.44C63.9631 197.173 63.8618 196.747 63.8618 196.16V190.752H62.6938C62.5658 190.752 62.4538 190.709 62.3578 190.624C62.2725 190.539 62.2298 190.432 62.2298 190.304C62.2298 190.176 62.2725 190.069 62.3578 189.984C62.4538 189.899 62.5658 189.856 62.6938 189.856H63.8618V188.08C63.8618 187.941 63.9045 187.829 63.9898 187.744C64.0858 187.648 64.2031 187.6 64.3418 187.6C64.4805 187.6 64.5925 187.648 64.6778 187.744C64.7738 187.829 64.8218 187.941 64.8218 188.08V189.856H66.4218C66.5391 189.856 66.6405 189.904 66.7258 190C66.8218 190.096 66.8698 190.203 66.8698 190.32C66.8698 190.448 66.8271 190.555 66.7418 190.64C66.6565 190.715 66.5498 190.752 66.4218 190.752H64.8218ZM71.9717 189.76C72.9317 189.76 73.6464 190.064 74.1157 190.672C74.585 191.269 74.8197 192.043 74.8197 192.992V197.52C74.8197 197.659 74.7717 197.776 74.6757 197.872C74.5904 197.957 74.4784 198 74.3397 198C74.201 198 74.0837 197.957 73.9877 197.872C73.9024 197.776 73.8597 197.659 73.8597 197.52V192.992C73.8597 192.299 73.6944 191.739 73.3637 191.312C73.033 190.875 72.5157 190.656 71.8117 190.656C71.3637 190.656 70.937 190.763 70.5317 190.976C70.137 191.189 69.817 191.477 69.5717 191.84C69.3264 192.192 69.2037 192.576 69.2037 192.992V197.52C69.2037 197.659 69.1557 197.776 69.0597 197.872C68.9744 197.957 68.8624 198 68.7237 198C68.585 198 68.4677 197.957 68.3717 197.872C68.2864 197.776 68.2437 197.659 68.2437 197.52V186.64C68.2437 186.501 68.2864 186.389 68.3717 186.304C68.4677 186.208 68.585 186.16 68.7237 186.16C68.8624 186.16 68.9744 186.208 69.0597 186.304C69.1557 186.389 69.2037 186.501 69.2037 186.64V191.328C69.4917 190.869 69.8917 190.496 70.4037 190.208C70.9157 189.909 71.4384 189.76 71.9717 189.76ZM83.8494 193.44C83.8494 193.568 83.8014 193.68 83.7054 193.776C83.6094 193.861 83.4974 193.904 83.3694 193.904H77.3214C77.3214 194.544 77.4494 195.12 77.7054 195.632C77.9721 196.133 78.3454 196.533 78.8254 196.832C79.3161 197.12 79.8921 197.264 80.5534 197.264C81.0654 197.264 81.5241 197.157 81.9294 196.944C82.3348 196.731 82.6601 196.459 82.9054 196.128C83.0228 196.032 83.1348 195.984 83.2414 195.984C83.3481 195.984 83.4441 196.027 83.5294 196.112C83.6148 196.197 83.6574 196.293 83.6574 196.4C83.6574 196.517 83.6041 196.629 83.4974 196.736C83.1561 197.152 82.7241 197.493 82.2014 197.76C81.6894 198.027 81.1454 198.16 80.5694 198.16C79.7481 198.16 79.0228 197.984 78.3934 197.632C77.7641 197.28 77.2734 196.789 76.9214 196.16C76.5694 195.52 76.3934 194.784 76.3934 193.952C76.3934 193.077 76.5641 192.315 76.9054 191.664C77.2574 191.003 77.7214 190.501 78.2974 190.16C78.8734 189.808 79.4868 189.632 80.1374 189.632C80.7774 189.632 81.3748 189.781 81.9294 190.08C82.4948 190.379 82.9534 190.816 83.3054 191.392C83.6574 191.968 83.8388 192.651 83.8494 193.44ZM80.1374 190.56C79.5188 190.56 78.9428 190.773 78.4094 191.2C77.8868 191.627 77.5508 192.24 77.4014 193.04H82.8574V192.912C82.8041 192.432 82.6441 192.016 82.3774 191.664C82.1108 191.301 81.7748 191.029 81.3694 190.848C80.9748 190.656 80.5641 190.56 80.1374 190.56ZM89.2521 189.632C89.4654 189.632 89.6574 189.675 89.8281 189.76C89.9987 189.845 90.0841 189.973 90.0841 190.144C90.0841 190.293 90.0414 190.416 89.9561 190.512C89.8707 190.597 89.7694 190.64 89.6521 190.64C89.5987 190.64 89.4921 190.613 89.3321 190.56C89.1827 190.507 89.0387 190.48 88.9001 190.48C88.5054 190.48 88.1107 190.635 87.7161 190.944C87.3321 191.243 87.0121 191.632 86.7561 192.112C86.5107 192.592 86.3881 193.077 86.3881 193.568V197.52C86.3881 197.659 86.3401 197.776 86.2441 197.872C86.1587 197.957 86.0467 198 85.9081 198C85.7694 198 85.6521 197.957 85.5561 197.872C85.4707 197.776 85.4281 197.659 85.4281 197.52V190.352C85.4281 190.213 85.4707 190.101 85.5561 190.016C85.6521 189.92 85.7694 189.872 85.9081 189.872C86.0467 189.872 86.1587 189.92 86.2441 190.016C86.3401 190.101 86.3881 190.213 86.3881 190.352V191.76C86.6334 191.152 87.0014 190.651 87.4921 190.256C87.9934 189.851 88.5801 189.643 89.2521 189.632ZM97.7369 193.44C97.7369 193.568 97.6889 193.68 97.5929 193.776C97.4969 193.861 97.3849 193.904 97.2569 193.904H91.2089C91.2089 194.544 91.3369 195.12 91.5929 195.632C91.8596 196.133 92.2329 196.533 92.7129 196.832C93.2036 197.12 93.7796 197.264 94.4409 197.264C94.9529 197.264 95.4116 197.157 95.8169 196.944C96.2223 196.731 96.5476 196.459 96.7929 196.128C96.9103 196.032 97.0223 195.984 97.1289 195.984C97.2356 195.984 97.3316 196.027 97.4169 196.112C97.5023 196.197 97.5449 196.293 97.5449 196.4C97.5449 196.517 97.4916 196.629 97.3849 196.736C97.0436 197.152 96.6116 197.493 96.0889 197.76C95.5769 198.027 95.0329 198.16 94.4569 198.16C93.6356 198.16 92.9103 197.984 92.2809 197.632C91.6516 197.28 91.1609 196.789 90.8089 196.16C90.4569 195.52 90.2809 194.784 90.2809 193.952C90.2809 193.077 90.4516 192.315 90.7929 191.664C91.1449 191.003 91.6089 190.501 92.1849 190.16C92.7609 189.808 93.3743 189.632 94.0249 189.632C94.6649 189.632 95.2623 189.781 95.8169 190.08C96.3823 190.379 96.8409 190.816 97.1929 191.392C97.5449 191.968 97.7263 192.651 97.7369 193.44ZM94.0249 190.56C93.4063 190.56 92.8303 190.773 92.2969 191.2C91.7743 191.627 91.4383 192.24 91.2889 193.04H96.7449V192.912C96.6916 192.432 96.5316 192.016 96.2649 191.664C95.9983 191.301 95.6623 191.029 95.2569 190.848C94.8623 190.656 94.4516 190.56 94.0249 190.56ZM99.5396 194.864C99.3476 194.864 99.2356 194.752 99.2036 194.528L99.0276 187.456C99.0276 187.253 99.0702 187.093 99.1556 186.976C99.2409 186.859 99.3689 186.8 99.5396 186.8C99.7102 186.8 99.8382 186.864 99.9236 186.992C100.009 187.109 100.046 187.264 100.036 187.456L99.8596 194.528C99.8489 194.752 99.7422 194.864 99.5396 194.864ZM99.4916 198C99.2996 198 99.1556 197.947 99.0596 197.84C98.9636 197.733 98.9156 197.584 98.9156 197.392V197.04C98.9156 196.848 98.9636 196.699 99.0596 196.592C99.1556 196.485 99.2996 196.432 99.4916 196.432H99.5876C99.7689 196.432 99.9076 196.485 100.004 196.592C100.1 196.699 100.148 196.848 100.148 197.04V197.392C100.148 197.584 100.1 197.733 100.004 197.84C99.9076 197.947 99.7689 198 99.5876 198H99.4916ZM107.092 197.504C107.081 197.643 107.028 197.76 106.932 197.856C106.836 197.952 106.718 198 106.58 198C106.43 198 106.308 197.957 106.212 197.872C106.126 197.776 106.084 197.653 106.084 197.504V187.296C106.084 187.147 106.132 187.029 106.228 186.944C106.324 186.848 106.446 186.8 106.596 186.8C106.734 186.8 106.852 186.848 106.948 186.944C107.044 187.04 107.092 187.157 107.092 187.296V197.504ZM110.676 187.664C110.676 187.963 110.596 188.267 110.436 188.576C110.286 188.875 110.094 189.125 109.86 189.328C109.625 189.52 109.396 189.616 109.172 189.616C109.054 189.616 108.953 189.589 108.868 189.536C108.793 189.472 108.756 189.381 108.756 189.264C108.756 189.157 108.782 189.083 108.836 189.04C108.889 188.997 108.969 188.96 109.076 188.928C109.193 188.896 109.278 188.864 109.332 188.832C109.481 188.757 109.593 188.651 109.668 188.512C109.753 188.363 109.796 188.203 109.796 188.032C109.796 187.915 109.764 187.819 109.7 187.744C109.636 187.669 109.55 187.632 109.444 187.632C109.294 187.632 109.15 187.68 109.012 187.776C108.884 187.669 108.82 187.541 108.82 187.392C108.82 187.211 108.916 187.051 109.108 186.912C109.3 186.763 109.508 186.688 109.732 186.688C110.009 186.688 110.233 186.773 110.404 186.944C110.585 187.115 110.676 187.355 110.676 187.664ZM121.433 189.76C122.393 189.76 123.097 190.059 123.545 190.656C124.004 191.243 124.233 192.021 124.233 192.992V197.52C124.233 197.659 124.185 197.776 124.089 197.872C124.004 197.957 123.892 198 123.753 198C123.614 198 123.497 197.957 123.401 197.872C123.316 197.776 123.273 197.659 123.273 197.52V193.04C123.273 192.336 123.102 191.765 122.761 191.328C122.43 190.88 121.913 190.656 121.209 190.656C120.761 190.656 120.334 190.763 119.929 190.976C119.534 191.189 119.214 191.483 118.969 191.856C118.724 192.219 118.601 192.613 118.601 193.04V197.52C118.601 197.659 118.553 197.776 118.457 197.872C118.372 197.957 118.26 198 118.121 198C117.982 198 117.865 197.957 117.769 197.872C117.684 197.776 117.641 197.659 117.641 197.52V192.992C117.641 192.299 117.481 191.739 117.161 191.312C116.841 190.875 116.34 190.656 115.657 190.656C115.22 190.656 114.804 190.763 114.409 190.976C114.025 191.189 113.71 191.477 113.465 191.84C113.23 192.192 113.113 192.576 113.113 192.992V197.52C113.113 197.659 113.065 197.776 112.969 197.872C112.884 197.957 112.772 198 112.633 198C112.494 198 112.377 197.957 112.281 197.872C112.196 197.776 112.153 197.659 112.153 197.52V190.352C112.153 190.213 112.196 190.101 112.281 190.016C112.377 189.92 112.494 189.872 112.633 189.872C112.772 189.872 112.884 189.92 112.969 190.016C113.065 190.101 113.113 190.213 113.113 190.352V191.28C113.401 190.843 113.79 190.48 114.281 190.192C114.772 189.904 115.289 189.76 115.833 189.76C116.452 189.76 116.985 189.909 117.433 190.208C117.881 190.507 118.201 190.944 118.393 191.52C118.617 191.051 119.028 190.64 119.625 190.288C120.222 189.936 120.825 189.76 121.433 189.76ZM135.122 186.8C136.146 186.8 137.004 187.056 137.698 187.568C138.402 188.069 138.924 188.747 139.266 189.6C139.618 190.443 139.794 191.376 139.794 192.4C139.794 193.456 139.618 194.405 139.266 195.248C138.924 196.091 138.402 196.763 137.698 197.264C137.004 197.755 136.146 198 135.122 198H131.042C130.903 198 130.786 197.957 130.69 197.872C130.604 197.776 130.562 197.659 130.562 197.52V187.28C130.562 187.141 130.604 187.029 130.69 186.944C130.786 186.848 130.903 186.8 131.042 186.8H135.122ZM134.962 197.056C136.242 197.056 137.196 196.629 137.826 195.776C138.455 194.912 138.77 193.787 138.77 192.4C138.77 191.536 138.636 190.757 138.37 190.064C138.103 189.36 137.682 188.8 137.106 188.384C136.54 187.957 135.826 187.744 134.962 187.744H131.57V197.056H134.962ZM148.459 193.44C148.459 193.568 148.411 193.68 148.315 193.776C148.219 193.861 148.107 193.904 147.979 193.904H141.931C141.931 194.544 142.059 195.12 142.315 195.632C142.581 196.133 142.955 196.533 143.435 196.832C143.925 197.12 144.501 197.264 145.163 197.264C145.675 197.264 146.133 197.157 146.539 196.944C146.944 196.731 147.269 196.459 147.515 196.128C147.632 196.032 147.744 195.984 147.851 195.984C147.957 195.984 148.053 196.027 148.139 196.112C148.224 196.197 148.267 196.293 148.267 196.4C148.267 196.517 148.213 196.629 148.107 196.736C147.765 197.152 147.333 197.493 146.811 197.76C146.299 198.027 145.755 198.16 145.179 198.16C144.357 198.16 143.632 197.984 143.003 197.632C142.373 197.28 141.883 196.789 141.531 196.16C141.179 195.52 141.003 194.784 141.003 193.952C141.003 193.077 141.173 192.315 141.515 191.664C141.867 191.003 142.331 190.501 142.907 190.16C143.483 189.808 144.096 189.632 144.747 189.632C145.387 189.632 145.984 189.781 146.539 190.08C147.104 190.379 147.563 190.816 147.915 191.392C148.267 191.968 148.448 192.651 148.459 193.44ZM144.747 190.56C144.128 190.56 143.552 190.773 143.019 191.2C142.496 191.627 142.16 192.24 142.011 193.04H147.467V192.912C147.413 192.432 147.253 192.016 146.987 191.664C146.72 191.301 146.384 191.029 145.979 190.848C145.584 190.656 145.173 190.56 144.747 190.56ZM156.949 193.44C156.949 193.568 156.901 193.68 156.805 193.776C156.709 193.861 156.597 193.904 156.469 193.904H150.421C150.421 194.544 150.549 195.12 150.805 195.632C151.072 196.133 151.445 196.533 151.925 196.832C152.416 197.12 152.992 197.264 153.653 197.264C154.165 197.264 154.624 197.157 155.029 196.944C155.435 196.731 155.76 196.459 156.005 196.128C156.123 196.032 156.235 195.984 156.341 195.984C156.448 195.984 156.544 196.027 156.629 196.112C156.715 196.197 156.757 196.293 156.757 196.4C156.757 196.517 156.704 196.629 156.597 196.736C156.256 197.152 155.824 197.493 155.301 197.76C154.789 198.027 154.245 198.16 153.669 198.16C152.848 198.16 152.123 197.984 151.493 197.632C150.864 197.28 150.373 196.789 150.021 196.16C149.669 195.52 149.493 194.784 149.493 193.952C149.493 193.077 149.664 192.315 150.005 191.664C150.357 191.003 150.821 190.501 151.397 190.16C151.973 189.808 152.587 189.632 153.237 189.632C153.877 189.632 154.475 189.781 155.029 190.08C155.595 190.379 156.053 190.816 156.405 191.392C156.757 191.968 156.939 192.651 156.949 193.44ZM153.237 190.56C152.619 190.56 152.043 190.773 151.509 191.2C150.987 191.627 150.651 192.24 150.501 193.04H155.957V192.912C155.904 192.432 155.744 192.016 155.477 191.664C155.211 191.301 154.875 191.029 154.469 190.848C154.075 190.656 153.664 190.56 153.237 190.56ZM158.656 198C158.475 198 158.336 197.947 158.24 197.84C158.144 197.723 158.096 197.568 158.096 197.376V197.04C158.096 196.848 158.144 196.699 158.24 196.592C158.336 196.485 158.475 196.432 158.656 196.432H158.768C158.949 196.432 159.088 196.485 159.184 196.592C159.28 196.699 159.328 196.848 159.328 197.04V197.376C159.328 197.568 159.28 197.723 159.184 197.84C159.088 197.947 158.949 198 158.768 198H158.656ZM65.2044 215.36C65.2258 215.445 65.2364 215.509 65.2364 215.552C65.2364 215.691 65.1884 215.803 65.0924 215.888C64.9964 215.973 64.8844 216.016 64.7564 216.016C64.6498 216.016 64.5538 215.989 64.4684 215.936C64.3938 215.872 64.3351 215.792 64.2924 215.696L63.0924 212.768H57.8924L56.7084 215.696C56.6231 215.909 56.4791 216.016 56.2764 216.016C56.1271 216.016 56.0151 215.979 55.9404 215.904C55.8658 215.829 55.8231 215.728 55.8124 215.6V215.552C55.8124 215.488 55.8178 215.44 55.8284 215.408L60.0524 205.072C60.1378 204.859 60.2978 204.752 60.5324 204.752C60.6391 204.752 60.7298 204.784 60.8044 204.848C60.8898 204.901 60.9538 204.976 60.9964 205.072L65.2044 215.36ZM62.7084 211.824L60.4684 206.352L58.2604 211.824H62.7084ZM70.4278 207.632C71.4198 207.632 72.1451 207.925 72.6038 208.512C73.0731 209.088 73.3078 209.856 73.3078 210.816V215.52C73.3078 215.659 73.2598 215.776 73.1638 215.872C73.0678 215.957 72.9558 216 72.8278 216C72.6891 216 72.5718 215.957 72.4758 215.872C72.3905 215.776 72.3478 215.659 72.3478 215.52V210.864C72.3478 210.171 72.1718 209.611 71.8198 209.184C71.4785 208.747 70.9451 208.528 70.2198 208.528C69.7611 208.528 69.3238 208.635 68.9078 208.848C68.5025 209.061 68.1718 209.349 67.9158 209.712C67.6598 210.064 67.5318 210.448 67.5318 210.864V215.52C67.5318 215.659 67.4838 215.776 67.3878 215.872C67.3025 215.957 67.1905 216 67.0518 216C66.9131 216 66.7958 215.957 66.6998 215.872C66.6145 215.776 66.5718 215.659 66.5718 215.52V208.352C66.5718 208.213 66.6145 208.101 66.6998 208.016C66.7958 207.92 66.9131 207.872 67.0518 207.872C67.1905 207.872 67.3025 207.92 67.3878 208.016C67.4838 208.101 67.5318 208.213 67.5318 208.352V209.232C67.8198 208.773 68.2305 208.395 68.7638 208.096C69.3078 207.787 69.8625 207.632 70.4278 207.632ZM82.0618 204.16C82.2005 204.16 82.3125 204.208 82.3978 204.304C82.4938 204.389 82.5418 204.501 82.5418 204.64V215.52C82.5418 215.659 82.4938 215.776 82.3978 215.872C82.3125 215.957 82.2005 216 82.0618 216C81.9231 216 81.8058 215.957 81.7098 215.872C81.6245 215.776 81.5818 215.659 81.5818 215.52V214.4C81.3151 214.891 80.9151 215.307 80.3818 215.648C79.8591 215.989 79.2778 216.16 78.6378 216.16C77.9338 216.16 77.2938 215.979 76.7178 215.616C76.1525 215.243 75.7045 214.731 75.3738 214.08C75.0431 213.429 74.8778 212.699 74.8778 211.888C74.8778 211.088 75.0431 210.363 75.3738 209.712C75.7045 209.061 76.1525 208.555 76.7178 208.192C77.2938 207.819 77.9285 207.632 78.6218 207.632C79.2511 207.632 79.8325 207.792 80.3658 208.112C80.8991 208.421 81.3045 208.827 81.5818 209.328V204.64C81.5818 204.501 81.6245 204.389 81.7098 204.304C81.8058 204.208 81.9231 204.16 82.0618 204.16ZM78.7338 215.264C79.2885 215.264 79.7845 215.12 80.2218 214.832C80.6698 214.544 81.0165 214.144 81.2618 213.632C81.5178 213.109 81.6458 212.528 81.6458 211.888C81.6458 211.259 81.5178 210.688 81.2618 210.176C81.0165 209.664 80.6698 209.264 80.2218 208.976C79.7845 208.677 79.2885 208.528 78.7338 208.528C78.1791 208.528 77.6778 208.677 77.2298 208.976C76.7925 209.264 76.4458 209.664 76.1898 210.176C75.9445 210.688 75.8218 211.259 75.8218 211.888C75.8218 212.528 75.9445 213.104 76.1898 213.616C76.4458 214.128 76.7925 214.533 77.2298 214.832C77.6778 215.12 78.1791 215.264 78.7338 215.264ZM94.7178 207.68C94.8565 207.68 94.9685 207.728 95.0538 207.824C95.1498 207.909 95.1978 208.021 95.1978 208.16V215.216C95.1978 216.059 95.0325 216.779 94.7018 217.376C94.3711 217.973 93.9125 218.427 93.3258 218.736C92.7391 219.045 92.0778 219.2 91.3418 219.2C90.8938 219.2 90.4725 219.152 90.0778 219.056C89.6938 218.96 89.3738 218.832 89.1178 218.672C88.8938 218.533 88.7818 218.379 88.7818 218.208C88.7818 218.187 88.7925 218.133 88.8138 218.048C88.8458 217.941 88.8991 217.861 88.9738 217.808C89.0485 217.755 89.1285 217.728 89.2138 217.728C89.2778 217.728 89.3418 217.744 89.4058 217.776C90.0885 218.149 90.7391 218.336 91.3578 218.336C92.2431 218.336 92.9418 218.059 93.4538 217.504C93.9765 216.949 94.2378 216.192 94.2378 215.232V214.672C93.9711 215.12 93.5871 215.483 93.0858 215.76C92.5845 216.027 92.0405 216.16 91.4538 216.16C90.5258 216.16 89.8218 215.883 89.3418 215.328C88.8618 214.773 88.6218 214.021 88.6218 213.072V208.16C88.6218 208.021 88.6645 207.909 88.7498 207.824C88.8458 207.728 88.9631 207.68 89.1018 207.68C89.2405 207.68 89.3525 207.728 89.4378 207.824C89.5338 207.909 89.5818 208.021 89.5818 208.16V212.928C89.5818 213.696 89.7471 214.277 90.0778 214.672C90.4191 215.067 90.9471 215.264 91.6618 215.264C92.0991 215.264 92.5151 215.157 92.9098 214.944C93.3151 214.72 93.6351 214.432 93.8698 214.08C94.1151 213.717 94.2378 213.333 94.2378 212.928V208.16C94.2378 208.021 94.2805 207.909 94.3658 207.824C94.4618 207.728 94.5791 207.68 94.7178 207.68ZM104.789 211.904C104.789 212.704 104.613 213.429 104.261 214.08C103.909 214.731 103.424 215.243 102.805 215.616C102.187 215.979 101.499 216.16 100.741 216.16C99.9841 216.16 99.2961 215.979 98.6774 215.616C98.0588 215.243 97.5734 214.731 97.2214 214.08C96.8694 213.429 96.6934 212.704 96.6934 211.904C96.6934 211.104 96.8694 210.379 97.2214 209.728C97.5734 209.077 98.0588 208.565 98.6774 208.192C99.2961 207.819 99.9841 207.632 100.741 207.632C101.499 207.632 102.187 207.819 102.805 208.192C103.424 208.565 103.909 209.077 104.261 209.728C104.613 210.379 104.789 211.104 104.789 211.904ZM103.829 211.904C103.829 211.264 103.696 210.688 103.429 210.176C103.163 209.664 102.789 209.264 102.309 208.976C101.84 208.677 101.317 208.528 100.741 208.528C100.165 208.528 99.6428 208.677 99.1734 208.976C98.7041 209.264 98.3308 209.664 98.0534 210.176C97.7868 210.688 97.6534 211.264 97.6534 211.904C97.6534 212.533 97.7868 213.104 98.0534 213.616C98.3308 214.128 98.7041 214.533 99.1734 214.832C99.6428 215.12 100.165 215.264 100.741 215.264C101.317 215.264 101.84 215.12 102.309 214.832C102.789 214.544 103.163 214.144 103.429 213.632C103.696 213.12 103.829 212.544 103.829 211.904ZM112.465 207.872C112.604 207.872 112.716 207.92 112.801 208.016C112.897 208.101 112.945 208.213 112.945 208.352V212.864C112.945 213.909 112.652 214.715 112.065 215.28C111.478 215.835 110.668 216.112 109.633 216.112C108.609 216.112 107.804 215.835 107.217 215.28C106.641 214.715 106.353 213.909 106.353 212.864V208.352C106.353 208.213 106.396 208.101 106.481 208.016C106.577 207.92 106.694 207.872 106.833 207.872C106.972 207.872 107.084 207.92 107.169 208.016C107.265 208.101 107.313 208.213 107.313 208.352V212.864C107.313 213.632 107.516 214.219 107.921 214.624C108.326 215.019 108.897 215.216 109.633 215.216C110.38 215.216 110.956 215.019 111.361 214.624C111.777 214.219 111.985 213.632 111.985 212.864V208.352C111.985 208.213 112.028 208.101 112.113 208.016C112.209 207.92 112.326 207.872 112.465 207.872ZM125.677 207.824C125.816 207.824 125.928 207.872 126.013 207.968C126.109 208.064 126.157 208.181 126.157 208.32V215.52C126.157 215.659 126.109 215.776 126.013 215.872C125.928 215.957 125.816 216 125.677 216C125.539 216 125.421 215.957 125.325 215.872C125.24 215.776 125.197 215.659 125.197 215.52V214.448C124.931 214.928 124.531 215.333 123.997 215.664C123.464 215.995 122.883 216.16 122.253 216.16C121.539 216.16 120.893 215.973 120.317 215.6C119.752 215.227 119.304 214.715 118.973 214.064C118.653 213.413 118.493 212.683 118.493 211.872C118.493 211.061 118.659 210.336 118.989 209.696C119.32 209.045 119.768 208.539 120.333 208.176C120.909 207.813 121.544 207.632 122.237 207.632C122.877 207.632 123.464 207.787 123.997 208.096C124.531 208.405 124.931 208.811 125.197 209.312V208.32C125.197 208.181 125.24 208.064 125.325 207.968C125.421 207.872 125.539 207.824 125.677 207.824ZM122.349 215.264C122.904 215.264 123.4 215.12 123.837 214.832C124.285 214.533 124.632 214.128 124.877 213.616C125.133 213.093 125.261 212.512 125.261 211.872C125.261 211.253 125.133 210.688 124.877 210.176C124.632 209.664 124.285 209.264 123.837 208.976C123.4 208.677 122.904 208.528 122.349 208.528C121.795 208.528 121.293 208.672 120.845 208.96C120.408 209.248 120.061 209.648 119.805 210.16C119.56 210.661 119.437 211.232 119.437 211.872C119.437 212.512 119.56 213.093 119.805 213.616C120.051 214.128 120.392 214.533 120.829 214.832C121.277 215.12 121.784 215.264 122.349 215.264ZM132.086 207.632C132.3 207.632 132.492 207.675 132.662 207.76C132.833 207.845 132.918 207.973 132.918 208.144C132.918 208.293 132.876 208.416 132.79 208.512C132.705 208.597 132.604 208.64 132.486 208.64C132.433 208.64 132.326 208.613 132.166 208.56C132.017 208.507 131.873 208.48 131.734 208.48C131.34 208.48 130.945 208.635 130.55 208.944C130.166 209.243 129.846 209.632 129.59 210.112C129.345 210.592 129.222 211.077 129.222 211.568V215.52C129.222 215.659 129.174 215.776 129.078 215.872C128.993 215.957 128.881 216 128.742 216C128.604 216 128.486 215.957 128.39 215.872C128.305 215.776 128.262 215.659 128.262 215.52V208.352C128.262 208.213 128.305 208.101 128.39 208.016C128.486 207.92 128.604 207.872 128.742 207.872C128.881 207.872 128.993 207.92 129.078 208.016C129.174 208.101 129.222 208.213 129.222 208.352V209.76C129.468 209.152 129.836 208.651 130.326 208.256C130.828 207.851 131.414 207.643 132.086 207.632ZM140.571 211.44C140.571 211.568 140.523 211.68 140.427 211.776C140.331 211.861 140.219 211.904 140.091 211.904H134.043C134.043 212.544 134.171 213.12 134.427 213.632C134.694 214.133 135.067 214.533 135.547 214.832C136.038 215.12 136.614 215.264 137.275 215.264C137.787 215.264 138.246 215.157 138.651 214.944C139.057 214.731 139.382 214.459 139.627 214.128C139.745 214.032 139.857 213.984 139.963 213.984C140.07 213.984 140.166 214.027 140.251 214.112C140.337 214.197 140.379 214.293 140.379 214.4C140.379 214.517 140.326 214.629 140.219 214.736C139.878 215.152 139.446 215.493 138.923 215.76C138.411 216.027 137.867 216.16 137.291 216.16C136.47 216.16 135.745 215.984 135.115 215.632C134.486 215.28 133.995 214.789 133.643 214.16C133.291 213.52 133.115 212.784 133.115 211.952C133.115 211.077 133.286 210.315 133.627 209.664C133.979 209.003 134.443 208.501 135.019 208.16C135.595 207.808 136.209 207.632 136.859 207.632C137.499 207.632 138.097 207.781 138.651 208.08C139.217 208.379 139.675 208.816 140.027 209.392C140.379 209.968 140.561 210.651 140.571 211.44ZM136.859 208.56C136.241 208.56 135.665 208.773 135.131 209.2C134.609 209.627 134.273 210.24 134.123 211.04H139.579V210.912C139.526 210.432 139.366 210.016 139.099 209.664C138.833 209.301 138.497 209.029 138.091 208.848C137.697 208.656 137.286 208.56 136.859 208.56ZM144.79 204.224C145.409 204.224 145.969 204.363 146.47 204.64C146.982 204.917 147.387 205.317 147.686 205.84C147.985 206.352 148.134 206.949 148.134 207.632C148.134 208.176 147.995 208.693 147.718 209.184C147.451 209.664 147.078 210.064 146.598 210.384C146.129 210.704 145.611 210.891 145.046 210.944V212.528C145.046 212.667 144.998 212.784 144.902 212.88C144.817 212.965 144.705 213.008 144.566 213.008C144.427 213.008 144.31 212.965 144.214 212.88C144.129 212.784 144.091 212.667 144.102 212.528V210.624C144.102 210.485 144.145 210.368 144.23 210.272C144.326 210.176 144.443 210.128 144.582 210.128C145.318 210.085 145.926 209.835 146.406 209.376C146.897 208.917 147.142 208.336 147.142 207.632C147.142 207.152 147.035 206.725 146.822 206.352C146.619 205.968 146.337 205.675 145.974 205.472C145.622 205.259 145.227 205.152 144.79 205.152C144.363 205.152 143.958 205.253 143.574 205.456C143.19 205.648 142.865 205.915 142.598 206.256C142.47 206.384 142.337 206.448 142.198 206.448C142.091 206.448 142.006 206.421 141.942 206.368C141.782 206.272 141.702 206.144 141.702 205.984C141.702 205.877 141.745 205.771 141.83 205.664C142.171 205.227 142.603 204.88 143.126 204.624C143.649 204.357 144.203 204.224 144.79 204.224ZM144.678 214.432C144.859 214.432 144.998 214.485 145.094 214.592C145.19 214.699 145.238 214.848 145.238 215.04V215.392C145.238 215.584 145.19 215.733 145.094 215.84C144.998 215.947 144.859 216 144.678 216H144.582C144.39 216 144.246 215.947 144.15 215.84C144.054 215.733 144.006 215.584 144.006 215.392V215.04C144.006 214.848 144.054 214.699 144.15 214.592C144.246 214.485 144.39 214.432 144.582 214.432H144.678Z" fill="#170F2E"/>
<path d="M50.7395 352C50.8261 352 50.8961 352.027 50.9495 352.08C51.0095 352.133 51.0395 352.203 51.0395 352.29C51.0395 352.377 51.0095 352.447 50.9495 352.5C50.8961 352.547 50.8261 352.57 50.7395 352.57H48.6695V358.7C48.6695 358.787 48.6395 358.86 48.5795 358.92C48.5195 358.973 48.4461 359 48.3595 359C48.2661 359 48.1895 358.973 48.1295 358.92C48.0761 358.86 48.0495 358.787 48.0495 358.7V352.57H45.9795C45.8928 352.57 45.8195 352.543 45.7595 352.49C45.7061 352.437 45.6795 352.367 45.6795 352.28C45.6795 352.2 45.7061 352.133 45.7595 352.08C45.8195 352.027 45.8928 352 45.9795 352H50.7395ZM54.9185 353.89C55.0052 353.89 55.0752 353.92 55.1285 353.98C55.1885 354.04 55.2185 354.113 55.2185 354.2V358.7C55.2185 358.787 55.1885 358.86 55.1285 358.92C55.0752 358.973 55.0052 359 54.9185 359C54.8319 359 54.7585 358.973 54.6985 358.92C54.6452 358.86 54.6185 358.787 54.6185 358.7V358.03C54.4519 358.33 54.2019 358.583 53.8685 358.79C53.5352 358.997 53.1719 359.1 52.7785 359.1C52.3319 359.1 51.9285 358.983 51.5685 358.75C51.2152 358.517 50.9352 358.197 50.7285 357.79C50.5285 357.383 50.4285 356.927 50.4285 356.42C50.4285 355.913 50.5319 355.46 50.7385 355.06C50.9452 354.653 51.2252 354.337 51.5785 354.11C51.9385 353.883 52.3352 353.77 52.7685 353.77C53.1685 353.77 53.5352 353.867 53.8685 354.06C54.2019 354.253 54.4519 354.507 54.6185 354.82V354.2C54.6185 354.113 54.6452 354.04 54.6985 353.98C54.7585 353.92 54.8319 353.89 54.9185 353.89ZM52.8385 358.54C53.1852 358.54 53.4952 358.45 53.7685 358.27C54.0485 358.083 54.2652 357.83 54.4185 357.51C54.5785 357.183 54.6585 356.82 54.6585 356.42C54.6585 356.033 54.5785 355.68 54.4185 355.36C54.2652 355.04 54.0485 354.79 53.7685 354.61C53.4952 354.423 53.1852 354.33 52.8385 354.33C52.4919 354.33 52.1785 354.42 51.8985 354.6C51.6252 354.78 51.4085 355.03 51.2485 355.35C51.0952 355.663 51.0185 356.02 51.0185 356.42C51.0185 356.82 51.0952 357.183 51.2485 357.51C51.4019 357.83 51.6152 358.083 51.8885 358.27C52.1685 358.45 52.4852 358.54 52.8385 358.54ZM58.8141 353.85C59.2541 353.85 59.6541 353.963 60.0141 354.19C60.3741 354.41 60.6541 354.72 60.8541 355.12C61.0608 355.513 61.1641 355.957 61.1641 356.45C61.1641 356.95 61.0608 357.4 60.8541 357.8C60.6541 358.193 60.3741 358.503 60.0141 358.73C59.6608 358.957 59.2641 359.07 58.8241 359.07C58.4375 359.07 58.0808 358.98 57.7541 358.8C57.4341 358.613 57.1775 358.367 56.9841 358.06V360.7C56.9841 360.787 56.9541 360.857 56.8941 360.91C56.8408 360.97 56.7708 361 56.6841 361C56.5975 361 56.5241 360.97 56.4641 360.91C56.4108 360.857 56.3841 360.787 56.3841 360.7V354.18C56.3841 354.093 56.4108 354.02 56.4641 353.96C56.5241 353.9 56.5975 353.87 56.6841 353.87C56.7708 353.87 56.8408 353.9 56.8941 353.96C56.9541 354.02 56.9841 354.093 56.9841 354.18V354.86C57.1575 354.547 57.4075 354.3 57.7341 354.12C58.0608 353.94 58.4208 353.85 58.8141 353.85ZM58.7641 358.51C59.1108 358.51 59.4208 358.423 59.6941 358.25C59.9741 358.07 60.1908 357.823 60.3441 357.51C60.5041 357.197 60.5841 356.843 60.5841 356.45C60.5841 356.063 60.5041 355.717 60.3441 355.41C60.1908 355.097 59.9741 354.853 59.6941 354.68C59.4208 354.5 59.1108 354.41 58.7641 354.41C58.4108 354.41 58.0941 354.497 57.8141 354.67C57.5341 354.843 57.3175 355.087 57.1641 355.4C57.0108 355.707 56.9341 356.057 56.9341 356.45C56.9341 356.843 57.0108 357.197 57.1641 357.51C57.3175 357.823 57.5341 358.07 57.8141 358.25C58.0941 358.423 58.4108 358.51 58.7641 358.51ZM65.3341 354.47V357.82C65.3341 358.073 65.3808 358.247 65.4741 358.34C65.5675 358.427 65.6908 358.47 65.8441 358.47C65.8841 358.47 65.9341 358.463 65.9941 358.45C66.0541 358.43 66.1008 358.42 66.1341 358.42C66.1941 358.42 66.2441 358.447 66.2841 358.5C66.3308 358.547 66.3541 358.603 66.3541 358.67C66.3541 358.763 66.3008 358.843 66.1941 358.91C66.0875 358.97 65.9608 359 65.8141 359C65.6341 359 65.4741 358.983 65.3341 358.95C65.1941 358.917 65.0575 358.817 64.9241 358.65C64.7975 358.483 64.7341 358.217 64.7341 357.85V354.47H64.0041C63.9241 354.47 63.8541 354.443 63.7941 354.39C63.7408 354.337 63.7141 354.27 63.7141 354.19C63.7141 354.11 63.7408 354.043 63.7941 353.99C63.8541 353.937 63.9241 353.91 64.0041 353.91H64.7341V352.8C64.7341 352.713 64.7608 352.643 64.8141 352.59C64.8741 352.53 64.9475 352.5 65.0341 352.5C65.1208 352.5 65.1908 352.53 65.2441 352.59C65.3041 352.643 65.3341 352.713 65.3341 352.8V353.91H66.3341C66.4075 353.91 66.4708 353.94 66.5241 354C66.5841 354.06 66.6141 354.127 66.6141 354.2C66.6141 354.28 66.5875 354.347 66.5341 354.4C66.4808 354.447 66.4141 354.47 66.3341 354.47H65.3341ZM71.994 356.44C71.994 356.94 71.884 357.393 71.664 357.8C71.444 358.207 71.1407 358.527 70.754 358.76C70.3673 358.987 69.9373 359.1 69.464 359.1C68.9907 359.1 68.5607 358.987 68.174 358.76C67.7873 358.527 67.484 358.207 67.264 357.8C67.044 357.393 66.934 356.94 66.934 356.44C66.934 355.94 67.044 355.487 67.264 355.08C67.484 354.673 67.7873 354.353 68.174 354.12C68.5607 353.887 68.9907 353.77 69.464 353.77C69.9373 353.77 70.3673 353.887 70.754 354.12C71.1407 354.353 71.444 354.673 71.664 355.08C71.884 355.487 71.994 355.94 71.994 356.44ZM71.394 356.44C71.394 356.04 71.3107 355.68 71.144 355.36C70.9773 355.04 70.744 354.79 70.444 354.61C70.1507 354.423 69.824 354.33 69.464 354.33C69.104 354.33 68.7773 354.423 68.484 354.61C68.1907 354.79 67.9573 355.04 67.784 355.36C67.6173 355.68 67.534 356.04 67.534 356.44C67.534 356.833 67.6173 357.19 67.784 357.51C67.9573 357.83 68.1907 358.083 68.484 358.27C68.7773 358.45 69.104 358.54 69.464 358.54C69.824 358.54 70.1507 358.45 70.444 358.27C70.744 358.09 70.9773 357.84 71.144 357.52C71.3107 357.2 71.394 356.84 71.394 356.44ZM76.1556 354.47V357.82C76.1556 358.073 76.2023 358.247 76.2956 358.34C76.389 358.427 76.5123 358.47 76.6656 358.47C76.7056 358.47 76.7556 358.463 76.8156 358.45C76.8756 358.43 76.9223 358.42 76.9556 358.42C77.0156 358.42 77.0656 358.447 77.1056 358.5C77.1523 358.547 77.1756 358.603 77.1756 358.67C77.1756 358.763 77.1223 358.843 77.0156 358.91C76.909 358.97 76.7823 359 76.6356 359C76.4556 359 76.2956 358.983 76.1556 358.95C76.0156 358.917 75.879 358.817 75.7456 358.65C75.619 358.483 75.5556 358.217 75.5556 357.85V354.47H74.8256C74.7456 354.47 74.6756 354.443 74.6156 354.39C74.5623 354.337 74.5356 354.27 74.5356 354.19C74.5356 354.11 74.5623 354.043 74.6156 353.99C74.6756 353.937 74.7456 353.91 74.8256 353.91H75.5556V352.8C75.5556 352.713 75.5823 352.643 75.6356 352.59C75.6956 352.53 75.769 352.5 75.8556 352.5C75.9423 352.5 76.0123 352.53 76.0656 352.59C76.1256 352.643 76.1556 352.713 76.1556 352.8V353.91H77.1556C77.229 353.91 77.2923 353.94 77.3456 354C77.4056 354.06 77.4356 354.127 77.4356 354.2C77.4356 354.28 77.409 354.347 77.3556 354.4C77.3023 354.447 77.2356 354.47 77.1556 354.47H76.1556ZM81.9543 353.8C82.041 353.8 82.111 353.83 82.1643 353.89C82.2243 353.943 82.2543 354.013 82.2543 354.1V358.51C82.2543 359.037 82.151 359.487 81.9443 359.86C81.7376 360.233 81.451 360.517 81.0843 360.71C80.7176 360.903 80.3043 361 79.8443 361C79.5643 361 79.301 360.97 79.0543 360.91C78.8143 360.85 78.6143 360.77 78.4543 360.67C78.3143 360.583 78.2443 360.487 78.2443 360.38C78.2443 360.367 78.251 360.333 78.2643 360.28C78.2843 360.213 78.3176 360.163 78.3643 360.13C78.411 360.097 78.461 360.08 78.5143 360.08C78.5543 360.08 78.5943 360.09 78.6343 360.11C79.061 360.343 79.4676 360.46 79.8543 360.46C80.4076 360.46 80.8443 360.287 81.1643 359.94C81.491 359.593 81.6543 359.12 81.6543 358.52V358.17C81.4876 358.45 81.2476 358.677 80.9343 358.85C80.621 359.017 80.281 359.1 79.9143 359.1C79.3343 359.1 78.8943 358.927 78.5943 358.58C78.2943 358.233 78.1443 357.763 78.1443 357.17V354.1C78.1443 354.013 78.171 353.943 78.2243 353.89C78.2843 353.83 78.3576 353.8 78.4443 353.8C78.531 353.8 78.601 353.83 78.6543 353.89C78.7143 353.943 78.7443 354.013 78.7443 354.1V357.08C78.7443 357.56 78.8476 357.923 79.0543 358.17C79.2676 358.417 79.5976 358.54 80.0443 358.54C80.3176 358.54 80.5776 358.473 80.8243 358.34C81.0776 358.2 81.2776 358.02 81.4243 357.8C81.5776 357.573 81.6543 357.333 81.6543 357.08V354.1C81.6543 354.013 81.681 353.943 81.7343 353.89C81.7943 353.83 81.8676 353.8 81.9543 353.8ZM85.8579 353.85C86.2979 353.85 86.6979 353.963 87.0579 354.19C87.4179 354.41 87.6979 354.72 87.8979 355.12C88.1046 355.513 88.2079 355.957 88.2079 356.45C88.2079 356.95 88.1046 357.4 87.8979 357.8C87.6979 358.193 87.4179 358.503 87.0579 358.73C86.7046 358.957 86.3079 359.07 85.8679 359.07C85.4812 359.07 85.1246 358.98 84.7979 358.8C84.4779 358.613 84.2212 358.367 84.0279 358.06V360.7C84.0279 360.787 83.9979 360.857 83.9379 360.91C83.8846 360.97 83.8146 361 83.7279 361C83.6412 361 83.5679 360.97 83.5079 360.91C83.4546 360.857 83.4279 360.787 83.4279 360.7V354.18C83.4279 354.093 83.4546 354.02 83.5079 353.96C83.5679 353.9 83.6412 353.87 83.7279 353.87C83.8146 353.87 83.8846 353.9 83.9379 353.96C83.9979 354.02 84.0279 354.093 84.0279 354.18V354.86C84.2012 354.547 84.4512 354.3 84.7779 354.12C85.1046 353.94 85.4646 353.85 85.8579 353.85ZM85.8079 358.51C86.1546 358.51 86.4646 358.423 86.7379 358.25C87.0179 358.07 87.2346 357.823 87.3879 357.51C87.5479 357.197 87.6279 356.843 87.6279 356.45C87.6279 356.063 87.5479 355.717 87.3879 355.41C87.2346 355.097 87.0179 354.853 86.7379 354.68C86.4646 354.5 86.1546 354.41 85.8079 354.41C85.4546 354.41 85.1379 354.497 84.8579 354.67C84.5779 354.843 84.3612 355.087 84.2079 355.4C84.0546 355.707 83.9779 356.057 83.9779 356.45C83.9779 356.843 84.0546 357.197 84.2079 357.51C84.3612 357.823 84.5779 358.07 84.8579 358.25C85.1379 358.423 85.4546 358.51 85.8079 358.51ZM93.3635 356.15C93.3635 356.23 93.3335 356.3 93.2735 356.36C93.2135 356.413 93.1435 356.44 93.0635 356.44H89.2835C89.2835 356.84 89.3635 357.2 89.5235 357.52C89.6902 357.833 89.9235 358.083 90.2235 358.27C90.5302 358.45 90.8902 358.54 91.3035 358.54C91.6235 358.54 91.9102 358.473 92.1635 358.34C92.4169 358.207 92.6202 358.037 92.7735 357.83C92.8469 357.77 92.9169 357.74 92.9835 357.74C93.0502 357.74 93.1102 357.767 93.1635 357.82C93.2169 357.873 93.2435 357.933 93.2435 358C93.2435 358.073 93.2102 358.143 93.1435 358.21C92.9302 358.47 92.6602 358.683 92.3335 358.85C92.0135 359.017 91.6735 359.1 91.3135 359.1C90.8002 359.1 90.3469 358.99 89.9535 358.77C89.5602 358.55 89.2535 358.243 89.0335 357.85C88.8135 357.45 88.7035 356.99 88.7035 356.47C88.7035 355.923 88.8102 355.447 89.0235 355.04C89.2435 354.627 89.5335 354.313 89.8935 354.1C90.2535 353.88 90.6369 353.77 91.0435 353.77C91.4435 353.77 91.8169 353.863 92.1635 354.05C92.5169 354.237 92.8035 354.51 93.0235 354.87C93.2435 355.23 93.3569 355.657 93.3635 356.15ZM91.0435 354.35C90.6569 354.35 90.2969 354.483 89.9635 354.75C89.6369 355.017 89.4269 355.4 89.3335 355.9H92.7435V355.82C92.7102 355.52 92.6102 355.26 92.4435 355.04C92.2769 354.813 92.0669 354.643 91.8135 354.53C91.5669 354.41 91.3102 354.35 91.0435 354.35ZM101.255 356.44C101.255 356.94 101.145 357.393 100.925 357.8C100.705 358.207 100.401 358.527 100.015 358.76C99.6279 358.987 99.1979 359.1 98.7245 359.1C98.2512 359.1 97.8212 358.987 97.4345 358.76C97.0479 358.527 96.7445 358.207 96.5245 357.8C96.3045 357.393 96.1945 356.94 96.1945 356.44C96.1945 355.94 96.3045 355.487 96.5245 355.08C96.7445 354.673 97.0479 354.353 97.4345 354.12C97.8212 353.887 98.2512 353.77 98.7245 353.77C99.1979 353.77 99.6279 353.887 100.015 354.12C100.401 354.353 100.705 354.673 100.925 355.08C101.145 355.487 101.255 355.94 101.255 356.44ZM100.655 356.44C100.655 356.04 100.571 355.68 100.405 355.36C100.238 355.04 100.005 354.79 99.7045 354.61C99.4112 354.423 99.0845 354.33 98.7245 354.33C98.3645 354.33 98.0379 354.423 97.7445 354.61C97.4512 354.79 97.2179 355.04 97.0445 355.36C96.8779 355.68 96.7945 356.04 96.7945 356.44C96.7945 356.833 96.8779 357.19 97.0445 357.51C97.2179 357.83 97.4512 358.083 97.7445 358.27C98.0379 358.45 98.3645 358.54 98.7245 358.54C99.0845 358.54 99.4112 358.45 99.7045 358.27C100.005 358.09 100.238 357.84 100.405 357.52C100.571 357.2 100.655 356.84 100.655 356.44ZM104.472 353.77C104.605 353.77 104.725 353.797 104.832 353.85C104.938 353.903 104.992 353.983 104.992 354.09C104.992 354.183 104.965 354.26 104.912 354.32C104.858 354.373 104.795 354.4 104.722 354.4C104.688 354.4 104.622 354.383 104.522 354.35C104.428 354.317 104.338 354.3 104.252 354.3C104.005 354.3 103.758 354.397 103.512 354.59C103.272 354.777 103.072 355.02 102.912 355.32C102.758 355.62 102.682 355.923 102.682 356.23V358.7C102.682 358.787 102.652 358.86 102.592 358.92C102.538 358.973 102.468 359 102.382 359C102.295 359 102.222 358.973 102.162 358.92C102.108 358.86 102.082 358.787 102.082 358.7V354.22C102.082 354.133 102.108 354.063 102.162 354.01C102.222 353.95 102.295 353.92 102.382 353.92C102.468 353.92 102.538 353.95 102.592 354.01C102.652 354.063 102.682 354.133 102.682 354.22V355.1C102.835 354.72 103.065 354.407 103.372 354.16C103.685 353.907 104.052 353.777 104.472 353.77ZM110.294 353.85C110.734 353.85 111.134 353.963 111.494 354.19C111.854 354.41 112.134 354.72 112.334 355.12C112.54 355.513 112.644 355.957 112.644 356.45C112.644 356.95 112.54 357.4 112.334 357.8C112.134 358.193 111.854 358.503 111.494 358.73C111.14 358.957 110.744 359.07 110.304 359.07C109.917 359.07 109.56 358.98 109.234 358.8C108.914 358.613 108.657 358.367 108.464 358.06V360.7C108.464 360.787 108.434 360.857 108.374 360.91C108.32 360.97 108.25 361 108.164 361C108.077 361 108.004 360.97 107.944 360.91C107.89 360.857 107.864 360.787 107.864 360.7V354.18C107.864 354.093 107.89 354.02 107.944 353.96C108.004 353.9 108.077 353.87 108.164 353.87C108.25 353.87 108.32 353.9 108.374 353.96C108.434 354.02 108.464 354.093 108.464 354.18V354.86C108.637 354.547 108.887 354.3 109.214 354.12C109.54 353.94 109.9 353.85 110.294 353.85ZM110.244 358.51C110.59 358.51 110.9 358.423 111.174 358.25C111.454 358.07 111.67 357.823 111.824 357.51C111.984 357.197 112.064 356.843 112.064 356.45C112.064 356.063 111.984 355.717 111.824 355.41C111.67 355.097 111.454 354.853 111.174 354.68C110.9 354.5 110.59 354.41 110.244 354.41C109.89 354.41 109.574 354.497 109.294 354.67C109.014 354.843 108.797 355.087 108.644 355.4C108.49 355.707 108.414 356.057 108.414 356.45C108.414 356.843 108.49 357.197 108.644 357.51C108.797 357.823 109.014 358.07 109.294 358.25C109.574 358.423 109.89 358.51 110.244 358.51ZM115.869 353.77C116.003 353.77 116.123 353.797 116.229 353.85C116.336 353.903 116.389 353.983 116.389 354.09C116.389 354.183 116.363 354.26 116.309 354.32C116.256 354.373 116.193 354.4 116.119 354.4C116.086 354.4 116.019 354.383 115.919 354.35C115.826 354.317 115.736 354.3 115.649 354.3C115.403 354.3 115.156 354.397 114.909 354.59C114.669 354.777 114.469 355.02 114.309 355.32C114.156 355.62 114.079 355.923 114.079 356.23V358.7C114.079 358.787 114.049 358.86 113.989 358.92C113.936 358.973 113.866 359 113.779 359C113.693 359 113.619 358.973 113.559 358.92C113.506 358.86 113.479 358.787 113.479 358.7V354.22C113.479 354.133 113.506 354.063 113.559 354.01C113.619 353.95 113.693 353.92 113.779 353.92C113.866 353.92 113.936 353.95 113.989 354.01C114.049 354.063 114.079 354.133 114.079 354.22V355.1C114.233 354.72 114.463 354.407 114.769 354.16C115.083 353.907 115.449 353.777 115.869 353.77ZM121.022 356.15C121.022 356.23 120.992 356.3 120.932 356.36C120.872 356.413 120.802 356.44 120.722 356.44H116.942C116.942 356.84 117.022 357.2 117.182 357.52C117.349 357.833 117.582 358.083 117.882 358.27C118.189 358.45 118.549 358.54 118.962 358.54C119.282 358.54 119.569 358.473 119.822 358.34C120.076 358.207 120.279 358.037 120.432 357.83C120.506 357.77 120.576 357.74 120.642 357.74C120.709 357.74 120.769 357.767 120.822 357.82C120.876 357.873 120.902 357.933 120.902 358C120.902 358.073 120.869 358.143 120.802 358.21C120.589 358.47 120.319 358.683 119.992 358.85C119.672 359.017 119.332 359.1 118.972 359.1C118.459 359.1 118.006 358.99 117.612 358.77C117.219 358.55 116.912 358.243 116.692 357.85C116.472 357.45 116.362 356.99 116.362 356.47C116.362 355.923 116.469 355.447 116.682 355.04C116.902 354.627 117.192 354.313 117.552 354.1C117.912 353.88 118.296 353.77 118.702 353.77C119.102 353.77 119.476 353.863 119.822 354.05C120.176 354.237 120.462 354.51 120.682 354.87C120.902 355.23 121.016 355.657 121.022 356.15ZM118.702 354.35C118.316 354.35 117.956 354.483 117.622 354.75C117.296 355.017 117.086 355.4 116.992 355.9H120.402V355.82C120.369 355.52 120.269 355.26 120.102 355.04C119.936 354.813 119.726 354.643 119.472 354.53C119.226 354.41 118.969 354.35 118.702 354.35ZM121.569 358.19C121.516 358.103 121.489 358.03 121.489 357.97C121.489 357.883 121.532 357.817 121.619 357.77C121.659 357.73 121.712 357.71 121.779 357.71C121.859 357.71 121.932 357.743 121.999 357.81C122.392 358.33 122.916 358.59 123.569 358.59C123.889 358.59 124.166 358.517 124.399 358.37C124.639 358.217 124.759 357.997 124.759 357.71C124.759 357.43 124.649 357.22 124.429 357.08C124.209 356.94 123.902 356.82 123.509 356.72C122.956 356.58 122.522 356.4 122.209 356.18C121.896 355.953 121.739 355.623 121.739 355.19C121.739 354.917 121.816 354.673 121.969 354.46C122.122 354.24 122.329 354.07 122.589 353.95C122.856 353.83 123.156 353.77 123.489 353.77C123.776 353.77 124.062 353.827 124.349 353.94C124.642 354.047 124.892 354.22 125.099 354.46C125.159 354.507 125.189 354.573 125.189 354.66C125.189 354.74 125.156 354.81 125.089 354.87C125.042 354.91 124.982 354.93 124.909 354.93C124.842 354.93 124.782 354.903 124.729 354.85C124.569 354.67 124.379 354.533 124.159 354.44C123.939 354.347 123.702 354.3 123.449 354.3C123.136 354.3 122.866 354.373 122.639 354.52C122.419 354.667 122.309 354.887 122.309 355.18C122.322 355.447 122.442 355.65 122.669 355.79C122.902 355.93 123.242 356.057 123.689 356.17C124.036 356.257 124.322 356.353 124.549 356.46C124.776 356.567 124.959 356.717 125.099 356.91C125.246 357.103 125.319 357.36 125.319 357.68C125.319 358.113 125.146 358.46 124.799 358.72C124.452 358.973 124.022 359.1 123.509 359.1C122.696 359.1 122.049 358.797 121.569 358.19ZM125.857 358.19C125.803 358.103 125.777 358.03 125.777 357.97C125.777 357.883 125.82 357.817 125.907 357.77C125.947 357.73 126 357.71 126.067 357.71C126.147 357.71 126.22 357.743 126.287 357.81C126.68 358.33 127.203 358.59 127.857 358.59C128.177 358.59 128.453 358.517 128.687 358.37C128.927 358.217 129.047 357.997 129.047 357.71C129.047 357.43 128.937 357.22 128.717 357.08C128.497 356.94 128.19 356.82 127.797 356.72C127.243 356.58 126.81 356.4 126.497 356.18C126.183 355.953 126.027 355.623 126.027 355.19C126.027 354.917 126.103 354.673 126.257 354.46C126.41 354.24 126.617 354.07 126.877 353.95C127.143 353.83 127.443 353.77 127.777 353.77C128.063 353.77 128.35 353.827 128.637 353.94C128.93 354.047 129.18 354.22 129.387 354.46C129.447 354.507 129.477 354.573 129.477 354.66C129.477 354.74 129.443 354.81 129.377 354.87C129.33 354.91 129.27 354.93 129.197 354.93C129.13 354.93 129.07 354.903 129.017 354.85C128.857 354.67 128.667 354.533 128.447 354.44C128.227 354.347 127.99 354.3 127.737 354.3C127.423 354.3 127.153 354.373 126.927 354.52C126.707 354.667 126.597 354.887 126.597 355.18C126.61 355.447 126.73 355.65 126.957 355.79C127.19 355.93 127.53 356.057 127.977 356.17C128.323 356.257 128.61 356.353 128.837 356.46C129.063 356.567 129.247 356.717 129.387 356.91C129.533 357.103 129.607 357.36 129.607 357.68C129.607 358.113 129.433 358.46 129.087 358.72C128.74 358.973 128.31 359.1 127.797 359.1C126.983 359.1 126.337 358.797 125.857 358.19ZM133.769 354.47V357.82C133.769 358.073 133.815 358.247 133.909 358.34C134.002 358.427 134.125 358.47 134.279 358.47C134.319 358.47 134.369 358.463 134.429 358.45C134.489 358.43 134.535 358.42 134.569 358.42C134.629 358.42 134.679 358.447 134.719 358.5C134.765 358.547 134.789 358.603 134.789 358.67C134.789 358.763 134.735 358.843 134.629 358.91C134.522 358.97 134.395 359 134.249 359C134.069 359 133.909 358.983 133.769 358.95C133.629 358.917 133.492 358.817 133.359 358.65C133.232 358.483 133.169 358.217 133.169 357.85V354.47H132.439C132.359 354.47 132.289 354.443 132.229 354.39C132.175 354.337 132.149 354.27 132.149 354.19C132.149 354.11 132.175 354.043 132.229 353.99C132.289 353.937 132.359 353.91 132.439 353.91H133.169V352.8C133.169 352.713 133.195 352.643 133.249 352.59C133.309 352.53 133.382 352.5 133.469 352.5C133.555 352.5 133.625 352.53 133.679 352.59C133.739 352.643 133.769 352.713 133.769 352.8V353.91H134.769C134.842 353.91 134.905 353.94 134.959 354C135.019 354.06 135.049 354.127 135.049 354.2C135.049 354.28 135.022 354.347 134.969 354.4C134.915 354.447 134.849 354.47 134.769 354.47H133.769ZM140.428 356.44C140.428 356.94 140.318 357.393 140.098 357.8C139.878 358.207 139.575 358.527 139.188 358.76C138.802 358.987 138.372 359.1 137.898 359.1C137.425 359.1 136.995 358.987 136.608 358.76C136.222 358.527 135.918 358.207 135.698 357.8C135.478 357.393 135.368 356.94 135.368 356.44C135.368 355.94 135.478 355.487 135.698 355.08C135.918 354.673 136.222 354.353 136.608 354.12C136.995 353.887 137.425 353.77 137.898 353.77C138.372 353.77 138.802 353.887 139.188 354.12C139.575 354.353 139.878 354.673 140.098 355.08C140.318 355.487 140.428 355.94 140.428 356.44ZM139.828 356.44C139.828 356.04 139.745 355.68 139.578 355.36C139.412 355.04 139.178 354.79 138.878 354.61C138.585 354.423 138.258 354.33 137.898 354.33C137.538 354.33 137.212 354.423 136.918 354.61C136.625 354.79 136.392 355.04 136.218 355.36C136.052 355.68 135.968 356.04 135.968 356.44C135.968 356.833 136.052 357.19 136.218 357.51C136.392 357.83 136.625 358.083 136.918 358.27C137.212 358.45 137.538 358.54 137.898 358.54C138.258 358.54 138.585 358.45 138.878 358.27C139.178 358.09 139.412 357.84 139.578 357.52C139.745 357.2 139.828 356.84 139.828 356.44ZM144.59 354.47V357.82C144.59 358.073 144.637 358.247 144.73 358.34C144.823 358.427 144.947 358.47 145.1 358.47C145.14 358.47 145.19 358.463 145.25 358.45C145.31 358.43 145.357 358.42 145.39 358.42C145.45 358.42 145.5 358.447 145.54 358.5C145.587 358.547 145.61 358.603 145.61 358.67C145.61 358.763 145.557 358.843 145.45 358.91C145.343 358.97 145.217 359 145.07 359C144.89 359 144.73 358.983 144.59 358.95C144.45 358.917 144.313 358.817 144.18 358.65C144.053 358.483 143.99 358.217 143.99 357.85V354.47H143.26C143.18 354.47 143.11 354.443 143.05 354.39C142.997 354.337 142.97 354.27 142.97 354.19C142.97 354.11 142.997 354.043 143.05 353.99C143.11 353.937 143.18 353.91 143.26 353.91H143.99V352.8C143.99 352.713 144.017 352.643 144.07 352.59C144.13 352.53 144.203 352.5 144.29 352.5C144.377 352.5 144.447 352.53 144.5 352.59C144.56 352.643 144.59 352.713 144.59 352.8V353.91H145.59C145.663 353.91 145.727 353.94 145.78 354C145.84 354.06 145.87 354.127 145.87 354.2C145.87 354.28 145.843 354.347 145.79 354.4C145.737 354.447 145.67 354.47 145.59 354.47H144.59ZM150.729 353.89C150.815 353.89 150.885 353.92 150.939 353.98C150.999 354.04 151.029 354.113 151.029 354.2V358.7C151.029 358.787 150.999 358.86 150.939 358.92C150.885 358.973 150.815 359 150.729 359C150.642 359 150.569 358.973 150.509 358.92C150.455 358.86 150.429 358.787 150.429 358.7V358.03C150.262 358.33 150.012 358.583 149.679 358.79C149.345 358.997 148.982 359.1 148.589 359.1C148.142 359.1 147.739 358.983 147.379 358.75C147.025 358.517 146.745 358.197 146.539 357.79C146.339 357.383 146.239 356.927 146.239 356.42C146.239 355.913 146.342 355.46 146.549 355.06C146.755 354.653 147.035 354.337 147.389 354.11C147.749 353.883 148.145 353.77 148.579 353.77C148.979 353.77 149.345 353.867 149.679 354.06C150.012 354.253 150.262 354.507 150.429 354.82V354.2C150.429 354.113 150.455 354.04 150.509 353.98C150.569 353.92 150.642 353.89 150.729 353.89ZM148.649 358.54C148.995 358.54 149.305 358.45 149.579 358.27C149.859 358.083 150.075 357.83 150.229 357.51C150.389 357.183 150.469 356.82 150.469 356.42C150.469 356.033 150.389 355.68 150.229 355.36C150.075 355.04 149.859 354.79 149.579 354.61C149.305 354.423 148.995 354.33 148.649 354.33C148.302 354.33 147.989 354.42 147.709 354.6C147.435 354.78 147.219 355.03 147.059 355.35C146.905 355.663 146.829 356.02 146.829 356.42C146.829 356.82 146.905 357.183 147.059 357.51C147.212 357.83 147.425 358.083 147.699 358.27C147.979 358.45 148.295 358.54 148.649 358.54ZM152.854 358.7C152.854 358.787 152.824 358.86 152.764 358.92C152.711 358.973 152.641 359 152.554 359C152.468 359 152.394 358.973 152.334 358.92C152.281 358.86 152.254 358.787 152.254 358.7V351.9C152.254 351.813 152.281 351.743 152.334 351.69C152.394 351.63 152.468 351.6 152.554 351.6C152.641 351.6 152.711 351.63 152.764 351.69C152.824 351.743 152.854 351.813 152.854 351.9V358.7ZM158.149 358.47C158.209 358.537 158.239 358.613 158.239 358.7C158.239 358.787 158.202 358.86 158.129 358.92C158.062 358.973 157.999 359 157.939 359C157.852 359 157.779 358.963 157.719 358.89L155.509 356.55L154.759 357.19V358.7C154.759 358.787 154.729 358.86 154.669 358.92C154.616 358.973 154.546 359 154.459 359C154.372 359 154.299 358.973 154.239 358.92C154.186 358.86 154.159 358.787 154.159 358.7V351.9C154.159 351.813 154.186 351.743 154.239 351.69C154.299 351.63 154.372 351.6 154.459 351.6C154.546 351.6 154.616 351.63 154.669 351.69C154.729 351.743 154.759 351.813 154.759 351.9V356.46L157.649 353.97C157.709 353.903 157.779 353.87 157.859 353.87C157.932 353.87 157.999 353.903 158.059 353.97C158.119 354.03 158.149 354.097 158.149 354.17C158.149 354.25 158.112 354.327 158.039 354.4L155.979 356.15L158.149 358.47Z" fill="#170F2E"/>
<path d="M143.209 88.3724C156.145 110.678 148.115 139.402 125.772 152.244C103.429 165.085 78.4065 159.396 65.4703 137.091C61.9567 131.033 56.3828 122.535 55.7858 116.002C54.185 98.4804 62.6511 80.8233 78.9256 71.4696C101.269 58.628 130.273 66.0673 143.209 88.3724Z" fill="#80DFFF"/>
<path d="M143.148 88.0021C156.032 110.387 148.385 139.011 126.068 151.936C103.238 165.158 80.0323 156.71 70.001 139.281C63.8189 128.541 56.4958 121.433 56.237 115.368C55.488 97.8114 63.2348 80.2406 79.4109 70.8724C101.728 57.9478 130.264 65.617 143.148 88.0021Z" fill="#73CDFF"/>
<path d="M143.106 87.9349C156.03 110.21 148.434 138.65 126.14 151.457C103.332 164.56 84.0932 155.984 74.0304 138.642C67.8289 127.954 56.7336 125.992 56.2413 114.982C55.4608 97.5292 63.1764 80.077 79.3362 70.7935C101.631 57.9857 130.181 65.6602 143.106 87.9349Z" fill="#68BAFF"/>
<path d="M143.105 88.1269C156.022 110.575 148.446 139.229 126.184 152.126C103.41 165.32 88.2349 156.227 78.1785 138.748C71.9809 127.977 57.6459 130.32 56.36 115.348C54.8533 97.807 63.2738 80.1804 79.4099 70.8322C101.672 57.9352 130.189 65.6783 143.105 88.1269Z" fill="#5CA7FF"/>
<path d="M143.112 87.7605C156.022 110.155 148.438 138.746 126.172 151.62C103.393 164.791 89.5868 152.499 81.0544 137.699C74.8596 126.953 59.58 133.085 56.3551 114.945C54.8533 97.4438 63.5127 80.2601 79.6523 70.9283C101.919 58.054 130.201 65.3661 143.112 87.7605Z" fill="#4F94FF"/>
<path d="M142.311 88.6061C155.218 110.914 148.434 138.934 126.165 151.764C102.174 165.586 90.8719 146.516 84.2231 136.883C79.1756 129.57 59.5761 133.31 56.3544 115.24C54.8557 97.8042 63.5185 80.6835 79.6598 71.3839C101.929 58.554 129.404 66.2982 142.311 88.6061Z" fill="#4381FF"/>
<path d="M142.318 88.7219C155.218 111.148 148.426 139.324 126.153 152.231C103.367 165.435 92.5373 145.453 87.134 137.214C81.7309 128.975 59.134 133.408 56.3532 115.528C54.8599 97.9977 63.5281 80.7805 79.6724 71.425C101.945 58.5179 129.419 66.2959 142.318 88.7219Z" fill="#376EFF"/>
<path d="M143.638 87.2663C156.779 110.009 148.88 139.398 126.223 152.469C103.565 165.54 95.9741 144.424 88.0827 135.215C80.5262 126.397 59.7839 134.52 55.171 115.219C53.6407 97.4464 62.4511 79.9976 78.8741 70.5232C101.532 57.4522 130.498 64.5238 143.638 87.2663Z" fill="#0A0A33"/>
</g>
<defs>
<filter id="filter0_d" x="0" y="0" width="205" height="408" filterUnits="userSpaceOnUse" color-interpolation-filters="sRGB">
<feFlood flood-opacity="0" result="BackgroundImageFix"/>
<feColorMatrix in="SourceAlpha" type="matrix" values="0 0 0 0 0 0 0 0 0 0 0 0 0 0 0 0 0 0 127 0"/>
<feOffset dy="6"/>
<feGaussianBlur stdDeviation="7.5"/>
<feColorMatrix type="matrix" values="0 0 0 0 0 0 0 0 0 0 0 0 0 0 0 0 0 0 0.1 0"/>
<feBlend mode="normal" in2="BackgroundImageFix" result="effect1_dropShadow"/>
<feBlend mode="normal" in="SourceGraphic" in2="effect1_dropShadow" result="shape"/>
</filter>
</defs>
</svg>
