<svg width="22" height="28" viewBox="0 0 22 28" fill="none" xmlns="http://www.w3.org/2000/svg">
<g clip-path="url(#clip0)">
<path d="M19.8 0.55V0H14.3V0.55H0V26.4H22V0.55H19.8ZM15.4 1.1H18.7V6.6L17.05 5.3625L15.4 6.6V1.1ZM2.2 25.3H1.1V1.65H2.2V25.3ZM20.9 25.3H3.3V1.65H14.3V8.8L17.05 6.7375L19.8 8.8V1.65H20.9V25.3Z" fill="#AFA7B1"/>
<path d="M17.4611 13H5.53886C5.39595 13 5.25888 13.0568 5.15783 13.1578C5.05677 13.2589 5 13.3959 5 13.5389C5 13.6818 5.05677 13.8188 5.15783 13.9199C5.25888 14.0209 5.39595 14.0777 5.53886 14.0777H17.4611C17.6041 14.0777 17.7411 14.0209 17.8422 13.9199C17.9432 13.8188 18 13.6818 18 13.5389C18 13.3959 17.9432 13.2589 17.8422 13.1578C17.7411 13.0568 17.6041 13 17.4611 13Z" fill="#AFA7B1"/>
<path d="M17.4611 27H5.53886C5.39595 27 5.25888 27.0568 5.15783 27.1578C5.05677 27.2589 5 27.3959 5 27.5389C5 27.6818 5.05677 27.8188 5.15783 27.9199C5.25888 28.0209 5.39595 28.0777 5.53886 28.0777H17.4611C17.6041 28.0777 17.7411 28.0209 17.8422 27.9199C17.9432 27.8188 18 27.6818 18 27.5389C18 27.3959 17.9432 27.2589 17.8422 27.1578C17.7411 27.0568 17.6041 27 17.4611 27Z" fill="#AFA7B1"/>
<path d="M17.4611 10H5.53886C5.39595 10 5.25888 10.0568 5.15783 10.1578C5.05677 10.2589 5 10.3959 5 10.5389C5 10.6818 5.05677 10.8188 5.15783 10.9199C5.25888 11.0209 5.39595 11.0777 5.53886 11.0777H17.4611C17.6041 11.0777 17.7411 11.0209 17.8422 10.9199C17.9432 10.8188 18 10.6818 18 10.5389C18 10.3959 17.9432 10.2589 17.8422 10.1578C17.7411 10.0568 17.6041 10 17.4611 10Z" fill="#AFA7B1"/>
<path d="M12.6684 3H5.33161C5.24366 3 5.15931 3.05268 5.09713 3.14645C5.03494 3.24022 5 3.36739 5 3.5C5 3.63261 5.03494 3.75979 5.09713 3.85355C5.15931 3.94732 5.24366 4 5.33161 4H12.6684C12.7563 4 12.8407 3.94732 12.9029 3.85355C12.9651 3.75979 13 3.63261 13 3.5C13 3.36739 12.9651 3.24022 12.9029 3.14645C12.8407 3.05268 12.7563 3 12.6684 3Z" fill="#AFA7B1"/>
<path d="M16.6813 20.2162C17.5695 20.2162 18.2894 19.4962 18.2894 18.6081C18.2894 17.72 17.5695 17 16.6813 17C15.7932 17 15.0732 17.72 15.0732 18.6081C15.0732 19.4962 15.7932 20.2162 16.6813 20.2162Z" fill="#AFA7B1"/>
<path d="M14.0604 23.4626H19.2974C19.3481 23.4626 19.3968 23.4425 19.4326 23.4066C19.4685 23.3707 19.4886 23.3221 19.4886 23.2714V23.1556C19.488 22.495 19.2253 21.8617 18.7582 21.3946C18.2911 20.9276 17.6578 20.6649 16.9972 20.6642H16.3605C15.7 20.6649 15.0667 20.9276 14.5996 21.3946C14.1325 21.8617 13.8698 22.495 13.8691 23.1556V23.2714C13.8691 23.3221 13.8893 23.3707 13.9252 23.4066C13.961 23.4425 14.0097 23.4626 14.0604 23.4626Z" fill="#AFA7B1"/>
</g>
<defs>
<clipPath id="clip0">
<rect width="22" height="28" fill="white"/>
</clipPath>
</defs>
</svg>
