<svg width="205" height="408" viewBox="0 0 205 408" fill="none" xmlns="http://www.w3.org/2000/svg">
<g filter="url(#filter0_d)">
<path d="M15 24C15 15.7157 21.7157 9 30 9H175C183.284 9 190 15.7157 190 24V372C190 380.284 183.284 387 175 387H30C21.7157 387 15 380.284 15 372V24Z" fill="#344A5D"/>
<path d="M47.5062 186.768C47.6555 186.768 47.7782 186.811 47.8742 186.896C47.9702 186.981 48.0182 187.099 48.0182 187.248L47.9862 187.456L44.4502 197.696C44.4182 197.792 44.3595 197.867 44.2742 197.92C44.1995 197.973 44.1142 198 44.0182 198C43.7729 198 43.6129 197.899 43.5382 197.696L40.7702 190.864L38.0022 197.696C37.9062 197.899 37.7462 198 37.5222 198C37.4262 198 37.3355 197.973 37.2502 197.92C37.1755 197.867 37.1275 197.792 37.1062 197.696L33.5702 187.456C33.5382 187.392 33.5222 187.328 33.5222 187.264C33.5222 187.115 33.5755 186.997 33.6822 186.912C33.7995 186.816 33.9222 186.768 34.0502 186.768C34.1569 186.768 34.2529 186.795 34.3382 186.848C34.4235 186.901 34.4822 186.976 34.5142 187.072L37.6502 196.224L40.3382 189.52C40.4342 189.307 40.5835 189.205 40.7862 189.216C40.8929 189.205 40.9835 189.232 41.0582 189.296C41.1435 189.349 41.2075 189.424 41.2502 189.52L43.9222 196.224L47.0262 187.072C47.1115 186.869 47.2715 186.768 47.5062 186.768ZM53.0873 189.76C54.0473 189.76 54.762 190.064 55.2313 190.672C55.7006 191.269 55.9353 192.043 55.9353 192.992V197.52C55.9353 197.659 55.8873 197.776 55.7913 197.872C55.706 197.957 55.594 198 55.4553 198C55.3166 198 55.1993 197.957 55.1033 197.872C55.018 197.776 54.9753 197.659 54.9753 197.52V192.992C54.9753 192.299 54.81 191.739 54.4793 191.312C54.1486 190.875 53.6313 190.656 52.9273 190.656C52.4793 190.656 52.0526 190.763 51.6473 190.976C51.2526 191.189 50.9326 191.477 50.6873 191.84C50.442 192.192 50.3193 192.576 50.3193 192.992V197.52C50.3193 197.659 50.2713 197.776 50.1753 197.872C50.09 197.957 49.978 198 49.8393 198C49.7006 198 49.5833 197.957 49.4873 197.872C49.402 197.776 49.3593 197.659 49.3593 197.52V186.64C49.3593 186.501 49.402 186.389 49.4873 186.304C49.5833 186.208 49.7006 186.16 49.8393 186.16C49.978 186.16 50.09 186.208 50.1753 186.304C50.2713 186.389 50.3193 186.501 50.3193 186.64V191.328C50.6073 190.869 51.0073 190.496 51.5193 190.208C52.0313 189.909 52.554 189.76 53.0873 189.76ZM64.6931 189.824C64.8317 189.824 64.9437 189.872 65.0291 189.968C65.1251 190.064 65.1731 190.181 65.1731 190.32V197.52C65.1731 197.659 65.1251 197.776 65.0291 197.872C64.9437 197.957 64.8317 198 64.6931 198C64.5544 198 64.4371 197.957 64.3411 197.872C64.2557 197.776 64.2131 197.659 64.2131 197.52V196.448C63.9464 196.928 63.5464 197.333 63.0131 197.664C62.4797 197.995 61.8984 198.16 61.2691 198.16C60.5544 198.16 59.9091 197.973 59.3331 197.6C58.7677 197.227 58.3197 196.715 57.9891 196.064C57.6691 195.413 57.5091 194.683 57.5091 193.872C57.5091 193.061 57.6744 192.336 58.0051 191.696C58.3357 191.045 58.7837 190.539 59.3491 190.176C59.9251 189.813 60.5597 189.632 61.2531 189.632C61.8931 189.632 62.4797 189.787 63.0131 190.096C63.5464 190.405 63.9464 190.811 64.2131 191.312V190.32C64.2131 190.181 64.2557 190.064 64.3411 189.968C64.4371 189.872 64.5544 189.824 64.6931 189.824ZM61.3651 197.264C61.9197 197.264 62.4157 197.12 62.8531 196.832C63.3011 196.533 63.6477 196.128 63.8931 195.616C64.1491 195.093 64.2771 194.512 64.2771 193.872C64.2771 193.253 64.1491 192.688 63.8931 192.176C63.6477 191.664 63.3011 191.264 62.8531 190.976C62.4157 190.677 61.9197 190.528 61.3651 190.528C60.8104 190.528 60.3091 190.672 59.8611 190.96C59.4237 191.248 59.0771 191.648 58.8211 192.16C58.5757 192.661 58.4531 193.232 58.4531 193.872C58.4531 194.512 58.5757 195.093 58.8211 195.616C59.0664 196.128 59.4077 196.533 59.8451 196.832C60.2931 197.12 60.7997 197.264 61.3651 197.264ZM68.8781 190.752V196.112C68.8781 196.517 68.9527 196.795 69.1021 196.944C69.2514 197.083 69.4487 197.152 69.6941 197.152C69.7581 197.152 69.8381 197.141 69.9341 197.12C70.0301 197.088 70.1047 197.072 70.1581 197.072C70.2541 197.072 70.3341 197.115 70.3981 197.2C70.4727 197.275 70.5101 197.365 70.5101 197.472C70.5101 197.621 70.4247 197.749 70.2541 197.856C70.0834 197.952 69.8807 198 69.6461 198C69.3581 198 69.1021 197.973 68.8781 197.92C68.6541 197.867 68.4354 197.707 68.2221 197.44C68.0194 197.173 67.9181 196.747 67.9181 196.16V190.752H66.7501C66.6221 190.752 66.5101 190.709 66.4141 190.624C66.3287 190.539 66.2861 190.432 66.2861 190.304C66.2861 190.176 66.3287 190.069 66.4141 189.984C66.5101 189.899 66.6221 189.856 66.7501 189.856H67.9181V188.08C67.9181 187.941 67.9607 187.829 68.0461 187.744C68.1421 187.648 68.2594 187.6 68.3981 187.6C68.5367 187.6 68.6487 187.648 68.7341 187.744C68.8301 187.829 68.8781 187.941 68.8781 188.08V189.856H70.4781C70.5954 189.856 70.6967 189.904 70.7821 190C70.8781 190.096 70.9261 190.203 70.9261 190.32C70.9261 190.448 70.8834 190.555 70.7981 190.64C70.7127 190.715 70.6061 190.752 70.4781 190.752H68.8781ZM82.7549 197.152C82.8509 197.259 82.8989 197.381 82.8989 197.52C82.8989 197.659 82.8403 197.776 82.7229 197.872C82.6163 197.957 82.5149 198 82.4189 198C82.2803 198 82.1629 197.941 82.0669 197.824L78.5309 194.08L77.3309 195.104V197.52C77.3309 197.659 77.2829 197.776 77.1869 197.872C77.1016 197.957 76.9896 198 76.8509 198C76.7123 198 76.5949 197.957 76.4989 197.872C76.4136 197.776 76.3709 197.659 76.3709 197.52V186.64C76.3709 186.501 76.4136 186.389 76.4989 186.304C76.5949 186.208 76.7123 186.16 76.8509 186.16C76.9896 186.16 77.1016 186.208 77.1869 186.304C77.2829 186.389 77.3309 186.501 77.3309 186.64V193.936L81.9549 189.952C82.0509 189.845 82.1629 189.792 82.2909 189.792C82.4083 189.792 82.5149 189.845 82.6109 189.952C82.7069 190.048 82.7549 190.155 82.7549 190.272C82.7549 190.4 82.6963 190.523 82.5789 190.64L79.2829 193.44L82.7549 197.152ZM85.3654 197.52C85.3654 197.659 85.3174 197.776 85.2214 197.872C85.1361 197.957 85.0241 198 84.8854 198C84.7468 198 84.6294 197.957 84.5334 197.872C84.4481 197.776 84.4054 197.659 84.4054 197.52V190.16C84.4054 190.021 84.4481 189.909 84.5334 189.824C84.6294 189.728 84.7468 189.68 84.8854 189.68C85.0241 189.68 85.1361 189.728 85.2214 189.824C85.3174 189.909 85.3654 190.021 85.3654 190.16V197.52ZM84.8854 188.608C84.6721 188.608 84.5068 188.56 84.3894 188.464C84.2721 188.357 84.2134 188.208 84.2134 188.016V187.856C84.2134 187.664 84.2721 187.52 84.3894 187.424C84.5174 187.317 84.6881 187.264 84.9014 187.264C85.3281 187.264 85.5414 187.461 85.5414 187.856V188.016C85.5414 188.208 85.4828 188.357 85.3654 188.464C85.2588 188.56 85.0988 188.608 84.8854 188.608ZM91.3153 189.632C92.3073 189.632 93.0326 189.925 93.4913 190.512C93.9606 191.088 94.1953 191.856 94.1953 192.816V197.52C94.1953 197.659 94.1473 197.776 94.0513 197.872C93.9553 197.957 93.8433 198 93.7153 198C93.5766 198 93.4593 197.957 93.3633 197.872C93.278 197.776 93.2353 197.659 93.2353 197.52V192.864C93.2353 192.171 93.0593 191.611 92.7073 191.184C92.366 190.747 91.8327 190.528 91.1073 190.528C90.6486 190.528 90.2113 190.635 89.7953 190.848C89.39 191.061 89.0593 191.349 88.8033 191.712C88.5473 192.064 88.4193 192.448 88.4193 192.864V197.52C88.4193 197.659 88.3713 197.776 88.2753 197.872C88.19 197.957 88.078 198 87.9393 198C87.8006 198 87.6833 197.957 87.5873 197.872C87.502 197.776 87.4593 197.659 87.4593 197.52V190.352C87.4593 190.213 87.502 190.101 87.5873 190.016C87.6833 189.92 87.8006 189.872 87.9393 189.872C88.078 189.872 88.19 189.92 88.2753 190.016C88.3713 190.101 88.4193 190.213 88.4193 190.352V191.232C88.7073 190.773 89.118 190.395 89.6513 190.096C90.1953 189.787 90.75 189.632 91.3153 189.632ZM102.949 186.16C103.088 186.16 103.2 186.208 103.285 186.304C103.381 186.389 103.429 186.501 103.429 186.64V197.52C103.429 197.659 103.381 197.776 103.285 197.872C103.2 197.957 103.088 198 102.949 198C102.811 198 102.693 197.957 102.597 197.872C102.512 197.776 102.469 197.659 102.469 197.52V196.4C102.203 196.891 101.803 197.307 101.269 197.648C100.747 197.989 100.165 198.16 99.5253 198.16C98.8213 198.16 98.1813 197.979 97.6053 197.616C97.04 197.243 96.592 196.731 96.2613 196.08C95.9307 195.429 95.7653 194.699 95.7653 193.888C95.7653 193.088 95.9307 192.363 96.2613 191.712C96.592 191.061 97.04 190.555 97.6053 190.192C98.1813 189.819 98.816 189.632 99.5093 189.632C100.139 189.632 100.72 189.792 101.253 190.112C101.787 190.421 102.192 190.827 102.469 191.328V186.64C102.469 186.501 102.512 186.389 102.597 186.304C102.693 186.208 102.811 186.16 102.949 186.16ZM99.6213 197.264C100.176 197.264 100.672 197.12 101.109 196.832C101.557 196.544 101.904 196.144 102.149 195.632C102.405 195.109 102.533 194.528 102.533 193.888C102.533 193.259 102.405 192.688 102.149 192.176C101.904 191.664 101.557 191.264 101.109 190.976C100.672 190.677 100.176 190.528 99.6213 190.528C99.0667 190.528 98.5653 190.677 98.1173 190.976C97.68 191.264 97.3333 191.664 97.0773 192.176C96.832 192.688 96.7093 193.259 96.7093 193.888C96.7093 194.528 96.832 195.104 97.0773 195.616C97.3333 196.128 97.68 196.533 98.1173 196.832C98.5653 197.12 99.0667 197.264 99.6213 197.264ZM117.061 193.904C117.061 194.704 116.885 195.429 116.533 196.08C116.181 196.731 115.696 197.243 115.077 197.616C114.459 197.979 113.771 198.16 113.013 198.16C112.256 198.16 111.568 197.979 110.949 197.616C110.331 197.243 109.845 196.731 109.493 196.08C109.141 195.429 108.965 194.704 108.965 193.904C108.965 193.104 109.141 192.379 109.493 191.728C109.845 191.077 110.331 190.565 110.949 190.192C111.568 189.819 112.256 189.632 113.013 189.632C113.771 189.632 114.459 189.819 115.077 190.192C115.696 190.565 116.181 191.077 116.533 191.728C116.885 192.379 117.061 193.104 117.061 193.904ZM116.101 193.904C116.101 193.264 115.968 192.688 115.701 192.176C115.435 191.664 115.061 191.264 114.581 190.976C114.112 190.677 113.589 190.528 113.013 190.528C112.437 190.528 111.915 190.677 111.445 190.976C110.976 191.264 110.603 191.664 110.325 192.176C110.059 192.688 109.925 193.264 109.925 193.904C109.925 194.533 110.059 195.104 110.325 195.616C110.603 196.128 110.976 196.533 111.445 196.832C111.915 197.12 112.437 197.264 113.013 197.264C113.589 197.264 114.112 197.12 114.581 196.832C115.061 196.544 115.435 196.144 115.701 195.632C115.968 195.12 116.101 194.544 116.101 193.904ZM121.473 187.072C121.132 187.072 120.865 187.184 120.673 187.408C120.492 187.632 120.401 187.941 120.401 188.336V189.984H122.193C122.31 189.984 122.412 190.027 122.497 190.112C122.593 190.197 122.641 190.304 122.641 190.432C122.641 190.56 122.593 190.667 122.497 190.752C122.412 190.837 122.31 190.88 122.193 190.88H120.401V197.52C120.401 197.659 120.353 197.776 120.257 197.872C120.172 197.957 120.06 198 119.921 198C119.782 198 119.665 197.957 119.569 197.872C119.484 197.776 119.441 197.659 119.441 197.52V190.88H118.273C118.145 190.88 118.038 190.837 117.953 190.752C117.868 190.656 117.825 190.549 117.825 190.432C117.825 190.293 117.868 190.187 117.953 190.112C118.038 190.027 118.145 189.984 118.273 189.984H119.441V188.336C119.441 187.664 119.633 187.147 120.017 186.784C120.412 186.411 120.934 186.224 121.585 186.224C121.884 186.224 122.161 186.272 122.417 186.368C122.673 186.453 122.801 186.597 122.801 186.8C122.801 186.928 122.758 187.035 122.673 187.12C122.588 187.205 122.492 187.248 122.385 187.248C122.289 187.248 122.172 187.221 122.033 187.168C121.798 187.104 121.612 187.072 121.473 187.072ZM128.897 197.52C128.897 197.659 128.849 197.776 128.753 197.872C128.667 197.957 128.555 198 128.417 198C128.278 198 128.161 197.957 128.065 197.872C127.979 197.776 127.937 197.659 127.937 197.52V186.64C127.937 186.501 127.979 186.389 128.065 186.304C128.161 186.208 128.278 186.16 128.417 186.16C128.555 186.16 128.667 186.208 128.753 186.304C128.849 186.389 128.897 186.501 128.897 186.64V197.52ZM137.884 193.44C137.884 193.568 137.836 193.68 137.74 193.776C137.644 193.861 137.532 193.904 137.404 193.904H131.356C131.356 194.544 131.484 195.12 131.74 195.632C132.006 196.133 132.38 196.533 132.86 196.832C133.35 197.12 133.926 197.264 134.588 197.264C135.1 197.264 135.558 197.157 135.964 196.944C136.369 196.731 136.694 196.459 136.94 196.128C137.057 196.032 137.169 195.984 137.276 195.984C137.382 195.984 137.478 196.027 137.564 196.112C137.649 196.197 137.692 196.293 137.692 196.4C137.692 196.517 137.638 196.629 137.532 196.736C137.19 197.152 136.758 197.493 136.236 197.76C135.724 198.027 135.18 198.16 134.604 198.16C133.782 198.16 133.057 197.984 132.428 197.632C131.798 197.28 131.308 196.789 130.956 196.16C130.604 195.52 130.428 194.784 130.428 193.952C130.428 193.077 130.598 192.315 130.94 191.664C131.292 191.003 131.756 190.501 132.332 190.16C132.908 189.808 133.521 189.632 134.172 189.632C134.812 189.632 135.409 189.781 135.964 190.08C136.529 190.379 136.988 190.816 137.34 191.392C137.692 191.968 137.873 192.651 137.884 193.44ZM134.172 190.56C133.553 190.56 132.977 190.773 132.444 191.2C131.921 191.627 131.585 192.24 131.436 193.04H136.892V192.912C136.838 192.432 136.678 192.016 136.412 191.664C136.145 191.301 135.809 191.029 135.404 190.848C135.009 190.656 134.598 190.56 134.172 190.56ZM146.165 189.824C146.304 189.824 146.416 189.872 146.501 189.968C146.597 190.064 146.645 190.181 146.645 190.32V197.52C146.645 197.659 146.597 197.776 146.501 197.872C146.416 197.957 146.304 198 146.165 198C146.026 198 145.909 197.957 145.813 197.872C145.728 197.776 145.685 197.659 145.685 197.52V196.448C145.418 196.928 145.018 197.333 144.485 197.664C143.952 197.995 143.37 198.16 142.741 198.16C142.026 198.16 141.381 197.973 140.805 197.6C140.24 197.227 139.792 196.715 139.461 196.064C139.141 195.413 138.981 194.683 138.981 193.872C138.981 193.061 139.146 192.336 139.477 191.696C139.808 191.045 140.256 190.539 140.821 190.176C141.397 189.813 142.032 189.632 142.725 189.632C143.365 189.632 143.952 189.787 144.485 190.096C145.018 190.405 145.418 190.811 145.685 191.312V190.32C145.685 190.181 145.728 190.064 145.813 189.968C145.909 189.872 146.026 189.824 146.165 189.824ZM142.837 197.264C143.392 197.264 143.888 197.12 144.325 196.832C144.773 196.533 145.12 196.128 145.365 195.616C145.621 195.093 145.749 194.512 145.749 193.872C145.749 193.253 145.621 192.688 145.365 192.176C145.12 191.664 144.773 191.264 144.325 190.976C143.888 190.677 143.392 190.528 142.837 190.528C142.282 190.528 141.781 190.672 141.333 190.96C140.896 191.248 140.549 191.648 140.293 192.16C140.048 192.661 139.925 193.232 139.925 193.872C139.925 194.512 140.048 195.093 140.293 195.616C140.538 196.128 140.88 196.533 141.317 196.832C141.765 197.12 142.272 197.264 142.837 197.264ZM155.39 186.16C155.529 186.16 155.641 186.208 155.726 186.304C155.822 186.389 155.87 186.501 155.87 186.64V197.52C155.87 197.659 155.822 197.776 155.726 197.872C155.641 197.957 155.529 198 155.39 198C155.251 198 155.134 197.957 155.038 197.872C154.953 197.776 154.91 197.659 154.91 197.52V196.4C154.643 196.891 154.243 197.307 153.71 197.648C153.187 197.989 152.606 198.16 151.966 198.16C151.262 198.16 150.622 197.979 150.046 197.616C149.481 197.243 149.033 196.731 148.702 196.08C148.371 195.429 148.206 194.699 148.206 193.888C148.206 193.088 148.371 192.363 148.702 191.712C149.033 191.061 149.481 190.555 150.046 190.192C150.622 189.819 151.257 189.632 151.95 189.632C152.579 189.632 153.161 189.792 153.694 190.112C154.227 190.421 154.633 190.827 154.91 191.328V186.64C154.91 186.501 154.953 186.389 155.038 186.304C155.134 186.208 155.251 186.16 155.39 186.16ZM152.062 197.264C152.617 197.264 153.113 197.12 153.55 196.832C153.998 196.544 154.345 196.144 154.59 195.632C154.846 195.109 154.974 194.528 154.974 193.888C154.974 193.259 154.846 192.688 154.59 192.176C154.345 191.664 153.998 191.264 153.55 190.976C153.113 190.677 152.617 190.528 152.062 190.528C151.507 190.528 151.006 190.677 150.558 190.976C150.121 191.264 149.774 191.664 149.518 192.176C149.273 192.688 149.15 193.259 149.15 193.888C149.15 194.528 149.273 195.104 149.518 195.616C149.774 196.128 150.121 196.533 150.558 196.832C151.006 197.12 151.507 197.264 152.062 197.264ZM164.887 193.44C164.887 193.568 164.839 193.68 164.743 193.776C164.647 193.861 164.535 193.904 164.407 193.904H158.359C158.359 194.544 158.487 195.12 158.743 195.632C159.01 196.133 159.383 196.533 159.863 196.832C160.354 197.12 160.93 197.264 161.591 197.264C162.103 197.264 162.562 197.157 162.967 196.944C163.372 196.731 163.698 196.459 163.943 196.128C164.06 196.032 164.172 195.984 164.279 195.984C164.386 195.984 164.482 196.027 164.567 196.112C164.652 196.197 164.695 196.293 164.695 196.4C164.695 196.517 164.642 196.629 164.535 196.736C164.194 197.152 163.762 197.493 163.239 197.76C162.727 198.027 162.183 198.16 161.607 198.16C160.786 198.16 160.06 197.984 159.431 197.632C158.802 197.28 158.311 196.789 157.959 196.16C157.607 195.52 157.431 194.784 157.431 193.952C157.431 193.077 157.602 192.315 157.943 191.664C158.295 191.003 158.759 190.501 159.335 190.16C159.911 189.808 160.524 189.632 161.175 189.632C161.815 189.632 162.412 189.781 162.967 190.08C163.532 190.379 163.991 190.816 164.343 191.392C164.695 191.968 164.876 192.651 164.887 193.44ZM161.175 190.56C160.556 190.56 159.98 190.773 159.447 191.2C158.924 191.627 158.588 192.24 158.439 193.04H163.895V192.912C163.842 192.432 163.682 192.016 163.415 191.664C163.148 191.301 162.812 191.029 162.407 190.848C162.012 190.656 161.602 190.56 161.175 190.56ZM170.29 189.632C170.503 189.632 170.695 189.675 170.866 189.76C171.036 189.845 171.122 189.973 171.122 190.144C171.122 190.293 171.079 190.416 170.994 190.512C170.908 190.597 170.807 190.64 170.69 190.64C170.636 190.64 170.53 190.613 170.37 190.56C170.22 190.507 170.076 190.48 169.938 190.48C169.543 190.48 169.148 190.635 168.754 190.944C168.37 191.243 168.05 191.632 167.794 192.112C167.548 192.592 167.426 193.077 167.426 193.568V197.52C167.426 197.659 167.378 197.776 167.282 197.872C167.196 197.957 167.084 198 166.946 198C166.807 198 166.69 197.957 166.594 197.872C166.508 197.776 166.466 197.659 166.466 197.52V190.352C166.466 190.213 166.508 190.101 166.594 190.016C166.69 189.92 166.807 189.872 166.946 189.872C167.084 189.872 167.196 189.92 167.282 190.016C167.378 190.101 167.426 190.213 167.426 190.352V191.76C167.671 191.152 168.039 190.651 168.53 190.256C169.031 189.851 169.618 189.643 170.29 189.632ZM42.3978 204.16C42.5364 204.16 42.6484 204.208 42.7338 204.304C42.8298 204.389 42.8778 204.501 42.8778 204.64V215.52C42.8778 215.659 42.8298 215.776 42.7338 215.872C42.6484 215.957 42.5364 216 42.3978 216C42.2591 216 42.1418 215.957 42.0458 215.872C41.9604 215.776 41.9178 215.659 41.9178 215.52V214.4C41.6511 214.891 41.2511 215.307 40.7178 215.648C40.1951 215.989 39.6138 216.16 38.9738 216.16C38.2698 216.16 37.6298 215.979 37.0538 215.616C36.4884 215.243 36.0404 214.731 35.7098 214.08C35.3791 213.429 35.2138 212.699 35.2138 211.888C35.2138 211.088 35.3791 210.363 35.7098 209.712C36.0404 209.061 36.4884 208.555 37.0538 208.192C37.6298 207.819 38.2644 207.632 38.9578 207.632C39.5871 207.632 40.1684 207.792 40.7018 208.112C41.2351 208.421 41.6404 208.827 41.9178 209.328V204.64C41.9178 204.501 41.9604 204.389 42.0458 204.304C42.1418 204.208 42.2591 204.16 42.3978 204.16ZM39.0698 215.264C39.6244 215.264 40.1204 215.12 40.5578 214.832C41.0058 214.544 41.3524 214.144 41.5978 213.632C41.8538 213.109 41.9818 212.528 41.9818 211.888C41.9818 211.259 41.8538 210.688 41.5978 210.176C41.3524 209.664 41.0058 209.264 40.5578 208.976C40.1204 208.677 39.6244 208.528 39.0698 208.528C38.5151 208.528 38.0138 208.677 37.5658 208.976C37.1284 209.264 36.7818 209.664 36.5258 210.176C36.2804 210.688 36.1578 211.259 36.1578 211.888C36.1578 212.528 36.2804 213.104 36.5258 213.616C36.7818 214.128 37.1284 214.533 37.5658 214.832C38.0138 215.12 38.5151 215.264 39.0698 215.264ZM52.5348 211.904C52.5348 212.704 52.3588 213.429 52.0068 214.08C51.6548 214.731 51.1694 215.243 50.5508 215.616C49.9321 215.979 49.2441 216.16 48.4868 216.16C47.7294 216.16 47.0414 215.979 46.4228 215.616C45.8041 215.243 45.3188 214.731 44.9668 214.08C44.6148 213.429 44.4388 212.704 44.4388 211.904C44.4388 211.104 44.6148 210.379 44.9668 209.728C45.3188 209.077 45.8041 208.565 46.4228 208.192C47.0414 207.819 47.7294 207.632 48.4868 207.632C49.2441 207.632 49.9321 207.819 50.5508 208.192C51.1694 208.565 51.6548 209.077 52.0068 209.728C52.3588 210.379 52.5348 211.104 52.5348 211.904ZM51.5748 211.904C51.5748 211.264 51.4414 210.688 51.1748 210.176C50.9081 209.664 50.5348 209.264 50.0548 208.976C49.5854 208.677 49.0628 208.528 48.4868 208.528C47.9108 208.528 47.3881 208.677 46.9188 208.976C46.4494 209.264 46.0761 209.664 45.7988 210.176C45.5321 210.688 45.3988 211.264 45.3988 211.904C45.3988 212.533 45.5321 213.104 45.7988 213.616C46.0761 214.128 46.4494 214.533 46.9188 214.832C47.3881 215.12 47.9108 215.264 48.4868 215.264C49.0628 215.264 49.5854 215.12 50.0548 214.832C50.5348 214.544 50.9081 214.144 51.1748 213.632C51.4414 213.12 51.5748 212.544 51.5748 211.904ZM64.1694 207.68C64.308 207.68 64.42 207.728 64.5054 207.824C64.6014 207.909 64.6494 208.021 64.6494 208.16V215.216C64.6494 216.059 64.484 216.779 64.1534 217.376C63.8227 217.973 63.364 218.427 62.7774 218.736C62.1907 219.045 61.5294 219.2 60.7934 219.2C60.3454 219.2 59.924 219.152 59.5294 219.056C59.1454 218.96 58.8254 218.832 58.5694 218.672C58.3454 218.533 58.2334 218.379 58.2334 218.208C58.2334 218.187 58.244 218.133 58.2654 218.048C58.2974 217.941 58.3507 217.861 58.4254 217.808C58.5 217.755 58.58 217.728 58.6654 217.728C58.7294 217.728 58.7934 217.744 58.8574 217.776C59.54 218.149 60.1907 218.336 60.8094 218.336C61.6947 218.336 62.3934 218.059 62.9054 217.504C63.428 216.949 63.6894 216.192 63.6894 215.232V214.672C63.4227 215.12 63.0387 215.483 62.5374 215.76C62.036 216.027 61.492 216.16 60.9054 216.16C59.9774 216.16 59.2734 215.883 58.7934 215.328C58.3134 214.773 58.0734 214.021 58.0734 213.072V208.16C58.0734 208.021 58.116 207.909 58.2014 207.824C58.2974 207.728 58.4147 207.68 58.5534 207.68C58.692 207.68 58.804 207.728 58.8894 207.824C58.9854 207.909 59.0334 208.021 59.0334 208.16V212.928C59.0334 213.696 59.1987 214.277 59.5294 214.672C59.8707 215.067 60.3987 215.264 61.1134 215.264C61.5507 215.264 61.9667 215.157 62.3614 214.944C62.7667 214.72 63.0867 214.432 63.3214 214.08C63.5667 213.717 63.6894 213.333 63.6894 212.928V208.16C63.6894 208.021 63.732 207.909 63.8174 207.824C63.9134 207.728 64.0307 207.68 64.1694 207.68ZM74.241 211.904C74.241 212.704 74.065 213.429 73.713 214.08C73.361 214.731 72.8757 215.243 72.257 215.616C71.6383 215.979 70.9503 216.16 70.193 216.16C69.4357 216.16 68.7477 215.979 68.129 215.616C67.5103 215.243 67.025 214.731 66.673 214.08C66.321 213.429 66.145 212.704 66.145 211.904C66.145 211.104 66.321 210.379 66.673 209.728C67.025 209.077 67.5103 208.565 68.129 208.192C68.7477 207.819 69.4357 207.632 70.193 207.632C70.9503 207.632 71.6383 207.819 72.257 208.192C72.8757 208.565 73.361 209.077 73.713 209.728C74.065 210.379 74.241 211.104 74.241 211.904ZM73.281 211.904C73.281 211.264 73.1477 210.688 72.881 210.176C72.6143 209.664 72.241 209.264 71.761 208.976C71.2917 208.677 70.769 208.528 70.193 208.528C69.617 208.528 69.0943 208.677 68.625 208.976C68.1557 209.264 67.7823 209.664 67.505 210.176C67.2383 210.688 67.105 211.264 67.105 211.904C67.105 212.533 67.2383 213.104 67.505 213.616C67.7823 214.128 68.1557 214.533 68.625 214.832C69.0943 215.12 69.617 215.264 70.193 215.264C70.769 215.264 71.2917 215.12 71.761 214.832C72.241 214.544 72.6143 214.144 72.881 213.632C73.1477 213.12 73.281 212.544 73.281 211.904ZM81.9166 207.872C82.0553 207.872 82.1673 207.92 82.2526 208.016C82.3486 208.101 82.3966 208.213 82.3966 208.352V212.864C82.3966 213.909 82.1033 214.715 81.5166 215.28C80.93 215.835 80.1193 216.112 79.0846 216.112C78.0606 216.112 77.2553 215.835 76.6686 215.28C76.0926 214.715 75.8046 213.909 75.8046 212.864V208.352C75.8046 208.213 75.8473 208.101 75.9326 208.016C76.0286 207.92 76.146 207.872 76.2846 207.872C76.4233 207.872 76.5353 207.92 76.6206 208.016C76.7166 208.101 76.7646 208.213 76.7646 208.352V212.864C76.7646 213.632 76.9673 214.219 77.3726 214.624C77.778 215.019 78.3486 215.216 79.0846 215.216C79.8313 215.216 80.4073 215.019 80.8126 214.624C81.2286 214.219 81.4366 213.632 81.4366 212.864V208.352C81.4366 208.213 81.4793 208.101 81.5646 208.016C81.6606 207.92 81.778 207.872 81.9166 207.872ZM98.201 207.648C98.3397 207.648 98.4517 207.691 98.537 207.776C98.633 207.861 98.681 207.979 98.681 208.128C98.681 208.139 98.665 208.208 98.633 208.336L96.169 215.696C96.1157 215.792 96.0463 215.872 95.961 215.936C95.8757 215.989 95.785 216.011 95.689 216C95.593 216 95.5077 215.973 95.433 215.92C95.3583 215.867 95.2997 215.792 95.257 215.696L93.161 210.768L91.289 215.696C91.2463 215.781 91.1823 215.856 91.097 215.92C91.0223 215.973 90.9423 216 90.857 216C90.7503 216.011 90.649 215.989 90.553 215.936C90.4677 215.872 90.409 215.792 90.377 215.696L87.849 208.336C87.817 208.272 87.801 208.203 87.801 208.128C87.801 207.989 87.849 207.877 87.945 207.792C88.041 207.696 88.1583 207.648 88.297 207.648C88.393 207.648 88.4783 207.68 88.553 207.744C88.6383 207.797 88.697 207.872 88.729 207.968L90.857 214.352L92.761 209.568C92.8357 209.365 92.985 209.264 93.209 209.264C93.4223 209.264 93.5717 209.365 93.657 209.568L95.657 214.32L97.753 207.968C97.817 207.755 97.9663 207.648 98.201 207.648ZM106.823 207.824C106.961 207.824 107.073 207.872 107.159 207.968C107.255 208.064 107.303 208.181 107.303 208.32V215.52C107.303 215.659 107.255 215.776 107.159 215.872C107.073 215.957 106.961 216 106.823 216C106.684 216 106.567 215.957 106.471 215.872C106.385 215.776 106.343 215.659 106.343 215.52V214.448C106.076 214.928 105.676 215.333 105.143 215.664C104.609 215.995 104.028 216.16 103.399 216.16C102.684 216.16 102.039 215.973 101.463 215.6C100.897 215.227 100.449 214.715 100.119 214.064C99.7988 213.413 99.6388 212.683 99.6388 211.872C99.6388 211.061 99.8041 210.336 100.135 209.696C100.465 209.045 100.913 208.539 101.479 208.176C102.055 207.813 102.689 207.632 103.383 207.632C104.023 207.632 104.609 207.787 105.143 208.096C105.676 208.405 106.076 208.811 106.343 209.312V208.32C106.343 208.181 106.385 208.064 106.471 207.968C106.567 207.872 106.684 207.824 106.823 207.824ZM103.495 215.264C104.049 215.264 104.545 215.12 104.983 214.832C105.431 214.533 105.777 214.128 106.023 213.616C106.279 213.093 106.407 212.512 106.407 211.872C106.407 211.253 106.279 210.688 106.023 210.176C105.777 209.664 105.431 209.264 104.983 208.976C104.545 208.677 104.049 208.528 103.495 208.528C102.94 208.528 102.439 208.672 101.991 208.96C101.553 209.248 101.207 209.648 100.951 210.16C100.705 210.661 100.583 211.232 100.583 211.872C100.583 212.512 100.705 213.093 100.951 213.616C101.196 214.128 101.537 214.533 101.975 214.832C102.423 215.12 102.929 215.264 103.495 215.264ZM113.264 207.632C114.256 207.632 114.981 207.925 115.44 208.512C115.909 209.088 116.144 209.856 116.144 210.816V215.52C116.144 215.659 116.096 215.776 116 215.872C115.904 215.957 115.792 216 115.664 216C115.525 216 115.408 215.957 115.312 215.872C115.226 215.776 115.184 215.659 115.184 215.52V210.864C115.184 210.171 115.008 209.611 114.656 209.184C114.314 208.747 113.781 208.528 113.056 208.528C112.597 208.528 112.16 208.635 111.744 208.848C111.338 209.061 111.008 209.349 110.752 209.712C110.496 210.064 110.368 210.448 110.368 210.864V215.52C110.368 215.659 110.32 215.776 110.224 215.872C110.138 215.957 110.026 216 109.888 216C109.749 216 109.632 215.957 109.536 215.872C109.45 215.776 109.408 215.659 109.408 215.52V208.352C109.408 208.213 109.45 208.101 109.536 208.016C109.632 207.92 109.749 207.872 109.888 207.872C110.026 207.872 110.138 207.92 110.224 208.016C110.32 208.101 110.368 208.213 110.368 208.352V209.232C110.656 208.773 111.066 208.395 111.6 208.096C112.144 207.787 112.698 207.632 113.264 207.632ZM119.858 208.752V214.112C119.858 214.517 119.932 214.795 120.082 214.944C120.231 215.083 120.428 215.152 120.674 215.152C120.738 215.152 120.818 215.141 120.914 215.12C121.01 215.088 121.084 215.072 121.138 215.072C121.234 215.072 121.314 215.115 121.378 215.2C121.452 215.275 121.49 215.365 121.49 215.472C121.49 215.621 121.404 215.749 121.234 215.856C121.063 215.952 120.86 216 120.626 216C120.338 216 120.082 215.973 119.858 215.92C119.634 215.867 119.415 215.707 119.202 215.44C118.999 215.173 118.898 214.747 118.898 214.16V208.752H117.73C117.602 208.752 117.49 208.709 117.394 208.624C117.308 208.539 117.266 208.432 117.266 208.304C117.266 208.176 117.308 208.069 117.394 207.984C117.49 207.899 117.602 207.856 117.73 207.856H118.898V206.08C118.898 205.941 118.94 205.829 119.026 205.744C119.122 205.648 119.239 205.6 119.378 205.6C119.516 205.6 119.628 205.648 119.714 205.744C119.81 205.829 119.858 205.941 119.858 206.08V207.856H121.458C121.575 207.856 121.676 207.904 121.762 208C121.858 208.096 121.906 208.203 121.906 208.32C121.906 208.448 121.863 208.555 121.778 208.64C121.692 208.715 121.586 208.752 121.458 208.752H119.858ZM128.855 208.752V214.112C128.855 214.517 128.929 214.795 129.079 214.944C129.228 215.083 129.425 215.152 129.671 215.152C129.735 215.152 129.815 215.141 129.911 215.12C130.007 215.088 130.081 215.072 130.135 215.072C130.231 215.072 130.311 215.115 130.375 215.2C130.449 215.275 130.487 215.365 130.487 215.472C130.487 215.621 130.401 215.749 130.231 215.856C130.06 215.952 129.857 216 129.623 216C129.335 216 129.079 215.973 128.855 215.92C128.631 215.867 128.412 215.707 128.199 215.44C127.996 215.173 127.895 214.747 127.895 214.16V208.752H126.727C126.599 208.752 126.487 208.709 126.391 208.624C126.305 208.539 126.263 208.432 126.263 208.304C126.263 208.176 126.305 208.069 126.391 207.984C126.487 207.899 126.599 207.856 126.727 207.856H127.895V206.08C127.895 205.941 127.937 205.829 128.023 205.744C128.119 205.648 128.236 205.6 128.375 205.6C128.513 205.6 128.625 205.648 128.711 205.744C128.807 205.829 128.855 205.941 128.855 206.08V207.856H130.455C130.572 207.856 130.673 207.904 130.759 208C130.855 208.096 130.903 208.203 130.903 208.32C130.903 208.448 130.86 208.555 130.775 208.64C130.689 208.715 130.583 208.752 130.455 208.752H128.855ZM139.75 211.904C139.75 212.704 139.574 213.429 139.222 214.08C138.87 214.731 138.385 215.243 137.766 215.616C137.148 215.979 136.46 216.16 135.702 216.16C134.945 216.16 134.257 215.979 133.638 215.616C133.02 215.243 132.534 214.731 132.182 214.08C131.83 213.429 131.654 212.704 131.654 211.904C131.654 211.104 131.83 210.379 132.182 209.728C132.534 209.077 133.02 208.565 133.638 208.192C134.257 207.819 134.945 207.632 135.702 207.632C136.46 207.632 137.148 207.819 137.766 208.192C138.385 208.565 138.87 209.077 139.222 209.728C139.574 210.379 139.75 211.104 139.75 211.904ZM138.79 211.904C138.79 211.264 138.657 210.688 138.39 210.176C138.124 209.664 137.75 209.264 137.27 208.976C136.801 208.677 136.278 208.528 135.702 208.528C135.126 208.528 134.604 208.677 134.134 208.976C133.665 209.264 133.292 209.664 133.014 210.176C132.748 210.688 132.614 211.264 132.614 211.904C132.614 212.533 132.748 213.104 133.014 213.616C133.292 214.128 133.665 214.533 134.134 214.832C134.604 215.12 135.126 215.264 135.702 215.264C136.278 215.264 136.801 215.12 137.27 214.832C137.75 214.544 138.124 214.144 138.39 213.632C138.657 213.12 138.79 212.544 138.79 211.904ZM149.177 207.632C149.881 207.632 150.521 207.813 151.097 208.176C151.673 208.539 152.121 209.045 152.441 209.696C152.772 210.336 152.937 211.061 152.937 211.872C152.937 212.672 152.772 213.403 152.441 214.064C152.121 214.715 151.673 215.227 151.097 215.6C150.532 215.973 149.897 216.16 149.193 216.16C148.585 216.16 148.02 216.011 147.497 215.712C146.985 215.403 146.569 214.997 146.249 214.496V215.552C146.249 215.691 146.201 215.808 146.105 215.904C146.02 216 145.908 216.048 145.769 216.048C145.63 216.048 145.513 216 145.417 215.904C145.332 215.808 145.289 215.691 145.289 215.552V204.656C145.289 204.517 145.332 204.405 145.417 204.32C145.513 204.224 145.63 204.176 145.769 204.176C145.908 204.176 146.02 204.224 146.105 204.32C146.201 204.405 146.249 204.517 146.249 204.656V209.376C146.537 208.853 146.942 208.432 147.465 208.112C147.988 207.792 148.558 207.632 149.177 207.632ZM149.097 215.264C149.652 215.264 150.148 215.115 150.585 214.816C151.033 214.517 151.38 214.112 151.625 213.6C151.881 213.077 152.009 212.501 152.009 211.872C152.009 211.232 151.881 210.661 151.625 210.16C151.38 209.648 151.033 209.248 150.585 208.96C150.148 208.672 149.652 208.528 149.097 208.528C148.532 208.528 148.025 208.672 147.577 208.96C147.129 209.237 146.782 209.632 146.537 210.144C146.292 210.656 146.169 211.232 146.169 211.872C146.169 212.512 146.292 213.093 146.537 213.616C146.793 214.128 147.14 214.533 147.577 214.832C148.025 215.12 148.532 215.264 149.097 215.264ZM161.426 211.44C161.426 211.568 161.378 211.68 161.282 211.776C161.186 211.861 161.074 211.904 160.946 211.904H154.898C154.898 212.544 155.026 213.12 155.282 213.632C155.549 214.133 155.922 214.533 156.402 214.832C156.893 215.12 157.469 215.264 158.13 215.264C158.642 215.264 159.101 215.157 159.506 214.944C159.911 214.731 160.237 214.459 160.482 214.128C160.599 214.032 160.711 213.984 160.818 213.984C160.925 213.984 161.021 214.027 161.106 214.112C161.191 214.197 161.234 214.293 161.234 214.4C161.234 214.517 161.181 214.629 161.074 214.736C160.733 215.152 160.301 215.493 159.778 215.76C159.266 216.027 158.722 216.16 158.146 216.16C157.325 216.16 156.599 215.984 155.97 215.632C155.341 215.28 154.85 214.789 154.498 214.16C154.146 213.52 153.97 212.784 153.97 211.952C153.97 211.077 154.141 210.315 154.482 209.664C154.834 209.003 155.298 208.501 155.874 208.16C156.45 207.808 157.063 207.632 157.714 207.632C158.354 207.632 158.951 207.781 159.506 208.08C160.071 208.379 160.53 208.816 160.882 209.392C161.234 209.968 161.415 210.651 161.426 211.44ZM157.714 208.56C157.095 208.56 156.519 208.773 155.986 209.2C155.463 209.627 155.127 210.24 154.978 211.04H160.434V210.912C160.381 210.432 160.221 210.016 159.954 209.664C159.687 209.301 159.351 209.029 158.946 208.848C158.551 208.656 158.141 208.56 157.714 208.56ZM165.645 204.224C166.263 204.224 166.823 204.363 167.325 204.64C167.837 204.917 168.242 205.317 168.541 205.84C168.839 206.352 168.989 206.949 168.989 207.632C168.989 208.176 168.85 208.693 168.573 209.184C168.306 209.664 167.933 210.064 167.453 210.384C166.983 210.704 166.466 210.891 165.901 210.944V212.528C165.901 212.667 165.853 212.784 165.757 212.88C165.671 212.965 165.559 213.008 165.421 213.008C165.282 213.008 165.165 212.965 165.069 212.88C164.983 212.784 164.946 212.667 164.957 212.528V210.624C164.957 210.485 164.999 210.368 165.085 210.272C165.181 210.176 165.298 210.128 165.437 210.128C166.173 210.085 166.781 209.835 167.261 209.376C167.751 208.917 167.997 208.336 167.997 207.632C167.997 207.152 167.89 206.725 167.677 206.352C167.474 205.968 167.191 205.675 166.829 205.472C166.477 205.259 166.082 205.152 165.645 205.152C165.218 205.152 164.813 205.253 164.429 205.456C164.045 205.648 163.719 205.915 163.453 206.256C163.325 206.384 163.191 206.448 163.053 206.448C162.946 206.448 162.861 206.421 162.797 206.368C162.637 206.272 162.557 206.144 162.557 205.984C162.557 205.877 162.599 205.771 162.685 205.664C163.026 205.227 163.458 204.88 163.981 204.624C164.503 204.357 165.058 204.224 165.645 204.224ZM165.533 214.432C165.714 214.432 165.853 214.485 165.949 214.592C166.045 214.699 166.093 214.848 166.093 215.04V215.392C166.093 215.584 166.045 215.733 165.949 215.84C165.853 215.947 165.714 216 165.533 216H165.437C165.245 216 165.101 215.947 165.005 215.84C164.909 215.733 164.861 215.584 164.861 215.392V215.04C164.861 214.848 164.909 214.699 165.005 214.592C165.101 214.485 165.245 214.432 165.437 214.432H165.533Z" fill="white"/>
<path d="M50.7395 352C50.8261 352 50.8961 352.027 50.9495 352.08C51.0095 352.133 51.0395 352.203 51.0395 352.29C51.0395 352.377 51.0095 352.447 50.9495 352.5C50.8961 352.547 50.8261 352.57 50.7395 352.57H48.6695V358.7C48.6695 358.787 48.6395 358.86 48.5795 358.92C48.5195 358.973 48.4461 359 48.3595 359C48.2661 359 48.1895 358.973 48.1295 358.92C48.0761 358.86 48.0495 358.787 48.0495 358.7V352.57H45.9795C45.8928 352.57 45.8195 352.543 45.7595 352.49C45.7061 352.437 45.6795 352.367 45.6795 352.28C45.6795 352.2 45.7061 352.133 45.7595 352.08C45.8195 352.027 45.8928 352 45.9795 352H50.7395ZM54.9185 353.89C55.0052 353.89 55.0752 353.92 55.1285 353.98C55.1885 354.04 55.2185 354.113 55.2185 354.2V358.7C55.2185 358.787 55.1885 358.86 55.1285 358.92C55.0752 358.973 55.0052 359 54.9185 359C54.8319 359 54.7585 358.973 54.6985 358.92C54.6452 358.86 54.6185 358.787 54.6185 358.7V358.03C54.4519 358.33 54.2019 358.583 53.8685 358.79C53.5352 358.997 53.1719 359.1 52.7785 359.1C52.3319 359.1 51.9285 358.983 51.5685 358.75C51.2152 358.517 50.9352 358.197 50.7285 357.79C50.5285 357.383 50.4285 356.927 50.4285 356.42C50.4285 355.913 50.5319 355.46 50.7385 355.06C50.9452 354.653 51.2252 354.337 51.5785 354.11C51.9385 353.883 52.3352 353.77 52.7685 353.77C53.1685 353.77 53.5352 353.867 53.8685 354.06C54.2019 354.253 54.4519 354.507 54.6185 354.82V354.2C54.6185 354.113 54.6452 354.04 54.6985 353.98C54.7585 353.92 54.8319 353.89 54.9185 353.89ZM52.8385 358.54C53.1852 358.54 53.4952 358.45 53.7685 358.27C54.0485 358.083 54.2652 357.83 54.4185 357.51C54.5785 357.183 54.6585 356.82 54.6585 356.42C54.6585 356.033 54.5785 355.68 54.4185 355.36C54.2652 355.04 54.0485 354.79 53.7685 354.61C53.4952 354.423 53.1852 354.33 52.8385 354.33C52.4919 354.33 52.1785 354.42 51.8985 354.6C51.6252 354.78 51.4085 355.03 51.2485 355.35C51.0952 355.663 51.0185 356.02 51.0185 356.42C51.0185 356.82 51.0952 357.183 51.2485 357.51C51.4019 357.83 51.6152 358.083 51.8885 358.27C52.1685 358.45 52.4852 358.54 52.8385 358.54ZM58.8141 353.85C59.2541 353.85 59.6541 353.963 60.0141 354.19C60.3741 354.41 60.6541 354.72 60.8541 355.12C61.0608 355.513 61.1641 355.957 61.1641 356.45C61.1641 356.95 61.0608 357.4 60.8541 357.8C60.6541 358.193 60.3741 358.503 60.0141 358.73C59.6608 358.957 59.2641 359.07 58.8241 359.07C58.4375 359.07 58.0808 358.98 57.7541 358.8C57.4341 358.613 57.1775 358.367 56.9841 358.06V360.7C56.9841 360.787 56.9541 360.857 56.8941 360.91C56.8408 360.97 56.7708 361 56.6841 361C56.5975 361 56.5241 360.97 56.4641 360.91C56.4108 360.857 56.3841 360.787 56.3841 360.7V354.18C56.3841 354.093 56.4108 354.02 56.4641 353.96C56.5241 353.9 56.5975 353.87 56.6841 353.87C56.7708 353.87 56.8408 353.9 56.8941 353.96C56.9541 354.02 56.9841 354.093 56.9841 354.18V354.86C57.1575 354.547 57.4075 354.3 57.7341 354.12C58.0608 353.94 58.4208 353.85 58.8141 353.85ZM58.7641 358.51C59.1108 358.51 59.4208 358.423 59.6941 358.25C59.9741 358.07 60.1908 357.823 60.3441 357.51C60.5041 357.197 60.5841 356.843 60.5841 356.45C60.5841 356.063 60.5041 355.717 60.3441 355.41C60.1908 355.097 59.9741 354.853 59.6941 354.68C59.4208 354.5 59.1108 354.41 58.7641 354.41C58.4108 354.41 58.0941 354.497 57.8141 354.67C57.5341 354.843 57.3175 355.087 57.1641 355.4C57.0108 355.707 56.9341 356.057 56.9341 356.45C56.9341 356.843 57.0108 357.197 57.1641 357.51C57.3175 357.823 57.5341 358.07 57.8141 358.25C58.0941 358.423 58.4108 358.51 58.7641 358.51ZM65.3341 354.47V357.82C65.3341 358.073 65.3808 358.247 65.4741 358.34C65.5675 358.427 65.6908 358.47 65.8441 358.47C65.8841 358.47 65.9341 358.463 65.9941 358.45C66.0541 358.43 66.1008 358.42 66.1341 358.42C66.1941 358.42 66.2441 358.447 66.2841 358.5C66.3308 358.547 66.3541 358.603 66.3541 358.67C66.3541 358.763 66.3008 358.843 66.1941 358.91C66.0875 358.97 65.9608 359 65.8141 359C65.6341 359 65.4741 358.983 65.3341 358.95C65.1941 358.917 65.0575 358.817 64.9241 358.65C64.7975 358.483 64.7341 358.217 64.7341 357.85V354.47H64.0041C63.9241 354.47 63.8541 354.443 63.7941 354.39C63.7408 354.337 63.7141 354.27 63.7141 354.19C63.7141 354.11 63.7408 354.043 63.7941 353.99C63.8541 353.937 63.9241 353.91 64.0041 353.91H64.7341V352.8C64.7341 352.713 64.7608 352.643 64.8141 352.59C64.8741 352.53 64.9475 352.5 65.0341 352.5C65.1208 352.5 65.1908 352.53 65.2441 352.59C65.3041 352.643 65.3341 352.713 65.3341 352.8V353.91H66.3341C66.4075 353.91 66.4708 353.94 66.5241 354C66.5841 354.06 66.6141 354.127 66.6141 354.2C66.6141 354.28 66.5875 354.347 66.5341 354.4C66.4808 354.447 66.4141 354.47 66.3341 354.47H65.3341ZM71.994 356.44C71.994 356.94 71.884 357.393 71.664 357.8C71.444 358.207 71.1407 358.527 70.754 358.76C70.3673 358.987 69.9373 359.1 69.464 359.1C68.9907 359.1 68.5607 358.987 68.174 358.76C67.7873 358.527 67.484 358.207 67.264 357.8C67.044 357.393 66.934 356.94 66.934 356.44C66.934 355.94 67.044 355.487 67.264 355.08C67.484 354.673 67.7873 354.353 68.174 354.12C68.5607 353.887 68.9907 353.77 69.464 353.77C69.9373 353.77 70.3673 353.887 70.754 354.12C71.1407 354.353 71.444 354.673 71.664 355.08C71.884 355.487 71.994 355.94 71.994 356.44ZM71.394 356.44C71.394 356.04 71.3107 355.68 71.144 355.36C70.9773 355.04 70.744 354.79 70.444 354.61C70.1507 354.423 69.824 354.33 69.464 354.33C69.104 354.33 68.7773 354.423 68.484 354.61C68.1907 354.79 67.9573 355.04 67.784 355.36C67.6173 355.68 67.534 356.04 67.534 356.44C67.534 356.833 67.6173 357.19 67.784 357.51C67.9573 357.83 68.1907 358.083 68.484 358.27C68.7773 358.45 69.104 358.54 69.464 358.54C69.824 358.54 70.1507 358.45 70.444 358.27C70.744 358.09 70.9773 357.84 71.144 357.52C71.3107 357.2 71.394 356.84 71.394 356.44ZM76.1556 354.47V357.82C76.1556 358.073 76.2023 358.247 76.2956 358.34C76.389 358.427 76.5123 358.47 76.6656 358.47C76.7056 358.47 76.7556 358.463 76.8156 358.45C76.8756 358.43 76.9223 358.42 76.9556 358.42C77.0156 358.42 77.0656 358.447 77.1056 358.5C77.1523 358.547 77.1756 358.603 77.1756 358.67C77.1756 358.763 77.1223 358.843 77.0156 358.91C76.909 358.97 76.7823 359 76.6356 359C76.4556 359 76.2956 358.983 76.1556 358.95C76.0156 358.917 75.879 358.817 75.7456 358.65C75.619 358.483 75.5556 358.217 75.5556 357.85V354.47H74.8256C74.7456 354.47 74.6756 354.443 74.6156 354.39C74.5623 354.337 74.5356 354.27 74.5356 354.19C74.5356 354.11 74.5623 354.043 74.6156 353.99C74.6756 353.937 74.7456 353.91 74.8256 353.91H75.5556V352.8C75.5556 352.713 75.5823 352.643 75.6356 352.59C75.6956 352.53 75.769 352.5 75.8556 352.5C75.9423 352.5 76.0123 352.53 76.0656 352.59C76.1256 352.643 76.1556 352.713 76.1556 352.8V353.91H77.1556C77.229 353.91 77.2923 353.94 77.3456 354C77.4056 354.06 77.4356 354.127 77.4356 354.2C77.4356 354.28 77.409 354.347 77.3556 354.4C77.3023 354.447 77.2356 354.47 77.1556 354.47H76.1556ZM81.9543 353.8C82.041 353.8 82.111 353.83 82.1643 353.89C82.2243 353.943 82.2543 354.013 82.2543 354.1V358.51C82.2543 359.037 82.151 359.487 81.9443 359.86C81.7376 360.233 81.451 360.517 81.0843 360.71C80.7176 360.903 80.3043 361 79.8443 361C79.5643 361 79.301 360.97 79.0543 360.91C78.8143 360.85 78.6143 360.77 78.4543 360.67C78.3143 360.583 78.2443 360.487 78.2443 360.38C78.2443 360.367 78.251 360.333 78.2643 360.28C78.2843 360.213 78.3176 360.163 78.3643 360.13C78.411 360.097 78.461 360.08 78.5143 360.08C78.5543 360.08 78.5943 360.09 78.6343 360.11C79.061 360.343 79.4676 360.46 79.8543 360.46C80.4076 360.46 80.8443 360.287 81.1643 359.94C81.491 359.593 81.6543 359.12 81.6543 358.52V358.17C81.4876 358.45 81.2476 358.677 80.9343 358.85C80.621 359.017 80.281 359.1 79.9143 359.1C79.3343 359.1 78.8943 358.927 78.5943 358.58C78.2943 358.233 78.1443 357.763 78.1443 357.17V354.1C78.1443 354.013 78.171 353.943 78.2243 353.89C78.2843 353.83 78.3576 353.8 78.4443 353.8C78.531 353.8 78.601 353.83 78.6543 353.89C78.7143 353.943 78.7443 354.013 78.7443 354.1V357.08C78.7443 357.56 78.8476 357.923 79.0543 358.17C79.2676 358.417 79.5976 358.54 80.0443 358.54C80.3176 358.54 80.5776 358.473 80.8243 358.34C81.0776 358.2 81.2776 358.02 81.4243 357.8C81.5776 357.573 81.6543 357.333 81.6543 357.08V354.1C81.6543 354.013 81.681 353.943 81.7343 353.89C81.7943 353.83 81.8676 353.8 81.9543 353.8ZM85.8579 353.85C86.2979 353.85 86.6979 353.963 87.0579 354.19C87.4179 354.41 87.6979 354.72 87.8979 355.12C88.1046 355.513 88.2079 355.957 88.2079 356.45C88.2079 356.95 88.1046 357.4 87.8979 357.8C87.6979 358.193 87.4179 358.503 87.0579 358.73C86.7046 358.957 86.3079 359.07 85.8679 359.07C85.4812 359.07 85.1246 358.98 84.7979 358.8C84.4779 358.613 84.2212 358.367 84.0279 358.06V360.7C84.0279 360.787 83.9979 360.857 83.9379 360.91C83.8846 360.97 83.8146 361 83.7279 361C83.6412 361 83.5679 360.97 83.5079 360.91C83.4546 360.857 83.4279 360.787 83.4279 360.7V354.18C83.4279 354.093 83.4546 354.02 83.5079 353.96C83.5679 353.9 83.6412 353.87 83.7279 353.87C83.8146 353.87 83.8846 353.9 83.9379 353.96C83.9979 354.02 84.0279 354.093 84.0279 354.18V354.86C84.2012 354.547 84.4512 354.3 84.7779 354.12C85.1046 353.94 85.4646 353.85 85.8579 353.85ZM85.8079 358.51C86.1546 358.51 86.4646 358.423 86.7379 358.25C87.0179 358.07 87.2346 357.823 87.3879 357.51C87.5479 357.197 87.6279 356.843 87.6279 356.45C87.6279 356.063 87.5479 355.717 87.3879 355.41C87.2346 355.097 87.0179 354.853 86.7379 354.68C86.4646 354.5 86.1546 354.41 85.8079 354.41C85.4546 354.41 85.1379 354.497 84.8579 354.67C84.5779 354.843 84.3612 355.087 84.2079 355.4C84.0546 355.707 83.9779 356.057 83.9779 356.45C83.9779 356.843 84.0546 357.197 84.2079 357.51C84.3612 357.823 84.5779 358.07 84.8579 358.25C85.1379 358.423 85.4546 358.51 85.8079 358.51ZM93.3635 356.15C93.3635 356.23 93.3335 356.3 93.2735 356.36C93.2135 356.413 93.1435 356.44 93.0635 356.44H89.2835C89.2835 356.84 89.3635 357.2 89.5235 357.52C89.6902 357.833 89.9235 358.083 90.2235 358.27C90.5302 358.45 90.8902 358.54 91.3035 358.54C91.6235 358.54 91.9102 358.473 92.1635 358.34C92.4169 358.207 92.6202 358.037 92.7735 357.83C92.8469 357.77 92.9169 357.74 92.9835 357.74C93.0502 357.74 93.1102 357.767 93.1635 357.82C93.2169 357.873 93.2435 357.933 93.2435 358C93.2435 358.073 93.2102 358.143 93.1435 358.21C92.9302 358.47 92.6602 358.683 92.3335 358.85C92.0135 359.017 91.6735 359.1 91.3135 359.1C90.8002 359.1 90.3469 358.99 89.9535 358.77C89.5602 358.55 89.2535 358.243 89.0335 357.85C88.8135 357.45 88.7035 356.99 88.7035 356.47C88.7035 355.923 88.8102 355.447 89.0235 355.04C89.2435 354.627 89.5335 354.313 89.8935 354.1C90.2535 353.88 90.6369 353.77 91.0435 353.77C91.4435 353.77 91.8169 353.863 92.1635 354.05C92.5169 354.237 92.8035 354.51 93.0235 354.87C93.2435 355.23 93.3569 355.657 93.3635 356.15ZM91.0435 354.35C90.6569 354.35 90.2969 354.483 89.9635 354.75C89.6369 355.017 89.4269 355.4 89.3335 355.9H92.7435V355.82C92.7102 355.52 92.6102 355.26 92.4435 355.04C92.2769 354.813 92.0669 354.643 91.8135 354.53C91.5669 354.41 91.3102 354.35 91.0435 354.35ZM101.255 356.44C101.255 356.94 101.145 357.393 100.925 357.8C100.705 358.207 100.401 358.527 100.015 358.76C99.6279 358.987 99.1979 359.1 98.7245 359.1C98.2512 359.1 97.8212 358.987 97.4345 358.76C97.0479 358.527 96.7445 358.207 96.5245 357.8C96.3045 357.393 96.1945 356.94 96.1945 356.44C96.1945 355.94 96.3045 355.487 96.5245 355.08C96.7445 354.673 97.0479 354.353 97.4345 354.12C97.8212 353.887 98.2512 353.77 98.7245 353.77C99.1979 353.77 99.6279 353.887 100.015 354.12C100.401 354.353 100.705 354.673 100.925 355.08C101.145 355.487 101.255 355.94 101.255 356.44ZM100.655 356.44C100.655 356.04 100.571 355.68 100.405 355.36C100.238 355.04 100.005 354.79 99.7045 354.61C99.4112 354.423 99.0845 354.33 98.7245 354.33C98.3645 354.33 98.0379 354.423 97.7445 354.61C97.4512 354.79 97.2179 355.04 97.0445 355.36C96.8779 355.68 96.7945 356.04 96.7945 356.44C96.7945 356.833 96.8779 357.19 97.0445 357.51C97.2179 357.83 97.4512 358.083 97.7445 358.27C98.0379 358.45 98.3645 358.54 98.7245 358.54C99.0845 358.54 99.4112 358.45 99.7045 358.27C100.005 358.09 100.238 357.84 100.405 357.52C100.571 357.2 100.655 356.84 100.655 356.44ZM104.472 353.77C104.605 353.77 104.725 353.797 104.832 353.85C104.938 353.903 104.992 353.983 104.992 354.09C104.992 354.183 104.965 354.26 104.912 354.32C104.858 354.373 104.795 354.4 104.722 354.4C104.688 354.4 104.622 354.383 104.522 354.35C104.428 354.317 104.338 354.3 104.252 354.3C104.005 354.3 103.758 354.397 103.512 354.59C103.272 354.777 103.072 355.02 102.912 355.32C102.758 355.62 102.682 355.923 102.682 356.23V358.7C102.682 358.787 102.652 358.86 102.592 358.92C102.538 358.973 102.468 359 102.382 359C102.295 359 102.222 358.973 102.162 358.92C102.108 358.86 102.082 358.787 102.082 358.7V354.22C102.082 354.133 102.108 354.063 102.162 354.01C102.222 353.95 102.295 353.92 102.382 353.92C102.468 353.92 102.538 353.95 102.592 354.01C102.652 354.063 102.682 354.133 102.682 354.22V355.1C102.835 354.72 103.065 354.407 103.372 354.16C103.685 353.907 104.052 353.777 104.472 353.77ZM110.294 353.85C110.734 353.85 111.134 353.963 111.494 354.19C111.854 354.41 112.134 354.72 112.334 355.12C112.54 355.513 112.644 355.957 112.644 356.45C112.644 356.95 112.54 357.4 112.334 357.8C112.134 358.193 111.854 358.503 111.494 358.73C111.14 358.957 110.744 359.07 110.304 359.07C109.917 359.07 109.56 358.98 109.234 358.8C108.914 358.613 108.657 358.367 108.464 358.06V360.7C108.464 360.787 108.434 360.857 108.374 360.91C108.32 360.97 108.25 361 108.164 361C108.077 361 108.004 360.97 107.944 360.91C107.89 360.857 107.864 360.787 107.864 360.7V354.18C107.864 354.093 107.89 354.02 107.944 353.96C108.004 353.9 108.077 353.87 108.164 353.87C108.25 353.87 108.32 353.9 108.374 353.96C108.434 354.02 108.464 354.093 108.464 354.18V354.86C108.637 354.547 108.887 354.3 109.214 354.12C109.54 353.94 109.9 353.85 110.294 353.85ZM110.244 358.51C110.59 358.51 110.9 358.423 111.174 358.25C111.454 358.07 111.67 357.823 111.824 357.51C111.984 357.197 112.064 356.843 112.064 356.45C112.064 356.063 111.984 355.717 111.824 355.41C111.67 355.097 111.454 354.853 111.174 354.68C110.9 354.5 110.59 354.41 110.244 354.41C109.89 354.41 109.574 354.497 109.294 354.67C109.014 354.843 108.797 355.087 108.644 355.4C108.49 355.707 108.414 356.057 108.414 356.45C108.414 356.843 108.49 357.197 108.644 357.51C108.797 357.823 109.014 358.07 109.294 358.25C109.574 358.423 109.89 358.51 110.244 358.51ZM115.869 353.77C116.003 353.77 116.123 353.797 116.229 353.85C116.336 353.903 116.389 353.983 116.389 354.09C116.389 354.183 116.363 354.26 116.309 354.32C116.256 354.373 116.193 354.4 116.119 354.4C116.086 354.4 116.019 354.383 115.919 354.35C115.826 354.317 115.736 354.3 115.649 354.3C115.403 354.3 115.156 354.397 114.909 354.59C114.669 354.777 114.469 355.02 114.309 355.32C114.156 355.62 114.079 355.923 114.079 356.23V358.7C114.079 358.787 114.049 358.86 113.989 358.92C113.936 358.973 113.866 359 113.779 359C113.693 359 113.619 358.973 113.559 358.92C113.506 358.86 113.479 358.787 113.479 358.7V354.22C113.479 354.133 113.506 354.063 113.559 354.01C113.619 353.95 113.693 353.92 113.779 353.92C113.866 353.92 113.936 353.95 113.989 354.01C114.049 354.063 114.079 354.133 114.079 354.22V355.1C114.233 354.72 114.463 354.407 114.769 354.16C115.083 353.907 115.449 353.777 115.869 353.77ZM121.022 356.15C121.022 356.23 120.992 356.3 120.932 356.36C120.872 356.413 120.802 356.44 120.722 356.44H116.942C116.942 356.84 117.022 357.2 117.182 357.52C117.349 357.833 117.582 358.083 117.882 358.27C118.189 358.45 118.549 358.54 118.962 358.54C119.282 358.54 119.569 358.473 119.822 358.34C120.076 358.207 120.279 358.037 120.432 357.83C120.506 357.77 120.576 357.74 120.642 357.74C120.709 357.74 120.769 357.767 120.822 357.82C120.876 357.873 120.902 357.933 120.902 358C120.902 358.073 120.869 358.143 120.802 358.21C120.589 358.47 120.319 358.683 119.992 358.85C119.672 359.017 119.332 359.1 118.972 359.1C118.459 359.1 118.006 358.99 117.612 358.77C117.219 358.55 116.912 358.243 116.692 357.85C116.472 357.45 116.362 356.99 116.362 356.47C116.362 355.923 116.469 355.447 116.682 355.04C116.902 354.627 117.192 354.313 117.552 354.1C117.912 353.88 118.296 353.77 118.702 353.77C119.102 353.77 119.476 353.863 119.822 354.05C120.176 354.237 120.462 354.51 120.682 354.87C120.902 355.23 121.016 355.657 121.022 356.15ZM118.702 354.35C118.316 354.35 117.956 354.483 117.622 354.75C117.296 355.017 117.086 355.4 116.992 355.9H120.402V355.82C120.369 355.52 120.269 355.26 120.102 355.04C119.936 354.813 119.726 354.643 119.472 354.53C119.226 354.41 118.969 354.35 118.702 354.35ZM121.569 358.19C121.516 358.103 121.489 358.03 121.489 357.97C121.489 357.883 121.532 357.817 121.619 357.77C121.659 357.73 121.712 357.71 121.779 357.71C121.859 357.71 121.932 357.743 121.999 357.81C122.392 358.33 122.916 358.59 123.569 358.59C123.889 358.59 124.166 358.517 124.399 358.37C124.639 358.217 124.759 357.997 124.759 357.71C124.759 357.43 124.649 357.22 124.429 357.08C124.209 356.94 123.902 356.82 123.509 356.72C122.956 356.58 122.522 356.4 122.209 356.18C121.896 355.953 121.739 355.623 121.739 355.19C121.739 354.917 121.816 354.673 121.969 354.46C122.122 354.24 122.329 354.07 122.589 353.95C122.856 353.83 123.156 353.77 123.489 353.77C123.776 353.77 124.062 353.827 124.349 353.94C124.642 354.047 124.892 354.22 125.099 354.46C125.159 354.507 125.189 354.573 125.189 354.66C125.189 354.74 125.156 354.81 125.089 354.87C125.042 354.91 124.982 354.93 124.909 354.93C124.842 354.93 124.782 354.903 124.729 354.85C124.569 354.67 124.379 354.533 124.159 354.44C123.939 354.347 123.702 354.3 123.449 354.3C123.136 354.3 122.866 354.373 122.639 354.52C122.419 354.667 122.309 354.887 122.309 355.18C122.322 355.447 122.442 355.65 122.669 355.79C122.902 355.93 123.242 356.057 123.689 356.17C124.036 356.257 124.322 356.353 124.549 356.46C124.776 356.567 124.959 356.717 125.099 356.91C125.246 357.103 125.319 357.36 125.319 357.68C125.319 358.113 125.146 358.46 124.799 358.72C124.452 358.973 124.022 359.1 123.509 359.1C122.696 359.1 122.049 358.797 121.569 358.19ZM125.857 358.19C125.803 358.103 125.777 358.03 125.777 357.97C125.777 357.883 125.82 357.817 125.907 357.77C125.947 357.73 126 357.71 126.067 357.71C126.147 357.71 126.22 357.743 126.287 357.81C126.68 358.33 127.203 358.59 127.857 358.59C128.177 358.59 128.453 358.517 128.687 358.37C128.927 358.217 129.047 357.997 129.047 357.71C129.047 357.43 128.937 357.22 128.717 357.08C128.497 356.94 128.19 356.82 127.797 356.72C127.243 356.58 126.81 356.4 126.497 356.18C126.183 355.953 126.027 355.623 126.027 355.19C126.027 354.917 126.103 354.673 126.257 354.46C126.41 354.24 126.617 354.07 126.877 353.95C127.143 353.83 127.443 353.77 127.777 353.77C128.063 353.77 128.35 353.827 128.637 353.94C128.93 354.047 129.18 354.22 129.387 354.46C129.447 354.507 129.477 354.573 129.477 354.66C129.477 354.74 129.443 354.81 129.377 354.87C129.33 354.91 129.27 354.93 129.197 354.93C129.13 354.93 129.07 354.903 129.017 354.85C128.857 354.67 128.667 354.533 128.447 354.44C128.227 354.347 127.99 354.3 127.737 354.3C127.423 354.3 127.153 354.373 126.927 354.52C126.707 354.667 126.597 354.887 126.597 355.18C126.61 355.447 126.73 355.65 126.957 355.79C127.19 355.93 127.53 356.057 127.977 356.17C128.323 356.257 128.61 356.353 128.837 356.46C129.063 356.567 129.247 356.717 129.387 356.91C129.533 357.103 129.607 357.36 129.607 357.68C129.607 358.113 129.433 358.46 129.087 358.72C128.74 358.973 128.31 359.1 127.797 359.1C126.983 359.1 126.337 358.797 125.857 358.19ZM133.769 354.47V357.82C133.769 358.073 133.815 358.247 133.909 358.34C134.002 358.427 134.125 358.47 134.279 358.47C134.319 358.47 134.369 358.463 134.429 358.45C134.489 358.43 134.535 358.42 134.569 358.42C134.629 358.42 134.679 358.447 134.719 358.5C134.765 358.547 134.789 358.603 134.789 358.67C134.789 358.763 134.735 358.843 134.629 358.91C134.522 358.97 134.395 359 134.249 359C134.069 359 133.909 358.983 133.769 358.95C133.629 358.917 133.492 358.817 133.359 358.65C133.232 358.483 133.169 358.217 133.169 357.85V354.47H132.439C132.359 354.47 132.289 354.443 132.229 354.39C132.175 354.337 132.149 354.27 132.149 354.19C132.149 354.11 132.175 354.043 132.229 353.99C132.289 353.937 132.359 353.91 132.439 353.91H133.169V352.8C133.169 352.713 133.195 352.643 133.249 352.59C133.309 352.53 133.382 352.5 133.469 352.5C133.555 352.5 133.625 352.53 133.679 352.59C133.739 352.643 133.769 352.713 133.769 352.8V353.91H134.769C134.842 353.91 134.905 353.94 134.959 354C135.019 354.06 135.049 354.127 135.049 354.2C135.049 354.28 135.022 354.347 134.969 354.4C134.915 354.447 134.849 354.47 134.769 354.47H133.769ZM140.428 356.44C140.428 356.94 140.318 357.393 140.098 357.8C139.878 358.207 139.575 358.527 139.188 358.76C138.802 358.987 138.372 359.1 137.898 359.1C137.425 359.1 136.995 358.987 136.608 358.76C136.222 358.527 135.918 358.207 135.698 357.8C135.478 357.393 135.368 356.94 135.368 356.44C135.368 355.94 135.478 355.487 135.698 355.08C135.918 354.673 136.222 354.353 136.608 354.12C136.995 353.887 137.425 353.77 137.898 353.77C138.372 353.77 138.802 353.887 139.188 354.12C139.575 354.353 139.878 354.673 140.098 355.08C140.318 355.487 140.428 355.94 140.428 356.44ZM139.828 356.44C139.828 356.04 139.745 355.68 139.578 355.36C139.412 355.04 139.178 354.79 138.878 354.61C138.585 354.423 138.258 354.33 137.898 354.33C137.538 354.33 137.212 354.423 136.918 354.61C136.625 354.79 136.392 355.04 136.218 355.36C136.052 355.68 135.968 356.04 135.968 356.44C135.968 356.833 136.052 357.19 136.218 357.51C136.392 357.83 136.625 358.083 136.918 358.27C137.212 358.45 137.538 358.54 137.898 358.54C138.258 358.54 138.585 358.45 138.878 358.27C139.178 358.09 139.412 357.84 139.578 357.52C139.745 357.2 139.828 356.84 139.828 356.44ZM144.59 354.47V357.82C144.59 358.073 144.637 358.247 144.73 358.34C144.823 358.427 144.947 358.47 145.1 358.47C145.14 358.47 145.19 358.463 145.25 358.45C145.31 358.43 145.357 358.42 145.39 358.42C145.45 358.42 145.5 358.447 145.54 358.5C145.587 358.547 145.61 358.603 145.61 358.67C145.61 358.763 145.557 358.843 145.45 358.91C145.343 358.97 145.217 359 145.07 359C144.89 359 144.73 358.983 144.59 358.95C144.45 358.917 144.313 358.817 144.18 358.65C144.053 358.483 143.99 358.217 143.99 357.85V354.47H143.26C143.18 354.47 143.11 354.443 143.05 354.39C142.997 354.337 142.97 354.27 142.97 354.19C142.97 354.11 142.997 354.043 143.05 353.99C143.11 353.937 143.18 353.91 143.26 353.91H143.99V352.8C143.99 352.713 144.017 352.643 144.07 352.59C144.13 352.53 144.203 352.5 144.29 352.5C144.377 352.5 144.447 352.53 144.5 352.59C144.56 352.643 144.59 352.713 144.59 352.8V353.91H145.59C145.663 353.91 145.727 353.94 145.78 354C145.84 354.06 145.87 354.127 145.87 354.2C145.87 354.28 145.843 354.347 145.79 354.4C145.737 354.447 145.67 354.47 145.59 354.47H144.59ZM150.729 353.89C150.815 353.89 150.885 353.92 150.939 353.98C150.999 354.04 151.029 354.113 151.029 354.2V358.7C151.029 358.787 150.999 358.86 150.939 358.92C150.885 358.973 150.815 359 150.729 359C150.642 359 150.569 358.973 150.509 358.92C150.455 358.86 150.429 358.787 150.429 358.7V358.03C150.262 358.33 150.012 358.583 149.679 358.79C149.345 358.997 148.982 359.1 148.589 359.1C148.142 359.1 147.739 358.983 147.379 358.75C147.025 358.517 146.745 358.197 146.539 357.79C146.339 357.383 146.239 356.927 146.239 356.42C146.239 355.913 146.342 355.46 146.549 355.06C146.755 354.653 147.035 354.337 147.389 354.11C147.749 353.883 148.145 353.77 148.579 353.77C148.979 353.77 149.345 353.867 149.679 354.06C150.012 354.253 150.262 354.507 150.429 354.82V354.2C150.429 354.113 150.455 354.04 150.509 353.98C150.569 353.92 150.642 353.89 150.729 353.89ZM148.649 358.54C148.995 358.54 149.305 358.45 149.579 358.27C149.859 358.083 150.075 357.83 150.229 357.51C150.389 357.183 150.469 356.82 150.469 356.42C150.469 356.033 150.389 355.68 150.229 355.36C150.075 355.04 149.859 354.79 149.579 354.61C149.305 354.423 148.995 354.33 148.649 354.33C148.302 354.33 147.989 354.42 147.709 354.6C147.435 354.78 147.219 355.03 147.059 355.35C146.905 355.663 146.829 356.02 146.829 356.42C146.829 356.82 146.905 357.183 147.059 357.51C147.212 357.83 147.425 358.083 147.699 358.27C147.979 358.45 148.295 358.54 148.649 358.54ZM152.854 358.7C152.854 358.787 152.824 358.86 152.764 358.92C152.711 358.973 152.641 359 152.554 359C152.468 359 152.394 358.973 152.334 358.92C152.281 358.86 152.254 358.787 152.254 358.7V351.9C152.254 351.813 152.281 351.743 152.334 351.69C152.394 351.63 152.468 351.6 152.554 351.6C152.641 351.6 152.711 351.63 152.764 351.69C152.824 351.743 152.854 351.813 152.854 351.9V358.7ZM158.149 358.47C158.209 358.537 158.239 358.613 158.239 358.7C158.239 358.787 158.202 358.86 158.129 358.92C158.062 358.973 157.999 359 157.939 359C157.852 359 157.779 358.963 157.719 358.89L155.509 356.55L154.759 357.19V358.7C154.759 358.787 154.729 358.86 154.669 358.92C154.616 358.973 154.546 359 154.459 359C154.372 359 154.299 358.973 154.239 358.92C154.186 358.86 154.159 358.787 154.159 358.7V351.9C154.159 351.813 154.186 351.743 154.239 351.69C154.299 351.63 154.372 351.6 154.459 351.6C154.546 351.6 154.616 351.63 154.669 351.69C154.729 351.743 154.759 351.813 154.759 351.9V356.46L157.649 353.97C157.709 353.903 157.779 353.87 157.859 353.87C157.932 353.87 157.999 353.903 158.059 353.97C158.119 354.03 158.149 354.097 158.149 354.17C158.149 354.25 158.112 354.327 158.039 354.4L155.979 356.15L158.149 358.47Z" fill="white"/>
<path d="M143.209 88.3724C156.145 110.678 148.115 139.402 125.772 152.244C103.429 165.085 78.4065 159.396 65.4703 137.091C61.9567 131.033 56.3828 122.535 55.7858 116.002C54.185 98.4804 62.6511 80.8233 78.9256 71.4696C101.269 58.628 130.273 66.0673 143.209 88.3724Z" fill="#6EBC56"/>
<path d="M143.148 88.0021C156.032 110.387 148.385 139.011 126.068 151.936C103.238 165.158 80.0323 156.71 70.001 139.281C63.8189 128.541 56.4958 121.433 56.237 115.368C55.488 97.8114 63.2348 80.2406 79.4109 70.8724C101.728 57.9478 130.264 65.617 143.148 88.0021Z" fill="#82CC6B"/>
<path d="M143.106 87.9349C156.03 110.21 148.434 138.65 126.14 151.457C103.332 164.56 84.0932 155.984 74.0304 138.642C67.8289 127.954 56.7336 125.992 56.2413 114.982C55.4608 97.5292 63.1764 80.077 79.3362 70.7935C101.631 57.9857 130.181 65.6602 143.106 87.9349Z" fill="#8DD376"/>
<path d="M143.105 88.1269C156.022 110.575 148.446 139.229 126.184 152.126C103.41 165.32 88.2349 156.227 78.1785 138.748C71.9809 127.977 57.6459 130.32 56.36 115.348C54.8533 97.807 63.2738 80.1804 79.4099 70.8322C101.672 57.9352 130.189 65.6783 143.105 88.1269Z" fill="#A1E38C"/>
<path d="M143.112 87.7605C156.022 110.155 148.438 138.746 126.172 151.62C103.393 164.791 89.5868 152.499 81.0544 137.699C74.8596 126.953 59.58 133.085 56.3551 114.945C54.8533 97.4438 63.5127 80.2601 79.6523 70.9283C101.919 58.054 130.201 65.3661 143.112 87.7605Z" fill="#8DD376"/>
<path d="M142.311 88.6061C155.218 110.914 148.434 138.934 126.165 151.764C102.174 165.586 90.8719 146.516 84.2231 136.883C79.1756 129.57 59.5761 133.31 56.3544 115.24C54.8557 97.8042 63.5185 80.6835 79.6598 71.3839C101.929 58.554 129.404 66.2982 142.311 88.6061Z" fill="#82CC6B"/>
<path d="M142.318 88.7219C155.218 111.148 148.426 139.324 126.153 152.231C103.367 165.435 92.5373 145.453 87.134 137.214C81.7309 128.975 59.134 133.408 56.3532 115.528C54.8599 97.9977 63.5281 80.7805 79.6724 71.425C101.945 58.5179 129.419 66.2959 142.318 88.7219Z" fill="#6EBC56"/>
<path d="M143.638 87.2663C156.779 110.009 148.88 139.398 126.223 152.469C103.565 165.54 95.9741 144.424 88.0827 135.215C80.5262 126.397 59.7839 134.52 55.171 115.219C53.6407 97.4464 62.4511 79.9976 78.8741 70.5232C101.532 57.4522 130.498 64.5238 143.638 87.2663Z" fill="#24807B"/>
</g>
<defs>
<filter id="filter0_d" x="0" y="0" width="205" height="408" filterUnits="userSpaceOnUse" color-interpolation-filters="sRGB">
<feFlood flood-opacity="0" result="BackgroundImageFix"/>
<feColorMatrix in="SourceAlpha" type="matrix" values="0 0 0 0 0 0 0 0 0 0 0 0 0 0 0 0 0 0 127 0"/>
<feOffset dy="6"/>
<feGaussianBlur stdDeviation="7.5"/>
<feColorMatrix type="matrix" values="0 0 0 0 0 0 0 0 0 0 0 0 0 0 0 0 0 0 0.1 0"/>
<feBlend mode="normal" in2="BackgroundImageFix" result="effect1_dropShadow"/>
<feBlend mode="normal" in="SourceGraphic" in2="effect1_dropShadow" result="shape"/>
</filter>
</defs>
</svg>
